<svg width="40" height="40" viewBox="0 0 40 40" fill="none" xmlns="http://www.w3.org/2000/svg">
<g clip-path="url(#clip0_605_3786)">
<rect x="3" y="7.20361" width="34" height="24" rx="4" fill="#E75512"/>
<path d="M33 7.20312C35.2091 7.20312 37 8.99399 37 11.2031V27.2031L36.9951 27.4092C36.8913 29.4543 35.2512 31.0945 33.2061 31.1982L33 31.2031H26.2061C26.2796 33.6062 26.9578 34.9533 27.6836 35.6855C28.4578 36.4666 29.3656 36.6321 29.9219 36.5703L29.9229 36.582H31.25C31.6366 36.582 31.9502 36.8956 31.9502 37.2822C31.9499 37.6686 31.6364 37.9824 31.25 37.9824H8.75C8.36378 37.9822 8.05007 37.6684 8.0498 37.2822C8.0498 36.8958 8.36361 36.5823 8.75 36.582H10.5752L10.5762 36.5703C11.1324 36.6321 12.0402 36.4666 12.8145 35.6855C13.5403 34.9533 14.2185 33.6062 14.292 31.2031H7L6.79395 31.1982C4.7488 31.0945 3.10865 29.4543 3.00488 27.4092L3 27.2031V11.2031C3 8.99399 4.79086 7.20313 7 7.20312H33ZM15.6914 31.2031C15.6187 33.8022 14.8977 35.5155 13.8916 36.582H26.6064C25.6004 35.5155 24.8794 33.8022 24.8066 31.2031H15.6914ZM7 8.60352C5.56406 8.60352 4.40039 9.76718 4.40039 11.2031V27.2031C4.40039 28.6391 5.56406 29.8027 7 29.8027H33C34.4359 29.8027 35.5996 28.6391 35.5996 27.2031V11.2031C35.5996 9.76718 34.4359 8.60352 33 8.60352H7Z" fill="black"/>
<path d="M24.9572 23.3653L22.3721 19.0425L25.2406 17.6385L27.0544 22.3679C27.2486 22.8744 27.0037 23.4433 26.5023 23.6503L26.1971 23.7763C25.7391 23.9655 25.2116 23.7906 24.9572 23.3653Z" fill="white"/>
<ellipse cx="34.3817" cy="9.58137" rx="3.68255" ry="9.12602" transform="rotate(-25.7883 34.3817 9.58137)" fill="white"/>
<path d="M34.4925 9.30754C33.4749 7.56247 31.195 7.54316 30.6419 7.92826C30.5952 9.57966 32.3342 12.271 33.2096 13.4103C35.2708 13.0443 35.2682 10.6377 34.4925 9.30754Z" fill="#E75512"/>
<path d="M21.923 18.7731C27.2661 15.7919 34.316 16.237 36.3943 16.8419C34.1534 15.3821 29.7208 10.7258 29.9173 3.77856C28.5703 8.75577 22.6523 12.4161 19.2437 14.0063C18.6912 14.2641 18.462 14.9402 18.7693 15.4666L20.4866 18.409C20.776 18.9048 21.4216 19.0529 21.923 18.7731Z" fill="white"/>
<path fill-rule="evenodd" clip-rule="evenodd" d="M30.5901 1.29241C32.4484 0.666632 35.5758 3.58274 37.6998 7.97852L37.8997 8.40427C39.9085 12.7885 40.1278 16.9404 38.3541 17.7978L38.1791 17.8701C37.6131 18.0609 36.9296 17.9213 36.1923 17.513C35.2536 17.2415 33.0636 16.9797 30.4314 17.1615C29.0415 17.2574 27.5516 17.4777 26.0785 17.8726L27.7072 22.1167C28.0374 22.9776 27.6205 23.9451 26.7682 24.2971L26.4637 24.4233C25.6851 24.7447 24.7881 24.4467 24.3557 23.7237L21.8585 19.5489C21.305 19.6981 20.6969 19.5801 20.2524 19.2026L19.4601 19.6179C18.6344 20.0499 17.6141 19.7362 17.1734 18.9152L16.6593 17.956C16.2228 17.1422 16.5155 16.1283 17.3188 15.6729L17.9672 15.3054C17.8052 14.5291 18.2084 13.7175 18.948 13.3724C20.6139 12.5952 22.8901 11.3127 24.9049 9.62621C26.9292 7.93171 28.6224 5.88561 29.2422 3.59604C29.2435 3.59128 29.2451 3.58621 29.2465 3.58151C29.3586 2.48207 29.7439 1.68748 30.4142 1.36364L30.5901 1.29241ZM24.7372 18.2831C24.1909 18.4743 23.6522 18.6932 23.1271 18.942L25.5572 23.0055C25.6334 23.1329 25.7915 23.1858 25.9288 23.1293L26.2343 23.0031C26.3847 22.941 26.4578 22.7699 26.3995 22.618L24.7372 18.2831ZM18.0093 16.8912C17.8677 16.9715 17.8158 17.1498 17.8924 17.2933L18.4074 18.2536C18.4854 18.3979 18.6658 18.4535 18.8113 18.3773L19.4599 18.0371L18.5961 16.5571L18.0093 16.8912ZM21.1152 13.843C20.553 14.1475 20.0227 14.4165 19.5403 14.6416C19.342 14.7341 19.2854 14.962 19.3745 15.1146L21.0918 18.0569C21.1726 18.1945 21.3846 18.2726 21.5822 18.1626C22.0428 17.9056 22.5156 17.6746 22.995 17.465L21.1152 13.843ZM29.4641 6.56248C28.5188 8.14051 27.2026 9.52888 25.8036 10.6999C24.6741 11.6453 23.4714 12.4643 22.3326 13.1486L24.305 16.9501C26.3417 16.2415 28.4464 15.8951 30.3351 15.7646C31.721 15.6689 33.0124 15.6885 34.098 15.7743C33.0238 14.6039 31.9577 13.0234 31.0684 11.1829C30.2916 9.57507 29.754 7.98485 29.4641 6.56248ZM31.5244 2.69732C31.1608 2.56102 31.0321 2.62026 31.0233 2.62453C31.0196 2.62631 30.8894 2.68504 30.7676 3.06278C30.6444 3.44523 30.5772 4.02824 30.6293 4.81055C30.6741 5.48155 30.8032 6.24543 31.0187 7.06953C31.1057 7.05533 31.1922 7.04463 31.2765 7.03775C31.6563 7.00679 32.0972 7.03327 32.5487 7.13625C33.451 7.3422 34.4664 7.87394 35.0969 8.95512C35.5625 9.75375 35.7968 10.8599 35.601 11.8553C35.5012 12.3628 35.284 12.8666 34.9004 13.2784C34.7171 13.4751 34.5024 13.6414 34.2591 13.7761C34.7714 14.4582 35.29 15.0355 35.7885 15.488C36.3687 16.0147 36.8668 16.3239 37.2429 16.4651C37.6106 16.603 37.7387 16.54 37.7449 16.5369C37.7524 16.5334 37.8807 16.4715 38.0006 16.0996C38.1238 15.7172 38.192 15.1342 38.1399 14.3519C38.0361 12.7947 37.477 10.7362 36.4389 8.58765C35.4009 6.43955 34.136 4.72345 32.9807 3.67443C32.4002 3.14735 31.9006 2.83847 31.5244 2.69732ZM31.4374 8.43055C31.6803 9.12361 31.9766 9.84371 32.3293 10.5738C32.6836 11.3069 33.0649 11.9893 33.4587 12.6124C33.6374 12.536 33.7724 12.4356 33.8762 12.3243C34.0474 12.1405 34.1671 11.8909 34.2273 11.5849C34.3515 10.9532 34.1969 10.1909 33.8871 9.65948C33.5001 8.99626 32.8665 8.64474 32.2365 8.50102C31.9427 8.43404 31.6643 8.41696 31.4374 8.43055Z" fill="black"/>
</g>
<defs>
<clipPath id="clip0_605_3786">
<rect width="40" height="40" fill="white"/>
</clipPath>
</defs>
</svg>
