<svg width="40" height="40" viewBox="0 0 40 40" fill="none" xmlns="http://www.w3.org/2000/svg">
<path d="M34.0576 6.51156H27.0107C25.1982 3.81656 22.9582 1.86781 21.442 2.69031C20.982 2.93906 20.5045 3.50531 20.4707 4.75531C20.2518 5.3586 19.9901 5.9455 19.6876 6.51156H5.94385C5.09864 6.54365 4.30052 6.90906 3.72395 7.52791C3.14738 8.14675 2.83927 8.9687 2.86697 9.81406V27.4728C2.8391 28.3183 3.14714 29.1404 3.72372 29.7594C4.30031 30.3784 5.09853 30.7438 5.94385 30.7759H14.402C14.3745 32.8741 13.9276 35.8372 11.6695 36.2259C11.6486 36.2327 11.6282 36.2406 11.6082 36.2497H8.7526C8.58684 36.2497 8.42787 36.3155 8.31066 36.4327C8.19345 36.55 8.1276 36.7089 8.1276 36.8747C8.1276 37.0404 8.19345 37.1994 8.31066 37.3166C8.42787 37.4338 8.58684 37.4997 8.7526 37.4997H31.227C31.3927 37.4997 31.5517 37.4338 31.6689 37.3166C31.7861 37.1994 31.852 37.0404 31.852 36.8747C31.852 36.7089 31.7861 36.55 31.6689 36.4327C31.5517 36.3155 31.3927 36.2497 31.227 36.2497H28.2589C25.932 35.9947 25.362 33.2603 25.3338 30.7759H34.0576C34.9029 30.7438 35.7011 30.3784 36.2777 29.7594C36.8543 29.1404 37.1623 28.3183 37.1345 27.4728V9.81406C37.1622 8.9687 36.8541 8.14675 36.2775 7.52791C35.7009 6.90906 34.9028 6.54365 34.0576 6.51156ZM22.0382 3.78843C23.0307 3.60781 24.9538 5.26406 26.9838 8.87594C27.8286 10.3703 28.4318 11.9888 28.7713 13.6716C29.3282 17.0903 27.5613 16.0291 25.3851 13.4466C25.6278 13.3106 25.8408 13.1275 26.0117 12.908C26.1825 12.6885 26.3078 12.437 26.3801 12.1684C26.6166 11.233 26.477 10.2421 25.9913 9.40844C25.1226 7.80969 23.4945 7.06906 22.2807 7.71781C22.0779 7.12944 21.9211 6.52615 21.812 5.91344C21.5682 4.46531 21.8395 3.89656 22.0382 3.78843ZM14.5601 17.6359C14.3482 17.7897 14.1101 17.9016 13.8857 18.0547L13.8226 18.0366L13.6738 17.7616L12.1282 14.9091L12.1476 14.8466C12.7187 14.5898 13.2783 14.3078 13.8245 14.0016L15.367 17.1897C15.0982 17.3259 14.8351 17.4972 14.5601 17.6359ZM11.1382 16.5109L11.4751 16.3284L12.277 17.8091C12.2007 17.8341 11.8988 18.0591 11.877 17.9722L11.1195 16.5753C11.1134 16.5643 11.112 16.5513 11.1156 16.5393C11.1191 16.5272 11.1272 16.517 11.1382 16.5109ZM17.0763 17.7391L18.5113 21.4734C18.547 21.5673 18.5463 21.6711 18.5093 21.7644C18.4723 21.8577 18.4017 21.9338 18.3114 21.9777C18.2211 22.0216 18.1177 22.0301 18.0214 22.0016C17.9252 21.973 17.8431 21.9095 17.7913 21.8234L15.7463 18.4022C16.1805 18.1634 16.6242 17.9418 17.0763 17.7391ZM17.3126 16.2797C17.0303 16.3802 16.7547 16.4988 16.4876 16.6347L14.9026 13.3591C17.3748 11.8159 19.4043 9.65768 20.7926 7.09531C21.6235 10.059 23.1152 12.7959 25.1557 15.1003C22.485 14.8645 19.7959 15.2688 17.3126 16.2797ZM25.1813 11.8109C25.1496 11.9503 25.0818 12.0788 24.9847 12.1836C24.8876 12.2885 24.7647 12.366 24.6282 12.4084C23.8891 11.3078 23.2558 10.1397 22.737 8.91969C23.3432 8.40156 24.3426 9.02719 24.892 10.0041C25.2154 10.5471 25.319 11.194 25.1813 11.8109ZM25.6714 36.2497H14.0582C15.072 35.1191 15.622 33.2616 15.6513 30.7759H24.0857C24.1163 33.2647 24.6607 35.1222 25.6714 36.2497ZM35.8845 27.4728C35.912 27.9867 35.7355 28.4907 35.3934 28.8752C35.0513 29.2597 34.5712 29.4936 34.0576 29.5259H5.94447C5.43084 29.4936 4.95076 29.2597 4.60865 28.8752C4.26653 28.4907 4.09006 27.9867 4.1176 27.4728V9.81406C4.09006 9.30014 4.26653 8.79614 4.60865 8.41165C4.95076 8.02717 5.43084 7.79331 5.94447 7.76094H18.9407C17.1255 10.3997 14.5916 12.4625 11.6395 13.7047C11.3597 13.8284 11.1333 14.0479 11.001 14.3237C10.8686 14.5995 10.8391 14.9134 10.9176 15.2091L10.5426 15.4122C10.2408 15.5766 10.0164 15.854 9.91856 16.1835C9.82075 16.513 9.85749 16.8678 10.0207 17.1703L10.7782 18.5691C10.884 18.7461 11.0277 18.8975 11.1991 19.0123C11.3705 19.1271 11.5652 19.2025 11.7692 19.2329C11.9732 19.2633 12.1814 19.2481 12.3788 19.1883C12.5762 19.1286 12.7579 19.0257 12.9107 18.8872C13.1331 19.1266 13.4365 19.2747 13.7621 19.3028C14.0876 19.3309 14.4119 19.2369 14.672 19.0391L16.7195 22.4641C16.9349 22.8125 17.272 23.0686 17.6655 23.1827C18.0589 23.2968 18.4807 23.2609 18.8492 23.0817C19.2176 22.9026 19.5065 22.5931 19.6597 22.2132C19.813 21.8333 19.8198 21.41 19.6788 21.0253L18.2338 17.2647C21.0459 16.2029 24.1091 15.9963 27.0382 16.6709C27.3388 16.8881 27.6909 17.0231 28.0597 17.0624C28.4284 17.1018 28.8011 17.0442 29.1407 16.8953C31.4382 15.4472 29.1907 10.1616 27.7907 7.76094H34.057C34.5706 7.79331 35.0507 8.02717 35.3928 8.41165C35.7349 8.79614 35.9114 9.30014 35.8838 9.81406L35.8845 27.4728Z" fill="black"/>
<path d="M32.2022 9.86133C32.1201 9.86133 32.0388 9.87749 31.963 9.9089C31.8872 9.94031 31.8183 9.98635 31.7602 10.0444C31.7022 10.1024 31.6562 10.1713 31.6248 10.2472C31.5934 10.323 31.5772 10.4043 31.5772 10.4863C31.5772 10.5684 31.5934 10.6497 31.6248 10.7255C31.6562 10.8013 31.7022 10.8702 31.7602 10.9283C31.8183 10.9863 31.8872 11.0323 31.963 11.0638C32.0388 11.0952 32.1201 11.1113 32.2022 11.1113C32.3662 11.1117 32.5234 11.177 32.6393 11.2929C32.7553 11.4089 32.8206 11.5661 32.8209 11.7301V25.557C32.8206 25.721 32.7553 25.8781 32.6393 25.9941C32.5234 26.1101 32.3662 26.1754 32.2022 26.1757H7.79844C7.63444 26.1754 7.47725 26.1101 7.36128 25.9941C7.24531 25.8781 7.18002 25.721 7.17969 25.557V11.7307C7.17985 11.5666 7.24508 11.4092 7.36106 11.2931C7.47704 11.177 7.63433 11.1117 7.79844 11.1113H13.4022C13.5679 11.1113 13.7269 11.0455 13.8441 10.9283C13.9613 10.8111 14.0272 10.6521 14.0272 10.4863C14.0272 10.3206 13.9613 10.1616 13.8441 10.0444C13.7269 9.92718 13.5679 9.86133 13.4022 9.86133H7.79844C7.30302 9.86199 6.82808 10.0591 6.47776 10.4094C6.12745 10.7597 5.93035 11.2347 5.92969 11.7301V25.557C5.93035 26.0524 6.12745 26.5273 6.47776 26.8776C6.82808 27.2279 7.30302 27.425 7.79844 27.4257H32.2022C32.6976 27.425 33.1725 27.2279 33.5229 26.8776C33.8732 26.5273 34.0703 26.0524 34.0709 25.557V11.7307C34.0704 11.2352 33.8734 10.7601 33.5231 10.4096C33.1728 10.0592 32.6977 9.86199 32.2022 9.86133Z" fill="black"/>
<path d="M16.4873 16.6346C16.7545 16.4987 17.03 16.3801 17.3123 16.2796C19.7956 15.2687 22.4847 14.8644 25.1555 15.1002C23.115 12.7958 21.6232 10.0589 20.7923 7.09521C19.404 9.65758 17.3746 11.8158 14.9023 13.359L16.4873 16.6346Z" fill="#E75512"/>
</svg>
