<svg width="40" height="40" viewBox="0 0 40 40" fill="none" xmlns="http://www.w3.org/2000/svg">
<g clip-path="url(#clip0_320_2258)">
<path d="M32.75 0.49989H4.625C3.125 0.49989 2.41667 2.24996 2.25 3.125V31.75C2.35 30.55 4.54167 30.0833 5.625 30H30C34.2 30 34.5833 28.6667 34.25 28V3.87489C34.25 0.97489 33.25 0.416557 32.75 0.49989Z" fill="#E75512"/>
<path d="M5.90229 3.90718C6.02732 3.78215 6.19689 3.71191 6.3737 3.71191C6.55051 3.71191 6.72008 3.78215 6.8451 3.90718C6.97013 4.0322 7.04036 4.20177 7.04036 4.37858V5.71191C7.04036 5.88873 6.97013 6.05829 6.8451 6.18332C6.72008 6.30834 6.55051 6.37858 6.3737 6.37858C6.19689 6.37858 6.02732 6.30834 5.90229 6.18332C5.77727 6.05829 5.70703 5.88873 5.70703 5.71191V4.37858C5.70703 4.20177 5.77727 4.0322 5.90229 3.90718Z" fill="black"/>
<path d="M5.90229 7.90718C6.02732 7.78215 6.19689 7.71192 6.3737 7.71192C6.55051 7.71192 6.72008 7.78215 6.8451 7.90718C6.97013 8.0322 7.04036 8.20177 7.04036 8.37858V9.71192C7.04036 9.88873 6.97013 10.0583 6.8451 10.1833C6.72008 10.3083 6.55051 10.3786 6.3737 10.3786C6.19689 10.3786 6.02732 10.3083 5.90229 10.1833C5.77727 10.0583 5.70703 9.88873 5.70703 9.71192V8.37858C5.70703 8.20177 5.77727 8.0322 5.90229 7.90718Z" fill="black"/>
<path d="M5.90229 11.9072C6.02732 11.7822 6.19689 11.7119 6.3737 11.7119C6.55051 11.7119 6.72008 11.7822 6.8451 11.9072C6.97013 12.0322 7.04036 12.2018 7.04036 12.3786V13.7119C7.04036 13.8887 6.97013 14.0583 6.8451 14.1833C6.72008 14.3083 6.55051 14.3786 6.3737 14.3786C6.19689 14.3786 6.02732 14.3083 5.90229 14.1833C5.77727 14.0583 5.70703 13.8887 5.70703 13.7119V12.3786C5.70703 12.2018 5.77727 12.0322 5.90229 11.9072Z" fill="black"/>
<path d="M5.90229 15.9072C6.02732 15.7822 6.19689 15.7119 6.3737 15.7119C6.55051 15.7119 6.72008 15.7822 6.8451 15.9072C6.97013 16.0322 7.04036 16.2018 7.04036 16.3786V17.7119C7.04036 17.8887 6.97013 18.0583 6.8451 18.1833C6.72008 18.3083 6.55051 18.3786 6.3737 18.3786C6.19689 18.3786 6.02732 18.3083 5.90229 18.1833C5.77727 18.0583 5.70703 17.8887 5.70703 17.7119V16.3786C5.70703 16.2018 5.77727 16.0322 5.90229 15.9072Z" fill="black"/>
<path d="M5.90229 19.9072C6.02732 19.7822 6.19689 19.7119 6.3737 19.7119C6.55051 19.7119 6.72008 19.7822 6.8451 19.9072C6.97013 20.0322 7.04036 20.2018 7.04036 20.3786V21.7119C7.04036 21.8887 6.97013 22.0583 6.8451 22.1833C6.72008 22.3083 6.55051 22.3786 6.3737 22.3786C6.19689 22.3786 6.02732 22.3083 5.90229 22.1833C5.77727 22.0583 5.70703 21.8887 5.70703 21.7119V20.3786C5.70703 20.2018 5.77727 20.0322 5.90229 19.9072Z" fill="black"/>
<path d="M5.90229 23.9072C6.02732 23.7822 6.19689 23.7119 6.3737 23.7119C6.55051 23.7119 6.72008 23.7822 6.8451 23.9072C6.97013 24.0322 7.04036 24.2018 7.04036 24.3786V25.7119C7.04036 25.8887 6.97013 26.0583 6.8451 26.1833C6.72008 26.3083 6.55051 26.3786 6.3737 26.3786C6.19689 26.3786 6.02732 26.3083 5.90229 26.1833C5.77727 26.0583 5.70703 25.8887 5.70703 25.7119V24.3786C5.70703 24.2018 5.77727 24.0322 5.90229 23.9072Z" fill="black"/>
<path fill-rule="evenodd" clip-rule="evenodd" d="M5.58253 -0.19043H32.9159C33.4458 -0.188847 33.9536 0.022375 34.3283 0.397105C34.7031 0.771836 34.9143 1.27962 34.9159 1.80957V35.1429C34.9143 35.6729 34.7031 36.1806 34.3283 36.5554C33.9536 36.9301 33.4458 37.1413 32.9159 37.1429H16.0121C15.9105 37.7825 15.7229 38.5014 15.4407 39.3204C15.3738 39.5145 15.2124 39.6609 15.0127 39.7085C14.813 39.7562 14.6029 39.6984 14.4556 39.5554L12.733 37.8833L9.9422 39.6332C9.74166 39.759 9.48594 39.7551 9.28933 39.6233C9.09273 39.4914 8.992 39.2564 9.03216 39.0231C9.15646 38.3012 9.23319 37.6803 9.27074 37.1429H5.72253C4.71192 37.153 3.7329 36.791 2.97192 36.1259C2.21094 35.4609 1.72116 34.5391 1.59586 33.5362C1.58453 33.4056 1.58053 33.2742 1.58253 33.1429V3.80957C1.58253 2.7487 2.00395 1.73129 2.7541 0.981143C3.50424 0.230998 4.52166 -0.19043 5.58253 -0.19043ZM9.27792 35.8096C9.25494 35.5084 9.21368 35.2465 9.15792 35.0159C8.98064 34.2828 8.64849 33.8312 8.1979 33.4124H6.31289C5.98152 33.4124 5.71289 33.1438 5.71289 32.8124C5.71289 32.481 5.98152 32.2124 6.31289 32.2124H17.0629C17.3943 32.2124 17.6629 32.481 17.6629 32.8124C17.6629 33.1438 17.3943 33.4124 17.0629 33.4124H15.2211C15.5426 33.8244 15.8096 34.2999 15.9627 34.8877C16.0373 35.1738 16.0832 35.4794 16.0984 35.8096H30.2492C29.8115 34.9889 29.5825 34.073 29.5825 33.1429C29.5825 32.2128 29.8115 31.2969 30.2492 30.4762H5.58253C4.87625 30.4794 4.19981 30.7614 3.7004 31.2608C3.20098 31.7602 2.91902 32.4366 2.91586 33.1429C2.91586 33.2229 2.91586 33.3029 2.92253 33.3896C3.009 34.0671 3.34262 34.6888 3.85938 35.1354C4.37614 35.5821 5.03962 35.8221 5.72253 35.8096H9.27792ZM33.3873 35.6143C33.5123 35.4893 33.5825 35.3197 33.5825 35.1429V30.2962C33.3797 30.4131 33.1499 30.4751 32.9159 30.4762H32.2492C31.6225 30.4762 30.9159 31.6162 30.9159 33.1429C30.9159 34.6696 31.6225 35.8096 32.2492 35.8096H32.9159C33.0927 35.8096 33.2622 35.7393 33.3873 35.6143ZM33.3937 28.5485C33.5087 28.3185 33.5731 28.0665 33.5825 27.8096V1.80957C33.5825 1.63276 33.5123 1.46319 33.3873 1.33817C33.2622 1.21314 33.0927 1.1429 32.9159 1.1429H6.91586V1.80957C6.91586 1.98638 6.84562 2.15595 6.7206 2.28098C6.59557 2.406 6.426 2.47624 6.24919 2.47624C6.07238 2.47624 5.90281 2.406 5.77779 2.28098C5.65276 2.15595 5.58253 1.98638 5.58253 1.80957V1.1429C4.87528 1.1429 4.197 1.42386 3.69691 1.92395C3.19681 2.42405 2.91586 3.10233 2.91586 3.80957V30.1696C3.64634 29.508 4.59696 29.142 5.58253 29.1429V28.4762C5.58253 28.2994 5.65276 28.1299 5.77779 28.0048C5.90281 27.8798 6.07238 27.8096 6.24919 27.8096C6.426 27.8096 6.59557 27.8798 6.7206 28.0048C6.84562 28.1299 6.91586 28.2994 6.91586 28.4762V29.1429H32.9159C33.1158 28.9812 33.2787 28.7785 33.3937 28.5485ZM13.6392 33.4749C14.222 34.0211 14.623 34.5053 14.8015 35.1902C14.9653 35.819 14.9581 36.6877 14.5916 38.0151L13.231 36.6944C13.0327 36.5019 12.7285 36.4697 12.4944 36.6166L10.4029 37.928C10.5572 36.5705 10.521 35.5473 10.3243 34.7339C10.2036 34.2349 10.0252 33.8255 9.80716 33.4749H13.6392Z" fill="black"/>
<path fill-rule="evenodd" clip-rule="evenodd" d="M17.572 24.0721C17.4652 24.3427 17.3047 24.589 17.1002 24.7959C16.8979 25.0007 16.6565 25.1628 16.3905 25.2727C16.1196 25.3873 15.8278 25.4442 15.5336 25.4398C15.2415 25.4354 14.9535 25.3707 14.6877 25.2498C14.4261 25.1351 14.1899 24.9695 13.9928 24.7627C13.7921 24.5522 13.6361 24.3034 13.5341 24.0311C13.4321 23.7588 13.3862 23.4686 13.3992 23.1782C13.4122 22.8877 13.4837 22.6028 13.6096 22.3407L13.6105 22.3389L19.2269 10.6954L22.3166 12.0115L17.572 24.0721Z" fill="white"/>
<path fill-rule="evenodd" clip-rule="evenodd" d="M17.572 24.0721C17.4652 24.3427 17.3047 24.589 17.1002 24.7959C16.8979 25.0007 16.6565 25.1628 16.3905 25.2727C16.1196 25.3873 15.8278 25.4442 15.5336 25.4398C15.2415 25.4354 14.9535 25.3707 14.6877 25.2498C14.4261 25.1351 14.1899 24.9695 13.9928 24.7627C13.7921 24.5522 13.6361 24.3034 13.5341 24.0311C13.4321 23.7588 13.3862 23.4686 13.3992 23.1782C13.4122 22.8877 13.4837 22.6028 13.6096 22.3407L13.6105 22.3389L19.2269 10.6954L22.3166 12.0115L17.572 24.0721ZM14.5984 22.8154L19.7601 12.1147L20.9054 12.6026L16.5516 23.6697C16.4992 23.8025 16.4204 23.9234 16.3201 24.025C16.2197 24.1265 16.0997 24.2067 15.9675 24.2607C15.8357 24.3171 15.6934 24.3452 15.55 24.3431C15.4066 24.3409 15.2652 24.3086 15.1351 24.2483C15.0038 24.1918 14.8853 24.1094 14.7867 24.0059C14.6881 23.9025 14.6114 23.7801 14.5613 23.6463C14.5111 23.5125 14.4886 23.3699 14.495 23.2271C14.5013 23.0843 14.5365 22.9443 14.5984 22.8154Z" fill="black"/>
<path d="M22.9461 2.38194C23.4364 1.94425 24.2168 2.21052 24.3373 2.85665L24.9446 6.11183C24.9896 6.35287 25.1372 6.56243 25.349 6.68595L28.2095 8.35398C28.7773 8.68507 28.7652 9.50953 28.188 9.82384L25.2798 11.4073C25.0644 11.5246 24.9107 11.7297 24.8587 11.9693L24.1563 15.2053C24.0169 15.8476 23.229 16.0909 22.7517 15.639L20.3471 13.3625C20.169 13.1939 19.9264 13.1111 19.6824 13.1357L16.3878 13.4676C15.7338 13.5335 15.259 12.8594 15.5412 12.2658L16.9633 9.27536C17.0686 9.05392 17.0723 8.79762 16.9736 8.57319L15.6398 5.54234C15.3751 4.94074 15.8694 4.28084 16.5212 4.36587L19.8047 4.79421C20.0479 4.82593 20.2928 4.75031 20.4757 4.58702L22.9461 2.38194Z" fill="white"/>
</g>
<defs>
<clipPath id="clip0_320_2258">
<rect width="40" height="40" fill="white"/>
</clipPath>
</defs>
</svg>
