<svg width="40" height="40" viewBox="0 0 40 40" fill="none" xmlns="http://www.w3.org/2000/svg">
<g clip-path="url(#clip0_209_1345)">
<path fill-rule="evenodd" clip-rule="evenodd" d="M12.5952 25.5631C12.3605 25.8157 12.077 26.0181 11.7619 26.1582C11.45 26.2968 11.1136 26.3714 10.7725 26.3778C10.4241 26.3871 10.0774 26.3239 9.7547 26.1919C9.43418 26.0609 9.14426 25.8651 8.90311 25.6168C8.66401 25.3771 8.47483 25.0924 8.34661 24.779C8.21611 24.46 8.15146 24.1179 8.15653 23.7733C8.16159 23.4287 8.23628 23.0887 8.3761 22.7737C8.51591 22.4587 8.71798 22.1752 8.97013 21.9403L8.97185 21.9387L20.2011 11.5146L23.0425 14.3021L12.5952 25.5631ZM9.85629 22.8914L20.1763 13.3114L21.2296 14.3448L11.643 24.6781C11.5277 24.8021 11.3886 24.9015 11.2339 24.9702C11.0792 25.039 10.9122 25.0757 10.743 25.0781C10.5731 25.0834 10.4039 25.0529 10.2466 24.9886C10.0892 24.9243 9.94717 24.8276 9.82963 24.7048C9.70913 24.5857 9.61396 24.4435 9.54982 24.2867C9.48567 24.1299 9.45389 23.9618 9.45639 23.7924C9.45888 23.623 9.49559 23.4559 9.56431 23.3011C9.63303 23.1463 9.73235 23.0069 9.85629 22.8914Z" fill="black"/>
<path d="M29.0874 5.35215C29.8378 5.14275 30.5288 5.83379 30.3194 6.58414L29.2645 10.3644C29.1864 10.6443 29.2339 10.9444 29.3947 11.1865L31.5661 14.4557C31.9972 15.1046 31.5535 15.9754 30.7751 16.0081L26.8539 16.1729C26.5636 16.1852 26.2929 16.3231 26.1123 16.5508L23.6741 19.6262C23.1902 20.2367 22.2249 20.0838 21.9533 19.3537L20.5848 15.6753C20.4834 15.403 20.2686 15.1881 19.9962 15.0868L16.3179 13.7183C15.5877 13.4466 15.4349 12.4814 16.0453 11.9974L19.1207 9.55923C19.3485 9.37868 19.4864 9.10799 19.4986 8.81762L19.6635 4.8964C19.6962 4.11807 20.5669 3.6744 21.2159 4.10541L24.4851 6.27688C24.7272 6.43767 25.0272 6.4852 25.3072 6.40708L29.0874 5.35215Z" fill="#E75512"/>
<path d="M5.90229 3.90718C6.02732 3.78215 6.19689 3.71191 6.3737 3.71191C6.55051 3.71191 6.72008 3.78215 6.8451 3.90718C6.97013 4.0322 7.04036 4.20177 7.04036 4.37858V5.71191C7.04036 5.88873 6.97013 6.05829 6.8451 6.18332C6.72008 6.30834 6.55051 6.37858 6.3737 6.37858C6.19689 6.37858 6.02732 6.30834 5.90229 6.18332C5.77727 6.05829 5.70703 5.88873 5.70703 5.71191V4.37858C5.70703 4.20177 5.77727 4.0322 5.90229 3.90718Z" fill="black"/>
<path d="M5.90229 7.90718C6.02732 7.78215 6.19689 7.71192 6.3737 7.71192C6.55051 7.71192 6.72008 7.78215 6.8451 7.90718C6.97013 8.0322 7.04036 8.20177 7.04036 8.37858V9.71192C7.04036 9.88873 6.97013 10.0583 6.8451 10.1833C6.72008 10.3083 6.55051 10.3786 6.3737 10.3786C6.19689 10.3786 6.02732 10.3083 5.90229 10.1833C5.77727 10.0583 5.70703 9.88873 5.70703 9.71192V8.37858C5.70703 8.20177 5.77727 8.0322 5.90229 7.90718Z" fill="black"/>
<path d="M5.90229 11.9072C6.02732 11.7822 6.19689 11.7119 6.3737 11.7119C6.55051 11.7119 6.72008 11.7822 6.8451 11.9072C6.97013 12.0322 7.04036 12.2018 7.04036 12.3786V13.7119C7.04036 13.8887 6.97013 14.0583 6.8451 14.1833C6.72008 14.3083 6.55051 14.3786 6.3737 14.3786C6.19689 14.3786 6.02732 14.3083 5.90229 14.1833C5.77727 14.0583 5.70703 13.8887 5.70703 13.7119V12.3786C5.70703 12.2018 5.77727 12.0322 5.90229 11.9072Z" fill="black"/>
<path d="M5.90229 15.9072C6.02732 15.7822 6.19689 15.7119 6.3737 15.7119C6.55051 15.7119 6.72008 15.7822 6.8451 15.9072C6.97013 16.0322 7.04036 16.2018 7.04036 16.3786V17.7119C7.04036 17.8887 6.97013 18.0583 6.8451 18.1833C6.72008 18.3083 6.55051 18.3786 6.3737 18.3786C6.19689 18.3786 6.02732 18.3083 5.90229 18.1833C5.77727 18.0583 5.70703 17.8887 5.70703 17.7119V16.3786C5.70703 16.2018 5.77727 16.0322 5.90229 15.9072Z" fill="black"/>
<path d="M5.90229 19.9072C6.02732 19.7822 6.19689 19.7119 6.3737 19.7119C6.55051 19.7119 6.72008 19.7822 6.8451 19.9072C6.97013 20.0322 7.04036 20.2018 7.04036 20.3786V21.7119C7.04036 21.8887 6.97013 22.0583 6.8451 22.1833C6.72008 22.3083 6.55051 22.3786 6.3737 22.3786C6.19689 22.3786 6.02732 22.3083 5.90229 22.1833C5.77727 22.0583 5.70703 21.8887 5.70703 21.7119V20.3786C5.70703 20.2018 5.77727 20.0322 5.90229 19.9072Z" fill="black"/>
<path d="M5.90229 23.9072C6.02732 23.7822 6.19689 23.7119 6.3737 23.7119C6.55051 23.7119 6.72008 23.7822 6.8451 23.9072C6.97013 24.0322 7.04036 24.2018 7.04036 24.3786V25.7119C7.04036 25.8887 6.97013 26.0583 6.8451 26.1833C6.72008 26.3083 6.55051 26.3786 6.3737 26.3786C6.19689 26.3786 6.02732 26.3083 5.90229 26.1833C5.77727 26.0583 5.70703 25.8887 5.70703 25.7119V24.3786C5.70703 24.2018 5.77727 24.0322 5.90229 23.9072Z" fill="black"/>
<path d="M18.2463 7.32464C18.0715 7.32616 17.9031 7.25896 17.7773 7.13753L15.7773 5.13753C15.6559 5.01179 15.5887 4.84339 15.5902 4.66859C15.5917 4.49379 15.6618 4.32658 15.7854 4.20298C15.909 4.07937 16.0763 4.00926 16.2511 4.00774C16.4259 4.00622 16.5943 4.07342 16.72 4.19486L18.72 6.19486C18.8414 6.32059 18.9086 6.48899 18.9071 6.66379C18.9056 6.83859 18.8355 7.0058 18.7119 7.1294C18.5883 7.25301 18.4211 7.32312 18.2463 7.32464Z" fill="black"/>
<path d="M14.7533 10.6462L12.0867 9.97953C11.9163 9.93554 11.7695 9.82596 11.6796 9.67469C11.5896 9.52342 11.5632 9.34272 11.6059 9.17201C11.6487 9.0013 11.7572 8.85442 11.9078 8.76341C12.0585 8.67241 12.239 8.64465 12.41 8.68619L15.0767 9.35286C15.2455 9.39816 15.3898 9.50799 15.4785 9.65867C15.5671 9.80935 15.5931 9.98883 15.5507 10.1584C15.5083 10.3281 15.4009 10.4742 15.2518 10.5655C15.1026 10.6567 14.9236 10.6857 14.7533 10.6462Z" fill="black"/>
<path d="M26.1209 20.264C26.1725 20.3363 26.2092 20.4182 26.2287 20.5049L26.896 23.1715C26.9388 23.3431 26.9116 23.5247 26.8206 23.6763C26.7295 23.8279 26.5819 23.9371 26.4103 23.9799C26.2387 24.0226 26.0572 23.9955 25.9056 23.9044C25.754 23.8134 25.6448 23.6658 25.602 23.4942L24.9353 20.8275C24.9118 20.7418 24.9057 20.6523 24.9173 20.5642C24.9289 20.4762 24.958 20.3913 25.0028 20.3146C25.0477 20.2379 25.1074 20.1709 25.1785 20.1177C25.2496 20.0644 25.3307 20.0259 25.4169 20.0044C25.5031 19.9829 25.5927 19.9788 25.6805 19.9924C25.7683 20.0061 25.8525 20.0371 25.9281 20.0837C26.0037 20.1304 26.0693 20.1916 26.1209 20.264Z" fill="black"/>
<path d="M28.9177 16.6744C29.0925 16.6729 29.2609 16.7401 29.3867 16.8615L31.3867 18.8615C31.5081 18.9873 31.5753 19.1557 31.5738 19.3305C31.5723 19.5053 31.5021 19.6725 31.3785 19.7961C31.2549 19.9197 31.0877 19.9898 30.9129 19.9913C30.7381 19.9928 30.5697 19.9256 30.444 19.8042L28.444 17.8042C28.3225 17.6785 28.2554 17.5101 28.2569 17.3353C28.2584 17.1605 28.3285 16.9933 28.4521 16.8696C28.5757 16.746 28.7429 16.6759 28.9177 16.6744Z" fill="black"/>
<path fill-rule="evenodd" clip-rule="evenodd" d="M5.58253 -0.19043H32.9159C33.4458 -0.188847 33.9536 0.022375 34.3283 0.397105C34.7031 0.771836 34.9143 1.27962 34.9159 1.80957V35.1429C34.9143 35.6729 34.7031 36.1806 34.3283 36.5554C33.9536 36.9301 33.4458 37.1413 32.9159 37.1429H16.0121C15.9105 37.7825 15.7229 38.5014 15.4407 39.3204C15.3738 39.5145 15.2124 39.6609 15.0127 39.7085C14.813 39.7562 14.6029 39.6984 14.4556 39.5554L12.733 37.8833L9.9422 39.6332C9.74166 39.759 9.48594 39.7551 9.28933 39.6233C9.09273 39.4914 8.992 39.2564 9.03216 39.0231C9.15646 38.3012 9.23319 37.6803 9.27074 37.1429H5.72253C4.71192 37.153 3.7329 36.791 2.97192 36.1259C2.21094 35.4609 1.72116 34.5391 1.59586 33.5362C1.58453 33.4056 1.58053 33.2742 1.58253 33.1429V3.80957C1.58253 2.7487 2.00395 1.73129 2.7541 0.981143C3.50424 0.230998 4.52166 -0.19043 5.58253 -0.19043ZM9.27792 35.8096C9.25494 35.5084 9.21368 35.2465 9.15792 35.0159C8.98064 34.2828 8.64849 33.8312 8.1979 33.4124H6.31289C5.98152 33.4124 5.71289 33.1438 5.71289 32.8124C5.71289 32.481 5.98152 32.2124 6.31289 32.2124H17.0629C17.3943 32.2124 17.6629 32.481 17.6629 32.8124C17.6629 33.1438 17.3943 33.4124 17.0629 33.4124H15.2211C15.5426 33.8244 15.8096 34.2999 15.9627 34.8877C16.0373 35.1738 16.0832 35.4794 16.0984 35.8096H30.2492C29.8115 34.9889 29.5825 34.073 29.5825 33.1429C29.5825 32.2128 29.8115 31.2969 30.2492 30.4762H5.58253C4.87625 30.4794 4.19981 30.7614 3.7004 31.2608C3.20098 31.7602 2.91902 32.4366 2.91586 33.1429C2.91586 33.2229 2.91586 33.3029 2.92253 33.3896C3.009 34.0671 3.34262 34.6888 3.85938 35.1354C4.37614 35.5821 5.03962 35.8221 5.72253 35.8096H9.27792ZM33.3873 35.6143C33.5123 35.4893 33.5825 35.3197 33.5825 35.1429V30.2962C33.3797 30.4131 33.1499 30.4751 32.9159 30.4762H32.2492C31.6225 30.4762 30.9159 31.6162 30.9159 33.1429C30.9159 34.6696 31.6225 35.8096 32.2492 35.8096H32.9159C33.0927 35.8096 33.2622 35.7393 33.3873 35.6143ZM33.3937 28.5485C33.5087 28.3185 33.5731 28.0665 33.5825 27.8096V1.80957C33.5825 1.63276 33.5123 1.46319 33.3873 1.33817C33.2622 1.21314 33.0927 1.1429 32.9159 1.1429H6.91586V1.80957C6.91586 1.98638 6.84562 2.15595 6.7206 2.28098C6.59557 2.406 6.426 2.47624 6.24919 2.47624C6.07238 2.47624 5.90281 2.406 5.77779 2.28098C5.65276 2.15595 5.58253 1.98638 5.58253 1.80957V1.1429C4.87528 1.1429 4.197 1.42386 3.69691 1.92395C3.19681 2.42405 2.91586 3.10233 2.91586 3.80957V30.1696C3.64634 29.508 4.59696 29.142 5.58253 29.1429V28.4762C5.58253 28.2994 5.65276 28.1299 5.77779 28.0048C5.90281 27.8798 6.07238 27.8096 6.24919 27.8096C6.426 27.8096 6.59557 27.8798 6.7206 28.0048C6.84562 28.1299 6.91586 28.2994 6.91586 28.4762V29.1429H32.9159C33.1158 28.9812 33.2787 28.7785 33.3937 28.5485ZM13.6392 33.4749C14.222 34.0211 14.623 34.5053 14.8015 35.1902C14.9653 35.819 14.9581 36.6877 14.5916 38.0151L13.231 36.6944C13.0327 36.5019 12.7285 36.4697 12.4944 36.6166L10.4029 37.928C10.5572 36.5705 10.521 35.5473 10.3243 34.7339C10.2036 34.2349 10.0252 33.8255 9.80716 33.4749H13.6392Z" fill="black"/>
</g>
<defs>
<clipPath id="clip0_209_1345">
<rect width="40" height="40" fill="white"/>
</clipPath>
</defs>
</svg>
