<svg width="40" height="40" viewBox="0 0 40 40" fill="none" xmlns="http://www.w3.org/2000/svg">
<g clip-path="url(#clip0_209_1402)">
<path d="M39.4263 28.1919V22.2877C39.4244 20.4768 37.957 19.0094 36.1462 19.0076H33.5221V12.4473C33.5221 12.2733 33.453 12.1065 33.3299 11.9835C33.2069 11.8604 33.0401 11.7913 32.8661 11.7913H28.9299C28.7559 11.7913 28.5891 11.8604 28.466 11.9835C28.343 12.1065 28.2739 12.2733 28.2739 12.4473V19.0076H22.3697V11.1353C22.3697 10.9613 22.3006 10.7944 22.1776 10.6714C22.0545 10.5484 21.8877 10.4793 21.7137 10.4793H17.7775C17.6036 10.4793 17.4367 10.5484 17.3137 10.6714C17.1906 10.7944 17.1215 10.9613 17.1215 11.1353V19.0076H11.2173V12.4473C11.2173 12.2733 11.1482 12.1065 11.0252 11.9835C10.9021 11.8604 10.7353 11.7913 10.5613 11.7913H6.62516C6.45117 11.7913 6.28431 11.8604 6.16128 11.9835C6.03825 12.1065 5.96913 12.2733 5.96913 12.4473V19.0076H3.34504C1.53458 19.0094 0.0672247 20.4768 0.0649286 22.2877V28.1919C0.0540063 28.8828 0.231427 29.5637 0.578151 30.1614C0.924875 30.7591 1.42781 31.2511 2.033 31.5847V38.6882H0.720951C0.546963 38.6882 0.380101 38.7573 0.257073 38.8803C0.134045 39.0033 0.0649286 39.1702 0.0649286 39.3442C0.0649286 39.5182 0.134045 39.685 0.257073 39.8081C0.380101 39.9311 0.546963 40.0002 0.720951 40.0002H38.7703C38.9443 40.0002 39.1111 39.9311 39.2341 39.8081C39.3572 39.685 39.4263 39.5182 39.4263 39.3442C39.4263 39.1702 39.3572 39.0033 39.2341 38.8803C39.1111 38.7573 38.9443 38.6882 38.7703 38.6882H37.4582V31.5946C38.0549 31.2487 38.5506 30.7526 38.8959 30.1556C39.2412 29.5585 39.4241 28.8816 39.4263 28.1919ZM29.586 13.1034H32.21V19.0076H29.586V13.1034ZM18.4336 11.7913H21.0577V19.0076H18.4336V11.7913ZM7.28118 13.1034H9.90527V19.0076H7.28118V13.1034ZM1.37697 22.2877C1.37697 21.2004 2.25826 20.3196 3.34504 20.3196H36.1462C37.2334 20.3196 38.1142 21.2004 38.1142 22.2877V28.1919C38.1131 28.7019 37.9642 29.2007 37.6856 29.628C37.407 30.0552 37.0107 30.3926 36.5444 30.5993C36.0592 30.8037 35.5247 30.8608 35.0073 30.7637C34.4899 30.6665 34.0125 30.4193 33.6346 30.0529C33.1421 29.5587 32.8657 28.8894 32.8661 28.1918V25.5677C32.8645 25.082 32.7278 24.6063 32.4713 24.1939C32.2149 23.7814 31.8487 23.4485 31.4138 23.2323L31.3737 23.2105C31.2687 23.1608 31.1604 23.1185 31.0495 23.0839C30.9842 23.0621 30.9243 23.0407 30.8593 23.025C30.7753 23.0057 30.6904 22.9907 30.6049 22.9801C30.5473 22.9718 30.4922 22.9545 30.4335 22.95C30.4022 22.95 30.372 22.9545 30.3413 22.9533C30.3102 22.952 30.2762 22.9436 30.2421 22.9436C30.1693 22.9436 30.0991 22.9587 30.027 22.9644C29.9547 22.9705 29.8781 22.9737 29.8044 22.9863C29.691 23.0074 29.5791 23.0361 29.4694 23.072C29.4101 23.0903 29.3499 23.1034 29.2923 23.1259C29.1699 23.1756 29.0517 23.2348 28.9386 23.303C28.8973 23.3267 28.8533 23.3437 28.8127 23.3686C28.6595 23.468 28.5171 23.583 28.3876 23.7117C28.1429 23.9548 27.9489 24.244 27.8168 24.5626C27.6846 24.8812 27.617 25.2228 27.6179 25.5677V26.8798C27.6179 28.3289 26.4433 29.5038 24.9938 29.5038C23.5447 29.5038 22.3697 28.3289 22.3697 26.8798V25.5677C22.3681 25.082 22.2315 24.6063 21.975 24.1939C21.7185 23.7814 21.3523 23.4485 20.9174 23.2323L20.8773 23.2105C20.7723 23.1608 20.664 23.1185 20.5532 23.0839C20.4878 23.0621 20.428 23.0407 20.3629 23.025C20.279 23.0057 20.1941 22.9907 20.1086 22.9801C20.0509 22.9718 19.9958 22.9545 19.9372 22.95C19.9058 22.95 19.8757 22.9545 19.8449 22.9533C19.8138 22.952 19.7799 22.9436 19.7457 22.9436C19.673 22.9436 19.6028 22.9587 19.5307 22.9644C19.4584 22.9705 19.3818 22.9737 19.3081 22.9863C19.195 23.0073 19.0832 23.0362 18.9736 23.072C18.9138 23.0903 18.8536 23.1034 18.7959 23.1259C18.674 23.1756 18.5563 23.2346 18.4436 23.3024C18.4016 23.3262 18.3571 23.3437 18.3164 23.368C18.1631 23.467 18.0206 23.5818 17.8913 23.7105C17.6464 23.9537 17.4523 24.2431 17.3202 24.5619C17.1881 24.8807 17.1205 25.2226 17.1215 25.5677V29.5038C17.1215 30.953 15.9469 32.1279 14.4974 32.1279C13.0484 32.1279 11.8733 30.953 11.8733 29.5038V25.5677C11.8718 25.082 11.7351 24.6063 11.4786 24.1939C11.2221 23.7814 10.856 23.4485 10.4211 23.2323L10.381 23.2105C10.276 23.1608 10.1677 23.1185 10.0568 23.0839C9.99145 23.0621 9.93159 23.0407 9.86656 23.025C9.78259 23.0057 9.69769 22.9907 9.61219 22.9801C9.55454 22.9718 9.49944 22.9545 9.44081 22.95C9.37705 22.9455 9.31316 22.9434 9.24925 22.9436C7.80017 22.9436 6.62516 24.1182 6.62516 25.5677V28.1918C6.62622 28.8869 6.35189 29.5541 5.8622 30.0474C5.54204 30.3556 5.15093 30.5803 4.72339 30.7016C4.29585 30.8229 3.84503 30.837 3.41073 30.7428C3.2537 30.7096 3.10006 30.662 2.95176 30.6006C2.652 30.4685 2.3788 30.2828 2.1455 30.0529C1.65303 29.5587 1.37664 28.8894 1.37697 28.1918V22.2877ZM3.34504 38.6882V32.0735C3.41073 32.0844 3.47641 32.0873 3.54209 32.095L3.59236 32.1004C4.1664 32.1596 4.74645 32.0924 5.29171 31.9034C5.45831 31.8447 5.62084 31.7751 5.77823 31.6949C5.81185 31.6785 5.84391 31.6606 5.87885 31.6424C6.00619 31.5732 6.12971 31.4971 6.24884 31.4146C6.28689 31.3886 6.32535 31.3643 6.36283 31.3367C6.85765 30.9766 7.25888 30.5031 7.53284 29.9559C7.8068 29.4087 7.94549 28.8038 7.93728 28.1919V25.5678C7.93693 25.3955 7.97078 25.2248 8.03687 25.0656C8.10296 24.9065 8.19997 24.762 8.32229 24.6407C8.38789 24.5756 8.46005 24.5173 8.53754 24.4674C8.55132 24.4591 8.56633 24.453 8.58018 24.4453C8.64447 24.4059 8.7118 24.3723 8.78158 24.3447C8.80209 24.337 8.82291 24.3323 8.84341 24.3259C8.90755 24.3041 8.97334 24.2876 9.04014 24.2765C9.07146 24.2713 9.10574 24.2701 9.13649 24.2666C9.19166 24.2614 9.24708 24.2595 9.30247 24.2608C9.34377 24.2627 9.38495 24.2669 9.4258 24.2733C9.47508 24.279 9.52412 24.2881 9.57217 24.3002C9.58857 24.304 9.60358 24.3101 9.61924 24.3146C9.89822 24.4164 10.1387 24.6023 10.3075 24.8466C10.4762 25.0909 10.5649 25.3816 10.5613 25.6786V29.5038C10.5613 31.6776 12.3238 33.44 14.4974 33.44C16.6715 33.44 18.4336 31.6776 18.4336 29.5038V25.5677C18.4336 25.3485 18.4887 25.1328 18.5938 24.9404C18.6989 24.748 18.8507 24.5852 19.0351 24.4667C19.0464 24.4597 19.0595 24.4549 19.0707 24.4479C19.1372 24.4071 19.2072 24.3724 19.2798 24.3441C19.2984 24.337 19.3174 24.3328 19.3356 24.3271C19.3999 24.3052 19.4658 24.2881 19.5326 24.2758C19.5641 24.2713 19.5983 24.2694 19.6271 24.2666C19.6822 24.2611 19.738 24.2592 19.7937 24.2608C19.835 24.2627 19.876 24.2669 19.917 24.2733C19.9664 24.279 20.0151 24.2881 20.0634 24.3002C20.0798 24.304 20.0948 24.3101 20.1105 24.3146C20.3904 24.4155 20.632 24.6011 20.8017 24.8455C20.9714 25.0899 21.0609 25.381 21.0577 25.6786V26.8798C21.0577 29.0535 22.8201 30.8159 24.9938 30.8159C27.1679 30.8159 28.9299 29.0535 28.9299 26.8798V25.5677C28.9296 25.3954 28.9635 25.2247 29.0296 25.0656C29.0957 24.9065 29.1927 24.762 29.315 24.6407C29.3806 24.5756 29.4528 24.5173 29.5303 24.4674C29.544 24.4591 29.5591 24.453 29.5735 24.4443C29.6376 24.4056 29.7048 24.3723 29.7744 24.3447C29.7949 24.337 29.8163 24.3323 29.84 24.3259C29.9031 24.304 29.9678 24.2877 30.0335 24.2765C30.0648 24.2713 30.0991 24.2701 30.1299 24.2666C30.185 24.2614 30.2405 24.2595 30.2958 24.2608C30.3372 24.2627 30.3783 24.2669 30.4192 24.2733C30.4685 24.279 30.5175 24.2881 30.5656 24.3002C30.5819 24.304 30.597 24.3101 30.6126 24.3146C30.8915 24.4165 31.1318 24.6024 31.3005 24.8467C31.4691 25.0911 31.5577 25.3817 31.554 25.6786V28.1918C31.5535 28.7096 31.6551 29.2224 31.8529 29.7009C32.0507 30.1794 32.3409 30.6143 32.7069 30.9805C32.8371 31.1075 32.9758 31.2255 33.1221 31.3336C33.1647 31.3643 33.2085 31.3918 33.2534 31.4213C33.3624 31.4964 33.4751 31.566 33.591 31.6298C33.7661 31.7255 33.9481 31.8079 34.1355 31.8765C34.1631 31.8864 34.19 31.8989 34.2182 31.9082C34.5781 32.0309 34.9537 32.1016 35.3335 32.118H35.338C35.5209 32.1254 35.7042 32.1199 35.8864 32.1016L35.9521 32.0942C36.0178 32.0873 36.0834 32.0844 36.1491 32.0735V38.6882L3.34504 38.6882ZM19.7456 9.16722C21.5564 9.16492 23.0238 7.69748 23.0257 5.88711C23.0257 4.31233 20.7434 0.928069 20.2857 0.265978C20.2221 0.18325 20.1403 0.116244 20.0467 0.0701344C19.9531 0.0240247 19.8501 4.41074e-05 19.7458 4.41074e-05C19.6414 4.41074e-05 19.5385 0.0240247 19.4449 0.0701344C19.3512 0.116244 19.2695 0.18325 19.2059 0.265978C18.7478 0.928069 16.4655 4.31233 16.4655 5.88703C16.4678 7.69749 17.9352 9.16501 19.7456 9.16722Z" fill="black"/>
<path d="M11.8727 7.19912C11.8708 9.0095 10.4034 10.4769 8.59261 10.4792C6.78216 10.477 5.3148 9.00958 5.3125 7.19912C5.3125 5.62434 7.5948 2.24008 8.05287 1.57799C8.11648 1.49526 8.19824 1.42826 8.29185 1.38215C8.38547 1.33604 8.48842 1.31206 8.59278 1.31206C8.69713 1.31206 8.80009 1.33604 8.8937 1.38215C8.98731 1.42826 9.06908 1.49526 9.13268 1.57799C9.59042 2.24008 11.8727 5.62434 11.8727 7.19912Z" fill="#E75512"/>
<path d="M23.0257 5.88711C23.0238 7.69748 21.5564 9.16492 19.7456 9.16722C17.9352 9.16501 16.4678 7.69749 16.4655 5.88703C16.4655 4.31233 18.7478 0.928069 19.2059 0.265978C19.2695 0.18325 19.3512 0.116244 19.4449 0.0701344C19.5385 0.0240247 19.6414 4.41074e-05 19.7458 4.41074e-05C19.8501 4.41074e-05 19.9531 0.0240247 20.0467 0.0701344C20.1403 0.116244 20.2221 0.18325 20.2857 0.265978C20.7434 0.928069 23.0257 4.31233 23.0257 5.88711Z" fill="#E75512"/>
<path d="M34.154 7.19912C34.1521 9.0095 32.6847 10.4769 30.8739 10.4792C29.0634 10.477 27.596 9.00958 27.5938 7.19912C27.5938 5.62434 29.8761 2.24008 30.3341 1.57799C30.3977 1.49526 30.4795 1.42826 30.5731 1.38215C30.6667 1.33604 30.7697 1.31206 30.874 1.31206C30.9784 1.31206 31.0813 1.33604 31.1749 1.38215C31.2686 1.42826 31.3503 1.49526 31.4139 1.57799C31.8717 2.24008 34.154 5.62434 34.154 7.19912Z" fill="#E75512"/>
</g>
<defs>
<clipPath id="clip0_209_1402">
<rect width="40" height="40" fill="white"/>
</clipPath>
</defs>
</svg>
