<svg width="40" height="40" viewBox="0 0 40 40" fill="none" xmlns="http://www.w3.org/2000/svg">
<g clip-path="url(#clip0_320_2241)">
<path d="M39.4263 22.2874V28.1916C39.4241 28.8813 39.2412 29.5583 38.8959 30.1553C38.5506 30.7523 38.0549 31.2485 37.4582 31.5944V31.6946C35.8838 32.4396 34.224 31.9617 33.591 31.6296C33.4751 31.5657 33.3624 31.4961 33.2534 31.4211C33.2085 31.3916 33.1647 31.3641 33.1221 31.3333C32.9758 31.2252 32.8371 31.1073 32.7069 30.9803C32.3409 30.614 32.0507 30.1792 31.8529 29.7007C31.6551 29.2222 31.5535 28.7093 31.554 28.1916V25.6783C31.5577 25.3815 31.4691 25.0908 31.3005 24.8465C31.1318 24.6022 30.8915 24.4162 30.6126 24.3144C30.597 24.3099 30.5819 24.3038 30.5656 24.3C30.5175 24.2878 30.4685 24.2788 30.4192 24.2731C30.3783 24.2667 30.3372 24.2625 30.2958 24.2606C30.2405 24.2593 30.185 24.2612 30.1299 24.2663C30.0991 24.2699 30.0648 24.2711 30.0335 24.2763C29.9678 24.2875 29.9031 24.3038 29.84 24.3256C29.8163 24.332 29.7949 24.3368 29.7744 24.3445C29.7048 24.372 29.6376 24.4054 29.5735 24.4441C29.5591 24.4527 29.544 24.4589 29.5303 24.4672C29.4528 24.5171 29.3806 24.5754 29.315 24.6404C29.1927 24.7618 29.0957 24.9062 29.0296 25.0654C28.9635 25.2245 28.9296 25.3952 28.9299 25.5675V26.8795C28.9299 29.0532 27.1679 30.8157 24.9938 30.8157C22.8201 30.8157 21.0577 29.0532 21.0577 26.8795V25.6783C21.0609 25.3808 20.9714 25.0896 20.8017 24.8452C20.632 24.6008 20.3904 24.4153 20.1105 24.3144C20.0948 24.3099 20.0798 24.3038 20.0634 24.3C20.0151 24.2878 19.9664 24.2788 19.917 24.2731C19.876 24.2667 19.835 24.2625 19.7937 24.2606C19.738 24.2589 19.6822 24.2608 19.6271 24.2663C19.5983 24.2692 19.5641 24.2711 19.5326 24.2756C19.4658 24.2878 19.3999 24.305 19.3356 24.3269C19.3174 24.3326 19.2984 24.3368 19.2798 24.3438C19.2072 24.3721 19.1372 24.4069 19.0707 24.4476C19.0595 24.4547 19.0464 24.4594 19.0351 24.4665C18.8507 24.5849 18.6989 24.7478 18.5938 24.9402C18.4887 25.1325 18.4336 25.3483 18.4336 25.5675V29.5036C18.4336 31.6773 16.6715 33.4397 14.4974 33.4397C12.3238 33.4397 10.5613 31.6773 10.5613 29.5036V25.6783C10.5649 25.3814 10.4762 25.0907 10.3075 24.8464C10.1387 24.602 9.89822 24.4161 9.61924 24.3144C9.60358 24.3099 9.58857 24.3038 9.57217 24.3C9.52412 24.2878 9.47508 24.2788 9.4258 24.2731C9.38495 24.2667 9.34377 24.2625 9.30247 24.2606C9.24708 24.2593 9.19166 24.2612 9.13649 24.2663C9.10574 24.2699 9.07146 24.2711 9.04014 24.2763C8.97334 24.2874 8.90755 24.3039 8.84341 24.3256C8.82291 24.332 8.80209 24.3368 8.78158 24.3445C8.7118 24.372 8.64447 24.4057 8.58018 24.445C8.56633 24.4527 8.55132 24.4589 8.53754 24.4672C8.46005 24.5171 8.38789 24.5754 8.32229 24.6404C8.19997 24.7618 8.10296 24.9063 8.03687 25.0654C7.97078 25.2246 7.93693 25.3952 7.93728 25.5676V28.1916C7.94549 28.8035 7.8068 29.4085 7.53284 29.9557C7.25888 30.5029 6.85765 30.9764 6.36283 31.3365C6.32535 31.3641 6.28689 31.3884 6.24884 31.4144C6.12971 31.4969 6.00619 31.5729 5.87885 31.6422C5.84391 31.6604 5.81185 31.6782 5.77823 31.6946C5.62084 31.7748 5.29171 31.9032 5.29171 31.9032C4.69042 32.1254 3.19687 32.3727 2.033 31.5844C1.42781 31.2509 0.924875 30.7589 0.578151 30.1611C0.231427 29.5634 0.0540063 28.8826 0.0649286 28.1916V22.2874C0.0672247 20.4766 1.53458 19.0092 3.34504 19.0073H36.1462C37.957 19.0091 39.4244 20.4766 39.4263 22.2874Z" fill="#E75512"/>
<path d="M39.4263 28.1918V22.2876C39.4244 20.4768 37.957 19.0093 36.1462 19.0075H33.5221V12.4473C33.5221 12.2733 33.453 12.1064 33.3299 11.9834C33.2069 11.8604 33.0401 11.7913 32.8661 11.7913H28.9299C28.7559 11.7913 28.5891 11.8604 28.466 11.9834C28.343 12.1064 28.2739 12.2733 28.2739 12.4473V19.0075H22.3697V11.1352C22.3697 10.9613 22.3006 10.7944 22.1776 10.6714C22.0545 10.5483 21.8877 10.4792 21.7137 10.4792H17.7775C17.6036 10.4792 17.4367 10.5483 17.3137 10.6714C17.1906 10.7944 17.1215 10.9613 17.1215 11.1352V19.0075H11.2173V12.4473C11.2173 12.2733 11.1482 12.1064 11.0252 11.9834C10.9021 11.8604 10.7353 11.7913 10.5613 11.7913H6.62516C6.45117 11.7913 6.28431 11.8604 6.16128 11.9834C6.03825 12.1064 5.96913 12.2733 5.96913 12.4473V19.0075H3.34504C1.53458 19.0094 0.0672247 20.4768 0.0649286 22.2876V28.1918C0.0540063 28.8828 0.231427 29.5636 0.578151 30.1613C0.924875 30.7591 1.42781 31.2511 2.033 31.5846V38.6881H0.720951C0.546963 38.6881 0.380101 38.7572 0.257073 38.8803C0.134045 39.0033 0.0649286 39.1702 0.0649286 39.3441C0.0649286 39.5181 0.134045 39.685 0.257073 39.808C0.380101 39.931 0.546963 40.0002 0.720951 40.0002H38.7703C38.9443 40.0002 39.1111 39.931 39.2341 39.808C39.3572 39.685 39.4263 39.5181 39.4263 39.3441C39.4263 39.1702 39.3572 39.0033 39.2341 38.8803C39.1111 38.7572 38.9443 38.6881 38.7703 38.6881H37.4582V31.5945C38.0549 31.2487 38.5506 30.7525 38.8959 30.1555C39.2412 29.5585 39.4241 28.8815 39.4263 28.1918ZM29.586 13.1033H32.21V19.0075H29.586V13.1033ZM18.4336 11.7913H21.0577V19.0075H18.4336V11.7913ZM7.28118 13.1033H9.90527V19.0075H7.28118V13.1033ZM1.37697 22.2876C1.37697 21.2004 2.25826 20.3196 3.34504 20.3196H36.1462C37.2334 20.3196 38.1142 21.2004 38.1142 22.2876V28.1918C38.1131 28.7019 37.9642 29.2007 37.6856 29.6279C37.407 30.0552 37.0107 30.3925 36.5444 30.5993C36.0592 30.8036 35.5247 30.8608 35.0073 30.7636C34.4899 30.6665 34.0125 30.4193 33.6346 30.0528C33.1421 29.5587 32.8657 28.8894 32.8661 28.1917V25.5677C32.8645 25.082 32.7278 24.6063 32.4713 24.1939C32.2149 23.7814 31.8487 23.4484 31.4138 23.2322L31.3737 23.2104C31.2687 23.1608 31.1604 23.1185 31.0495 23.0839C30.9842 23.0621 30.9243 23.0407 30.8593 23.0249C30.7753 23.0056 30.6904 22.9907 30.6049 22.9801C30.5473 22.9718 30.4922 22.9545 30.4335 22.95C30.4022 22.95 30.372 22.9545 30.3413 22.9532C30.3102 22.9519 30.2762 22.9436 30.2421 22.9436C30.1693 22.9436 30.0991 22.9587 30.027 22.9644C29.9547 22.9705 29.8781 22.9737 29.8044 22.9862C29.691 23.0074 29.5791 23.0361 29.4694 23.072C29.4101 23.0903 29.3499 23.1034 29.2923 23.1259C29.1699 23.1755 29.0517 23.2348 28.9386 23.303C28.8973 23.3267 28.8533 23.3437 28.8127 23.3686C28.6595 23.4679 28.5171 23.5829 28.3876 23.7117C28.1429 23.9548 27.9489 24.244 27.8168 24.5625C27.6846 24.8811 27.617 25.2228 27.6179 25.5677V26.8797C27.6179 28.3289 26.4433 29.5038 24.9938 29.5038C23.5447 29.5038 22.3697 28.3289 22.3697 26.8797V25.5677C22.3681 25.082 22.2315 24.6063 21.975 24.1939C21.7185 23.7814 21.3523 23.4484 20.9174 23.2322L20.8773 23.2104C20.7723 23.1608 20.664 23.1185 20.5532 23.0839C20.4878 23.0621 20.428 23.0407 20.3629 23.0249C20.279 23.0056 20.1941 22.9907 20.1086 22.9801C20.0509 22.9718 19.9958 22.9545 19.9372 22.95C19.9058 22.95 19.8757 22.9545 19.8449 22.9532C19.8138 22.9519 19.7799 22.9436 19.7457 22.9436C19.673 22.9436 19.6028 22.9587 19.5307 22.9644C19.4584 22.9705 19.3818 22.9737 19.3081 22.9862C19.195 23.0073 19.0832 23.0362 18.9736 23.072C18.9138 23.0903 18.8536 23.1034 18.7959 23.1259C18.674 23.1755 18.5563 23.2345 18.4436 23.3023C18.4016 23.3261 18.3571 23.3437 18.3164 23.3679C18.1631 23.467 18.0206 23.5818 17.8913 23.7105C17.6464 23.9537 17.4523 24.2431 17.3202 24.5619C17.1881 24.8807 17.1205 25.2226 17.1215 25.5677V29.5038C17.1215 30.953 15.9469 32.1279 14.4974 32.1279C13.0484 32.1279 11.8733 30.953 11.8733 29.5038V25.5677C11.8718 25.082 11.7351 24.6063 11.4786 24.1939C11.2221 23.7814 10.856 23.4484 10.4211 23.2322L10.381 23.2104C10.276 23.1608 10.1677 23.1185 10.0568 23.0839C9.99145 23.0621 9.93159 23.0407 9.86656 23.0249C9.78259 23.0056 9.69769 22.9907 9.61219 22.9801C9.55454 22.9718 9.49944 22.9545 9.44081 22.95C9.37705 22.9455 9.31316 22.9433 9.24925 22.9436C7.80017 22.9436 6.62516 24.1182 6.62516 25.5677V28.1917C6.62622 28.8868 6.35189 29.5541 5.8622 30.0474C5.54204 30.3556 5.15093 30.5803 4.72339 30.7015C4.29585 30.8228 3.84503 30.837 3.41073 30.7428C3.2537 30.7096 3.10006 30.662 2.95176 30.6006C2.652 30.4684 2.3788 30.2828 2.1455 30.0528C1.65303 29.5587 1.37664 28.8894 1.37697 28.1917V22.2876ZM3.34504 38.6882V32.0734C3.41073 32.0843 3.47641 32.0872 3.54209 32.0949L3.59236 32.1003C4.1664 32.1596 4.74645 32.0924 5.29171 31.9034C5.45831 31.8447 5.62084 31.775 5.77823 31.6948C5.81185 31.6784 5.84391 31.6606 5.87885 31.6423C6.00619 31.5731 6.12971 31.4971 6.24884 31.4145C6.28689 31.3885 6.32535 31.3643 6.36283 31.3366C6.85765 30.9766 7.25888 30.5031 7.53284 29.9559C7.8068 29.4087 7.94549 28.8037 7.93728 28.1918V25.5677C7.93693 25.3954 7.97078 25.2247 8.03687 25.0656C8.10296 24.9065 8.19997 24.762 8.32229 24.6406C8.38789 24.5756 8.46005 24.5173 8.53754 24.4673C8.55132 24.4591 8.56633 24.4529 8.58018 24.4452C8.64447 24.4058 8.7118 24.3722 8.78158 24.3447C8.80209 24.337 8.82291 24.3322 8.84341 24.3258C8.90755 24.3041 8.97334 24.2876 9.04014 24.2764C9.07146 24.2713 9.10574 24.2701 9.13649 24.2665C9.19166 24.2614 9.24708 24.2595 9.30247 24.2608C9.34377 24.2627 9.38495 24.2668 9.4258 24.2732C9.47508 24.279 9.52412 24.288 9.57217 24.3001C9.58857 24.304 9.60358 24.3101 9.61924 24.3146C9.89822 24.4163 10.1387 24.6022 10.3075 24.8465C10.4762 25.0909 10.5649 25.3816 10.5613 25.6785V29.5038C10.5613 31.6775 12.3238 33.4399 14.4974 33.4399C16.6715 33.4399 18.4336 31.6775 18.4336 29.5038V25.5677C18.4336 25.3484 18.4887 25.1327 18.5938 24.9404C18.6989 24.748 18.8507 24.5851 19.0351 24.4667C19.0464 24.4596 19.0595 24.4549 19.0707 24.4478C19.1372 24.4071 19.2072 24.3723 19.2798 24.344C19.2984 24.337 19.3174 24.3328 19.3356 24.327C19.3999 24.3052 19.4658 24.288 19.5326 24.2758C19.5641 24.2713 19.5983 24.2694 19.6271 24.2665C19.6822 24.261 19.738 24.2591 19.7937 24.2608C19.835 24.2627 19.876 24.2669 19.917 24.2732C19.9664 24.279 20.0151 24.288 20.0634 24.3001C20.0798 24.304 20.0948 24.3101 20.1105 24.3146C20.3904 24.4155 20.632 24.601 20.8017 24.8454C20.9714 25.0898 21.0609 25.381 21.0577 25.6785V26.8797C21.0577 29.0534 22.8201 30.8158 24.9938 30.8158C27.1679 30.8158 28.9299 29.0534 28.9299 26.8797V25.5677C28.9296 25.3954 28.9635 25.2247 29.0296 25.0656C29.0957 24.9064 29.1927 24.762 29.315 24.6406C29.3806 24.5756 29.4528 24.5173 29.5303 24.4673C29.544 24.4591 29.5591 24.4529 29.5735 24.4443C29.6376 24.4056 29.7048 24.3722 29.7744 24.3447C29.7949 24.337 29.8163 24.3322 29.84 24.3258C29.9031 24.304 29.9678 24.2877 30.0335 24.2764C30.0648 24.2713 30.0991 24.2701 30.1299 24.2665C30.185 24.2614 30.2405 24.2595 30.2958 24.2608C30.3372 24.2627 30.3783 24.2668 30.4192 24.2732C30.4685 24.279 30.5175 24.288 30.5656 24.3001C30.5819 24.304 30.597 24.3101 30.6126 24.3146C30.8915 24.4164 31.1318 24.6024 31.3005 24.8467C31.4691 25.091 31.5577 25.3817 31.554 25.6785V28.1917C31.5535 28.7095 31.6551 29.2224 31.8529 29.7009C32.0507 30.1794 32.3409 30.6142 32.7069 30.9805C32.8371 31.1075 32.9758 31.2254 33.1221 31.3335C33.1647 31.3643 33.2085 31.3918 33.2534 31.4213C33.3624 31.4963 33.4751 31.5659 33.591 31.6298C33.7661 31.7254 33.9481 31.8079 34.1355 31.8765C34.1631 31.8863 34.19 31.8989 34.2182 31.9081C34.5781 32.0309 34.9537 32.1015 35.3335 32.118H35.338C35.5209 32.1253 35.7042 32.1198 35.8864 32.1016L35.9521 32.0942C36.0178 32.0872 36.0834 32.0843 36.1491 32.0734V38.6881L3.34504 38.6882Z" fill="black"/>
<path d="M11.8727 7.19908C11.8708 9.00945 10.4034 10.4769 8.59261 10.4792C6.78216 10.477 5.3148 9.00953 5.3125 7.19908C6.36283 2 15.5948 4.24004 16.0529 3.57795C16.1165 3.49522 16.1982 3.42821 16.2919 3.3821C16.3855 3.33599 16.4884 3.31201 16.5928 3.31201C16.6971 3.31201 16.8001 3.33599 16.8937 3.3821C16.9873 3.42821 17.0691 3.49522 17.1327 3.57795C17.5904 4.24004 11.8727 5.62429 11.8727 7.19908Z" fill="#E75512"/>
<path d="M23.8102 6.19908C23.8083 8.00945 22.3409 9.47689 20.5301 9.47919C18.7197 9.47698 17.2523 8.00953 17.25 6.19908C18.3003 1 27.5323 2.24004 27.9904 1.57795C28.054 1.49522 28.1357 1.42821 28.2294 1.3821C28.323 1.33599 28.4259 1.31201 28.5303 1.31201C28.6346 1.31201 28.7376 1.33599 28.8312 1.3821C28.9248 1.42821 29.0066 1.49522 29.0702 1.57795C29.5279 2.24004 23.8102 4.62429 23.8102 6.19908Z" fill="#E75512"/>
<path d="M34.2477 7.19925C34.2458 9.00963 32.7784 10.4771 30.9676 10.4794C29.1572 10.4772 27.6898 9.00971 27.6875 7.19925C28.7378 2.00018 37.9698 4.24022 38.4279 3.57812C38.4915 3.4954 38.5732 3.42839 38.6669 3.38228C38.7605 3.33617 38.8634 3.31219 38.9678 3.31219C39.0721 3.31219 39.1751 3.33617 39.2687 3.38228C39.3623 3.42839 39.4441 3.4954 39.5077 3.57812C39.9654 4.24022 34.2477 5.62447 34.2477 7.19925Z" fill="#E75512"/>
</g>
<defs>
<clipPath id="clip0_320_2241">
<rect width="40" height="40" fill="white"/>
</clipPath>
</defs>
</svg>
