<svg width="20" height="21" viewBox="0 0 20 21" fill="none" xmlns="http://www.w3.org/2000/svg">
<path d="M16 2.6709H14.75V1.4209C14.75 1.22199 14.671 1.03122 14.5303 0.890568C14.3897 0.749916 14.1989 0.670898 14 0.670898C13.8011 0.670898 13.6103 0.749916 13.4697 0.890568C13.329 1.03122 13.25 1.22199 13.25 1.4209V2.6709H6.75V1.4209C6.75 1.22199 6.67098 1.03122 6.53033 0.890568C6.38968 0.749916 6.19891 0.670898 6 0.670898C5.80109 0.670898 5.61032 0.749916 5.46967 0.890568C5.32902 1.03122 5.25 1.22199 5.25 1.4209V2.6709H4C3.00584 2.67222 2.05279 3.06773 1.34981 3.77071C0.646836 4.47368 0.251323 5.42674 0.25 6.4209V16.4209C0.251323 17.4151 0.646836 18.3681 1.34981 19.0711C2.05279 19.7741 3.00584 20.1696 4 20.1709H16C16.9942 20.1696 17.9472 19.7741 18.6502 19.0711C19.3532 18.3681 19.7487 17.4151 19.75 16.4209V6.4209C19.7487 5.42674 19.3532 4.47368 18.6502 3.77071C17.9472 3.06773 16.9942 2.67222 16 2.6709ZM18.25 16.4209C18.25 17.6609 17.24 18.6709 16 18.6709H4C2.76 18.6709 1.75 17.6609 1.75 16.4209V10.1709H18.25V16.4209ZM18.25 8.6709H1.75V6.4209C1.75 5.1809 2.76 4.1709 4 4.1709H5.25V5.4209C5.25 5.61981 5.32902 5.81058 5.46967 5.95123C5.61032 6.09188 5.80109 6.1709 6 6.1709C6.19891 6.1709 6.38968 6.09188 6.53033 5.95123C6.67098 5.81058 6.75 5.61981 6.75 5.4209V4.1709H13.25V5.4209C13.25 5.61981 13.329 5.81058 13.4697 5.95123C13.6103 6.09188 13.8011 6.1709 14 6.1709C14.1989 6.1709 14.3897 6.09188 14.5303 5.95123C14.671 5.81058 14.75 5.61981 14.75 5.4209V4.1709H16C17.24 4.1709 18.25 5.1809 18.25 6.4209V8.6709ZM9 14.4209C9 14.1557 9.10536 13.9013 9.29289 13.7138C9.48043 13.5263 9.73478 13.4209 10 13.4209C10.2652 13.4209 10.5196 13.5263 10.7071 13.7138C10.8946 13.9013 11 14.1557 11 14.4209C11 14.6861 10.8946 14.9405 10.7071 15.128C10.5196 15.3155 10.2652 15.4209 10 15.4209C9.73478 15.4209 9.48043 15.3155 9.29289 15.128C9.10536 14.9405 9 14.6861 9 14.4209ZM13 14.4209C13 14.1557 13.1054 13.9013 13.2929 13.7138C13.4804 13.5263 13.7348 13.4209 14 13.4209C14.2652 13.4209 14.5196 13.5263 14.7071 13.7138C14.8946 13.9013 15 14.1557 15 14.4209C15 14.6861 14.8946 14.9405 14.7071 15.128C14.5196 15.3155 14.2652 15.4209 14 15.4209C13.7348 15.4209 13.4804 15.3155 13.2929 15.128C13.1054 14.9405 13 14.6861 13 14.4209ZM5 14.4209C5 14.1557 5.10536 13.9013 5.29289 13.7138C5.48043 13.5263 5.73478 13.4209 6 13.4209C6.26522 13.4209 6.51957 13.5263 6.70711 13.7138C6.89464 13.9013 7 14.1557 7 14.4209C7 14.6861 6.89464 14.9405 6.70711 15.128C6.51957 15.3155 6.26522 15.4209 6 15.4209C5.73478 15.4209 5.48043 15.3155 5.29289 15.128C5.10536 14.9405 5 14.6861 5 14.4209Z" fill="#5F5F5F"/>
</svg>
