<svg width="24" height="21" viewBox="0 0 24 21" fill="none" xmlns="http://www.w3.org/2000/svg">
<path d="M22.5595 3.01459H14.3058C14.3004 3.01468 14.2951 3.01326 14.2904 3.01047C14.2858 3.00769 14.2821 3.00365 14.2796 2.99884L13.4284 1.27215C13.1882 0.78343 12.681 0.467773 12.1361 0.467773H7.14637C6.35208 0.467773 5.70591 1.11418 5.70591 1.90862V3.32096H4.29309C3.49898 3.32096 2.85277 3.96709 2.85277 4.76143V6.17373H1.44047C0.646172 6.17373 0 6.8199 0 7.6142V19.2707C0 20.065 0.646172 20.7112 1.44047 20.7112H16.8538C17.6481 20.7112 18.2942 20.065 18.2942 19.2707V17.8582H19.7067C20.501 17.8582 21.1472 17.212 21.1472 16.4179V15.0056H22.5595C23.3538 15.0056 24 14.3594 24 13.5651V4.45543C24 3.66095 23.3538 3.01459 22.5595 3.01459ZM16.8538 19.2994H1.44047C1.43285 19.2994 1.42555 19.2964 1.42016 19.291C1.41478 19.2856 1.41175 19.2783 1.41173 19.2707V7.6142C1.41173 7.59826 1.42477 7.58546 1.44047 7.58546H6.4305C6.43523 7.58546 6.43983 7.5871 6.44386 7.5893C6.44437 7.58968 6.44512 7.58949 6.44569 7.58987C6.44733 7.59095 6.44827 7.59296 6.44972 7.59423C6.45206 7.59662 6.45487 7.59863 6.45628 7.60159L7.30791 9.32879C7.55236 9.82426 8.0475 10.1322 8.59992 10.1322H16.8538C16.8614 10.1323 16.8686 10.1353 16.874 10.1407C16.8793 10.1461 16.8823 10.1534 16.8824 10.161C16.8824 15.1393 16.8825 19.2253 16.8825 19.2706C16.8825 19.2866 16.8697 19.2994 16.8538 19.2994ZM19.7355 16.4179C19.7354 16.4255 19.7324 16.4328 19.7271 16.4381C19.7217 16.4435 19.7145 16.4465 19.7069 16.4465H18.2942V10.161C18.2942 9.36648 17.6479 8.72035 16.8536 8.72035H8.59992C8.59458 8.72028 8.58936 8.71874 8.58483 8.71589C8.58031 8.71305 8.57666 8.70901 8.57428 8.70423L7.72247 6.97698C7.47825 6.48207 6.98325 6.17373 6.43069 6.17373H4.26455V4.76138C4.26455 4.74545 4.27734 4.73265 4.29309 4.73265H9.28327C9.29423 4.73265 9.30413 4.73874 9.30905 4.74896L10.1609 6.47621C10.4055 6.97168 10.9005 7.27946 11.4527 7.27946H19.7069C19.7227 7.27946 19.7355 7.2923 19.7355 7.30824L19.7355 16.4179ZM22.5883 13.5651C22.5883 13.5811 22.5754 13.5939 22.5595 13.5939H21.1472V7.30824C21.1472 6.5139 20.5013 5.86777 19.7069 5.86777H11.4527C11.4473 5.8677 11.442 5.86613 11.4375 5.86325C11.4329 5.86037 11.4293 5.85629 11.4269 5.85146L10.5752 4.12477C10.3312 3.62893 9.83602 3.32091 9.28327 3.32091H7.11764V1.90862C7.11764 1.89254 7.13048 1.87955 7.14623 1.87955H12.1358C12.1466 1.87955 12.1568 1.88555 12.1617 1.89563L13.0135 3.62345C13.2579 4.11854 13.753 4.42632 14.3058 4.42632H22.5595C22.5752 4.42632 22.5881 4.43935 22.5881 4.45562V13.5651H22.5883Z" fill="#5F5F5F"/>
<path d="M12.5438 16.2305C12.1539 16.2305 11.8379 16.5465 11.8379 16.9363V17.3445C11.8379 17.7343 12.1539 18.0503 12.5438 18.0503C12.9336 18.0503 13.2496 17.7343 13.2496 17.3445V16.9363C13.2496 16.5465 12.9336 16.2305 12.5438 16.2305ZM14.6008 16.2305C14.2109 16.2305 13.8949 16.5465 13.8949 16.9363V17.3445C13.8949 17.7343 14.2109 18.0503 14.6008 18.0503C14.9906 18.0503 15.3066 17.7343 15.3066 17.3445V16.9363C15.3066 16.5465 14.9906 16.2305 14.6008 16.2305Z" fill="#5F5F5F"/>
</svg>
