<svg width="40" height="40" viewBox="0 0 40 40" fill="none" xmlns="http://www.w3.org/2000/svg">
<path d="M14.2843 34.4442C14.2043 34.4442 14.1154 34.4265 14.0354 34.382C12.4976 33.5642 11.0398 32.4798 9.70648 31.1376C8.37315 29.7954 7.27982 28.3465 6.47093 26.8087C6.32871 26.5509 6.43537 26.222 6.69315 26.0887C6.95093 25.9554 7.27982 26.0531 7.41315 26.3109C8.16871 27.7331 9.21759 29.1465 10.462 30.382C11.7065 31.6265 13.1109 32.6842 14.5332 33.4309C14.7909 33.5642 14.8887 33.8931 14.7554 34.1509C14.6576 34.3376 14.4798 34.4442 14.2843 34.4442ZM19.9998 32.0709C19.9198 32.0709 19.8398 32.0531 19.7598 32.0176C17.5465 30.9065 15.3687 29.3065 13.4576 27.3954C11.5376 25.4754 9.9376 23.2976 8.83537 21.0842C8.70204 20.8176 8.80871 20.4976 9.07537 20.3731C9.34204 20.2398 9.66204 20.3465 9.79537 20.6131C10.8531 22.7198 12.382 24.8087 14.222 26.6487C16.062 28.4887 18.142 30.0176 20.2487 31.0754C20.5154 31.2087 20.6132 31.5287 20.4887 31.7954C20.3909 31.9642 20.1954 32.0709 19.9998 32.0709ZM8.47982 36.8531C8.37315 36.8531 8.2576 36.8176 8.15982 36.7465C7.40426 36.1865 6.66648 35.5554 5.98204 34.8709C5.28871 34.1776 4.65759 33.4487 4.09759 32.6931C3.91982 32.4531 3.97315 32.1242 4.21315 31.9465C4.45315 31.7687 4.78204 31.822 4.95982 32.062C5.48426 32.7731 6.07982 33.4665 6.7376 34.1242C7.39537 34.782 8.07982 35.3776 8.79982 35.902C9.03982 36.0798 9.08426 36.4087 8.91537 36.6487C8.79982 36.7731 8.63982 36.8531 8.47982 36.8531ZM12.542 13.4042C12.4887 13.4042 12.4265 13.3954 12.3731 13.3776C12.0976 13.2887 11.9376 12.9865 12.0354 12.702C12.0443 12.6754 12.0532 12.6487 12.0709 12.622C12.1954 12.3554 12.5065 12.2309 12.7732 12.3554C13.0398 12.4798 13.1554 12.782 13.0398 13.0487C12.9687 13.2709 12.7643 13.4042 12.542 13.4042ZM27.9732 28.8354C27.7687 28.8354 27.5643 28.7109 27.4843 28.5065C27.3687 28.2398 27.4932 27.9198 27.7687 27.8042L27.8043 27.7954C28.0798 27.6798 28.3909 27.8042 28.5065 28.0798C28.622 28.3465 28.4976 28.6665 28.222 28.782L28.1776 28.7998C28.1154 28.8265 28.0443 28.8354 27.9732 28.8354ZM1.73315 39.6442C1.59093 39.6442 1.45759 39.5909 1.35982 39.4842C1.20871 39.3331 1.16426 39.102 1.24426 38.9065L4.86204 30.1776C5.36871 28.9509 5.90204 27.662 6.44426 26.3642L7.59093 23.5909C8.00871 22.5865 8.41759 21.5998 8.80871 20.6487C9.67093 18.5687 10.4531 16.622 11.0843 15.0487C11.3865 14.2842 11.6532 13.6265 11.8665 13.102C11.8932 13.0309 11.9376 12.9687 11.9909 12.9154C12.1954 12.7109 12.5331 12.7109 12.7465 12.9154C12.8976 13.0665 12.942 13.2887 12.8709 13.4754C12.8709 13.4842 12.862 13.4931 12.862 13.4931C12.6487 14.0176 12.382 14.6754 12.0798 15.4398C11.4487 17.0042 10.6665 18.9598 9.80426 21.0487C9.41315 21.9998 8.99537 22.9954 8.58648 23.9909L7.43982 26.7642C6.89759 28.062 6.36426 29.3509 5.85759 30.5776L2.72871 38.1242L19.8043 31.0487L27.1909 28.0531L27.3776 27.9731C27.6531 27.8576 27.9643 27.9909 28.0709 28.2665C28.1865 28.542 28.0531 28.8531 27.7776 28.9598L27.582 29.0398L20.1954 32.0354L1.93759 39.5998C1.87537 39.6354 1.80426 39.6442 1.73315 39.6442ZM26.7198 29.1198C25.8665 29.1198 24.8532 28.8709 23.7332 28.382C21.6265 27.4665 19.2976 25.7954 17.182 23.6709C15.0576 21.5465 13.3865 19.2176 12.4709 17.1198C11.4843 14.862 11.4932 13.0754 12.4709 12.0887C13.4576 11.102 15.2443 11.102 17.502 12.0887C19.6087 13.0042 21.9376 14.6754 24.0532 16.7998C26.1776 18.9242 27.8487 21.2442 28.7643 23.3509C29.742 25.6087 29.742 27.3954 28.7643 28.382C28.2665 28.8709 27.5731 29.1198 26.7198 29.1198ZM14.4976 12.4265C13.9376 12.4265 13.502 12.5687 13.2265 12.8442C11.9554 14.1154 13.5731 18.5687 17.9287 22.9242C19.9554 24.9509 22.1687 26.542 24.1509 27.4042C25.9554 28.1865 27.3598 28.2665 27.9998 27.6265C29.2709 26.3554 27.6532 21.902 23.2976 17.5465C19.9109 14.1598 16.4532 12.4265 14.4976 12.4265ZM20.2754 20.6665C20.142 20.6665 19.9998 20.6131 19.902 20.5065C19.6976 20.302 19.6976 19.9642 19.902 19.7509L29.9465 9.70647C30.1509 9.50202 30.4887 9.50202 30.702 9.70647C30.9154 9.91091 30.9065 10.2487 30.702 10.462L20.6576 20.5065C20.542 20.6131 20.4087 20.6665 20.2754 20.6665ZM25.0931 25.4842C24.9687 25.4842 24.8443 25.4398 24.7465 25.3598C24.5243 25.1731 24.4887 24.8354 24.6843 24.6042C26.302 22.6931 28.222 21.0931 30.382 19.8576C32.542 18.622 34.8443 17.8131 37.2265 17.4398C37.5198 17.3954 37.7865 17.5909 37.8309 17.8842C37.8754 18.1776 37.6798 18.4442 37.3865 18.4887C32.9065 19.182 28.5687 21.6531 25.502 25.2798C25.3954 25.422 25.2443 25.4842 25.0931 25.4842ZM15.4487 15.8487C15.2976 15.8487 15.1465 15.7865 15.0398 15.662C14.8532 15.4398 14.8798 15.102 15.102 14.9065C18.7287 11.8398 21.2087 7.50202 21.8932 3.02202C21.9376 2.72869 22.2132 2.53314 22.4976 2.57758C22.7909 2.62202 22.9865 2.89758 22.942 3.18202C22.5776 5.55536 21.7598 7.85758 20.5243 10.0265C19.2887 12.1865 17.6887 14.1065 15.7776 15.7242C15.6976 15.8042 15.5732 15.8487 15.4487 15.8487ZM24.542 12.0265C24.1154 12.0265 23.6887 11.8665 23.3598 11.5376C22.7109 10.8887 22.7109 9.82202 23.3598 9.17313C24.0087 8.52425 25.0754 8.52425 25.7243 9.17313C26.3731 9.82202 26.3731 10.8887 25.7243 11.5376C25.3954 11.8576 24.9687 12.0265 24.542 12.0265ZM24.542 9.75091C24.3909 9.75091 24.2309 9.81313 24.1154 9.92869C23.8843 10.1598 23.8843 10.5509 24.1154 10.782C24.3465 11.0131 24.7376 11.0131 24.9687 10.782C25.1998 10.5509 25.1998 10.1598 24.9687 9.92869C24.8443 9.80425 24.6931 9.75091 24.542 9.75091ZM37.1731 13.6887C36.7554 13.6887 36.3465 13.5287 36.0265 13.2176C35.3954 12.5865 35.3954 11.5554 36.0265 10.9242C36.6576 10.2931 37.6887 10.2931 38.3198 10.9242C38.9509 11.5554 38.9509 12.5865 38.3198 13.2176C37.9998 13.5376 37.5909 13.6887 37.1731 13.6887ZM37.1731 11.5198C37.0309 11.5198 36.8887 11.5731 36.782 11.6798C36.5687 11.8931 36.5687 12.2487 36.782 12.462C36.9954 12.6754 37.3509 12.6754 37.5643 12.462C37.7776 12.2487 37.7776 11.8931 37.5643 11.6798C37.4576 11.5731 37.3154 11.5198 37.1731 11.5198ZM32.8443 16.4976H30.8798C30.5865 16.4976 30.3465 16.2576 30.3465 15.9642V13.9998C30.3465 13.7065 30.5865 13.4665 30.8798 13.4665H32.8443C33.1376 13.4665 33.3776 13.7065 33.3776 13.9998V15.9642C33.3776 16.2576 33.1376 16.4976 32.8443 16.4976ZM31.4131 15.4309H32.3109V14.5331H31.4131V15.4309ZM15.7687 9.1198C15.6265 9.1198 15.4931 9.06647 15.3954 8.9598L14.0087 7.57313C13.8043 7.36869 13.8043 7.03091 14.0087 6.81758L15.3954 5.43091C15.4931 5.33313 15.6265 5.27091 15.7687 5.27091C15.9109 5.27091 16.0443 5.32425 16.142 5.43091L17.5287 6.81758C17.7332 7.02202 17.7332 7.3598 17.5287 7.57313L16.142 8.9598C16.0443 9.06647 15.9109 9.1198 15.7687 9.1198ZM15.1376 7.1998L15.7687 7.83091L16.3998 7.1998L15.7687 6.56869L15.1376 7.1998Z" fill="black"/>
<path d="M28.6398 10.0091C28.6665 10.018 28.6932 10.018 28.7198 10.018C28.9154 10.018 29.102 9.90245 29.1998 9.74245L30.1865 7.81356L32.3198 8.15134C32.5509 8.18689 32.7732 8.07134 32.8798 7.86689C32.9865 7.66245 32.942 7.40467 32.782 7.24467L31.2532 5.71578L32.2309 3.78689C32.3376 3.58245 32.2932 3.32467 32.1332 3.16467C31.9643 3.00467 31.7154 2.96023 31.5109 3.06689L29.582 4.04467L28.062 2.51578C27.8932 2.35578 27.6443 2.31134 27.4398 2.418C27.2354 2.52467 27.1198 2.74689 27.1554 2.978L27.4932 5.11134L25.5643 6.08911C25.3598 6.19578 25.2443 6.418 25.2798 6.64911C25.3154 6.88023 25.4932 7.058 25.7243 7.09356L27.8576 7.43134L28.1954 9.56467C28.2309 9.79578 28.4087 9.97356 28.6398 10.0091Z" fill="#E75512"/>
<path d="M32.239 25.3511C32.559 25.6623 32.9678 25.8223 33.3856 25.8223C33.8034 25.8223 34.2123 25.6623 34.5323 25.3511C35.1634 24.72 35.1634 23.6889 34.5323 23.0578C33.9012 22.4267 32.8701 22.4267 32.239 23.0578C31.6078 23.6889 31.6078 24.72 32.239 25.3511Z" fill="#E75512"/>
</svg>
