<svg width="40" height="40" viewBox="0 0 40 40" fill="none" xmlns="http://www.w3.org/2000/svg">
<g clip-path="url(#clip0_376_6179)">
<path d="M8.75 37.625L11.625 14.25C15.225 21.65 23.7083 23.6667 27.5 23.75L8.75 37.625Z" fill="#E75512"/>
<path d="M18.2032 31.131C18.1351 31.1492 18.0555 31.1544 17.9772 31.1348C16.4824 30.7896 14.9948 30.1992 13.5543 29.3611C12.1138 28.5231 10.8532 27.5395 9.81432 26.4155C9.63454 26.2286 9.65031 25.9245 9.83925 25.7522C10.0282 25.58 10.3303 25.5882 10.5025 25.7772C11.4697 26.815 12.6843 27.7784 14.0249 28.546C15.3675 29.3211 16.8036 29.901 18.1839 30.212C18.4337 30.2667 18.5919 30.5243 18.5372 30.774C18.4965 30.9551 18.3696 31.0864 18.2032 31.131ZM22.5253 27.8085C22.4572 27.8268 22.3851 27.8299 22.3089 27.8179C20.1723 27.3771 17.9546 26.5122 15.8928 25.3218C13.8214 24.1259 11.9635 22.6377 10.521 21.0057C10.3468 20.8092 10.3646 20.5126 10.5631 20.346C10.7596 20.1717 11.0562 20.1895 11.2305 20.386C12.6108 21.9373 14.3879 23.3661 16.373 24.5122C18.3581 25.6583 20.4764 26.485 22.5101 26.9047C22.7674 26.9573 22.9235 27.2073 22.8784 27.4626C22.8337 27.6286 22.6917 27.7639 22.5253 27.8085ZM13.8136 34.504C13.7229 34.5283 13.6164 34.5244 13.517 34.4862C12.7465 34.1819 11.9748 33.8131 11.2364 33.3868C10.4884 32.955 9.78526 32.4787 9.13652 31.9635C8.93054 31.7998 8.90094 31.5078 9.06461 31.3018C9.22829 31.0958 9.52029 31.0662 9.72627 31.2299C10.3346 31.7154 10.9994 32.1695 11.7091 32.5793C12.4187 32.989 13.1369 33.3397 13.8691 33.6217C14.1138 33.7183 14.2266 33.988 14.1376 34.2307C14.0677 34.3629 13.9498 34.4675 13.8136 34.504ZM11.9239 13.626C11.8786 13.6382 11.8236 13.6448 11.7742 13.6419C11.5194 13.629 11.3144 13.4084 11.3327 13.1441C11.3342 13.1193 11.3357 13.0946 11.3448 13.0679C11.3898 12.8126 11.6262 12.6358 11.8815 12.6809C12.1367 12.726 12.304 12.9568 12.2664 13.21C12.2566 13.4153 12.113 13.5754 11.9239 13.626ZM28.5718 23.2377C28.3979 23.2843 28.1955 23.225 28.0809 23.0693C27.9217 22.8688 27.9547 22.5681 28.1628 22.407L28.191 22.3913C28.3991 22.2301 28.6922 22.2651 28.8533 22.4732C29.0125 22.6738 28.9795 22.9744 28.7714 23.1356L28.7377 23.1608C28.6908 23.1977 28.6323 23.2215 28.5718 23.2377ZM8.70947 38.417C8.58846 38.4494 8.46285 38.4344 8.35534 38.3659C8.19231 38.2718 8.10181 38.0853 8.12529 37.9007L9.21344 29.6488C9.36488 28.4895 9.52482 27.2713 9.6903 26.0434L10.0337 23.4223C10.1601 22.4724 10.2831 21.5397 10.399 20.6412C10.6585 18.6748 10.8802 16.8402 11.0585 15.3576C11.1414 14.6383 11.2183 14.0178 11.2802 13.5229C11.2867 13.4563 11.3103 13.3932 11.3436 13.3357C11.4709 13.1151 11.7583 13.0381 11.9864 13.1635C12.1495 13.2576 12.2379 13.4365 12.22 13.6116C12.222 13.6191 12.2165 13.6287 12.2165 13.6287C12.1545 14.1236 12.0776 14.7441 11.9947 15.4634C11.8144 16.9384 11.5947 18.7807 11.3373 20.7546C11.2214 21.653 11.0929 22.5954 10.9719 23.5357L10.6286 26.1568C10.4631 27.3847 10.3032 28.6029 10.1517 29.7622L9.21001 36.8967L22.1258 26.9833L27.7279 22.7505L27.8685 22.6398C28.0766 22.4787 28.3717 22.5212 28.5253 22.7313C28.6865 22.9395 28.6439 23.2346 28.4338 23.3882L28.2856 23.5008L22.6836 27.7337L8.87329 38.3325C8.82846 38.377 8.76998 38.4008 8.70947 38.417ZM27.5702 23.7655C26.8442 23.96 25.9252 23.9793 24.8608 23.8186C22.8596 23.5199 20.497 22.629 18.2126 21.3037C15.9207 19.9804 13.9678 18.3799 12.7105 16.8037C11.3563 15.1076 10.9565 13.5853 11.5635 12.5229C12.1781 11.4584 13.6983 11.0511 15.8443 11.3759C17.8455 11.6746 20.2081 12.5655 22.4925 13.8908C24.7844 15.2141 26.7352 16.8071 27.9945 18.3908C29.3413 20.089 29.7486 21.6092 29.1416 22.6716C28.8295 23.2011 28.2963 23.5709 27.5702 23.7655ZM13.3649 12.3482C12.8885 12.4759 12.5503 12.6962 12.3786 12.9935C11.5869 14.3648 13.9787 17.7852 18.6777 20.4982C20.8642 21.7605 23.1102 22.6097 24.9933 22.8914C26.707 23.1456 27.9202 22.8935 28.3189 22.203C29.1106 20.8317 26.7188 17.4113 22.0198 14.6984C18.3661 12.5889 15.0288 11.9024 13.3649 12.3482ZM20.1597 18.0421C20.0462 18.0725 19.913 18.0595 19.8055 17.9911C19.585 17.8637 19.5079 17.5763 19.6333 17.3482L25.8897 6.51173C26.017 6.29117 26.3044 6.21416 26.5326 6.33948C26.7607 6.46479 26.8301 6.75422 26.7048 6.98235L20.4484 17.8188C20.3744 17.9359 20.2731 18.0117 20.1597 18.0421ZM25.3573 21.043C25.2514 21.0713 25.1354 21.0619 25.034 21.0161C24.8023 20.9079 24.6951 20.6286 24.8088 20.3874C25.7496 18.3925 27.0184 16.5934 28.5746 15.0496C30.1308 13.5059 31.9052 12.2928 33.8471 11.432C34.0865 11.3273 34.358 11.4329 34.4627 11.6723C34.5674 11.9118 34.4618 12.1833 34.2223 12.288C30.5686 13.8993 27.4411 16.9908 25.6586 20.7758C25.6003 20.9211 25.4859 21.0085 25.3573 21.043ZM14.9544 15.0432C14.8259 15.0777 14.6831 15.0592 14.564 14.9776C14.3545 14.8311 14.3001 14.5376 14.4446 14.3206C16.8313 10.8844 17.9525 6.62816 17.5134 2.66025C17.4844 2.40053 17.6743 2.17132 17.9264 2.14429C18.1861 2.11523 18.4153 2.3051 18.4424 2.55726C18.6734 4.65973 18.5024 6.80505 17.9456 8.93216C17.3868 11.0517 16.4632 13.0502 15.2059 14.8624C15.1561 14.9487 15.0603 15.0149 14.9544 15.0432ZM21.8202 9.71788C21.4571 9.81516 21.0576 9.7763 20.7028 9.57144C20.0028 9.16726 19.7596 8.25968 20.1637 7.55962C20.5679 6.85957 21.4755 6.61638 22.1756 7.02056C22.8756 7.42473 23.1188 8.33232 22.7146 9.03237C22.5077 9.37963 22.1832 9.62061 21.8202 9.71788ZM21.3014 7.7817C21.1728 7.81615 21.0509 7.90557 20.9789 8.03024C20.8349 8.27957 20.9241 8.61236 21.1734 8.75631C21.4228 8.90026 21.7555 8.81109 21.8995 8.56176C22.0435 8.31242 21.9543 7.97964 21.7049 7.83569C21.5707 7.75818 21.43 7.74725 21.3014 7.7817ZM32.9465 8.25247C32.591 8.34771 32.2066 8.3048 31.8634 8.11304C31.1825 7.71994 30.9475 6.8426 31.3406 6.16173C31.7337 5.48086 32.611 5.24578 33.2919 5.63888C33.9728 6.03198 34.2078 6.90931 33.8147 7.59019C33.6154 7.93542 33.302 8.15722 32.9465 8.25247ZM32.452 6.40704C32.331 6.43946 32.2221 6.51727 32.1557 6.63235C32.0228 6.8625 32.1039 7.16503 32.334 7.29791C32.5642 7.43079 32.8667 7.34973 32.9996 7.11957C33.1325 6.88942 33.0514 6.58689 32.8213 6.45401C32.7062 6.38757 32.573 6.37461 32.452 6.40704ZM29.9036 11.6294L28.2321 12.0772C27.9825 12.1441 27.7236 11.9946 27.6567 11.745L27.2089 10.0736C27.142 9.82399 27.2915 9.56506 27.5411 9.49819L29.2125 9.05032C29.4621 8.98344 29.721 9.13293 29.7879 9.38252L30.2358 11.054C30.3027 11.3036 30.1532 11.5625 29.9036 11.6294ZM28.4427 11.0481L29.2066 10.8434L29.0019 10.0795L28.238 10.2842L28.4427 11.0481ZM13.6926 9.24492C13.5716 9.27735 13.446 9.26237 13.3385 9.1939L11.8425 8.33018C11.6219 8.20284 11.5449 7.91544 11.6702 7.68731L12.5339 6.1913C12.5948 6.08581 12.6941 6.00247 12.8151 5.97005C12.9361 5.93762 13.0617 5.9526 13.1692 6.02107L14.6652 6.88479C14.8858 7.01213 14.9628 7.29954 14.8375 7.52766L13.9738 9.02367C13.9149 9.13672 13.8136 9.2125 13.6926 9.24492ZM12.7179 7.75515L13.3987 8.14826L13.7918 7.46738L13.111 7.07428L12.7179 7.75515Z" fill="black"/>
<path d="M24.8469 7.06715C24.8716 7.06863 24.8943 7.06255 24.917 7.05647C25.0834 7.01189 25.2159 6.87101 25.2626 6.71258L25.6623 4.84641L27.5545 4.64744C27.7593 4.625 27.922 4.47602 27.9662 4.27774C28.0103 4.07947 27.9137 3.87027 27.7411 3.77061L26.0917 2.8183L26.4838 0.954162C26.528 0.755889 26.4314 0.546688 26.2588 0.447029C26.0786 0.349395 25.8567 0.368323 25.7071 0.505692L24.2888 1.77741L22.6469 0.823077C22.4667 0.725444 22.2448 0.744371 22.0952 0.881741C21.9455 1.01911 21.8979 1.23454 21.9808 1.42307L22.7546 3.16124L21.3363 4.43296C21.1867 4.57033 21.139 4.78575 21.222 4.97429C21.3049 5.16283 21.4967 5.27356 21.7014 5.25112L23.5936 5.05215L24.3674 6.79031C24.4504 6.97885 24.6421 7.08959 24.8469 7.06715Z" fill="#E75512"/>
<path d="M31.4071 19.3005C31.7503 19.4923 32.1347 19.5352 32.4901 19.44C32.8456 19.3447 33.157 19.1154 33.3584 18.7777C33.7515 18.0968 33.5164 17.2195 32.8355 16.8264C32.1547 16.4333 31.2773 16.6684 30.8842 17.3492C30.4911 18.0301 30.7262 18.9074 31.4071 19.3005Z" fill="#E75512"/>
<path d="M6.1444 6.67464C6.28295 6.19188 6.96705 6.19188 7.1056 6.67464L7.34019 7.49206C7.40349 7.71263 7.6088 7.86179 7.83813 7.85384L8.68803 7.82435C9.18999 7.80693 9.40138 8.45755 8.98506 8.7385L8.28014 9.21421C8.08993 9.34257 8.01151 9.58392 8.08994 9.79957L8.38063 10.5988C8.5523 11.0708 7.99885 11.4729 7.603 11.1637L6.93274 10.6403C6.75189 10.4991 6.49811 10.4991 6.31726 10.6403L5.647 11.1637C5.25115 11.4729 4.6977 11.0708 4.86937 10.5988L5.16006 9.79957C5.23849 9.58392 5.16007 9.34257 4.96986 9.21421L4.26494 8.7385C3.84861 8.45755 4.06002 7.80693 4.56197 7.82435L5.41187 7.85384C5.6412 7.86179 5.84651 7.71263 5.90981 7.49206L6.1444 6.67464Z" fill="#E75512"/>
<circle cx="4.50195" cy="20" r="1.37695" stroke="black"/>
<circle cx="33.4395" cy="31.5332" r="1.9668" stroke="black"/>
<rect x="20.683" y="37.0499" width="3.82262" height="3.82262" transform="rotate(-60 20.683 37.0499)" stroke="#E75512"/>
<rect x="0.908929" y="27.459" width="0.936143" height="0.936143" transform="rotate(-60 0.908929 27.459)" stroke="#E75512" stroke-width="0.936143"/>
</g>
<defs>
<clipPath id="clip0_376_6179">
<rect width="40" height="40" fill="white"/>
</clipPath>
</defs>
</svg>
