<svg width="42" height="40" viewBox="0 0 42 40" fill="none" xmlns="http://www.w3.org/2000/svg">
<path d="M25.3166 9.43018H17.1915C13.5878 9.43018 10.6714 12.3519 10.6714 15.9502V24.0754C10.6714 27.679 13.5931 30.5955 17.1915 30.5955H25.3166C28.9202 30.5955 31.8367 27.6738 31.8367 24.0754V15.9555C31.8367 12.3519 28.9202 9.43018 25.3166 9.43018ZM29.8067 23.2991C29.8067 26.2103 27.4463 28.5708 24.5351 28.5708H17.973C15.0618 28.5708 12.7014 26.2103 12.7014 23.2991V16.7318C12.7014 13.8206 15.0618 11.4602 17.973 11.4602H24.5403C27.4515 11.4602 29.812 13.8206 29.812 16.7318V23.2991H29.8067Z" fill="#F5E9D4"/>
<path d="M21.5398 14.4766C18.4607 14.4766 15.9639 16.9734 15.9639 20.0525C15.9639 23.1315 18.4607 25.6283 21.5398 25.6283C24.6188 25.6283 27.1157 23.1315 27.1157 20.0525C27.1157 16.9734 24.6188 14.4766 21.5398 14.4766ZM21.5398 23.4095C19.6881 23.4095 18.1827 21.9093 18.1827 20.0577C18.1827 18.2061 19.6829 16.7006 21.5398 16.7006C23.3914 16.7006 24.8916 18.2008 24.8916 20.0577C24.8916 21.9041 23.3914 23.4095 21.5398 23.4095Z" fill="#F5E9D4"/>
<path d="M26.7278 12.9707C25.9462 12.9707 25.3115 13.6054 25.3115 14.387C25.3115 15.1685 25.9462 15.8032 26.7278 15.8032C27.5094 15.8032 28.1441 15.1685 28.1441 14.387C28.1441 13.6054 27.5094 12.9707 26.7278 12.9707Z" fill="#F5E9D4"/>
<path d="M34.9056 32.4417C34.3549 32.6043 34.0506 33.218 33.7883 33.6901C33.5523 34.1202 33.0959 34.6238 33.0959 35.1273C33.0959 35.2899 33.2638 35.4211 33.4212 35.3739C33.909 35.2375 34.2709 34.6657 34.6224 34.3248C35.0105 33.9471 35.5298 33.4855 35.5403 32.919C35.5508 32.6043 35.2151 32.3473 34.9056 32.4417Z" fill="#F5E9D4"/>
<path d="M40.7911 21.4209C43.1725 11.8008 33.2324 2.07049 24.1893 0.360475C19.2166 -0.578457 14.0446 0.313266 9.8063 3.07761C6.16598 5.44854 2.44171 9.66062 1.98012 14.1192C1.96962 14.2189 2.00111 14.2976 2.04307 14.3658C-0.826177 21.7251 2.30009 30.9781 8.58936 35.6517C14.8262 40.2835 25.081 41.9043 31.7112 37.068C32.2725 36.6589 31.8056 35.8458 31.1657 36.1448C30.9244 36.255 30.6831 36.3651 30.4471 36.4753C30.3264 36.2654 30.0747 36.1291 29.7599 36.2812C25.3433 38.3741 19.2114 37.3145 14.8472 35.7619C14.3541 35.5888 14.0184 36.3704 14.4905 36.6012C16.8142 37.7289 19.3425 38.3898 21.9337 38.5262C23.0143 38.5839 24.1001 38.5472 25.1807 38.4318C23.5336 38.8462 21.8341 39.035 20.0034 38.8724C16.2844 38.5367 13.0008 37.1519 9.92696 35.0957C6.32334 32.6881 3.86324 29.7559 2.69875 25.5595C1.68638 21.9244 1.63392 18.0953 2.75119 14.4969C2.7984 14.4602 2.84562 14.4182 2.87185 14.3605C3.06593 13.9934 3.25476 13.6314 3.44359 13.2747C2.33681 16.123 2.01159 19.2807 2.50991 22.2916C3.44884 28.0039 6.66953 31.7754 11.4062 34.8754C11.9727 35.2478 12.5444 34.2932 11.9412 33.9732C7.73436 31.7439 4.39826 26.6716 3.69013 22.0346C2.90856 16.9151 4.77069 12.1102 7.81828 8.03454C8.08055 7.68834 7.52979 7.30543 7.2308 7.58343C6.73248 8.05028 6.27089 8.55384 5.84076 9.08363C6.5384 8.03454 7.31996 7.0484 8.2589 6.13045C8.04383 6.49238 8.39004 7.03791 8.82016 6.7599C9.92695 6.05177 10.997 5.29642 12.1458 4.64599C12.9641 4.18439 13.8348 3.81721 14.6741 3.39233C14.8104 3.4343 14.9678 3.44479 15.1514 3.39758C21.2466 1.85018 27.3156 2.51635 32.0627 6.96972C32.2463 7.14282 32.4718 7.06414 32.5872 6.90677C32.5452 7.12708 32.6659 7.38935 32.9596 7.38935C33.4737 7.38935 33.4737 6.59729 32.9596 6.59729C32.8128 6.59729 32.7131 6.66024 32.6502 6.75465C32.6606 6.66548 32.6397 6.57106 32.5557 6.48189C30.9716 4.8086 28.9731 3.41332 26.7753 2.43766C33.1957 4.78762 38.5355 10.5366 39.3066 17.1721C38.8293 15.0529 37.9428 13.002 36.6472 11.1503C36.3167 10.6835 35.5876 11.0874 35.8656 11.6014C37.5914 14.7592 38.4044 18.2107 38.5198 21.7881C38.6404 25.5228 37.1875 28.712 35.1994 31.7911C34.9949 32.1058 35.467 32.4887 35.724 32.2265C35.8446 32.2894 35.9915 32.2894 36.1174 32.174C38.9866 29.4988 41.0848 25.4913 40.8016 21.4786C40.8016 21.4576 40.7911 21.4419 40.7911 21.4209Z" fill="#F5E9D4"/>
<path d="M12.9166 35.3477C12.7907 35.6414 12.9585 35.9352 13.2523 36.0348C13.4673 36.1083 13.6614 36.1817 13.887 36.2132C14.2751 36.2604 14.422 35.7306 14.186 35.4946C14.0338 35.3372 13.8293 35.227 13.6457 35.1064C13.3887 34.928 13.032 35.0802 12.9166 35.3477Z" fill="#F5E9D4"/>
</svg>
