<svg width="16" height="17" viewBox="0 0 16 17" fill="none" xmlns="http://www.w3.org/2000/svg">
<path d="M8.0293 0.606445C3.6293 0.606445 0.0292969 4.20645 0.0292969 8.60645C0.0292969 13.0064 3.6293 16.6064 8.0293 16.6064C12.4293 16.6064 16.0293 13.0064 16.0293 8.60645C16.0293 4.20645 12.4293 0.606445 8.0293 0.606445ZM11.4693 6.68645L7.7893 11.4864C7.6293 11.6464 7.3893 11.8064 7.1493 11.8064C6.9093 11.8064 6.6693 11.7264 6.5093 11.4864L4.5893 9.00645C4.3493 8.68645 4.3493 8.12645 4.7493 7.88645C5.1493 7.64645 5.6293 7.64645 5.8693 8.04645L7.1493 9.72645L10.1893 5.72645C10.4293 5.40645 10.9893 5.32645 11.3093 5.56645C11.7093 5.80645 11.7093 6.28645 11.4693 6.68645Z" fill="#E75512"/>
</svg>
