<svg width="24" height="24" viewBox="0 0 24 24" fill="none" xmlns="http://www.w3.org/2000/svg">
<path d="M11.251 2.28027C11.7044 1.97796 12.2956 1.97796 12.749 2.28027L19.749 6.94727C20.1245 7.19765 20.3496 7.61904 20.3496 8.07031V18C20.3496 19.8502 18.8502 21.3496 17 21.3496H7C5.14985 21.3496 3.65039 19.8502 3.65039 18V8.07031C3.65041 7.61904 3.87554 7.19765 4.25098 6.94727L11.251 2.28027Z" fill="#E75512" stroke="black" stroke-width="1.3" stroke-linejoin="round"/>
<path d="M14 12H10C8.89543 12 8 12.8954 8 14V21.3438H16L16 14C16 12.8954 15.1046 12 14 12Z" fill="white" stroke="black" stroke-width="1.3" stroke-linecap="round"/>
</svg>
