<svg width="18" height="21" viewBox="0 0 18 21" fill="none" xmlns="http://www.w3.org/2000/svg">
<path d="M12.4591 20.4207C11.8542 20.4193 11.2581 20.2755 10.7191 20.0007C8.05622 18.6095 5.75038 16.6224 3.98119 14.1941C2.21201 11.7658 1.02723 8.96186 0.519132 6.0007C0.38391 5.30108 0.451367 4.57738 0.713564 3.91481C0.975761 3.25223 1.42178 2.67834 1.99913 2.2607L3.75913 1.0007C4.3339 0.577065 5.05263 0.397382 5.75913 0.500699C6.48073 0.615606 7.1277 1.01098 7.55913 1.6007L8.76913 3.2207C8.98259 3.51288 9.13583 3.84457 9.21995 4.1965C9.30407 4.54843 9.31739 4.91358 9.25913 5.2707C9.20636 5.62794 9.08167 5.97077 8.8926 6.27844C8.70353 6.58611 8.45401 6.85223 8.15913 7.0607L6.99913 7.8907C7.89637 9.88855 9.19692 11.6794 10.8191 13.1507L11.9991 12.3207C12.5918 11.8946 13.3287 11.7197 14.0496 11.8339C14.7705 11.9481 15.4172 12.3423 15.8491 12.9307L16.9991 14.5507C17.2158 14.8439 17.372 15.1772 17.4587 15.5313C17.5454 15.8854 17.5608 16.2532 17.504 16.6134C17.4473 16.9735 17.3195 17.3187 17.1281 17.629C16.9367 17.9393 16.6855 18.2084 16.3891 18.4207L14.6591 19.6807C14.0232 20.1551 13.2525 20.4143 12.4591 20.4207ZM2.89913 3.4707C2.56127 3.7168 2.29827 4.05179 2.13939 4.43841C1.9805 4.82503 1.93195 5.24814 1.99913 5.6607C2.45622 8.40876 3.54492 11.0132 5.17954 13.2691C6.81415 15.5249 8.95007 17.3705 11.4191 18.6607C11.7943 18.8436 12.2131 18.9181 12.6283 18.8757C13.0436 18.8332 13.4387 18.6757 13.7691 18.4207L15.5091 17.1607C15.6424 17.0637 15.7552 16.9414 15.841 16.8006C15.9268 16.6599 15.984 16.5036 16.0091 16.3407C16.0586 16.0139 15.9798 15.6807 15.7891 15.4107L14.6091 13.7907C14.513 13.6582 14.3917 13.546 14.252 13.4606C14.1123 13.3752 13.9571 13.3183 13.7954 13.2932C13.6336 13.2681 13.4685 13.2753 13.3095 13.3144C13.1505 13.3534 13.0009 13.4235 12.8691 13.5207L11.2491 14.6907C11.1176 14.7929 10.9557 14.8483 10.7891 14.8483C10.6225 14.8483 10.4607 14.7929 10.3291 14.6907C8.15695 12.8693 6.46713 10.5406 5.40913 7.9107C5.34613 7.75723 5.33652 7.58703 5.38186 7.42744C5.4272 7.26785 5.52485 7.12813 5.65913 7.0307L7.27913 5.8507C7.54616 5.65646 7.72549 5.36445 7.77795 5.03844C7.83041 4.71243 7.75175 4.37891 7.55913 4.1107L6.37913 2.4907C6.18489 2.22367 5.89288 2.04434 5.56687 1.99188C5.24086 1.93942 4.90734 2.01809 4.63913 2.2107L2.89913 3.4707Z" fill="#5F5F5F"/>
</svg>
