<svg width="33" height="32" viewBox="0 0 33 32" fill="none" xmlns="http://www.w3.org/2000/svg">
<path d="M16.7643 11.7655C13.0973 11.7655 10.1143 14.7485 10.1143 18.4155C10.1143 22.0825 13.0973 25.0655 16.7643 25.0655C20.4313 25.0655 23.4143 22.0825 23.4143 18.4155C23.4143 14.7485 20.4313 11.7655 16.7643 11.7655ZM16.7643 23.2655C14.0903 23.2655 11.9143 21.0895 11.9143 18.4155C11.9143 15.7415 14.0903 13.5655 16.7643 13.5655C19.4383 13.5655 21.6143 15.7415 21.6143 18.4155C21.6143 21.0895 19.4383 23.2655 16.7643 23.2655ZM26.0453 11.4355C25.7381 11.4355 25.4436 11.5575 25.2264 11.7747C25.0093 11.9919 24.8873 12.2864 24.8873 12.5935C24.8873 12.9007 25.0093 13.1952 25.2264 13.4124C25.4436 13.6295 25.7381 13.7515 26.0453 13.7515C26.3524 13.7515 26.6469 13.6295 26.8641 13.4124C27.0813 13.1952 27.2033 12.9007 27.2033 12.5935C27.2033 12.2864 27.0813 11.9919 26.8641 11.7747C26.6469 11.5575 26.3524 11.4355 26.0453 11.4355Z" fill="white"/>
<path d="M27.7643 7.53509H23.6163L22.6133 5.11309C22.3192 4.39945 21.8195 3.78942 21.1777 3.36062C20.5359 2.93182 19.7811 2.70363 19.0093 2.70509H14.5193C13.7475 2.70329 12.9926 2.93136 12.3509 3.36022C11.7092 3.78907 11.2098 4.39929 10.9163 5.11309L9.91226 7.53509H5.76426C3.61426 7.53509 1.86426 9.28509 1.86426 11.4351V25.3951C1.86426 27.5451 3.61426 29.2951 5.76426 29.2951H27.7643C29.9143 29.2951 31.6643 27.5451 31.6643 25.3951V11.4351C31.6643 9.28509 29.9143 7.53509 27.7643 7.53509ZM29.8643 25.3951C29.8643 26.5531 28.9233 27.4951 27.7643 27.4951H5.76426C4.60626 27.4951 3.66426 26.5531 3.66426 25.3951V11.4351C3.66426 10.2771 4.60526 9.33509 5.76426 9.33509H10.5143C10.6923 9.33522 10.8663 9.28244 11.0143 9.18344C11.1623 9.08444 11.2775 8.9437 11.3453 8.77909L12.5793 5.80109C12.7371 5.41683 13.0058 5.08831 13.3512 4.85748C13.6965 4.62664 14.1029 4.50396 14.5183 4.50509H19.0083C19.8613 4.50509 20.6223 5.01409 20.9483 5.80109L22.1813 8.77909C22.2493 8.94354 22.3645 9.08414 22.5124 9.1831C22.6604 9.28207 22.8343 9.33496 23.0123 9.33509H27.7643C28.9223 9.33509 29.8643 10.2771 29.8643 11.4351V25.3951Z" fill="white"/>
<path d="M15.2018 8.27461H18.3268C18.5655 8.27461 18.7944 8.17979 18.9632 8.01101C19.1319 7.84222 19.2268 7.6133 19.2268 7.37461C19.2268 7.13591 19.1319 6.907 18.9632 6.73821C18.7944 6.56943 18.5655 6.47461 18.3268 6.47461H15.2018C14.9631 6.47461 14.7341 6.56943 14.5654 6.73821C14.3966 6.907 14.3018 7.13591 14.3018 7.37461C14.3018 7.6133 14.3966 7.84222 14.5654 8.01101C14.7341 8.17979 14.9631 8.27461 15.2018 8.27461Z" fill="white"/>
</svg>
