<svg width="22" height="25" viewBox="0 0 22 25" fill="none" xmlns="http://www.w3.org/2000/svg">
<path d="M18.178 3.39399C16.2608 1.47676 13.7117 0.420898 11.0004 0.420898C8.28905 0.420898 5.73989 1.47676 3.8227 3.39399C1.90547 5.31127 0.849609 7.86034 0.849609 10.5716C0.849609 16.0566 6.03577 20.6187 8.82197 23.0696C9.20916 23.4102 9.54352 23.7043 9.80991 23.9531C10.1437 24.2649 10.572 24.4208 11.0003 24.4208C11.4287 24.4208 11.857 24.2649 12.1908 23.9531C12.4572 23.7043 12.7916 23.4102 13.1788 23.0696C15.965 20.6186 21.1511 16.0566 21.1511 10.5716C21.1511 7.86034 20.0953 5.31127 18.178 3.39399ZM12.2502 22.0141C11.8545 22.3621 11.5128 22.6627 11.2311 22.9258C11.1017 23.0466 10.899 23.0467 10.7695 22.9258C10.4879 22.6626 10.1461 22.3621 9.75047 22.014C7.13109 19.7099 2.25539 15.4209 2.25539 10.5717C2.25539 5.74974 6.17831 1.82682 11.0003 1.82682C15.8222 1.82682 19.7452 5.74974 19.7452 10.5717C19.7452 15.4209 14.8695 19.7099 12.2502 22.0141Z" fill="#5F5F5F"/>
<path d="M11.0007 5.71484C8.53406 5.71484 6.52734 7.72152 6.52734 10.1881C6.52734 12.6547 8.53406 14.6614 11.0007 14.6614C13.4673 14.6614 15.474 12.6547 15.474 10.1881C15.474 7.72152 13.4673 5.71484 11.0007 5.71484ZM11.0007 13.2555C9.30928 13.2555 7.93322 11.8794 7.93322 10.1881C7.93322 8.49673 9.30928 7.12067 11.0007 7.12067C12.6921 7.12067 14.0681 8.49673 14.0681 10.1881C14.0681 11.8794 12.6921 13.2555 11.0007 13.2555Z" fill="#5F5F5F"/>
</svg>
