<svg width="25" height="24" viewBox="0 0 25 24" fill="none" xmlns="http://www.w3.org/2000/svg">
<rect x="2.74766" y="2.65" width="18.7" height="15.7" rx="2.35" fill="#E75512" stroke="black" stroke-width="1.3"/>
<circle cx="8.09766" cy="8" r="2.35" stroke="white" stroke-width="1.3"/>
<mask id="path-3-inside-1_1039_8691" fill="white">
<path d="M4.09766 17.7812H11.0977V22.2025C11.0977 22.9865 10.2365 23.4655 9.57034 23.0521L7.55391 21.8007L5.63451 23.0221C4.96878 23.4457 4.09766 22.9675 4.09766 22.1784V17.7812Z"/>
</mask>
<path d="M4.09766 17.7812H11.0977V22.2025C11.0977 22.9865 10.2365 23.4655 9.57034 23.0521L7.55391 21.8007L5.63451 23.0221C4.96878 23.4457 4.09766 22.9675 4.09766 22.1784V17.7812Z" fill="black"/>
<path d="M4.09766 17.7812V16.4813C3.37969 16.4813 2.79766 17.0633 2.79766 17.7812H4.09766ZM11.0977 17.7812H12.3977C12.3977 17.0633 11.8156 16.4813 11.0977 16.4813V17.7812ZM7.55391 21.8007L8.23942 20.6961L7.54526 20.2653L6.85599 20.7039L7.55391 21.8007ZM4.09766 17.7812V19.0812H11.0977V17.7812V16.4813H4.09766V17.7812ZM11.0977 17.7812H9.79766V22.2025H11.0977H12.3977V17.7812H11.0977ZM4.09766 22.1784H5.39766V17.7812H4.09766H2.79766V22.1784H4.09766ZM9.57034 23.0521L10.2559 21.9476L8.23942 20.6961L7.55391 21.8007L6.86839 22.9053L8.88482 24.1567L9.57034 23.0521ZM7.55391 21.8007L6.85599 20.7039L4.9366 21.9253L5.63451 23.0221L6.33242 24.1188L8.25182 22.8975L7.55391 21.8007ZM4.09766 22.1784H2.79766C2.79766 23.9933 4.80125 25.0932 6.33242 24.1188L5.63451 23.0221L4.9366 21.9253C5.13632 21.7982 5.39766 21.9417 5.39766 22.1784H4.09766ZM11.0977 22.2025H9.79766C9.79766 21.9672 10.056 21.8235 10.2559 21.9476L9.57034 23.0521L8.88482 24.1567C10.417 25.1076 12.3977 24.0057 12.3977 22.2025H11.0977Z" fill="black" mask="url(#path-3-inside-1_1039_8691)"/>
<line x1="10.9727" y1="12.875" x2="18.5977" y2="12.875" stroke="white" stroke-linecap="round"/>
</svg>
