<svg width="25" height="24" viewBox="0 0 25 24" fill="none" xmlns="http://www.w3.org/2000/svg">
<rect x="3.30625" y="2.65" width="18.7" height="15.7" rx="2.35" stroke="black" stroke-width="1.3"/>
<circle cx="8.65625" cy="8" r="2.35" stroke="black" stroke-width="1.3"/>
<mask id="path-3-inside-1_1039_4839" fill="white">
<path d="M4.65625 17.7812H11.6562V22.2025C11.6562 22.9865 10.7951 23.4655 10.1289 23.0521L8.1125 21.8007L6.1931 23.0221C5.52738 23.4457 4.65625 22.9675 4.65625 22.1784V17.7812Z"/>
</mask>
<path d="M4.65625 17.7812V16.4813C3.93828 16.4813 3.35625 17.0633 3.35625 17.7812H4.65625ZM11.6562 17.7812H12.9563C12.9563 17.0633 12.3742 16.4813 11.6562 16.4813V17.7812ZM8.1125 21.8007L8.79801 20.6961L8.10385 20.2653L7.41459 20.7039L8.1125 21.8007ZM4.65625 17.7812V19.0812H11.6562V17.7812V16.4813H4.65625V17.7812ZM11.6562 17.7812H10.3562V22.2025H11.6562H12.9563V17.7812H11.6562ZM4.65625 22.1784H5.95625V17.7812H4.65625H3.35625V22.1784H4.65625ZM10.1289 23.0521L10.8144 21.9476L8.79801 20.6961L8.1125 21.8007L7.42699 22.9053L9.44342 24.1567L10.1289 23.0521ZM8.1125 21.8007L7.41459 20.7039L5.49519 21.9253L6.1931 23.0221L6.89102 24.1188L8.81041 22.8975L8.1125 21.8007ZM4.65625 22.1784H3.35625C3.35625 23.9933 5.35984 25.0932 6.89102 24.1188L6.1931 23.0221L5.49519 21.9253C5.69491 21.7982 5.95625 21.9417 5.95625 22.1784H4.65625ZM11.6562 22.2025H10.3562C10.3562 21.9672 10.6146 21.8235 10.8144 21.9476L10.1289 23.0521L9.44342 24.1567C10.9756 25.1076 12.9563 24.0057 12.9563 22.2025H11.6562Z" fill="black" mask="url(#path-3-inside-1_1039_4839)"/>
<line x1="11.5312" y1="12.875" x2="19.1562" y2="12.875" stroke="black" stroke-linecap="round"/>
</svg>
