<svg width="41" height="40" viewBox="0 0 41 40" fill="none" xmlns="http://www.w3.org/2000/svg">
<path d="M29.6049 11.638C29.4528 11.638 29.2902 11.6747 29.1275 11.7481L11.377 18.5934C10.1653 19.0865 10.1811 19.7579 11.1619 20.0517L15.7202 21.4784L15.7307 21.4732L15.7464 21.4784L17.3043 26.6242C17.5194 27.1907 17.4093 27.4215 18.0125 27.4215C18.4741 27.4215 18.6734 27.2064 18.9357 26.9599C19.0983 26.8025 20.0425 25.8846 21.1073 24.8512C21.123 24.8355 21.1335 24.825 21.1335 24.825L25.7128 28.2031C26.0327 28.3762 26.316 28.4496 26.5625 28.4234C26.9822 28.3919 27.2864 28.0667 27.428 27.4215L30.4546 13.1749C30.7064 12.1573 30.2291 11.6065 29.6049 11.638Z" fill="#F5E9D4"/>
<path d="M34.2626 32.4361C33.7118 32.5987 33.4076 33.2125 33.1453 33.6846C32.9092 34.1147 32.4529 34.6182 32.4529 35.1218C32.4529 35.2844 32.6207 35.4155 32.7781 35.3683C33.2659 35.232 33.6279 34.6602 33.9793 34.3192C34.3675 33.9416 34.8868 33.48 34.8973 32.9135C34.9077 32.5987 34.572 32.347 34.2626 32.4361Z" fill="#F5E9D4"/>
<path d="M40.148 21.4209C42.5294 11.8008 32.5893 2.07049 23.5462 0.360475C18.5736 -0.578457 13.4015 0.313263 9.16324 3.07761C5.52291 5.44854 1.79865 9.66063 1.33705 14.1192C1.32656 14.2189 1.35804 14.2976 1.40001 14.3658C-1.46924 21.7251 1.65702 30.9781 7.94629 35.6517C14.1831 40.2835 24.4379 41.9043 31.0682 37.068C31.6294 36.6589 31.1626 35.8458 30.5226 36.1448C30.2813 36.255 30.0401 36.3651 29.804 36.4753C29.6834 36.2655 29.4316 36.1291 29.1169 36.2812C24.7002 38.3741 18.5683 37.3145 14.2041 35.7619C13.711 35.5888 13.3753 36.3704 13.8474 36.6012C16.1711 37.7289 18.6994 38.3899 21.2907 38.5262C22.3712 38.5839 23.457 38.5472 24.5376 38.4318C22.8905 38.8462 21.191 39.035 19.3604 38.8724C15.6413 38.5367 12.3577 37.1519 9.28389 35.0957C5.68028 32.6881 3.22017 29.7559 2.05569 25.5595C1.04332 21.9244 0.990851 18.0953 2.10813 14.4969C2.15534 14.4602 2.20255 14.4182 2.22878 14.3605C2.42286 13.9934 2.61169 13.6314 2.80053 13.2747C1.69374 16.123 1.36853 19.2807 1.86684 22.2916C2.80577 28.0039 6.02646 31.7754 10.7631 34.8754C11.3296 35.2478 11.9014 34.2932 11.2981 33.9732C7.0913 31.7439 3.7552 26.6716 3.04706 22.0346C2.2655 16.9151 4.12762 12.1102 7.17522 8.03454C7.43749 7.68834 6.88672 7.30542 6.58773 7.58343C6.08941 8.05027 5.62782 8.55384 5.19769 9.08363C5.89534 8.03454 6.6769 7.0484 7.61583 6.13045C7.40077 6.49238 7.74697 7.03792 8.1771 6.75991C9.28388 6.05177 10.3539 5.29643 11.5027 4.646C12.321 4.1844 13.1917 3.81721 14.031 3.39233C14.1674 3.4343 14.3247 3.44479 14.5083 3.39758C20.6035 1.85018 26.6725 2.51635 31.4196 6.96972C31.6032 7.14282 31.8287 7.06414 31.9441 6.90678C31.9022 7.12709 32.0228 7.38935 32.3166 7.38935C32.8306 7.38935 32.8306 6.59728 32.3166 6.59728C32.1697 6.59728 32.07 6.66024 32.0071 6.75466C32.0176 6.66548 31.9966 6.57107 31.9127 6.4819C30.3286 4.80861 28.33 3.41331 26.1322 2.43766C32.5526 4.78761 37.8925 10.5366 38.6635 17.1721C38.1862 15.0529 37.2997 13.002 36.0041 11.1503C35.6737 10.6835 34.9445 11.0874 35.2225 11.6014C36.9483 14.7592 37.7613 18.2107 37.8767 21.7881C37.9974 25.5228 36.5444 28.712 34.5564 31.7911C34.3518 32.1058 34.8239 32.4887 35.0809 32.2265C35.2016 32.2894 35.3484 32.2894 35.4743 32.174C38.3436 29.4988 40.4417 25.4913 40.1585 21.4786C40.1585 21.4576 40.148 21.4419 40.148 21.4209Z" fill="#F5E9D4"/>
<path d="M12.2735 35.3419C12.1476 35.6357 12.3155 35.9294 12.6092 36.0291C12.8243 36.1025 13.0183 36.176 13.2439 36.2074C13.6321 36.2547 13.7789 35.7249 13.5429 35.4888C13.3908 35.3315 13.1862 35.2213 13.0026 35.1007C12.7456 34.9276 12.3889 35.0797 12.2735 35.3419Z" fill="#F5E9D4"/>
</svg>
