<svg width="40" height="40" viewBox="0 0 40 40" fill="none" xmlns="http://www.w3.org/2000/svg">
<g clip-path="url(#clip0_376_6149)">
<path d="M6.77699 30.4107C6.79687 30.5753 6.8813 30.7252 7.01172 30.8275C7.14214 30.9298 7.30786 30.9761 7.47243 30.9563L34.774 27.6586C34.9386 27.6387 35.0885 27.5543 35.1908 27.4238C35.2931 27.2934 35.3394 27.1277 35.3195 26.9631C35.2997 26.7986 35.2152 26.6486 35.0848 26.5463C34.9544 26.444 34.7887 26.3977 34.6241 26.4176L7.32253 29.7153C7.15797 29.7352 7.00804 29.8196 6.90573 29.95C6.80342 30.0804 6.75711 30.2461 6.77699 30.4107ZM5.3739 13.5825L32.6755 10.2849C32.84 10.265 32.99 10.1805 33.0923 10.0501C33.1946 9.9197 33.2409 9.75398 33.221 9.58941C33.2011 9.42485 33.1167 9.27492 32.9863 9.17261C32.8559 9.0703 32.6901 9.02399 32.5256 9.04387L5.22401 12.3416C5.05944 12.3614 4.90951 12.4459 4.8072 12.5763C4.70489 12.7067 4.65859 12.8724 4.67846 13.037C4.69834 13.2016 4.78277 13.3515 4.91319 13.4538C5.04361 13.5561 5.20934 13.6024 5.3739 13.5825Z" fill="black"/>
<path d="M34.7082 6.26216L2.44276 10.1594C2.27819 10.1793 2.12826 10.2637 2.02595 10.3942C1.92365 10.5246 1.87734 10.6903 1.89721 10.8549L2.49679 15.8188C2.51667 15.9833 2.60111 16.1333 2.73153 16.2356C2.86195 16.3379 3.02767 16.3842 3.19223 16.3643C6.2711 15.9924 9.07928 18.1953 9.45117 21.2742C9.82306 24.3531 7.62015 27.1613 4.54128 27.5331C4.37672 27.553 4.22679 27.6375 4.12448 27.7679C4.02217 27.8983 3.97586 28.064 3.99574 28.2286L4.59532 33.1925C4.6152 33.3571 4.69963 33.507 4.83005 33.6093C4.96047 33.7116 5.12619 33.7579 5.29076 33.738L37.5562 29.8408C37.7208 29.8209 37.8707 29.7365 37.973 29.6061C38.0753 29.4756 38.1217 29.3099 38.1018 29.1453L37.5022 24.1814C37.4823 24.0169 37.3979 23.8669 37.2675 23.7646C37.137 23.6623 36.9713 23.616 36.8068 23.6359C33.7279 24.0078 30.9197 21.8049 30.5478 18.726C30.1759 15.6471 32.3788 12.839 35.4577 12.4671C35.6223 12.4472 35.7722 12.3628 35.8745 12.2323C35.9768 12.1019 36.0231 11.9362 36.0033 11.7716L35.4037 6.80771C35.3838 6.64314 35.2994 6.49321 35.1689 6.39091C35.0385 6.2886 34.8728 6.24229 34.7082 6.26216Z" fill="#E75512"/>
<path d="M34.7082 6.26216L2.44276 10.1594C2.27819 10.1793 2.12826 10.2637 2.02595 10.3942C1.92365 10.5246 1.87734 10.6903 1.89721 10.8549L2.49679 15.8188C2.51667 15.9833 2.60111 16.1333 2.73153 16.2356C2.86195 16.3379 3.02767 16.3842 3.19223 16.3643C6.2711 15.9924 9.07928 18.1953 9.45117 21.2742C9.82306 24.3531 7.62015 27.1613 4.54128 27.5331C4.37672 27.553 4.22679 27.6375 4.12448 27.7679C4.02217 27.8983 3.97586 28.064 3.99574 28.2286L4.59532 33.1925C4.6152 33.3571 4.69963 33.507 4.83005 33.6093C4.96047 33.7116 5.12619 33.7579 5.29076 33.738L37.5562 29.8408C37.7208 29.8209 37.8707 29.7365 37.973 29.6061C38.0753 29.4756 38.1217 29.3099 38.1018 29.1453L37.5022 24.1814C37.4823 24.0169 37.3979 23.8669 37.2675 23.7646C37.1371 23.6623 36.9713 23.616 36.8068 23.6359C33.7279 24.0078 30.9197 21.8049 30.5478 18.726C30.1759 15.6471 32.3788 12.839 35.4577 12.4671C35.6223 12.4472 35.7722 12.3628 35.8745 12.2323C35.9768 12.1019 36.0231 11.9362 36.0033 11.7716L35.4037 6.80771C35.3838 6.64314 35.2994 6.49321 35.1689 6.39091C35.0385 6.2886 34.8728 6.24229 34.7082 6.26216ZM34.6906 11.3283C31.255 12.0619 28.8774 15.3205 29.3068 18.8759C29.7363 22.4313 32.8213 25.0289 36.3329 24.9245L36.7859 28.6748L5.76135 32.4221L5.30837 28.6719C8.74395 27.9384 11.1216 24.6797 10.6921 21.1243C10.2627 17.5689 7.1777 14.9714 3.66612 15.0757L3.21314 11.3255L34.2376 7.57809L34.6906 11.3283Z" fill="black"/>
<path d="M21.9838 15.3535V22.5323C21.9838 24.3748 20.4838 25.8735 18.6413 25.8735C16.7988 25.8735 15.2988 24.3735 15.2988 22.531C15.2988 20.6885 16.7988 19.1885 18.6413 19.1885C19.4054 19.1919 20.1447 19.4595 20.7338 19.946V12.7485C20.7338 12.5828 20.7997 12.4238 20.9169 12.3066C21.0341 12.1894 21.1931 12.1235 21.3588 12.1235C21.5246 12.1235 21.6836 12.1894 21.8008 12.3066C21.918 12.4238 21.9838 12.5828 21.9838 12.7485C21.9845 13.3033 22.2052 13.8351 22.5974 14.2274C22.9897 14.6197 23.5216 14.8404 24.0763 14.841C24.2421 14.841 24.4011 14.9069 24.5183 15.0241C24.6355 15.1413 24.7013 15.3003 24.7013 15.466C24.7013 15.6318 24.6355 15.7908 24.5183 15.908C24.4011 16.0252 24.2421 16.091 24.0763 16.091C23.315 16.092 22.5763 15.8317 21.9838 15.3535Z" fill="white"/>
</g>
<defs>
<clipPath id="clip0_376_6149">
<rect width="40" height="40" fill="white"/>
</clipPath>
</defs>
</svg>
