<svg width="40" height="40" viewBox="0 0 40 40" fill="none" xmlns="http://www.w3.org/2000/svg">
<g clip-path="url(#clip0_209_1394)">
<path d="M5.625 28.75C5.625 28.9158 5.69085 29.0747 5.80806 29.1919C5.92527 29.3092 6.08424 29.375 6.25 29.375H33.75C33.9158 29.375 34.0747 29.3092 34.1919 29.1919C34.3092 29.0747 34.375 28.9158 34.375 28.75C34.375 28.5842 34.3092 28.4253 34.1919 28.3081C34.0747 28.1908 33.9158 28.125 33.75 28.125H6.25C6.08424 28.125 5.92527 28.1908 5.80806 28.3081C5.69085 28.4253 5.625 28.5842 5.625 28.75ZM6.25 11.875H33.75C33.9158 11.875 34.0747 11.8092 34.1919 11.6919C34.3092 11.5747 34.375 11.4158 34.375 11.25C34.375 11.0842 34.3092 10.9253 34.1919 10.8081C34.0747 10.6908 33.9158 10.625 33.75 10.625H6.25C6.08424 10.625 5.92527 10.6908 5.80806 10.8081C5.69085 10.9253 5.625 11.0842 5.625 11.25C5.625 11.4158 5.69085 11.5747 5.80806 11.6919C5.92527 11.8092 6.08424 11.875 6.25 11.875Z" fill="black"/>
<path d="M36.25 8.125H3.75C3.58424 8.125 3.42527 8.19085 3.30806 8.30806C3.19085 8.42527 3.125 8.58424 3.125 8.75V13.75C3.125 13.9158 3.19085 14.0747 3.30806 14.1919C3.42527 14.3092 3.58424 14.375 3.75 14.375C6.85125 14.375 9.375 16.8988 9.375 20C9.375 23.1012 6.85125 25.625 3.75 25.625C3.58424 25.625 3.42527 25.6908 3.30806 25.8081C3.19085 25.9253 3.125 26.0842 3.125 26.25V31.25C3.125 31.4158 3.19085 31.5747 3.30806 31.6919C3.42527 31.8092 3.58424 31.875 3.75 31.875H36.25C36.4158 31.875 36.5747 31.8092 36.6919 31.6919C36.8092 31.5747 36.875 31.4158 36.875 31.25V26.25C36.875 26.0842 36.8092 25.9253 36.6919 25.8081C36.5747 25.6908 36.4158 25.625 36.25 25.625C33.1488 25.625 30.625 23.1012 30.625 20C30.625 16.8988 33.1488 14.375 36.25 14.375C36.4158 14.375 36.5747 14.3092 36.6919 14.1919C36.8092 14.0747 36.875 13.9158 36.875 13.75V8.75C36.875 8.58424 36.8092 8.42527 36.6919 8.30806C36.5747 8.19085 36.4158 8.125 36.25 8.125ZM35.625 13.1525C32.1262 13.4688 29.375 16.4187 29.375 20C29.375 23.5813 32.1262 26.53 35.625 26.8475V30.625H4.375V26.8475C7.87375 26.5312 10.625 23.5813 10.625 20C10.625 16.4187 7.87375 13.47 4.375 13.1525V9.375H35.625V13.1525Z" fill="black"/>
<path d="M21.9838 15.3535V22.5323C21.9838 24.3748 20.4838 25.8735 18.6413 25.8735C16.7988 25.8735 15.2988 24.3735 15.2988 22.531C15.2988 20.6885 16.7988 19.1885 18.6413 19.1885C19.4054 19.1919 20.1447 19.4595 20.7338 19.946V12.7485C20.7338 12.5828 20.7997 12.4238 20.9169 12.3066C21.0341 12.1894 21.1931 12.1235 21.3588 12.1235C21.5246 12.1235 21.6836 12.1894 21.8008 12.3066C21.918 12.4238 21.9838 12.5828 21.9838 12.7485C21.9845 13.3033 22.2052 13.8351 22.5974 14.2274C22.9897 14.6197 23.5216 14.8404 24.0763 14.841C24.2421 14.841 24.4011 14.9069 24.5183 15.0241C24.6355 15.1413 24.7013 15.3003 24.7013 15.466C24.7013 15.6318 24.6355 15.7908 24.5183 15.908C24.4011 16.0252 24.2421 16.091 24.0763 16.091C23.315 16.092 22.5763 15.8317 21.9838 15.3535Z" fill="#E75512"/>
</g>
<defs>
<clipPath id="clip0_209_1394">
<rect width="40" height="40" fill="white"/>
</clipPath>
</defs>
</svg>
