<svg width="20" height="23" viewBox="0 0 20 23" fill="none" xmlns="http://www.w3.org/2000/svg">
<path d="M9.99991 12.1709C6.82991 12.1709 4.24991 9.5909 4.24991 6.4209C4.24991 3.2509 6.82991 0.670898 9.99991 0.670898C13.1699 0.670898 15.7499 3.2509 15.7499 6.4209C15.7499 9.5909 13.1699 12.1709 9.99991 12.1709ZM9.99991 2.1709C7.65991 2.1709 5.74991 4.0809 5.74991 6.4209C5.74991 8.7609 7.65991 10.6709 9.99991 10.6709C12.3399 10.6709 14.2499 8.7609 14.2499 6.4209C14.2499 4.0809 12.3399 2.1709 9.99991 2.1709ZM18.5899 22.1709C18.1799 22.1709 17.8399 21.8309 17.8399 21.4209C17.8399 17.9709 14.3199 15.1709 9.99991 15.1709C5.67991 15.1709 2.15991 17.9709 2.15991 21.4209C2.15991 21.8309 1.81991 22.1709 1.40991 22.1709C0.999912 22.1709 0.659912 21.8309 0.659912 21.4209C0.659912 17.1509 4.84991 13.6709 9.99991 13.6709C15.1499 13.6709 19.3399 17.1509 19.3399 21.4209C19.3399 21.8309 18.9999 22.1709 18.5899 22.1709Z" fill="#5F5F5F"/>
</svg>
