<svg width="33" height="25" viewBox="0 0 33 25" fill="none" xmlns="http://www.w3.org/2000/svg">
<path d="M21.4251 10.6875L14.3555 6.81936C13.949 6.59692 13.4685 6.60523 13.0701 6.8413C12.6714 7.07761 12.4336 7.49511 12.4336 7.95848V15.6284C12.4336 16.0896 12.67 16.5064 13.066 16.7429C13.2727 16.8664 13.502 16.9285 13.7317 16.9285C13.9467 16.9282 14.1582 16.8744 14.3472 16.772L21.417 12.9705C21.623 12.8598 21.7952 12.6955 21.9155 12.4951C22.0358 12.2946 22.0998 12.0653 22.1006 11.8315C22.1015 11.5977 22.0393 11.3679 21.9204 11.1665C21.8015 10.9651 21.6303 10.7996 21.4251 10.6875ZM14.3088 14.6635V8.93117L19.5926 11.8222L14.3088 14.6635Z" fill="#E75512"/>
<path d="M32.2645 5.72042L32.2631 5.70579C32.2359 5.44823 31.9662 3.15724 30.8524 1.99193C29.5651 0.62131 28.1055 0.454811 27.4036 0.374999C27.3506 0.369145 27.2976 0.362791 27.2447 0.355936L27.1888 0.350124C22.9584 0.0424999 16.5695 0.000499998 16.5056 0.000249999L16.4999 0L16.4943 0.000249999C16.4304 0.000499998 10.0415 0.0424999 5.77292 0.350124L5.71654 0.355936C5.6711 0.362061 5.62104 0.367686 5.56661 0.374061C4.8728 0.454061 3.42893 0.620872 2.13793 2.04099C1.07712 3.19386 0.770499 5.43579 0.738999 5.68773L0.735374 5.72042C0.725812 5.8276 0.5 8.37915 0.5 10.9406V13.3351C0.5 15.8967 0.725812 18.4482 0.735374 18.5556L0.737062 18.5717C0.764186 18.8251 1.03369 21.0742 2.14231 22.2399C3.3528 23.5646 4.8833 23.7399 5.70654 23.8342C5.83667 23.849 5.94873 23.8617 6.0251 23.8752L6.0991 23.8854C8.54172 24.1178 16.2001 24.2323 16.5248 24.237L16.5346 24.2372L16.5444 24.237C16.6083 24.2367 22.997 24.1947 27.2275 23.8871L27.2833 23.8813C27.3368 23.8742 27.3969 23.8678 27.4628 23.861C28.1528 23.7877 29.5888 23.6357 30.8619 22.2347C31.9228 21.0817 32.2296 18.8397 32.2609 18.5881L32.2645 18.5554C32.2741 18.4479 32.5001 15.8966 32.5001 13.3351V10.9406C32.4999 8.37909 32.2741 5.82785 32.2645 5.72042ZM30.6246 13.3351C30.6246 15.706 30.4176 18.1476 30.3981 18.3717C30.3185 18.9892 29.9949 20.4076 29.4781 20.9694C28.6813 21.8461 27.8627 21.933 27.265 21.9963C27.1984 22.0031 27.1318 22.0106 27.0653 22.0187C22.9735 22.3146 16.8259 22.36 16.5427 22.3617C16.2251 22.3571 8.67866 22.2416 6.31054 22.0217C6.18917 22.0019 6.05804 21.9867 5.91992 21.9711C5.21898 21.8908 4.25949 21.7809 3.52174 20.9694L3.50436 20.9509C2.99655 20.4218 2.68237 19.0954 2.60249 18.3791C2.58762 18.2097 2.37524 15.7392 2.37524 13.3351V10.9406C2.37524 8.57253 2.5818 6.13354 2.6018 5.90479C2.6968 5.17748 3.02637 3.84498 3.52174 3.30636C4.34298 2.40305 5.20898 2.30299 5.78173 2.2368C5.83642 2.23043 5.88742 2.22462 5.93454 2.21849C10.0859 1.92112 16.2778 1.87693 16.4999 1.87524C16.7221 1.87668 22.9118 1.92112 27.0263 2.21849C27.0768 2.22487 27.132 2.23118 27.1913 2.23805C27.7804 2.30518 28.6708 2.40674 29.4879 3.2783L29.4954 3.28636C30.0033 3.81542 30.3175 5.16504 30.3973 5.89573C30.4115 6.05566 30.6246 8.53147 30.6246 10.9406V13.3351Z" fill="#E75512"/>
</svg>
