<svg width="41" height="40" viewBox="0 0 41 40" fill="none" xmlns="http://www.w3.org/2000/svg">
<path d="M21.7012 9.26754C21.7012 9.26754 19.5146 4.38386 14.6062 1.80904C11.6685 0.267973 8.61568 -0.130115 5.43346 1.80904C4.42294 2.42482 3.6823 3.46089 3.14204 4.58823C1.62096 7.76218 2.94792 11.3959 5.11363 14.1703L12.6648 23.8439L18.7094 31.5874L21.125 31.5874L23.6595 31.5874L28.8667 24.3863L33.26 18.3108L33.266 18.3024C33.3707 18.1552 41.0316 7.33575 33.2642 3.65966C25.4434 -0.0416479 21.7012 9.26754 21.7012 9.26754Z" fill="#E75512" stroke="black" stroke-linejoin="round"/>
<path d="M31.0597 30.979C31.0597 30.979 30.7742 31.4222 30.8655 30.9546C31.093 29.7902 31.1234 28.5924 30.9519 27.4116C30.7116 25.7566 30.0818 24.1823 29.1142 22.8183C28.1466 21.4542 26.8689 20.3395 25.3863 19.5657C23.9037 18.7919 22.2586 18.3813 20.5863 18.3675C18.914 18.3538 17.2623 18.7374 15.7672 19.4867C14.2721 20.236 12.9763 21.3296 11.9864 22.6775C10.9966 24.0255 10.3409 25.5892 10.0734 27.24C9.87332 28.4753 9.89482 29.7329 10.1335 30.9546H13.25C12.9293 29.9609 13.083 29.0124 13.25 27.9817C13.417 26.951 14.007 25.9554 14.625 25.1138C15.243 24.2723 16.004 23.1454 16.9375 22.6775C17.871 22.2097 19.5422 21.9289 20.5863 21.9375C21.6304 21.9461 22.8868 22.1944 23.8125 22.6775C24.7382 23.1606 26.0834 24.2622 26.6875 25.1138C27.2916 25.9655 27.7875 26.9484 27.9375 27.9817C28.0875 29.015 27.8995 29.9907 27.5625 30.979H31.0597Z" fill="white"/>
<path fill-rule="evenodd" clip-rule="evenodd" d="M11.4124 23.4947L4.50045 14.6399C2.28217 11.7982 0.791917 7.91157 2.46074 4.42932C3.02578 3.2503 3.83085 2.09795 4.98102 1.39708C8.39103 -0.680892 11.676 -0.231712 14.7447 1.37811C17.3023 2.71976 19.1397 4.65597 20.3337 6.24362C20.8504 6.93073 21.2495 7.5565 21.537 8.04723C21.6017 7.92817 21.6723 7.80198 21.749 7.66998C22.2391 6.82559 22.9829 5.72874 23.9909 4.74632C24.999 3.76379 26.2913 2.87659 27.8763 2.49174C29.4723 2.1042 31.3128 2.23908 33.3806 3.21772C35.4818 4.21212 36.5826 5.72226 36.9989 7.43653C37.407 9.117 37.1449 10.9372 36.6515 12.5776C35.6646 15.8586 33.6747 18.6662 33.6147 18.7506L33.6083 18.7595L33.6059 18.7627L29.8513 23.9551C29.8933 24.0324 29.9344 24.1102 29.9745 24.1887C31.037 26.2651 31.3867 28.6301 30.9752 30.9199H39.2559V33.3818C39.2559 36.1433 37.0173 38.3818 34.2559 38.3818H6.74609C3.98467 38.3818 1.74609 36.1433 1.74609 33.3818V30.9199H10.0233C9.61226 28.6329 9.96057 26.2707 11.0202 24.1959C11.1425 23.9566 11.2733 23.7227 11.4124 23.4947ZM29.1647 22.8567L32.6368 18.055C32.6667 18.0125 34.5825 15.2898 35.5023 12.2319C35.9663 10.6895 36.1696 9.10641 35.8328 7.71973C35.5042 6.36685 34.6499 5.14602 32.8673 4.30238C31.0247 3.43037 29.4647 3.34091 28.1594 3.65785C26.8431 3.97747 25.7335 4.72357 24.8285 5.60568C23.9233 6.48789 23.2427 7.487 22.7868 8.27242C22.5597 8.66361 22.3905 8.998 22.2789 9.23281C22.2231 9.35012 22.1818 9.44231 22.1549 9.50398C22.1415 9.53481 22.1317 9.55799 22.1255 9.57284L22.1189 9.58879L22.1177 9.59172C22.0278 9.81488 21.8131 9.96315 21.5726 9.96781C21.3321 9.97247 21.112 9.83303 21.0135 9.61358L21.013 9.61233L21.0094 9.6046L20.9928 9.56897C20.9774 9.53647 20.9535 9.48679 20.9209 9.42167C20.8557 9.2914 20.7558 9.09954 20.6203 8.85999C20.3492 8.38054 19.9365 7.71205 19.3746 6.96486C18.2481 5.46697 16.5381 3.67394 14.1873 2.44077C11.3806 0.968449 8.55989 0.621457 5.60546 2.4218C4.73459 2.95249 4.05839 3.87227 3.54289 4.94793C2.16956 7.81358 3.33325 11.1945 5.44638 13.9015L12.129 22.4624C13.0934 21.2346 14.3205 20.2287 15.7273 19.5231L15.7458 19.5416L16.6891 20.4878L16.7014 20.5001C14.7475 21.3693 13.1508 22.8825 12.178 24.7872C11.2122 26.6782 10.9195 28.8412 11.3471 30.9199H12.5279C12.4723 30.6848 12.427 30.4464 12.3923 30.2055C12.1109 28.252 12.5443 26.2624 13.6129 24.603C14.5623 23.1286 15.9564 22.0029 17.5846 21.383L17.6364 21.4348L18.55 22.3461L18.572 22.4219C16.9778 22.8863 15.6049 23.9107 14.7059 25.3068C13.8069 26.7029 13.4422 28.3766 13.679 30.0202C13.723 30.3255 13.7873 30.626 13.8707 30.9199H27.1278C27.2146 30.6141 27.2806 30.3011 27.3247 29.9829C27.5525 28.3381 27.1788 26.6664 26.2721 25.2753C25.3655 23.8841 23.987 22.8671 22.3903 22.4114L22.3925 22.4037L23.4134 21.3828C25.0273 21.9972 26.4119 23.1087 27.3613 24.5655C28.4389 26.2191 28.8832 28.2062 28.6124 30.1613C28.577 30.4172 28.5296 30.6703 28.4706 30.9199H29.6513C30.0795 28.8388 29.7856 26.6733 28.8173 24.7809C27.844 22.8788 26.2483 21.3679 24.2963 20.4998L24.3083 20.4878L25.2539 19.5384L25.2699 19.5225C26.825 20.3021 28.1606 21.4488 29.1647 22.8567ZM38.0559 32.1199H23.039C23.0347 33.5185 21.8996 34.6509 20.5 34.6509C19.1004 34.6509 17.9653 33.5185 17.961 32.1199H2.94609V33.3818C2.94609 35.4805 4.64741 37.1818 6.74609 37.1818H34.2559C36.3545 37.1818 38.0559 35.4805 38.0559 33.3818V32.1199ZM20.5 33.4509C21.2368 33.4509 21.8347 32.8557 21.839 32.1199H19.161C19.1653 32.8557 19.7632 33.4509 20.5 33.4509Z" fill="black"/>
<path d="M23.7388 22.0293L22.9342 22.834L22.0907 23.6774L20.8781 24.89C20.8702 24.8985 20.859 24.9012 20.85 24.9086C20.7995 24.949 20.7442 24.9831 20.6853 25.0101C20.5682 25.0575 20.4371 25.0575 20.3199 25.0101C20.2611 24.9831 20.2058 24.949 20.1553 24.9086C20.1456 24.9029 20.1362 24.8967 20.1271 24.89L18.9145 23.6774L18.069 22.834L17.264 22.0293L16.4623 21.2252L14.2847 19.0475C14.2058 18.9688 14.1537 18.8672 14.1358 18.7572C14.1179 18.6472 14.135 18.5343 14.1848 18.4346L15.7782 15.2478C15.8223 15.1595 15.8902 15.0853 15.9741 15.0334C16.0581 14.9815 16.1549 14.9541 16.2536 14.9541H24.7517C24.85 14.9539 24.9465 14.981 25.0303 15.0324C25.1142 15.0838 25.1821 15.1574 25.2265 15.2452L26.8199 18.432C26.8697 18.5317 26.8868 18.6445 26.8689 18.7545C26.851 18.8645 26.7989 18.9661 26.7201 19.0449L24.5424 21.2225L23.7388 22.0293Z" fill="white"/>
</svg>
