<svg width="41" height="40" viewBox="0 0 41 40" fill="none" xmlns="http://www.w3.org/2000/svg">
<path fill-rule="evenodd" clip-rule="evenodd" d="M11.4124 23.4947L4.50045 14.6399C2.28217 11.7982 0.791917 7.91157 2.46074 4.42932C3.02578 3.2503 3.83085 2.09795 4.98102 1.39708C8.39103 -0.680892 11.676 -0.231712 14.7447 1.37811C17.3023 2.71976 19.1397 4.65597 20.3337 6.24362C20.8504 6.93073 21.2495 7.5565 21.537 8.04723C21.6017 7.92817 21.6723 7.80198 21.749 7.66998C22.2391 6.82559 22.9829 5.72874 23.9909 4.74632C24.999 3.76379 26.2913 2.87659 27.8763 2.49174C29.4723 2.1042 31.3128 2.23908 33.3806 3.21772C35.4818 4.21212 36.5826 5.72226 36.9989 7.43653C37.407 9.117 37.1449 10.9372 36.6515 12.5776C35.6646 15.8586 33.6747 18.6662 33.6147 18.7506L33.6083 18.7595L33.6059 18.7627L29.8513 23.9551C29.8933 24.0324 29.9344 24.1102 29.9745 24.1887C31.037 26.2651 31.3867 28.6301 30.9752 30.9199H39.2559V33.3818C39.2559 36.1433 37.0173 38.3818 34.2559 38.3818H6.74609C3.98467 38.3818 1.74609 36.1433 1.74609 33.3818V30.9199H10.0233C9.61226 28.6329 9.96057 26.2707 11.0202 24.1959C11.1425 23.9566 11.2733 23.7227 11.4124 23.4947ZM29.1647 22.8567L32.6368 18.055C32.6667 18.0125 34.5825 15.2898 35.5023 12.2319C35.9663 10.6895 36.1696 9.10641 35.8328 7.71973C35.5042 6.36685 34.6499 5.14602 32.8673 4.30238C31.0247 3.43037 29.4647 3.34091 28.1594 3.65785C26.8431 3.97747 25.7335 4.72357 24.8285 5.60568C23.9233 6.48789 23.2427 7.487 22.7868 8.27242C22.5597 8.66361 22.3905 8.998 22.2789 9.23281C22.2231 9.35012 22.1818 9.44231 22.1549 9.50398C22.1415 9.53481 22.1317 9.55799 22.1255 9.57284L22.1189 9.58879L22.1177 9.59172C22.0278 9.81488 21.8131 9.96315 21.5726 9.96781C21.3321 9.97247 21.112 9.83303 21.0135 9.61358L21.013 9.61233L21.0094 9.6046L20.9928 9.56897C20.9774 9.53647 20.9535 9.48679 20.9209 9.42167C20.8557 9.2914 20.7558 9.09954 20.6203 8.85999C20.3492 8.38054 19.9365 7.71205 19.3746 6.96486C18.2481 5.46697 16.5381 3.67394 14.1873 2.44077C11.3806 0.968449 8.55989 0.621457 5.60546 2.4218C4.73459 2.95249 4.05839 3.87227 3.54289 4.94793C2.16956 7.81358 3.33325 11.1945 5.44638 13.9015L12.129 22.4624C13.0934 21.2346 14.3205 20.2287 15.7273 19.5231L15.7458 19.5416L16.6891 20.4878L16.7014 20.5001C14.7475 21.3693 13.1508 22.8825 12.178 24.7872C11.2122 26.6782 10.9195 28.8412 11.3471 30.9199H12.5279C12.4723 30.6848 12.427 30.4464 12.3923 30.2055C12.1109 28.252 12.5443 26.2624 13.6129 24.603C14.5623 23.1286 15.9564 22.0029 17.5846 21.383L17.6364 21.4348L18.55 22.3461L18.572 22.4219C16.9778 22.8863 15.6049 23.9107 14.7059 25.3068C13.8069 26.7029 13.4422 28.3766 13.679 30.0202C13.723 30.3255 13.7873 30.626 13.8707 30.9199H27.1278C27.2146 30.6141 27.2806 30.3011 27.3247 29.9829C27.5525 28.3381 27.1788 26.6664 26.2721 25.2753C25.3655 23.8841 23.987 22.8671 22.3903 22.4114L22.3925 22.4037L23.4134 21.3828C25.0273 21.9972 26.4119 23.1087 27.3613 24.5655C28.4389 26.2191 28.8832 28.2062 28.6124 30.1613C28.577 30.4172 28.5296 30.6703 28.4706 30.9199H29.6513C30.0795 28.8388 29.7856 26.6733 28.8173 24.7809C27.844 22.8788 26.2483 21.3679 24.2963 20.4998L24.3083 20.4878L25.2539 19.5384L25.2699 19.5225C26.825 20.3021 28.1606 21.4488 29.1647 22.8567ZM38.0559 32.1199H23.039C23.0347 33.5185 21.8996 34.6509 20.5 34.6509C19.1004 34.6509 17.9653 33.5185 17.961 32.1199H2.94609V33.3818C2.94609 35.4805 4.64741 37.1818 6.74609 37.1818H34.2559C36.3545 37.1818 38.0559 35.4805 38.0559 33.3818V32.1199ZM20.5 33.4509C21.2368 33.4509 21.8347 32.8557 21.839 32.1199H19.161C19.1653 32.8557 19.7632 33.4509 20.5 33.4509Z" fill="black"/>
<path d="M24.3083 20.8168L23.3614 21.7637L22.3689 22.7562L20.942 24.1831C20.9327 24.1931 20.9195 24.1962 20.9089 24.205C20.8494 24.2525 20.7844 24.2926 20.7152 24.3243C20.5773 24.3801 20.4231 24.3801 20.2852 24.3243C20.2159 24.2926 20.1509 24.2525 20.0914 24.205C20.08 24.1983 20.0689 24.191 20.0583 24.1831L18.6314 22.7562L17.6364 21.7637L16.6891 20.8168L15.7458 19.8706L13.1833 17.3081C13.0905 17.2154 13.0292 17.0959 13.0081 16.9664C12.987 16.837 13.0072 16.7042 13.0658 16.5868L14.9408 12.8368C14.9927 12.7329 15.0725 12.6456 15.1713 12.5845C15.2701 12.5235 15.384 12.4912 15.5002 12.4912H25.5002C25.6159 12.491 25.7294 12.5229 25.828 12.5834C25.9267 12.6438 26.0066 12.7305 26.0589 12.8337L27.9339 16.5837C27.9925 16.7011 28.0126 16.8339 27.9915 16.9633C27.9705 17.0927 27.9092 17.2123 27.8164 17.305L25.2539 19.8675L24.3083 20.8168Z" fill="#E75512"/>
</svg>
