<svg width="41" height="40" viewBox="0 0 41 40" fill="none" xmlns="http://www.w3.org/2000/svg">
<circle cx="20.1989" cy="20" r="20" fill="#4BEB59"/>
<path fill-rule="evenodd" clip-rule="evenodd" d="M32.1989 19.6911C32.1989 26.1466 26.9244 31.381 20.4179 31.381C18.352 31.381 16.4104 30.8537 14.7223 29.927L8.19885 32L10.3251 25.7279C9.2523 23.9662 8.63447 21.8992 8.63447 19.6911C8.63447 13.2344 13.9089 8 20.4167 8C26.9244 8.00121 32.1989 13.2344 32.1989 19.6911ZM20.4179 9.86305C14.9551 9.86305 10.5121 14.2709 10.5121 19.6923C10.5121 21.8413 11.212 23.8335 12.3982 25.4552L11.1613 29.1053L14.9672 27.8962C16.5311 28.9219 18.4051 29.5216 20.4179 29.5216C25.8794 29.5216 30.3224 25.1125 30.3224 19.6935C30.3236 14.2709 25.8794 9.86305 20.4179 9.86305ZM26.3669 22.3843C26.2945 22.2649 26.1014 22.1925 25.813 22.0501C25.5246 21.9065 24.1031 21.2127 23.8389 21.1186C23.5746 21.0232 23.3803 20.975 23.1897 21.2609C22.9966 21.5481 22.4439 22.1937 22.2738 22.3843C22.106 22.5762 21.9383 22.5991 21.6487 22.4555C21.3591 22.3131 20.4287 22.009 19.3258 21.0341C18.4678 20.2739 17.8886 19.3363 17.7185 19.0492C17.5508 18.7632 17.7016 18.6075 17.8452 18.4652C17.9755 18.336 18.1348 18.1309 18.2784 17.9644C18.4232 17.7967 18.4715 17.676 18.568 17.4854C18.6645 17.2935 18.6163 17.127 18.5439 16.9846C18.4727 16.8422 17.8947 15.4317 17.6533 14.8573C17.4144 14.2842 17.1731 14.3059 17.0041 14.3059C16.8364 14.3059 16.5239 14.3554 16.5239 14.3554C16.5239 14.3554 15.9446 14.4265 15.6804 14.7137C15.4161 14.9997 14.6704 15.6935 14.6704 17.1029C14.6704 18.5122 15.7045 19.8757 15.8481 20.0664C15.9929 20.2582 17.8452 23.2459 20.7823 24.3934C23.7182 25.5409 23.7182 25.1572 24.2479 25.1089C24.7765 25.0618 25.9566 24.4163 26.1967 23.7466C26.4393 23.0769 26.4393 22.5026 26.3669 22.3843Z" fill="white"/>
</svg>
