<svg width="41" height="40" viewBox="0 0 41 40" fill="none" xmlns="http://www.w3.org/2000/svg">
<path d="M14.6284 28.4606L30.8525 19.9944L14.6284 11.5283V28.4606Z" fill="#F5E9D4"/>
<path d="M34.0841 32.4417C33.5333 32.6043 33.2291 33.218 32.9668 33.6901C32.7308 34.1202 32.2744 34.6238 32.2744 35.1273C32.2744 35.2899 32.4423 35.4211 32.5996 35.3739C33.0875 35.2375 33.4494 34.6657 33.8008 34.3248C34.189 33.9471 34.7083 33.4855 34.7188 32.919C34.7293 32.6043 34.3988 32.3473 34.0841 32.4417Z" fill="#F5E9D4"/>
<path d="M39.9695 21.4209C42.351 11.8008 32.4109 2.07049 23.3678 0.360476C18.3951 -0.578457 13.2231 0.313263 8.98478 3.07761C5.34445 5.44854 1.62019 9.66062 1.15859 14.1192C1.1481 14.2189 1.17958 14.2976 1.22154 14.3658C-1.64771 21.7251 1.47857 30.9781 7.76784 35.6517C14.0047 40.2835 24.2595 41.9043 30.8949 37.068C31.4562 36.6589 30.9894 35.8458 30.3494 36.1448C30.1081 36.255 29.8668 36.3651 29.6308 36.4753C29.5102 36.2654 29.2584 36.1291 28.9436 36.2812C24.527 38.3741 18.3951 37.3145 14.0309 35.7619C13.5378 35.5888 13.2021 36.3704 13.6742 36.6012C15.9979 37.7289 18.5262 38.3899 21.1175 38.5262C22.198 38.5839 23.2838 38.5472 24.3644 38.4318C22.7173 38.8462 21.0178 39.035 19.1871 38.8724C15.4681 38.5367 12.1845 37.1519 9.11067 35.0957C5.50706 32.6881 3.04695 29.7559 1.88246 25.5595C0.870096 21.9244 0.817641 18.0953 1.93492 14.4969C1.98213 14.4602 2.02934 14.4182 2.05556 14.3605C2.24964 13.9934 2.43848 13.6314 2.62731 13.2747C1.52053 16.123 1.19531 19.2807 1.69363 22.2916C2.63256 28.0039 5.85326 31.7754 10.5899 34.8754C11.1564 35.2478 11.7281 34.2932 11.1249 33.9732C6.91808 31.7439 3.58198 26.6716 2.87385 22.0346C2.09228 16.9151 3.95441 12.1102 7.00201 8.03454C7.26428 7.68834 6.71351 7.30543 6.41452 7.58344C5.9162 8.05028 5.4546 8.55383 5.02448 9.08362C5.72212 8.03454 6.50369 7.0484 7.44262 6.13045C7.22756 6.49238 7.57376 7.03791 8.00388 6.7599C9.11067 6.05177 10.1807 5.29643 11.3295 4.64599C12.1478 4.18439 13.0185 3.81721 13.8578 3.39233C13.9942 3.4343 14.1515 3.44479 14.3351 3.39758C20.4303 1.85017 26.4993 2.51634 31.2464 6.96971C31.43 7.14281 31.6555 7.06413 31.7709 6.90677C31.729 7.12708 31.8496 7.38935 32.1434 7.38935C32.6574 7.38935 32.6574 6.59729 32.1434 6.59729C31.9965 6.59729 31.8968 6.66024 31.8339 6.75466C31.8444 6.66549 31.8181 6.57107 31.7395 6.48189C30.1553 4.8086 28.1568 3.41331 25.959 2.43766C32.3794 4.78762 37.7192 10.5366 38.4903 17.1721C38.013 15.0529 37.1265 13.002 35.8309 11.1503C35.5004 10.6835 34.7713 11.0874 35.0493 11.6014C36.7751 14.7592 37.5881 18.2107 37.7035 21.7881C37.8242 25.5228 36.3712 28.712 34.3832 31.7911C34.1786 32.1058 34.6507 32.4887 34.9077 32.2265C35.0283 32.2894 35.1752 32.2894 35.3011 32.174C38.1704 29.4988 40.2685 25.4913 39.9853 21.4786C39.98 21.4576 39.9695 21.4419 39.9695 21.4209Z" fill="#F5E9D4"/>
<path d="M12.095 35.342C11.9691 35.6357 12.137 35.9294 12.4307 36.0291C12.6458 36.1025 12.8399 36.176 13.0654 36.2074C13.4536 36.2547 13.6005 35.7249 13.3644 35.4888C13.2123 35.3315 13.0077 35.2213 12.8241 35.1007C12.5724 34.9276 12.2104 35.0797 12.095 35.342Z" fill="#F5E9D4"/>
</svg>
