<svg width="782" height="707" viewBox="0 0 782 707" fill="none" xmlns="http://www.w3.org/2000/svg">
<path d="M373.478 25.4251C382.684 26.6011 390.251 29.2346 396.18 33.3256C402.11 37.4167 404.601 43.1654 403.655 50.5719C403.06 55.2274 401.119 58.6356 397.832 60.7965C394.545 62.9573 390.521 63.7336 385.76 63.1254C382.48 62.7064 379.803 61.773 377.73 60.3252C378.809 57.7747 379.571 54.7536 380.017 51.262C380.558 47.0297 380.024 43.6281 378.417 41.057C376.929 38.3937 374.175 36.8052 370.155 36.2915C366.663 35.8455 363.737 36.4395 361.378 38.0737C359.124 39.7214 357.774 42.2911 357.328 45.7827C356.869 49.3801 357.409 52.7289 358.948 55.829C360.501 58.8232 362.525 61.5013 365.019 63.863C367.619 66.2383 371.17 69.1652 375.672 72.6438C380.953 76.7595 385.171 80.363 388.324 83.4543C391.584 86.559 394.174 90.2771 396.094 94.6087C398.119 98.9538 398.774 103.93 398.058 109.538C396.719 120.013 392.002 127.475 383.907 131.925C375.824 136.269 365.858 137.684 354.008 136.171C344.167 134.913 336.085 132.107 329.759 127.75C323.539 123.407 320.93 117.32 321.93 109.491C322.525 104.835 324.486 101.268 327.813 98.7898C331.247 96.325 335.291 95.39 339.947 95.9847C343.438 96.4308 346.115 97.3642 347.976 98.7849C346.817 101.97 346.088 104.727 345.791 107.055C344.385 118.058 348.232 124.142 357.331 125.304C361.564 125.845 365.151 125.12 368.094 123.13C371.05 121.035 372.784 117.977 373.298 113.956C373.758 110.359 373.211 107.063 371.658 104.068C370.118 100.968 368.049 98.2306 365.449 95.8554C362.862 93.3743 359.371 90.4012 354.974 86.9361C349.693 82.8204 345.423 79.2102 342.164 76.1054C339.01 73.0142 336.42 69.296 334.394 64.951C332.475 60.6194 331.866 55.7027 332.569 50.2007C333.366 43.9581 335.742 38.8312 339.695 34.8198C343.649 30.8085 348.572 28.05 354.463 26.5445C360.474 24.9467 366.813 24.5735 373.478 25.4251ZM471.425 41.1639L484.865 149.339L458.043 145.913L455.317 119.272L425.955 115.521L416.778 140.641L397.574 138.188L439.841 37.1291L471.425 41.1639ZM430.573 103.369L454.062 106.369L448.647 54.0614L430.573 103.369ZM547.536 157.345L519.788 77.8283L510.239 152.581L493.733 150.472L507.115 45.7234L534.095 49.1702L561.843 128.687L571.392 53.935L587.739 56.0233L574.358 160.772L547.536 157.345ZM605.102 59.2092C618.794 59.7755 631.353 60.7886 642.781 62.2484C658.863 64.303 670.159 70.155 676.669 79.8044C683.179 89.4538 685.359 102.69 683.21 119.513C680.925 137.395 675.035 150.675 665.538 159.355C656.161 167.943 643.061 171.162 626.238 169.013C615.34 167.621 603.901 165.407 591.923 162.371L605.102 59.2092ZM628.809 157.728C637.167 158.795 643.216 155.643 646.953 148.271C650.691 140.898 653.405 130.599 655.094 117.373C656.635 105.311 656.517 95.2955 654.739 87.326C653.081 79.2642 648.442 74.7467 640.824 73.7735C637.544 73.3544 633.959 73.219 630.069 73.3673L619.587 155.42C622.455 156.54 625.529 157.309 628.809 157.728ZM412.954 156.686L410.241 169.082L387.545 166.182L375.765 258.393L349.419 255.027L361.199 162.817L337.71 159.816L339.312 147.278L412.954 156.686ZM447.092 161.047L433.711 265.796L407.365 262.43L420.747 157.681L447.092 161.047ZM573.646 177.214L560.265 281.963L533.919 278.597L544.685 194.322L508.366 275.333L493.13 273.387L478.364 185.688L467.578 270.122L451.072 268.014L464.454 163.265L500.322 167.847L510.99 237.117L538.571 172.734L573.646 177.214ZM648.693 186.802L647.091 199.34L615.825 195.346L611.729 227.405L638.234 230.791L636.612 243.488L610.107 240.102L605.647 275.018L639.135 279.296L636.422 291.692L577.699 284.19L591.081 179.442L648.693 186.802Z" fill="#E75512"/>
<path d="M0.927734 79.2842L20.9743 84.7189" stroke="#EF8576" stroke-width="0.852008" stroke-miterlimit="10" stroke-linecap="round"/>
<path d="M9.65039 95.0869L27.368 98.6492" stroke="#EF8576" stroke-width="0.852008" stroke-miterlimit="10" stroke-linecap="round"/>
<path d="M526.5 355.627C496.711 363.588 474.75 361.877 442.75 368.877L441.5 387.127L530.5 374.627L526.5 355.627Z" fill="#E75512"/>
<path d="M738.683 476.029C738.683 476.029 762.389 485.91 766.195 481.127C771.955 473.829 739.067 455.497 733.097 450.609C727.127 445.685 712.912 445.384 703.94 440.461C700.484 438.557 659.04 431.972 623.861 350.983C602.488 301.781 587.035 256.194 576.73 226.262C561.989 183.442 538.581 202.509 538.581 202.509C525.692 226.261 532.97 237.796 538.581 259.372C538.581 259.372 579.97 359.337 592.565 380.297C631.731 445.47 659.652 457.455 675.951 476.029C698.035 529.29 733.097 558.574 739.137 553.93C745.177 549.286 735.89 544.816 735.89 544.816C735.89 544.816 749.017 552.952 752.579 549.984C756.175 547.051 747.97 538.252 747.97 538.252C747.97 538.252 762.529 549.181 767.382 544.921C772.2 540.661 754.638 525.926 754.638 525.926C754.638 525.926 770.559 536.017 773.701 530.709C776.843 525.402 754.534 505.255 739.032 491.043C723.531 476.762 731.631 473.41 738.683 476.029Z" fill="#FFB168"/>
<path d="M757.664 526.616L730.231 500.793" stroke="black" stroke-width="1.13601" stroke-miterlimit="10" stroke-linecap="round"/>
<path d="M749.17 539.197L722.133 513.685" stroke="black" stroke-width="1.13601" stroke-miterlimit="10" stroke-linecap="round"/>
<path d="M738.438 547.559L712.624 523.943" stroke="black" stroke-width="1.13601" stroke-miterlimit="10" stroke-linecap="round"/>
<ellipse cx="442.221" cy="123.499" rx="5.12508" ry="6.30476" transform="rotate(-13.5006 442.221 123.499)" fill="white"/>
<path d="M530.132 186.502C530.132 196.701 488.23 251.045 458.275 237.83C428.32 224.616 446.328 196.701 446.328 186.502C446.328 176.304 465.095 168.022 488.23 168.022C511.364 168.022 530.132 176.304 530.132 186.502Z" fill="#FFB168"/>
<path d="M472.363 169.397C467.925 179.73 457.123 198.066 463.645 209.866C469.298 220.092 487.674 218.393 495 215.127C502.326 211.861 513 184.627 510 169.397" stroke="#F5E9D4" stroke-width="1.13601" stroke-linecap="round"/>
<path d="M519.148 231.302C514.571 230.321 499.36 219.334 509.071 216.906" stroke="#F5E9D4" stroke-width="1.13601" stroke-linecap="round"/>
<path d="M418.381 216.905C430.263 216.448 438.61 214.886 445.733 205.389" stroke="#F5E9D4" stroke-width="1.13601" stroke-linecap="round"/>
<path d="M425.578 271.61C432.381 295.8 441.507 318.523 444.293 343.589" stroke="#F5E9D4" stroke-width="1.13601" stroke-linecap="round"/>
<path d="M527.789 175.157C547.943 160.761 579.131 196.467 566.658 203.95C537.866 221.224 527.5 360.377 527.5 360.377L469.75 366.377C469.75 366.377 461.62 300.419 477.403 247.137C487.595 212.73 519.881 180.806 527.789 175.157Z" fill="#D9D9D9"/>
<path d="M451.159 175.157C431.005 160.761 426.23 182.64 422.702 196.751C409.746 248.576 441.416 369.501 441.416 369.501L510.182 362.303C510.182 362.303 471.313 189.553 451.159 175.157Z" fill="#D9D9D9"/>
<path d="M533.547 199.63C509.536 248.076 495.902 297.259 488.92 350.786" stroke="white" stroke-width="1.13601" stroke-linecap="round"/>
<path d="M447.172 190.992C457.089 244.793 471.479 297.419 474.524 352.225" stroke="white" stroke-width="1.13601" stroke-linecap="round"/>
<path d="M429.9 218.345C437.368 258.17 455.023 315.371 460.5 355.627" stroke="white" stroke-width="1.13601" stroke-linecap="round"/>
<path d="M539.305 232.741C528.491 273.363 518.611 314.427 516.271 356.545" stroke="white" stroke-width="1.13601" stroke-linecap="round"/>
<path d="M432.778 581.12C418.958 506.262 429.9 413.649 441.416 386.777L530.5 374.627C580.022 418.39 619.446 523.537 628.563 569.603L432.778 581.12Z" fill="black"/>
<path d="M477.212 381.925C477.506 381.818 477.832 381.969 477.94 382.263C480.087 388.111 482.029 394.776 485.058 400.654C488.076 406.51 492.124 411.474 498.407 413.919C508.697 417.925 521.304 415.537 531.074 411.054C538.699 407.556 545.551 402.936 551.193 396.979C551.429 397.28 551.666 397.581 551.901 397.884C546.168 403.902 539.232 408.561 531.548 412.086C521.64 416.633 508.69 419.141 497.995 414.978C491.351 412.392 487.132 407.157 484.048 401.174C480.976 395.213 478.983 388.399 476.874 382.654C476.766 382.359 476.917 382.033 477.212 381.925Z" fill="#E75512"/>
<path d="M557.877 405.931C552.235 413.076 546.743 419.638 538.416 425.003C533.564 428.128 527.831 430.538 521.893 432.799C515.936 435.067 509.789 437.179 504.018 439.726C492.489 444.813 482.689 451.54 479.436 464.333C477.916 470.313 477.349 476.427 476.691 482.593C476.035 488.743 475.287 494.937 473.389 500.992C470.027 511.721 464.088 519.375 455.996 526.755C453.434 529.091 450.772 531.302 448.109 533.492C445.443 535.685 442.777 537.855 440.191 540.119C439.142 541.038 437.707 542.68 436.081 544.73C434.461 546.772 432.673 549.191 430.92 551.644C430.246 552.585 429.579 553.532 428.928 554.463C428.867 553.89 428.807 553.316 428.748 552.742C429.16 552.157 429.577 551.569 429.996 550.982C431.755 548.523 433.555 546.087 435.191 544.024C436.82 541.971 438.309 540.257 439.443 539.264C442.046 536.985 444.728 534.802 447.387 532.615C450.05 530.426 452.692 528.231 455.23 525.916C463.227 518.624 469.021 511.132 472.305 500.653C474.166 494.717 474.906 488.624 475.562 482.472C476.217 476.336 476.791 470.13 478.336 464.054C481.721 450.739 491.936 443.814 503.559 438.686C509.365 436.124 515.58 433.987 521.489 431.737C527.417 429.48 533.055 427.105 537.801 424.048C546.069 418.721 551.482 412.205 557.189 404.969C557.419 405.288 557.648 405.609 557.877 405.931Z" fill="#E75512"/>
<path d="M433.407 417.167C433.595 417.138 433.793 417.201 433.926 417.355C444.99 430.107 456.455 443.543 450.028 461.822C448.03 467.502 446.66 468.443 443.986 473.074C442.84 475.058 442.515 476.176 442.594 477.255C442.635 477.809 442.784 478.383 443.033 479.093C443.286 479.812 443.62 480.616 444.024 481.663C448.818 494.094 445.723 505.45 439.666 515.794C436.184 521.741 431.699 527.388 427.147 532.739C427.115 532.19 427.083 531.64 427.053 531.09C431.309 526.044 435.437 520.769 438.686 515.22C444.643 505.046 447.589 494.063 442.964 482.072C442.575 481.064 442.222 480.208 441.962 479.469C441.699 478.72 441.513 478.038 441.461 477.339C441.356 475.914 441.823 474.549 443.002 472.507C445.785 467.687 447.004 466.997 448.956 461.446C455.108 443.952 444.312 431.064 433.21 418.264C433.275 417.896 433.342 417.531 433.407 417.167Z" fill="#E75512"/>
<path d="M508.706 484.706C512.966 483.101 518.098 483.848 524.342 487.954C533.112 493.721 538.033 502.346 541.988 511.64C548.472 526.877 552.817 539.837 566.983 549.705C574.445 554.904 583.053 558.18 591.564 561.814C597.531 564.362 603.437 567.085 608.781 570.768L606.907 570.878C601.997 567.676 596.617 565.206 591.117 562.858C582.671 559.251 573.917 555.92 566.333 550.637C551.844 540.543 547.384 527.222 540.943 512.084C537.015 502.854 532.203 494.483 523.718 488.904C517.657 484.918 512.91 484.336 509.107 485.77C505.267 487.217 502.227 490.773 499.724 495.42C497.227 500.056 495.314 505.686 493.681 511.143C492.057 516.57 490.7 521.87 489.336 525.728C482.019 546.424 467.818 562.403 455.295 579.796L453.839 579.882C466.586 562.063 480.912 546.147 488.265 525.349C489.618 521.522 490.946 516.318 492.592 510.818C494.229 505.348 496.169 499.625 498.724 494.882C501.273 490.15 504.482 486.298 508.706 484.706Z" fill="#E75512"/>
<path d="M576.868 436.09C574.132 438.843 571.423 441.721 568.918 444.729C562.188 452.811 557.057 461.702 556.989 471.396C556.939 478.519 561.18 484.514 566.704 489.852C569.46 492.514 572.51 494.99 575.464 497.345C578.408 499.692 581.267 501.927 583.599 504.085C588.614 508.725 593.283 513.814 598.082 518.636C602.895 523.473 607.868 528.073 613.557 531.819C615.511 533.106 617.467 534.248 619.442 535.281C619.603 535.789 619.759 536.295 619.917 536.799C617.571 535.616 615.251 534.294 612.932 532.768C607.145 528.956 602.106 524.291 597.276 519.438C592.431 514.569 587.823 509.54 582.828 504.919C580.535 502.797 577.718 500.594 574.756 498.232C571.802 495.878 568.713 493.373 565.915 490.669C560.33 485.273 555.8 478.993 555.853 471.388C555.924 461.297 561.259 452.15 568.045 444.002C570.634 440.892 573.453 437.909 576.289 435.062C576.482 435.404 576.675 435.747 576.868 436.09Z" fill="#E75512"/>
<path d="M509.264 520.81C510.692 519.834 512.398 519.676 514.11 520.014C517.502 520.684 521.127 523.333 523.423 526.047C526.212 529.345 528.062 533.119 529.791 536.887C531.529 540.675 533.139 544.441 535.455 547.848C537.597 550.998 540.307 553.594 543.082 556.212C545.844 558.818 548.674 561.45 550.962 564.631C553.052 567.538 554.423 570.702 555.623 573.892L554.436 573.962C553.278 570.919 551.973 567.982 550.04 565.295C547.828 562.218 545.082 559.662 542.302 557.039C539.536 554.428 536.737 551.755 534.516 548.488C532.132 544.982 530.477 541.105 528.759 537.361C527.032 533.597 525.234 529.949 522.555 526.781C520.359 524.185 516.944 521.732 513.89 521.129C512.378 520.83 511.009 520.993 509.905 521.748C508.798 522.504 507.859 523.92 507.35 526.332C506.426 530.704 506.288 535.294 506.258 539.947C506.229 544.582 506.308 549.294 505.799 553.83C504.879 562.029 503.293 570.671 498.469 577.254L496.972 577.342C502.045 570.957 503.711 562.252 504.67 553.703C505.17 549.244 505.092 544.614 505.121 539.939C505.151 535.282 505.289 530.592 506.239 526.097C506.786 523.508 507.838 521.784 509.264 520.81Z" fill="#E75512"/>
<path d="M587.889 456.99C588.097 457.41 588.304 457.83 588.511 458.25C587.841 459.557 587.24 460.882 586.766 462.215C585.886 464.686 585.456 467.129 585.787 469.457C586.117 471.771 587.206 474.015 589.441 476.094C591.98 478.456 594.904 479.598 598.033 480.309C598.288 480.366 598.545 480.42 598.802 480.473C598.986 480.894 599.171 481.314 599.354 481.735C598.828 481.638 598.303 481.534 597.782 481.416C594.543 480.681 591.405 479.475 588.666 476.926C586.252 474.68 585.032 472.203 584.663 469.617C584.297 467.045 584.779 464.408 585.696 461.834C586.276 460.203 587.041 458.578 587.889 456.99Z" fill="#E75512"/>
<path d="M171.697 466.63L118.654 575.212L756.414 706.882L780.752 575.212L663.434 440.421L171.697 466.63Z" fill="white"/>
<path d="M636.559 533.91C614.991 531.392 612.55 531.012 583.013 528.512C498.505 521.359 413.113 515.024 327.176 514.496C288.037 514.256 252.91 514.782 215.99 520.912C205.782 522.607 195.547 524.751 187.099 528.038C177.479 531.782 167.43 541.248 172.556 547.689C180.681 557.896 212.896 566.136 229.955 569.139C303.666 582.114 387.841 582.514 464.46 577.662C488.713 576.126 513.028 574.054 536.304 570.37C547.877 568.538 591.556 560.09 590.525 548.21C590.123 543.577 582.293 539.576 575.212 536.514C548.487 524.959 511.286 520.853 477.606 518.261C424.75 514.192 379.044 514.256 326.213 518.426C305.718 520.044 285.119 522.174 265.877 526.002C254.777 528.21 220.387 537.528 227.836 548.304C235.425 559.283 283.039 567.909 297.369 569.801C322.176 573.077 347.806 574.906 373.403 575.957C436.032 578.529 492.19 577.389 553.495 570.417C562.926 569.344 635.455 562.712 635.692 546.245C635.771 540.818 625.954 535.912 616.816 532.868C585.732 522.515 517.797 515.655 484.588 513.786C456.634 512.213 428.341 511.898 400.224 512.413C381.206 512.761 315.037 513.95 294.335 525.268C289.932 527.676 291.324 532.634 295.924 534.952C315.114 544.619 361.879 546.549 382.6 551.808" stroke="#EEE0BC" stroke-width="1.24806" stroke-linecap="round"/>
<path d="M172.665 469.804V491.352L664.057 466.006V443.541L172.665 469.804Z" fill="#E75512"/>
<path d="M745.182 582.076L775.76 575.212L662.81 444.165H647.833L745.182 582.076Z" fill="#E75512"/>
<path d="M124.894 573.964H149.212L173.569 490.344V468.503L124.894 573.964Z" fill="#E75512"/>
<path d="M119.903 573.963L124.895 628.878L761.407 698.77L782 573.963H119.903Z" fill="black"/>
</svg>
