<svg width="529" height="301" viewBox="0 0 529 301" fill="none" xmlns="http://www.w3.org/2000/svg">
<path d="M1.12867 29.6643C-2.08608 24.2644 1.54082 16.8448 12.3391 18.4936C36.3673 22.0798 84.1353 37.8671 84.1353 37.8671C84.1353 37.8671 95.6343 1.01622 106.845 0.0681562C118.055 -0.879909 115.17 8.14733 113.892 21.8737C112.615 35.6412 113.398 41.412 115.294 56.1277C115.706 59.4253 119.91 70.8845 122.877 77.9744C130.909 96.952 227.454 222.737 259.124 240.012C290.795 257.287 390.126 111.889 390.126 111.889L528.641 156.499C528.641 156.499 460.666 142.121 401.643 185.308C342.62 228.495 286.476 316.31 246.168 297.595C205.86 278.881 112.127 127.725 84.1353 111.889C56.1436 96.054 43.4563 94.8747 39.0051 87.3314C34.7188 80.1591 35.8315 75.2127 42.3847 76.2019C42.6732 76.2432 43.0029 76.3256 43.3327 76.3668C50.7101 78.0156 34.5539 75.6248 31.9574 69.0708C29.402 62.5168 35.2958 61.4039 35.2958 61.4039C35.2958 61.4039 27.094 61.239 28.0832 46.3585C28.1244 46.3585 5.53866 37.1664 1.12867 29.6643Z" fill="#FFB168"/>
<path d="M41.6716 74.8789L59.3893 78.4412" stroke="black" stroke-width="1.13601" stroke-miterlimit="10" stroke-linecap="round"/>
<path d="M32.8142 60.1299L50.5319 63.6921" stroke="black" stroke-width="1.13601" stroke-miterlimit="10" stroke-linecap="round"/>
</svg>
