<svg width="529" height="301" viewBox="0 0 529 301" fill="none" xmlns="http://www.w3.org/2000/svg">
<path d="M1.21876 29.9328C-1.996 24.533 1.63091 17.1134 12.4292 18.7622C36.4574 22.3483 84.2254 38.1357 84.2254 38.1357C84.2254 38.1357 95.7244 1.28478 106.935 0.336711C118.145 -0.611355 115.26 8.41588 113.982 22.1422C112.705 35.9098 113.488 41.6806 115.384 56.3962C115.796 59.6938 120 71.1531 122.967 78.243C130.999 97.2206 227.544 223.006 259.214 240.281C290.885 257.555 390.216 112.158 390.216 112.158L528.731 156.768C528.731 156.768 460.756 142.389 401.733 185.576C342.71 228.764 286.566 316.578 246.258 297.864C205.95 279.149 112.217 127.993 84.2254 112.158C56.2337 96.3225 43.5464 95.1432 39.0952 87.5999C34.8088 80.4276 35.9216 75.4812 42.4748 76.4705C42.7633 76.5117 43.093 76.5942 43.4227 76.6354C50.8002 78.2842 34.644 75.8934 32.0475 69.3394C29.4921 62.7854 35.3858 61.6724 35.3858 61.6724C35.3858 61.6724 27.1841 61.5075 28.1732 46.627C28.2145 46.627 5.62874 37.4349 1.21876 29.9328Z" fill="#FFB168"/>
<path d="M41.7617 75.1475L59.4794 78.7097" stroke="black" stroke-width="1.13601" stroke-miterlimit="10" stroke-linecap="round"/>
<path d="M32.9043 60.3984L50.6219 63.9607" stroke="black" stroke-width="1.13601" stroke-miterlimit="10" stroke-linecap="round"/>
</svg>
