<svg width="261" height="298" viewBox="0 0 261 298" fill="none" xmlns="http://www.w3.org/2000/svg">
<path d="M0.529053 -262.015C0.529053 -262.015 40.7205 190.568 43.8873 198.985C53.978 225.806 79.031 283.777 93.8403 284.477C107.885 285.137 104.435 259.716 101.445 243.172C99.5899 232.899 106.995 223.01 117.422 222.381C130.929 221.553 146.66 229.173 162.146 244.23C182.186 263.717 180.284 297.97 200.508 297.985C206.104 297.985 209.922 287.713 209.692 274.235L209.861 275.37C219.489 268.133 223.997 260.252 225.239 252.433L226.634 255.024C263.647 219.192 206.12 183.467 206.12 183.467C206.12 183.467 259.216 198.616 260.504 181.152C261.623 166.035 208.036 153.079 208.036 153.079L136.529 106.985V-326.015" fill="#FFB168"/>
<path d="M209.808 274.735C208.975 261.485 202.208 232.085 181.808 220.485" stroke="black" stroke-width="2" stroke-linecap="round"/>
<path d="M225.808 254.485C224.975 241.235 218.208 211.835 197.808 200.235" stroke="black" stroke-width="2" stroke-linecap="round"/>
</svg>
