<svg width="261" height="438" viewBox="0 0 261 438" fill="none" xmlns="http://www.w3.org/2000/svg">
<path d="M0.727905 -122.067C0.727905 -122.067 40.9193 330.515 44.0862 338.933C54.1769 365.754 79.2299 423.725 94.0391 424.425C108.084 425.084 104.634 399.663 101.644 383.119C99.7888 372.847 107.194 362.957 117.62 362.328C131.128 361.5 146.859 369.121 162.345 384.177C182.385 403.665 180.483 437.917 200.707 437.933C206.303 437.933 210.121 427.66 209.891 414.183L210.06 415.317C219.688 408.08 224.196 400.2 225.438 392.38L226.833 394.971C263.846 359.139 206.318 323.415 206.318 323.415C206.318 323.415 259.415 338.563 260.703 321.1C261.822 305.982 208.235 293.026 208.235 293.026L136.728 246.933V-186.067" fill="#FFB168"/>
<path d="M210.007 414.683C209.174 401.433 202.407 372.033 182.007 360.433" stroke="black" stroke-width="2" stroke-linecap="round"/>
<path d="M226.007 394.433C225.174 381.183 218.407 351.783 198.007 340.183" stroke="black" stroke-width="2" stroke-linecap="round"/>
</svg>
