<svg width="203" height="445" viewBox="0 0 203 445" fill="none" xmlns="http://www.w3.org/2000/svg">
<path d="M0.978027 -129C0.978027 -129 40.016 274.795 44.3363 332C46.8596 365.411 73.8596 416.411 111.86 403C121.36 392.911 115.36 387.13 101.894 376.187C101.894 376.187 117.86 366.911 125.86 389.911C130.033 401.911 101.894 421.911 98.8596 436.911C106.86 452.911 130.36 440.411 140.86 436.911C151.36 433.411 159.36 409.5 159.36 409.5C154.191 421.911 145.589 425.219 163.36 416.411C181.13 407.602 185.36 380.911 185.36 380.911C192.86 347.411 185.36 327.911 185.36 327.911C185.36 327.911 172.36 375.911 185.36 380.911C225.86 361.411 181.36 289.411 181.36 289.411L136.978 240V-193" fill="#FFB168"/>
<path d="M159.142 374.723C162.568 366.055 165.508 345.763 149.86 333.944" stroke="black" stroke-width="2" stroke-linecap="round"/>
<path d="M180.754 365.19C184.18 356.521 187.12 336.23 171.472 324.411" stroke="black" stroke-width="2" stroke-linecap="round"/>
</svg>
