<svg width="99" height="150" viewBox="0 0 99 150" fill="none" xmlns="http://www.w3.org/2000/svg">
<path d="M28.3006 34.7529H47.9638C61.0235 34.7529 78.3386 48.2971 78.3386 63.3718L71.7265 93.0874C71.7265 93.9467 71.6775 94.806 71.6038 95.6653C71.8248 96.5737 71.9475 97.5312 71.9475 98.4887L74.888 119.877L76.6133 139.287C76.6133 146.112 66.4486 149.556 59.7224 149.556H51.916C45.1898 149.556 39.691 143.983 39.691 137.157L37.6335 123.527L26.3624 122.033C12.8346 116.857 1.7408 82.5662 4.56284 75.8805C7.38489 69.1948 4.56235 62.2016 4.56235 62.2016C4.5378 47.1024 15.2409 34.7529 28.3006 34.7529Z" fill="#FFB168"/>
<path d="M80.4955 85.5845C80.4955 85.5845 95.0538 78.9408 97.5332 58.1948C97.5332 58.1948 105.944 19.159 78.7691 5.35668C52.6006 -6.35441 34.5633 4.20783 24.2039 8.16063C4.81077 15.5752 -4.63162 42.089 2.85562 58.1948C7.29505 67.7398 3.158 51.6734 13.2847 49.7615C8.46278 49.7615 26.8728 55.8224 37.7935 55.8224L20.6335 46.1859C20.6335 46.1859 42.1068 55.8224 44.2635 55.8224C46.4202 55.8224 32.5743 45.4158 37.7935 46.1859C37.7935 46.1859 52.3118 52.1539 60.6542 58.1948C68.2908 63.7246 60.6542 88.1725 67.7712 80.8398C71.6232 76.8711 70.5056 85.1563 70.7905 93.5935C71.032 100.745 72.932 108.005 72.932 108.005L80.4955 85.5845Z" fill="black"/>
<path d="M50.6569 72.2959C50.6569 74.2093 49.1227 75.7627 47.2474 75.7627C45.3532 75.7627 43.8379 74.2093 43.8379 72.2959C43.8379 70.3825 45.3722 68.8291 47.2474 68.8291C49.1416 68.8291 50.6569 70.3825 50.6569 72.2959Z" fill="#0F110E"/>
<path d="M20.5216 70.595C20.5216 72.2242 19.2146 73.5503 17.6045 73.5503C15.9945 73.5503 14.6875 72.2242 14.6875 70.595C14.6875 68.9657 15.9945 67.6396 17.6045 67.6396C19.2146 67.6396 20.5216 68.9657 20.5216 70.595Z" fill="#0F110E"/>
<path d="M24.7802 71.5528C24.7731 77.5522 19.3422 82.4073 12.6405 82.3994C5.9388 82.3914 0.519396 77.5234 0.526524 71.524C0.53661 63.0356 5.96025 64.3358 12.6619 64.3438C19.3636 64.369 24.7874 65.5535 24.7802 71.5528Z" stroke="black" stroke-width="0.852008" stroke-miterlimit="10"/>
<path d="M55.1279 71.5812C55.1208 77.5805 49.6898 82.4357 42.9881 82.4277C36.2865 82.4197 30.8671 77.5517 30.8742 71.5523C30.8843 63.0639 36.3079 64.3642 43.0096 64.3721C49.7113 64.3973 55.135 65.5818 55.1279 71.5812Z" stroke="black" stroke-width="1.13601" stroke-miterlimit="10"/>
<path d="M54.4707 70.5068L71.3351 64.7696" stroke="black" stroke-width="2.27202" stroke-miterlimit="10"/>
<path d="M30.4431 71.5156C25.4154 70.5356 21.6395 72.9022 21.5059 72.9938L21.4225 71.792C21.5745 71.6628 24.7843 68.7604 31.2558 70.0216L30.4431 71.5156Z" fill="black"/>
<path d="M36.1267 63.2067C36.1267 63.2067 39.9632 59.1787 49.9531 59.6236" stroke="#0F110E" stroke-width="1.13601" stroke-miterlimit="10" stroke-linecap="round"/>
<path d="M84.965 85.6269C81.1654 91.4057 74.5092 93.7396 70.0929 90.8358C65.6766 87.932 65.1814 80.8959 68.9811 75.1171C72.7808 69.3384 79.437 67.0044 83.8533 69.9082C88.257 72.8038 88.7647 79.8482 84.965 85.6269Z" fill="#FFB168"/>
<path d="M79.8112 72.743C79.8112 72.743 85.8848 82.5658 75.6201 86.3974" stroke="#0F110E" stroke-width="1.13601" stroke-miterlimit="10" stroke-linecap="round"/>
<path d="M9.0332 62.1899C27.1492 55.9354 28.2276 73.1889 24.7769 81.8157C18.8128 96.7262 34.6976 88.285 34.6976 88.285" stroke="#101010" stroke-width="1.13601" stroke-linecap="round"/>
<ellipse cx="71.7485" cy="92.488" rx="4.09963" ry="5.04328" transform="rotate(14.4125 71.7485 92.488)" fill="white"/>
<ellipse cx="36.7549" cy="98.3929" rx="4.43495" ry="2.63282" transform="rotate(-25.1936 36.7549 98.3929)" fill="#E75512" fill-opacity="0.58"/>
<path d="M42.998 94.4092C42.998 94.4092 38.6849 100.018 29.6107 100.018" stroke="#0F110E" stroke-width="1.13601" stroke-miterlimit="10" stroke-linecap="round"/>
<path d="M35.377 72.4865C38.4632 70.6495 41.4084 69.1252 43.9212 66.6123" stroke="#F5E9D4" stroke-width="1.13601" stroke-linecap="round"/>
<path d="M40.7168 73.0202C42.8 71.6708 44.7098 70.2872 46.591 68.748" stroke="#F5E9D4" stroke-width="1.13601" stroke-linecap="round"/>
</svg>
