<svg width="68" height="55" viewBox="0 0 68 55" fill="none" xmlns="http://www.w3.org/2000/svg">
<path d="M9.47211 2.97221C11.0961 2.97221 12.4681 3.26154 13.5881 3.84021C14.7081 4.41887 15.2681 5.36154 15.2681 6.66821C15.2681 7.48954 15.0068 8.12421 14.4841 8.57221C13.9614 9.02021 13.2801 9.24421 12.4401 9.24421C11.8614 9.24421 11.3761 9.14154 10.9841 8.93621C11.1148 8.46954 11.1801 7.92821 11.1801 7.31221C11.1801 6.56554 11.0121 5.98687 10.6761 5.57621C10.3588 5.14687 9.84544 4.93221 9.13611 4.93221C8.52011 4.93221 8.02544 5.10021 7.65211 5.43621C7.29744 5.77221 7.12011 6.24821 7.12011 6.86421C7.12011 7.49887 7.28811 8.06821 7.62411 8.57221C7.96011 9.05754 8.37078 9.47754 8.85611 9.83221C9.36011 10.1869 10.0414 10.6162 10.9001 11.1202C11.9081 11.7175 12.7201 12.2495 13.3361 12.7162C13.9708 13.1829 14.5028 13.7709 14.9321 14.4802C15.3801 15.1895 15.6041 16.0389 15.6041 17.0282C15.6041 18.8762 14.9508 20.2762 13.6441 21.2282C12.3374 22.1615 10.6388 22.6282 8.54811 22.6282C6.81211 22.6282 5.34678 22.3202 4.15211 21.7042C2.97611 21.0882 2.38811 20.0895 2.38811 18.7082C2.38811 17.8869 2.64944 17.2242 3.17211 16.7202C3.71344 16.2162 4.39478 15.9642 5.21611 15.9642C5.83211 15.9642 6.31744 16.0669 6.67211 16.2722C6.54144 16.8509 6.47611 17.3455 6.47611 17.7562C6.47611 19.6975 7.27878 20.6682 8.88411 20.6682C9.63078 20.6682 10.2374 20.4629 10.7041 20.0522C11.1708 19.6229 11.4041 19.0535 11.4041 18.3442C11.4041 17.7095 11.2361 17.1495 10.9001 16.6642C10.5641 16.1602 10.1441 15.7309 9.64011 15.3762C9.13611 15.0029 8.46411 14.5642 7.62411 14.0602C6.61611 13.4629 5.79478 12.9309 5.16011 12.4642C4.54411 11.9975 4.01211 11.4095 3.56411 10.7002C3.13478 9.99087 2.92011 9.15087 2.92011 8.18021C2.92011 7.07887 3.21878 6.13621 3.81611 5.35221C4.41344 4.56821 5.20678 3.98021 6.19611 3.58821C7.20411 3.17754 8.29611 2.97221 9.47211 2.97221ZM26.8236 3.53221L31.5556 22.0122H26.8236L25.7596 17.4482H20.5796L19.5436 22.0122H16.1556L21.2516 3.53221H26.8236ZM21.1116 15.2362H25.2556L23.1556 6.27621L21.1116 15.2362ZM42.6121 22.0122L36.0321 8.82421V22.0122H33.1201V3.53221H37.8801L44.4601 16.7202V3.53221H47.3441V22.0122H42.6121ZM50.4287 3.70021C52.818 3.49487 55.0207 3.39221 57.0367 3.39221C59.874 3.39221 61.9647 4.15754 63.3087 5.68821C64.6527 7.21887 65.3247 9.46821 65.3247 12.4362C65.3247 15.5909 64.5967 18.0269 63.1407 19.7442C61.7033 21.4429 59.5007 22.2922 56.5327 22.2922C54.61 22.2922 52.5753 22.1615 50.4287 21.9002V3.70021ZM56.7287 20.2762C58.2033 20.2762 59.1833 19.5949 59.6687 18.2322C60.154 16.8695 60.3967 15.0215 60.3967 12.6882C60.3967 10.5602 60.154 8.82421 59.6687 7.48021C59.202 6.11754 58.2967 5.43621 56.9527 5.43621C56.374 5.43621 55.7487 5.49221 55.0767 5.60421V20.0802C55.5993 20.2109 56.15 20.2762 56.7287 20.2762ZM19.2355 24.5322L19.0395 26.7442H15.0355V43.0122H10.3875V26.7442H6.24347V24.5322H19.2355ZM25.2583 24.5322V43.0122H20.6103V24.5322H25.2583ZM47.5853 24.5322V43.0122H42.9373V28.1442L38.4293 43.0122H35.7413L31.2333 28.1162V43.0122H28.3213V24.5322H34.6493L38.0373 36.3202L41.3973 24.5322H47.5853ZM60.8251 24.5322V26.7442H55.3091V32.4002H59.9851V34.6402H55.3091V40.8002H61.2171L61.0211 43.0122H50.6611V24.5322H60.8251Z" fill="#151514"/>
<path d="M4.1296 47.3562L6.58592 53.0122H5.786L3.74176 48.2612H3.70944L2.13384 52.2608C2.0261 52.5355 1.90221 52.7456 1.76216 52.891C1.62749 53.0364 1.47397 53.1092 1.3016 53.1092C1.19386 53.1092 1.08613 53.1011 0.978398 53.0849C0.876051 53.0688 0.779091 53.0445 0.687518 53.0122L0.905678 52.4628C0.959545 52.4897 1.0188 52.522 1.08344 52.5597C1.14808 52.5974 1.21541 52.6163 1.28544 52.6163C1.4632 52.6163 1.59248 52.5436 1.67328 52.3981C1.75946 52.2527 1.84834 52.0588 1.93992 51.8164L3.6852 47.3562H4.1296ZM8.16183 52.5355L10.2222 48.9722H11.0302V53.0122H10.3434V49.4732L8.28303 53.0122H7.47503V48.9722H8.16183V52.5355ZM14.6388 48.9722L16.2791 53.0122H15.5519L14.2591 49.7721H14.2106L13.2814 52.1072C13.206 52.3012 13.1333 52.4628 13.0632 52.592C12.9986 52.7159 12.9313 52.8183 12.8612 52.8991C12.7912 52.9745 12.7158 53.0257 12.635 53.0526C12.5542 53.0849 12.4626 53.1011 12.3603 53.1011C12.134 53.1011 11.959 53.0418 11.8351 52.9233L11.9644 52.4951C12.0128 52.5382 12.0775 52.5813 12.1583 52.6244C12.2391 52.6675 12.3172 52.689 12.3926 52.689C12.4572 52.689 12.5165 52.6675 12.5704 52.6244C12.6296 52.5759 12.6808 52.5166 12.7239 52.4466C12.767 52.3766 12.8047 52.3039 12.837 52.2284C12.8693 52.1476 12.8989 52.0776 12.9259 52.0184L14.154 48.9722H14.6388ZM17.7726 52.5355L19.833 48.9722H20.641V53.0122H19.9542V49.4732L17.8938 53.0122H17.0858V48.9722H17.7726V52.5355ZM22.6175 52.5355L24.6779 48.9722H25.4859V53.0122H24.7991V49.4732L22.7387 53.0122H21.9307V48.9722H22.6175V52.5355ZM32.9697 50.2569V47.3562H33.705V53.0122H32.9697V50.6124C32.7273 50.6448 32.4526 50.6771 32.1455 50.7094C31.8385 50.7363 31.5584 50.7498 31.3052 50.7498C30.8743 50.7498 30.5349 50.7175 30.2871 50.6528C30.0394 50.5828 29.8535 50.4939 29.7296 50.3862C29.6057 50.2731 29.5249 50.1492 29.4872 50.0145C29.4549 49.8799 29.4387 49.7452 29.4387 49.6105V47.3562H30.174V49.3924C30.174 49.5163 30.1821 49.6375 30.1983 49.756C30.2198 49.8745 30.2764 49.9822 30.3679 50.0792C30.4595 50.1707 30.605 50.2462 30.8043 50.3054C31.0036 50.3647 31.281 50.3943 31.6365 50.3943C31.7173 50.3943 31.8116 50.3916 31.9193 50.3862C32.0324 50.3808 32.1482 50.3727 32.2667 50.362C32.3906 50.3458 32.5118 50.3296 32.6303 50.3135C32.7542 50.2973 32.8674 50.2785 32.9697 50.2569ZM36.0078 52.5355L38.0682 48.9722H38.8762V53.0122H38.1894V49.4732L36.129 53.0122H35.321V48.9722H36.0078V52.5355ZM42.194 52.689C42.4148 52.689 42.6168 52.654 42.8 52.584C42.9885 52.5086 43.177 52.3927 43.3656 52.2365L43.5999 52.5436C43.4167 52.6836 43.1905 52.8129 42.9212 52.9314C42.6572 53.0499 42.3475 53.1092 41.992 53.1092C41.6742 53.1092 41.3887 53.0553 41.1355 52.9476C40.8823 52.8344 40.6642 52.6836 40.481 52.4951C40.3033 52.3012 40.1659 52.0749 40.0689 51.8164C39.972 51.5524 39.9235 51.2696 39.9235 50.968C39.9235 50.6825 39.9666 50.4131 40.0528 50.16C40.1443 49.9068 40.279 49.6859 40.4568 49.4974C40.6345 49.3089 40.8527 49.1607 41.1113 49.053C41.3698 48.9399 41.6688 48.8833 42.0081 48.8833C42.1697 48.8833 42.3367 48.8995 42.5091 48.9318C42.6869 48.9587 42.8511 49.0126 43.002 49.0934C43.1582 49.1688 43.2955 49.2712 43.4141 49.4004C43.5326 49.5243 43.6187 49.6832 43.6726 49.8772H43.1151C43.0558 49.6886 42.9346 49.5297 42.7515 49.4004C42.5683 49.2712 42.3529 49.2065 42.1051 49.2065C41.9543 49.2065 41.7954 49.2388 41.6284 49.3035C41.4614 49.3627 41.3079 49.4624 41.1678 49.6024C41.0331 49.7371 40.92 49.9203 40.8285 50.1519C40.7369 50.3781 40.6911 50.6555 40.6911 50.9841C40.6911 51.3019 40.7315 51.5713 40.8123 51.7921C40.8985 52.0076 41.0116 52.1827 41.1517 52.3173C41.2917 52.4466 41.4506 52.5409 41.6284 52.6001C41.8115 52.6594 42.0001 52.689 42.194 52.689ZM45.6922 53.0122V49.2954H44.0762V48.9722H47.995V49.2954H46.379V53.0122H45.6922ZM49.4929 52.5355L51.5533 48.9722H52.3613V53.0122H51.6745V49.4732L49.6141 53.0122H48.8061V48.9722H49.4929V52.5355ZM54.3378 51.0811V53.0122H53.651V48.9722H54.3378V50.8064H56.382V48.9722H57.0688V53.0122H56.382V51.0811H54.3378ZM62.3047 51.0003C62.3047 51.2804 62.2562 51.5497 62.1593 51.8083C62.0623 52.0615 61.9223 52.285 61.7391 52.4789C61.5614 52.6728 61.3432 52.8264 61.0846 52.9395C60.8315 53.0526 60.546 53.1092 60.2282 53.1092C59.905 53.1092 59.6114 53.0526 59.3474 52.9395C59.0889 52.821 58.868 52.6648 58.6849 52.4708C58.5071 52.2769 58.3671 52.0534 58.2647 51.8002C58.1678 51.5416 58.1193 51.275 58.1193 51.0003C58.1193 50.7202 58.1678 50.4535 58.2647 50.2004C58.3671 49.9418 58.5071 49.7156 58.6849 49.5216C58.868 49.3277 59.0889 49.1742 59.3474 49.0611C59.6114 48.9426 59.905 48.8833 60.2282 48.8833C60.546 48.8833 60.8315 48.9426 61.0846 49.0611C61.3432 49.1742 61.5614 49.3277 61.7391 49.5216C61.9223 49.7156 62.0623 49.9418 62.1593 50.2004C62.2562 50.4535 62.3047 50.7202 62.3047 51.0003ZM61.5371 51.0003C61.5371 50.6232 61.4967 50.3189 61.4159 50.0872C61.3351 49.8502 61.2301 49.6671 61.1008 49.5378C60.9715 49.4085 60.8288 49.3223 60.6726 49.2792C60.5163 49.2308 60.3655 49.2065 60.2201 49.2065C60.0746 49.2065 59.9238 49.2308 59.7676 49.2792C59.6114 49.3223 59.4659 49.4085 59.3313 49.5378C59.202 49.6671 59.0943 49.8502 59.0081 50.0872C58.9273 50.3189 58.8869 50.6232 58.8869 51.0003C58.8869 51.372 58.9273 51.6763 59.0081 51.9133C59.0943 52.145 59.202 52.3254 59.3313 52.4547C59.4659 52.584 59.6114 52.6728 59.7676 52.7213C59.9238 52.7644 60.0746 52.786 60.2201 52.786C60.3655 52.786 60.5163 52.7644 60.6726 52.7213C60.8288 52.6728 60.9715 52.584 61.1008 52.4547C61.2301 52.3254 61.3351 52.145 61.4159 51.9133C61.4967 51.6763 61.5371 51.372 61.5371 51.0003ZM64.0432 52.5355L66.1036 48.9722H66.9116V53.0122H66.2248V49.4732L64.1644 53.0122H63.3564V48.9722H64.0432V52.5355ZM65.1421 48.245C65.0398 48.245 64.9105 48.2423 64.7543 48.2369C64.5981 48.2262 64.4445 48.1965 64.2937 48.148C64.1483 48.0996 64.0217 48.0215 63.914 47.9137C63.8062 47.806 63.7524 47.6525 63.7524 47.4532V47.3562H64.52C64.5146 47.3831 64.5092 47.4101 64.5038 47.437C64.5038 47.4586 64.5038 47.4828 64.5038 47.5097C64.5038 47.6228 64.528 47.7117 64.5765 47.7764C64.625 47.841 64.6816 47.8895 64.7462 47.9218C64.8162 47.9541 64.8863 47.973 64.9563 47.9784C65.0317 47.9838 65.0936 47.9864 65.1421 47.9864C65.1906 47.9864 65.2499 47.9838 65.3199 47.9784C65.3899 47.973 65.4572 47.9541 65.5219 47.9218C65.5919 47.8895 65.6512 47.841 65.6996 47.7764C65.7481 47.7117 65.7724 47.6228 65.7724 47.5097C65.7724 47.4828 65.7697 47.4586 65.7643 47.437C65.7643 47.4101 65.7616 47.3831 65.7562 47.3562H66.5319V47.4532C66.5319 47.6525 66.478 47.806 66.3703 47.9137C66.2625 48.0215 66.1333 48.0996 65.9824 48.148C65.837 48.1965 65.6835 48.2262 65.5219 48.2369C65.3657 48.2423 65.2391 48.245 65.1421 48.245Z" fill="#151514"/>
</svg>
