<svg width="539" height="162" viewBox="0 0 539 162" fill="none" xmlns="http://www.w3.org/2000/svg">
<path d="M538.001 51.9999C513.117 46.0923 510.301 45.1994 476.223 39.3332C378.724 22.5496 280.205 7.68288 181.056 6.4443C135.901 5.88021 95.3733 7.11427 52.7785 21.4999C41.0012 25.4774 29.1923 30.507 19.4452 38.2221C8.3463 47.0071 -3.24707 69.2203 2.66741 84.3332C12.0409 108.285 49.2079 127.62 68.8896 134.667C153.932 165.115 251.047 166.052 339.445 154.667C367.426 151.063 395.479 146.201 422.334 137.555C435.685 133.257 486.079 113.432 484.89 85.5554C484.426 74.6856 475.393 65.2957 467.223 58.111C436.39 30.9961 393.47 21.3611 354.612 15.2776C293.631 5.73053 240.898 5.88132 179.945 15.6665C156.299 19.4625 132.534 24.4619 110.334 33.4443C97.5278 38.6259 57.8509 60.4897 66.4452 85.7776C75.2007 111.54 130.134 131.782 146.667 136.222C175.288 143.909 204.858 148.2 234.39 150.667C306.647 156.702 371.439 154.027 442.167 137.667C453.049 135.15 536.727 119.587 537.001 80.9443C537.091 68.21 525.766 56.6979 515.223 49.5554C479.361 25.2601 400.982 9.16328 362.667 4.77763C330.416 1.08595 297.774 0.347225 265.334 1.55541C243.392 2.37261 167.051 5.16174 143.167 31.7221C138.087 37.3723 139.693 49.0062 145.001 54.4443C167.14 77.129 209 85.5554 234.39 88.5" stroke="#FFB168" stroke-linecap="round"/>
</svg>
