<svg width="382" height="110" viewBox="0 0 382 110" fill="none" xmlns="http://www.w3.org/2000/svg">
<path d="M380.971 35.5602C363.361 31.6041 361.368 31.0061 337.252 27.0778C268.256 15.8385 198.537 5.88277 128.372 5.05333C96.4169 4.67558 67.7368 5.50198 37.5937 15.1355C29.2592 17.7991 20.9024 21.1672 14.0047 26.3337C6.15038 32.2167 -2.0539 47.092 2.1316 57.2126C8.76493 73.252 35.0669 86.1999 48.995 90.9189C109.177 111.309 177.902 111.937 240.459 104.312C260.26 101.899 280.113 98.6432 299.117 92.8535C308.565 89.975 344.228 76.6992 343.386 58.031C343.057 50.752 336.665 44.4639 330.883 39.6525C309.064 21.4947 278.69 15.0426 251.192 10.9687C208.038 4.57535 170.72 4.67633 127.586 11.2291C110.852 13.7712 94.0344 17.119 78.324 23.1342C69.2614 26.6041 41.1833 41.2455 47.2652 58.1799C53.4612 75.4319 92.3358 88.9871 104.036 91.9606C124.29 97.108 145.216 99.9817 166.114 101.633C217.249 105.675 263.1 103.884 313.152 92.9279C320.853 91.2424 380.069 80.8205 380.263 54.9432C380.327 46.4155 372.313 38.7063 364.852 33.9232C339.473 17.6536 284.007 6.87413 256.893 3.93723C234.069 1.46505 210.969 0.970354 188.013 1.77943C172.485 2.32668 118.461 4.19445 101.559 21.9809C97.9636 25.7647 99.1008 33.5554 102.857 37.1971C118.524 52.3882 156.706 55.421 173.624 63.686" stroke="#E75512" stroke-linecap="round"/>
</svg>
