<svg width="81" height="80" viewBox="0 0 81 80" fill="none" xmlns="http://www.w3.org/2000/svg">
<path fill-rule="evenodd" clip-rule="evenodd" d="M38.9946 19.602H42.2513C42.611 19.602 42.9043 19.3096 42.9043 18.9495C42.9043 18.5907 42.611 18.297 42.2513 18.297H38.9946V19.602ZM38.9946 22.7702H42.3482C42.7583 22.7702 43.0901 22.4366 43.0901 22.0233C43.0901 21.6114 42.7583 21.2778 42.3482 21.2778H38.9946V22.7702ZM44.23 20.3688C44.672 20.8007 44.9467 21.4027 44.9467 22.0712C44.9467 23.3815 43.885 24.446 42.5765 24.4487H37.1313V16.6172H42.4876C43.7443 16.6198 44.7622 17.6418 44.7622 18.9003C44.7635 19.4598 44.5631 19.9714 44.23 20.3688Z" fill="#00354F"/>
<path fill-rule="evenodd" clip-rule="evenodd" d="M45.4829 33.7728H43.4842L42.8552 32.4678H38.481L37.8507 33.7728H35.8521L39.7604 25.9453H41.5732L45.4829 33.7728ZM40.6681 27.948L39.2959 30.792H42.0417L40.6681 27.948Z" fill="#00354F"/>
<path fill-rule="evenodd" clip-rule="evenodd" d="M35.7739 35.4512H38.0128L40.6683 39.0154L43.3238 35.4512H45.5627L41.5999 40.5477V43.2787H39.7367V40.5477L35.7739 35.4512Z" fill="#00354F"/>
<path fill-rule="evenodd" clip-rule="evenodd" d="M53.6879 35.4512V37.1283H48.4763V38.4333H53.5021V40.1105H48.4763V41.6015H53.6879V43.2787H46.6157V35.4512H53.6879Z" fill="#00354F"/>
<path fill-rule="evenodd" clip-rule="evenodd" d="M59.4382 40.2965H58.0421V43.2787H56.1802V35.4512H60.9352C62.2676 35.4552 63.3479 36.5396 63.3479 37.8765C63.3479 38.9795 62.6193 39.9098 61.6107 40.2021L63.9053 43.2787H61.6717L59.4382 40.2965ZM60.7454 37.1283H58.0421V38.6194H60.7454C61.1542 38.6167 61.4846 38.2832 61.4846 37.8752C61.4859 37.4645 61.1542 37.131 60.7454 37.1283Z" fill="#00354F"/>
<path fill-rule="evenodd" clip-rule="evenodd" d="M36.6417 43.278H34.6431L34.014 41.973H29.6399L29.0095 43.278H27.0122L30.9205 35.4492H32.7334L36.6417 43.278ZM31.8269 37.4533L30.4534 40.2972H33.1992L31.8269 37.4533Z" fill="#00354F"/>
<path fill-rule="evenodd" clip-rule="evenodd" d="M20.0226 38.4386H23.278C23.6376 38.4386 23.9309 38.1462 23.9309 37.786C23.9309 37.4259 23.6389 37.1335 23.278 37.1335H20.0226V38.4386ZM20.0226 41.6068H23.3748C23.7863 41.6068 24.1167 41.2719 24.1167 40.8599C24.1167 40.4493 23.7863 40.1144 23.3748 40.1144H20.0226V41.6068ZM25.258 39.2054C25.6999 39.6373 25.976 40.2406 25.976 40.9077C25.976 42.2181 24.9143 43.2839 23.6071 43.2852H18.1606V35.4551H23.5168C24.7736 35.4577 25.7928 36.4797 25.7928 37.7382C25.7915 38.2977 25.5911 38.8093 25.258 39.2054Z" fill="#00354F"/>
<path fill-rule="evenodd" clip-rule="evenodd" d="M44.2048 44.9561V46.6345H38.9933V47.9395L44.0177 47.9382V49.6153H38.9933V51.1077H44.2048V52.7849H37.1313V44.9561H44.2048Z" fill="#00354F"/>
<path fill-rule="evenodd" clip-rule="evenodd" d="M42.899 57.0728C42.899 56.6621 42.5698 56.3299 42.1611 56.3272H38.9933V57.817H42.1611C42.5698 57.813 42.899 57.4794 42.899 57.0728ZM37.1313 62.4763V54.6475H42.3522C43.6833 54.6568 44.7569 55.7399 44.7569 57.0741C44.7569 58.0894 44.1358 58.9586 43.252 59.3214L45.5996 62.4749H43.3661L41.1326 59.4941H38.992V62.4749L37.1313 62.4763Z" fill="#00354F"/>
<path fill-rule="evenodd" clip-rule="evenodd" d="M68.8759 37.739C67.9722 22.9266 55.6911 11.1934 40.6723 11.1934C25.6534 11.1934 13.3724 22.9266 12.4673 37.739C12.5031 38.3331 12.5562 38.9218 12.6292 39.5065C13.2397 44.4329 15.1149 48.966 17.9204 52.772C23.0669 59.7556 31.3414 64.286 40.6723 64.286C27.6082 64.286 16.8773 54.1023 15.9762 41.2461C15.935 40.6654 15.9125 40.082 15.9125 39.4919C15.9125 38.9019 15.935 38.3184 15.9748 37.739C16.8759 24.8828 27.6069 14.6991 40.671 14.6991C50.0045 14.6991 58.2803 19.2321 63.4255 26.2171C66.2323 30.0285 68.1076 34.5708 68.714 39.5052C68.7844 40.0806 68.8401 40.66 68.8759 41.2448C68.9118 40.664 68.9317 40.0793 68.9317 39.4906C68.9317 38.9032 68.9118 38.3198 68.8759 37.739Z" fill="#56D400"/>
<path fill-rule="evenodd" clip-rule="evenodd" d="M12.4671 41.2462C13.3708 56.0586 25.6519 67.7919 40.6707 67.7919C55.6896 67.7919 67.9706 56.0586 68.8744 41.2462C68.8386 40.6522 68.7855 40.0635 68.7125 39.4787C68.102 34.551 66.2268 30.018 63.4213 26.2132C58.2775 19.2296 50.003 14.6992 40.6721 14.6992C53.7348 14.6992 64.4671 24.8829 65.3682 37.7391C65.408 38.3186 65.4306 38.9033 65.4306 39.492C65.4306 40.0821 65.408 40.6655 65.3682 41.2449C64.4671 54.1011 53.7361 64.2848 40.6721 64.2848C31.3385 64.2848 23.0627 59.7531 17.9175 52.7668C15.1107 48.9554 13.2355 44.4131 12.629 39.4787C12.5586 38.9033 12.5029 38.3239 12.4671 37.7391C12.4326 38.3199 12.4127 38.9033 12.4127 39.492C12.4113 40.0821 12.4312 40.6655 12.4671 41.2462Z" fill="#00BDFF"/>
</svg>
