<svg width="81" height="80" viewBox="0 0 81 80" fill="none" xmlns="http://www.w3.org/2000/svg">
<path d="M40.2626 15.5C26.721 15.5 15.7457 26.4675 15.7457 39.9996C15.7457 53.5317 26.7244 64.4992 40.2626 64.4992C53.8043 64.4992 64.7796 53.5317 64.7796 39.9996C64.7796 26.4675 53.8008 15.5 40.2626 15.5ZM40.2626 63.276C27.3991 63.276 16.9733 52.8541 16.9733 40.0031C16.9733 27.1521 27.3991 16.7267 40.2626 16.7267C53.1262 16.7267 63.5554 27.1486 63.5554 40.0031C63.5554 52.8576 53.1262 63.276 40.2626 63.276Z" fill="url(#paint0_linear_291_1435)"/>
<path d="M63.7299 39.999C63.7299 52.9507 53.2241 63.4491 40.2632 63.4491C27.3023 63.4491 16.7965 52.9507 16.7965 39.999C16.7965 27.0472 27.3023 16.5488 40.2632 16.5488C53.2206 16.5488 63.7299 27.0472 63.7299 39.999Z" fill="#333333"/>
<path d="M63.5525 40C63.5525 52.8545 53.1232 63.2729 40.2597 63.2729C27.3961 63.2729 16.9703 52.851 16.9703 40C16.9703 27.149 27.3961 16.7236 40.2597 16.7236C53.1267 16.7271 63.5525 27.1455 63.5525 40Z" fill="url(#paint1_radial_291_1435)"/>
<path d="M55.8767 39.9998C55.8767 48.6181 48.8868 55.6031 40.2624 55.6031C31.638 55.6031 24.6481 48.6181 24.6481 39.9998C24.6481 31.3815 31.638 24.3965 40.2624 24.3965C48.8833 24.3965 55.8767 31.3815 55.8767 39.9998Z" fill="url(#paint2_linear_291_1435)"/>
<path d="M40.8866 23.9757L42.5107 19.677V23.9757H43.7417V17.8213H41.8917L40.2085 22.2277H40.2224L38.5393 17.8213H36.6892V23.9757H37.9203V19.677L39.5408 23.9757H40.8866Z" fill="black"/>
<path d="M57.7934 26.7322L55.6894 29.8008L58.9966 28.1744L59.8904 29.2517L54.6879 31.8615L53.6377 30.5896L55.6547 27.5489L55.6408 27.535L52.2884 28.9702L51.2242 27.7053L54.7331 23.0625L55.6303 24.1398L53.4325 27.0971L56.8336 25.5785L57.7934 26.7322Z" fill="black"/>
<path d="M29.3576 25.557C28.8603 25.0774 28.0952 24.9315 27.3788 25.3763C27.5179 25.0218 27.4623 24.6569 27.3893 24.4589C27.0798 23.8959 26.972 23.8229 26.7181 23.6109C25.8904 22.9194 25.021 23.5102 24.3985 24.2504L21.3939 27.8297L26.1165 31.7914L29.2845 28.0174C30.0079 27.1521 30.1192 26.2972 29.3576 25.557ZM23.2475 27.2841L25.0523 25.1365C25.261 24.8863 25.7339 24.8967 26.0365 25.1539C26.3703 25.4354 26.3703 25.8315 26.1478 26.0991L24.3638 28.2224L23.2475 27.2841ZM28.2274 27.6421L26.346 29.8835L25.1671 28.8931L27.0624 26.6343C27.278 26.3806 27.7544 26.3042 28.0778 26.5752C28.4395 26.881 28.4743 27.3432 28.2274 27.6421Z" fill="#333333"/>
<path d="M40.8959 23.735L42.5199 19.4397V23.735H43.7509V17.584H41.8974L40.2143 21.987H40.2316L38.5485 17.584H36.6949V23.735H37.926V19.4397L39.55 23.735H40.8959Z" fill="url(#paint3_radial_291_1435)"/>
<path d="M57.8051 26.3201L55.7012 29.3852L59.0049 27.7588L59.9021 28.8361L54.6996 31.4459L53.6494 30.174L55.6664 27.1368L55.6525 27.1194L52.2966 28.5546L51.236 27.2897L54.7448 22.6504L55.6386 23.7242L53.4442 26.6815L56.8418 25.1664L57.8051 26.3201Z" fill="url(#paint4_radial_291_1435)"/>
<path d="M29.1367 25.4349C28.6429 24.9554 27.8743 24.8094 27.1579 25.2542C27.2936 24.8998 27.2379 24.5349 27.1649 24.3368C26.8554 23.7738 26.7476 23.7008 26.4902 23.4889C25.6626 22.7973 24.7932 23.3881 24.1742 24.1283L21.1696 27.7077L25.8921 31.6693L29.0602 27.8953C29.7835 27.03 29.8948 26.1751 29.1367 25.4349ZM23.0266 27.1621L24.8314 25.0144C25.0401 24.7642 25.513 24.7747 25.8156 25.0283C26.1494 25.3098 26.1494 25.706 25.9269 25.9736L24.1429 28.0969L23.0266 27.1621ZM28.0065 27.52L26.1251 29.7615L24.9462 28.771L26.8415 26.5122C27.0571 26.2585 27.5335 26.1821 27.8535 26.4531C28.2186 26.759 28.2534 27.2211 28.0065 27.52Z" fill="url(#paint5_radial_291_1435)"/>
<path d="M25.1676 39.9996C25.1676 31.6697 31.9245 24.9141 40.2638 24.9141C48.603 24.9141 55.3599 31.6697 55.3599 39.9996C55.3599 48.3294 48.603 55.0851 40.2638 55.0851C31.9245 55.0851 25.1676 48.3294 25.1676 39.9996Z" fill="url(#paint6_radial_291_1435)"/>
<path d="M25.6012 39.9998C25.6012 31.9097 32.1669 25.3486 40.2627 25.3486C48.3619 25.3486 54.9241 31.9097 54.9241 39.9998C54.9241 48.0898 48.3585 54.6509 40.2627 54.6509C32.1634 54.6509 25.6012 48.0933 25.6012 39.9998Z" fill="url(#paint7_radial_291_1435)"/>
<path d="M25.5797 39.9997H40.2655V25.3242C32.1523 25.3277 25.5797 31.8957 25.5797 39.9997Z" fill="url(#paint8_radial_291_1435)"/>
<path d="M40.2653 40V54.6754C48.375 54.6754 54.9511 48.104 54.9511 40H40.2653Z" fill="url(#paint9_radial_291_1435)"/>
<path d="M55.0663 39.7396H40.5196V25.2031H40.0014V39.7396H25.4547V40.2608H40.0014V54.7973H40.5196V40.2608H55.0663V39.7396Z" fill="url(#paint10_radial_291_1435)"/>
<path d="M40.5209 25.6161C48.2689 25.7551 54.5181 31.9999 54.6572 39.739H54.918C54.7789 31.8539 48.4115 25.491 40.5244 25.3555V25.6161H40.5209Z" fill="url(#paint11_linear_291_1435)"/>
<path d="M25.8427 39.7384C25.9818 31.9888 32.2415 25.7336 39.9965 25.5946V25.334C32.0954 25.473 25.721 31.8429 25.5819 39.7384H25.8427Z" fill="#C2D7E8"/>
<path d="M40.0023 54.3827C32.2577 54.2437 26.005 47.9989 25.8659 40.2598H25.6051C25.7442 48.1448 32.1116 54.5078 39.9988 54.6433V54.3827H40.0023Z" fill="url(#paint12_linear_291_1435)"/>
<path d="M54.6572 40.2598C54.5181 47.9989 48.2689 54.2471 40.5209 54.3827V54.6433C48.4115 54.5043 54.7789 48.1413 54.9146 40.2598H54.6572Z" fill="#12404F"/>
<path d="M39.7247 25.334V39.4534H25.5953V39.7314H39.7247H40.0029V39.4534V25.334H39.7247Z" fill="url(#paint13_linear_291_1435)"/>
<path d="M39.7009 54.5084V40.5593H25.7106V40.2812H39.7009H39.9756V40.5593V54.5084H39.7009Z" fill="url(#paint14_linear_291_1435)"/>
<path d="M40.8212 54.5084V40.5593H54.7837V40.2812H40.8212H40.5465V40.5593V54.5084H40.8212Z" fill="url(#paint15_linear_291_1435)"/>
<path d="M40.8212 25.46V39.4091H54.7837V39.6836H40.8212H40.5465V39.4091V25.46H40.8212Z" fill="url(#paint16_linear_291_1435)"/>
<defs>
<linearGradient id="paint0_linear_291_1435" x1="12.1547" y1="12.8586" x2="64.1402" y2="63.1291" gradientUnits="userSpaceOnUse">
<stop stop-color="#DFF4FF"/>
<stop offset="0.0984" stop-color="#D6EAF5"/>
<stop offset="0.2678" stop-color="#BFD0D9"/>
<stop offset="0.4879" stop-color="#98A5AC"/>
<stop offset="0.7469" stop-color="#646B6E"/>
<stop offset="1" stop-color="#2B2B2B"/>
</linearGradient>
<radialGradient id="paint1_radial_291_1435" cx="0" cy="0" r="1" gradientUnits="userSpaceOnUse" gradientTransform="translate(15.4387 17.1211) scale(34.8326 34.808)">
<stop stop-color="white"/>
<stop offset="0.3064" stop-color="#A8A8A8"/>
<stop offset="0.6461" stop-color="#4F4F4F"/>
<stop offset="0.8853" stop-color="#161616"/>
<stop offset="1"/>
</radialGradient>
<linearGradient id="paint2_linear_291_1435" x1="58.1621" y1="57.2859" x2="25.0527" y2="25.2688" gradientUnits="userSpaceOnUse">
<stop stop-color="#DFF4FF"/>
<stop offset="0.0855" stop-color="#D6EAF5"/>
<stop offset="0.2327" stop-color="#BED0D9"/>
<stop offset="0.4239" stop-color="#96A4AC"/>
<stop offset="0.6516" stop-color="#5F686D"/>
<stop offset="0.9075" stop-color="#1A1D1E"/>
<stop offset="1"/>
</linearGradient>
<radialGradient id="paint3_radial_291_1435" cx="0" cy="0" r="1" gradientUnits="userSpaceOnUse" gradientTransform="translate(9.17942 13.5747) scale(83.6971 83.6382)">
<stop stop-color="white"/>
<stop offset="0.3102" stop-color="#FDFDFD"/>
<stop offset="0.4505" stop-color="#F6F6F6"/>
<stop offset="0.5567" stop-color="#E9E9E9"/>
<stop offset="0.6456" stop-color="#D7D7D7"/>
<stop offset="0.7238" stop-color="#BFBFBF"/>
<stop offset="0.7944" stop-color="#A2A2A2"/>
<stop offset="0.8593" stop-color="#808080"/>
<stop offset="0.9199" stop-color="#575757"/>
<stop offset="0.9746" stop-color="#2B2B2B"/>
<stop offset="1" stop-color="#141414"/>
</radialGradient>
<radialGradient id="paint4_radial_291_1435" cx="0" cy="0" r="1" gradientUnits="userSpaceOnUse" gradientTransform="translate(9.17751 13.5742) scale(83.7034 83.6445)">
<stop stop-color="white"/>
<stop offset="0.3102" stop-color="#FDFDFD"/>
<stop offset="0.4505" stop-color="#F6F6F6"/>
<stop offset="0.5567" stop-color="#E9E9E9"/>
<stop offset="0.6456" stop-color="#D7D7D7"/>
<stop offset="0.7238" stop-color="#BFBFBF"/>
<stop offset="0.7944" stop-color="#A2A2A2"/>
<stop offset="0.8593" stop-color="#808080"/>
<stop offset="0.9199" stop-color="#575757"/>
<stop offset="0.9746" stop-color="#2B2B2B"/>
<stop offset="1" stop-color="#141414"/>
</radialGradient>
<radialGradient id="paint5_radial_291_1435" cx="0" cy="0" r="1" gradientUnits="userSpaceOnUse" gradientTransform="translate(9.17292 13.5504) scale(83.7695 83.7104)">
<stop stop-color="white"/>
<stop offset="0.3102" stop-color="#FDFDFD"/>
<stop offset="0.4505" stop-color="#F6F6F6"/>
<stop offset="0.5567" stop-color="#E9E9E9"/>
<stop offset="0.6456" stop-color="#D7D7D7"/>
<stop offset="0.7238" stop-color="#BFBFBF"/>
<stop offset="0.7944" stop-color="#A2A2A2"/>
<stop offset="0.8593" stop-color="#808080"/>
<stop offset="0.9199" stop-color="#575757"/>
<stop offset="0.9746" stop-color="#2B2B2B"/>
<stop offset="1" stop-color="#141414"/>
</radialGradient>
<radialGradient id="paint6_radial_291_1435" cx="0" cy="0" r="1" gradientUnits="userSpaceOnUse" gradientTransform="translate(24.1738 25.1713) scale(22.5759 22.5599)">
<stop stop-color="#E6E6E6"/>
<stop offset="0.1045" stop-color="#D6D6D6"/>
<stop offset="0.3074" stop-color="#ADADAD"/>
<stop offset="0.5884" stop-color="#6C6C6C"/>
<stop offset="0.9335" stop-color="#121212"/>
<stop offset="1"/>
</radialGradient>
<radialGradient id="paint7_radial_291_1435" cx="0" cy="0" r="1" gradientUnits="userSpaceOnUse" gradientTransform="translate(30.3475 28.2055) scale(32.8315 32.8083)">
<stop stop-color="white"/>
<stop offset="0.3435" stop-color="#FDFDFD"/>
<stop offset="0.4814" stop-color="#F6F6F6"/>
<stop offset="0.5824" stop-color="#EAEAEA"/>
<stop offset="0.6654" stop-color="#D8D8D8"/>
<stop offset="0.7373" stop-color="#C2C2C2"/>
<stop offset="0.8016" stop-color="#A6A6A6"/>
<stop offset="0.8602" stop-color="#848484"/>
<stop offset="0.9126" stop-color="#5F5F5F"/>
<stop offset="0.9494" stop-color="#404040"/>
<stop offset="0.9566" stop-color="#404040"/>
<stop offset="1"/>
</radialGradient>
<radialGradient id="paint8_radial_291_1435" cx="0" cy="0" r="1" gradientUnits="userSpaceOnUse" gradientTransform="translate(20.7103 15.7686) scale(58.1458 58.1048)">
<stop offset="0.1685" stop-color="white"/>
<stop offset="0.1957" stop-color="#E0EFF7"/>
<stop offset="0.2406" stop-color="#B2D9EC"/>
<stop offset="0.2872" stop-color="#8BC5E2"/>
<stop offset="0.335" stop-color="#6BB5DA"/>
<stop offset="0.3844" stop-color="#52A9D4"/>
<stop offset="0.4359" stop-color="#41A0CF"/>
<stop offset="0.4911" stop-color="#369BCD"/>
<stop offset="0.5562" stop-color="#3399CC"/>
<stop offset="0.606" stop-color="#3396C8"/>
<stop offset="0.6553" stop-color="#328EBC"/>
<stop offset="0.7045" stop-color="#3180A8"/>
<stop offset="0.7536" stop-color="#2F6D8C"/>
<stop offset="0.8027" stop-color="#2D5468"/>
<stop offset="0.8512" stop-color="#2A373D"/>
<stop offset="0.8708" stop-color="#292929"/>
</radialGradient>
<radialGradient id="paint9_radial_291_1435" cx="0" cy="0" r="1" gradientUnits="userSpaceOnUse" gradientTransform="translate(20.7103 15.769) scale(58.1434 58.1024)">
<stop offset="0.1685" stop-color="white"/>
<stop offset="0.1957" stop-color="#E0EFF7"/>
<stop offset="0.2406" stop-color="#B2D9EC"/>
<stop offset="0.2872" stop-color="#8BC5E2"/>
<stop offset="0.335" stop-color="#6BB5DA"/>
<stop offset="0.3844" stop-color="#52A9D4"/>
<stop offset="0.4359" stop-color="#41A0CF"/>
<stop offset="0.4911" stop-color="#369BCD"/>
<stop offset="0.5562" stop-color="#3399CC"/>
<stop offset="0.606" stop-color="#3396C8"/>
<stop offset="0.6553" stop-color="#328EBC"/>
<stop offset="0.7045" stop-color="#3180A8"/>
<stop offset="0.7536" stop-color="#2F6D8C"/>
<stop offset="0.8027" stop-color="#2D5468"/>
<stop offset="0.8512" stop-color="#2A373D"/>
<stop offset="0.8708" stop-color="#292929"/>
</radialGradient>
<radialGradient id="paint10_radial_291_1435" cx="0" cy="0" r="1" gradientUnits="userSpaceOnUse" gradientTransform="translate(24.4806 25.4559) scale(22.1434 22.1278)">
<stop stop-color="#E6E6E6"/>
<stop offset="0.1045" stop-color="#D6D6D6"/>
<stop offset="0.3074" stop-color="#ADADAD"/>
<stop offset="0.5884" stop-color="#6C6C6C"/>
<stop offset="0.9335" stop-color="#121212"/>
<stop offset="1"/>
</radialGradient>
<linearGradient id="paint11_linear_291_1435" x1="37.3586" y1="19.9305" x2="58.9378" y2="40.7978" gradientUnits="userSpaceOnUse">
<stop stop-color="#F0F4FF"/>
<stop offset="0.1086" stop-color="#EBEFF9"/>
<stop offset="0.2475" stop-color="#DCE0EA"/>
<stop offset="0.4028" stop-color="#C4C7CF"/>
<stop offset="0.5701" stop-color="#A2A4AB"/>
<stop offset="0.7469" stop-color="#76777C"/>
<stop offset="0.9291" stop-color="#414243"/>
<stop offset="1" stop-color="#2B2B2B"/>
</linearGradient>
<linearGradient id="paint12_linear_291_1435" x1="19.831" y1="37.5352" x2="41.4106" y2="58.4029" gradientUnits="userSpaceOnUse">
<stop stop-color="#F0F4FF"/>
<stop offset="0.1086" stop-color="#EBEFF9"/>
<stop offset="0.2475" stop-color="#DCE0EA"/>
<stop offset="0.4028" stop-color="#C4C7CF"/>
<stop offset="0.5701" stop-color="#A2A4AB"/>
<stop offset="0.7469" stop-color="#76777C"/>
<stop offset="0.9291" stop-color="#414243"/>
<stop offset="1" stop-color="#2B2B2B"/>
</linearGradient>
<linearGradient id="paint13_linear_291_1435" x1="30.2785" y1="30.0994" x2="41.4684" y2="40.9202" gradientUnits="userSpaceOnUse">
<stop stop-color="#C2D7E8"/>
<stop offset="0.1337" stop-color="#BACFE1"/>
<stop offset="0.3425" stop-color="#A4BACD"/>
<stop offset="0.6001" stop-color="#8098AC"/>
<stop offset="0.894" stop-color="#4E697F"/>
<stop offset="1" stop-color="#3A566D"/>
</linearGradient>
<linearGradient id="paint14_linear_291_1435" x1="24.671" y1="32.7496" x2="46.0335" y2="53.4074" gradientUnits="userSpaceOnUse">
<stop stop-color="#F0F4FF"/>
<stop offset="0.0973" stop-color="#E8EBF6"/>
<stop offset="0.2568" stop-color="#D1D4DD"/>
<stop offset="0.4587" stop-color="#ABAEB5"/>
<stop offset="0.6951" stop-color="#78797D"/>
<stop offset="0.9578" stop-color="#363637"/>
<stop offset="1" stop-color="#2B2B2B"/>
</linearGradient>
<linearGradient id="paint15_linear_291_1435" x1="40.4277" y1="40.4068" x2="47.9212" y2="47.6531" gradientUnits="userSpaceOnUse">
<stop stop-color="#D9DEF0"/>
<stop offset="0.1229" stop-color="#D4DAEC"/>
<stop offset="0.2629" stop-color="#C7CFE2"/>
<stop offset="0.4114" stop-color="#B0BCD1"/>
<stop offset="0.5657" stop-color="#90A1B8"/>
<stop offset="0.7246" stop-color="#677F99"/>
<stop offset="0.8849" stop-color="#355674"/>
<stop offset="0.9719" stop-color="#173D5D"/>
</linearGradient>
<linearGradient id="paint16_linear_291_1435" x1="32.757" y1="24.9153" x2="54.0964" y2="45.5508" gradientUnits="userSpaceOnUse">
<stop stop-color="#F0F4FF"/>
<stop offset="0.1086" stop-color="#EBEFF9"/>
<stop offset="0.2475" stop-color="#DCE0EA"/>
<stop offset="0.4028" stop-color="#C4C7CF"/>
<stop offset="0.5701" stop-color="#A2A4AB"/>
<stop offset="0.7469" stop-color="#76777C"/>
<stop offset="0.9291" stop-color="#414243"/>
<stop offset="1" stop-color="#2B2B2B"/>
</linearGradient>
</defs>
</svg>
