<svg width="81" height="80" viewBox="0 0 81 80" fill="none" xmlns="http://www.w3.org/2000/svg">
<path d="M12.2804 50.7647C13.0378 50.9335 13.0948 51.0756 13.0499 51.9724C13.1794 52.0309 13.4359 52.0353 14.2166 52.4798C15.639 53.2938 16.5069 56.2795 16.0492 57.5992C15.873 58.6967 14.2693 59.0524 13.2373 59.018C12.5775 58.9861 11.5196 58.6665 10.7519 58.39C10.4064 58.7432 10.0627 58.9887 9.73798 59.1093C8.75003 59.5538 8.1671 59.1386 7.09969 59.0507C5.66352 58.5407 5.96319 57.1762 7.0211 56.6223C7.58762 56.2898 8.383 56.6714 9.40464 57.0264C10.238 55.7161 10.7743 52.4272 10.7 52.4143C10.4565 52.3747 8.87439 52.0249 8.18437 52.6796C8.10578 52.7537 7.93824 52.5314 7.97451 52.4884C8.42877 51.9595 9.1516 51.9491 10.6724 51.8931C10.5964 51.3229 10.8676 50.7983 11.5697 50.5967L12.2804 50.7647ZM8.9927 57.5906C8.91843 57.5467 8.87179 57.5131 8.7958 57.4683C8.38213 57.1151 7.40886 57.0091 7.11783 57.3873C6.99692 58.1953 7.54444 58.3624 8.24223 58.2504C8.57472 58.042 8.7388 57.9024 8.9927 57.5906ZM12.948 52.6434C12.9463 52.7347 12.2735 56.4716 11.3408 57.7034C11.7864 57.8473 12.359 57.8878 12.7917 57.942C12.9678 57.9868 13.1242 58.0092 13.258 58.0092C13.6587 58.0092 14.0957 57.7034 14.3168 57.3916C15.1061 56.6499 14.936 54.132 13.9791 53.1749C13.8029 53.0009 13.0611 52.665 12.948 52.6434Z" fill="#69171D"/>
<path d="M19.0548 54.6188C19.3856 54.7962 19.3459 55.27 18.9339 55.5577C18.6774 56.0806 18.1964 57.1255 18.8407 57.5898C19.2863 57.8913 19.8519 57.7173 20.1041 57.4641C20.5515 57.1953 20.6724 56.2322 20.4608 55.7335C19.8822 55.6783 19.4279 55.5155 19.4616 54.885C19.5825 54.3181 19.8286 54.2182 20.3062 54.2182C20.9193 54.3414 20.9401 54.5085 21.1732 55.0728L21.2389 55.0409C21.5955 54.916 21.542 54.1441 21.6888 54.0451C21.776 53.9236 22.0817 53.9236 22.0265 54.1347C22.1137 54.5654 21.719 55.2855 21.3054 55.463C21.8063 56.4062 21.4815 57.5631 20.5903 58.3401C20.1127 58.6072 19.782 58.8268 19.1731 58.8613C17.8501 59.0362 16.3423 57.6803 16.8639 56.2503C16.9088 55.5948 17.0953 55.0676 17.7974 54.6748C17.9667 54.5774 18.1757 54.5197 18.364 54.5197C18.5384 54.5197 18.712 54.5326 18.8027 54.5378C18.9296 54.5507 19.0548 54.6188 19.0548 54.6188ZM20.4271 55.3717C20.4271 55.1374 20.4953 54.885 20.1956 54.7049C20.0074 54.5843 20.0074 54.8066 19.9625 55.0159C19.9728 55.071 19.9728 55.1288 19.9728 55.1598C19.9728 55.2614 19.9288 55.2717 20.0177 55.3372C20.1041 55.3717 20.4271 55.4079 20.4271 55.3717Z" fill="#69171D"/>
<path d="M23.5854 57.2466C24.2936 57.835 24.6183 57.4241 25.0069 56.9813C25.8066 56.0277 26.5061 54.4091 27.3628 53.5537C27.8084 53.5537 27.8637 54.186 27.8637 54.5969C28.0865 55.7038 28.33 56.5816 28.742 57.2475C29.1211 57.7127 29.2576 57.6644 29.7299 57.1019C30.515 56.175 30.5849 53.8871 31.5495 54.1524C31.882 54.4849 32.4503 57.9117 33.3735 58.1761C34.2517 58.3226 35.3753 57.5464 35.719 57.2923C35.719 57.7893 34.2638 59.1202 33.1507 58.8773C32.1757 58.6103 31.0962 57.2768 31.1298 56.1035C30.4174 57.4026 30.0098 59.352 28.8413 59.2977C27.7851 59.1754 27.1849 58.2002 26.9733 56.8245C25.9197 58.2338 25.3662 59.6302 23.2849 59.1306C22.5508 58.9867 21.5948 58.5422 21.7157 57.6438L21.752 57.6007L21.9282 57.2561C22.1078 56.8254 22.9939 56.6919 23.5854 57.2466Z" fill="#69171D"/>
<path d="M40.5626 55.6558C40.4503 56.3226 40.0962 56.7766 40.0962 57.4321C40.0962 57.6388 40.0876 57.8835 40.3268 58.0833C40.9503 58.6062 41.4339 57.7836 41.8899 57.5251C42.0687 57.3942 42.2129 57.1823 42.3796 57.1375C42.5894 57.0617 42.7673 57.2055 42.5108 57.4614C42.0341 57.9378 41.4927 58.5321 40.7931 58.6355C40.3881 58.6967 39.9917 58.5485 39.6376 58.3728C39.3259 58.2186 39.205 57.9619 39.205 57.6388C39.205 57.5182 39.2153 57.3856 39.2369 57.2641C38.762 57.9395 37.5823 58.7811 36.514 58.8379C36.4821 58.8491 36.4397 58.8595 36.4035 58.8595H36.2929C35.6927 58.8595 35.292 58.2272 35.0804 57.7293V57.7069C35.0718 57.6173 35.0588 57.5294 35.0588 57.4398C35.0588 56.4621 35.5019 55.7222 36.0701 54.9564C36.3249 54.747 36.514 54.5248 36.7912 54.3577C37.2498 54.2138 37.7835 54.0131 38.1384 54.0467C38.9399 54.0467 39.3069 54.2827 39.5297 54.9012C39.7395 54.6351 39.7482 54.4593 40.2612 54.5144C40.705 54.8246 40.6843 55.2579 40.5626 55.6558ZM38.464 55.8462C38.1626 55.3363 37.2273 55.8333 36.8707 56.289C36.7264 56.4664 36.7161 56.6206 36.6608 56.8773C36.5149 57.7741 37.1721 57.9067 37.7956 57.6406C38.1626 57.4657 38.1946 57.3554 38.4726 57.0427C38.6402 56.7774 39.0176 56.2812 39.1402 56.0486C38.8725 56.0891 38.597 56.1124 38.464 55.8462Z" fill="#69171D"/>
<path d="M42.5186 54.6722C42.7302 53.5084 43.3753 52.4765 44.4099 53.2423C45.3296 53.6868 44.8219 54.686 44.5524 55.5716C44.1085 56.2805 43.8866 57.2867 44.2976 58.1636C44.9652 58.6081 45.5974 58.4616 46.2736 58.1524C45.8659 56.9886 46.0533 55.3028 46.5413 54.4922C46.7762 53.9383 47.4368 53.6911 48.0137 54.0675C48.2486 54.2114 48.3358 54.4552 48.3358 54.7213C48.3358 54.9755 48.2478 55.2416 48.1484 55.4639C48.0025 55.8739 47.4213 57.0213 47.6864 57.5744C47.7313 57.9189 48.0318 58.1412 48.3548 58.1309C48.879 58.0947 49.1882 57.9301 49.5319 57.6088C50.0328 57.1325 50.1105 56.0789 50.291 55.457C50.4672 55.1357 50.7582 54.7489 51.2116 54.8032C51.7229 55.19 51.6236 56.035 51.4102 56.5209C51.279 56.887 51.2004 57.297 51.2004 57.6967C51.2004 58.0835 51.6348 58.528 52.0441 58.6615C52.3429 58.6951 52.6676 58.497 52.9665 58.2859C53.4458 58.018 53.6556 58.3514 53.0234 58.7166H53.0001C52.5649 59.0181 51.988 59.1827 51.6451 59.1491C51.032 59.1827 50.3454 58.6288 50.3092 58.0292C49.5544 59.1379 48.6545 59.6142 47.3073 59.3033C46.9515 59.1611 46.6743 58.9613 46.4851 58.6072C46.0318 59.1491 45.2295 59.3308 44.441 59.3308C43.6499 59.3308 42.8839 59.0319 42.4962 58.366C42.1421 57.6019 42.2475 56.7095 42.3045 56.0453L42.5186 54.6722Z" fill="#69171D"/>
<path d="M55.469 54.3626C55.4224 54.6504 54.5545 56.6247 54.7678 56.8806C55.4777 55.9942 57.0192 56.7574 57.6747 54.6952C57.9208 54.4832 58.1203 54.1645 58.4769 54.1645C58.6212 54.1102 58.9096 54.2972 59.0219 54.329C59.4442 54.7735 59.1324 55.2826 58.9312 55.6935C58.4225 56.5033 58.0995 57.1804 58.7213 57.9436C59.0737 58.0797 59.8501 57.804 60.4606 57.5301C60.7966 57.3776 60.7283 57.2631 61.0695 57.0348C61.1368 56.9865 61.351 56.984 61.3579 57.1769C61.3985 57.543 61.0038 57.6309 60.5738 57.9255C59.7637 58.4734 58.5417 58.7146 57.7204 58.2511C57.267 57.5189 56.989 57.3673 57.343 56.3706C57.3085 56.2474 57.4208 56.1484 57.3871 56.0278C56.5753 57.3337 55.6227 56.7677 54.602 57.767C54.2652 58.4544 54.2591 59.6079 53.4361 59.6621C53.4128 59.6285 53.3791 59.607 53.3446 59.607C53.3109 59.607 53.2772 59.5846 53.266 59.5415C53.2772 59.4631 53.2107 59.4295 53.1788 59.3744C52.4663 58.1202 52.6632 54.8183 53.6434 53.577C53.9655 53.2867 55.3101 53.2213 55.469 54.1525V54.3626Z" fill="#69171D"/>
<path d="M66.0888 56.0731C65.9558 56.4392 65.9808 56.714 65.9808 57.1137C65.9808 57.5005 66.2019 57.9449 66.613 58.0785C67.1683 58.1103 67.9257 57.4014 68.1925 57.1688C68.6908 56.9905 68.2469 57.5452 68.0483 57.6564C67.6692 57.9785 66.7253 58.6005 66.2114 58.5669C65.6009 58.6005 64.9117 58.0449 64.878 57.4453C64.1232 58.5557 63.0705 59.1087 61.7267 58.7969C60.2034 58.1767 60.3338 55.3279 61.048 54.0754C61.2794 53.5207 62.0238 53.0529 62.6024 53.4328C62.8365 53.5767 62.9228 53.8196 62.9228 54.0866C62.9228 54.3425 62.8356 54.6086 62.7363 54.8309C62.5895 55.2392 61.8347 56.4366 62.1024 56.9905C62.1473 57.3333 62.4478 57.5573 62.77 57.5452C63.2933 57.5117 63.7545 57.3463 64.0999 57.0249C64.6025 56.5486 64.7865 55.6286 64.9652 55.0084C65.1431 54.687 65.4316 54.2977 65.8876 54.3519C66.4005 54.743 66.2995 55.5838 66.0888 56.0731Z" fill="#69171D"/>
<path d="M72.8422 55.8795C72.7084 56.2456 72.5961 56.6556 72.5961 57.0553C72.5961 57.4421 72.8215 57.8848 73.2326 58.0175C73.7862 58.052 74.5409 57.343 74.8095 57.1104C75.3087 56.9321 74.8648 57.4877 74.6662 57.5963C74.2853 57.9176 73.3423 58.5404 72.831 58.5068C72.2187 58.5404 71.5287 57.9865 71.4968 57.3869C70.7402 58.4956 69.906 59.1296 68.6028 58.6799C67.1537 58.1786 67.0864 55.2894 67.7945 54.036C68.0277 53.4812 68.7747 53.0144 69.3516 53.3934C69.5848 53.5364 69.6737 53.7802 69.6737 54.0463C69.6737 54.303 69.5839 54.5701 69.4846 54.7889C69.3429 55.1998 68.6063 56.3782 68.874 56.9312C68.9163 57.2741 69.2169 57.4963 69.5398 57.4869C70.0615 57.4524 70.3732 57.287 70.7187 56.9666C71.2187 56.4876 71.4985 55.5702 71.679 54.9482C71.8552 54.6269 72.1436 54.2402 72.5987 54.2944C73.1143 54.6821 73.0547 55.391 72.8422 55.8795Z" fill="#69171D"/>
<path d="M69.4758 51.829C69.3523 50.7324 70.9362 51.2967 71.6935 51.5077C72.1288 51.9401 72.976 51.5628 73.4086 51.3277C73.5762 51.04 74.0382 50.766 74.3163 50.7324C74.3396 50.766 74.3621 50.7867 74.3957 50.7764C74.4847 51.3199 73.6047 51.8152 73.2169 52.1159C72.1374 52.5922 70.5657 53.5545 69.709 52.5561C69.6598 52.5018 69.646 52.4355 69.614 52.3743L69.4758 51.829Z" fill="#69171D"/>
<path d="M40.0878 23.4745H40.0896C42.4118 22.3331 45.4197 22.1014 48.2359 22.3314C49.2558 22.415 50.1358 22.5209 50.9286 22.6872C48.7679 21.0918 46.6728 20.6577 43.2054 20.4165C39.2761 20.1425 35.0341 20.5276 32.2092 22.3366C34.9434 22.1384 37.8313 22.3814 40.0878 23.4745Z" fill="url(#paint0_linear_291_1349)"/>
<path d="M34.6524 47.7352C34.6524 47.7352 34.5565 47.1494 34.4399 46.1553C30.964 46.1768 28.2151 45.9331 27.4923 45.8633C27.418 45.8547 27.3688 45.8168 27.3688 45.8168C27.3688 45.8168 27.2885 45.7634 27.2798 45.7125C27.0026 44.1344 24.5163 28.8372 31.3094 22.995C31.5892 22.7556 31.8932 22.5393 32.2093 22.3369C32.1333 22.3421 32.0564 22.3464 31.9804 22.3524C28.8689 22.6048 27.0449 23.0665 25.0984 24.8583C24.3453 25.5535 22.1544 27.7734 21.8513 33.5759C21.6181 38.0338 22.5767 43.1593 26.5786 45.4205C28.8732 46.717 31.7956 47.4009 34.6567 47.7395C34.655 47.7369 34.655 47.7369 34.655 47.7352H34.6524Z" fill="#FFD700"/>
<path d="M27.2804 45.7137C27.289 45.7646 27.3693 45.818 27.3693 45.818C27.3693 45.818 27.4186 45.8559 27.4928 45.8645C28.2157 45.9343 30.9636 46.178 34.4405 46.1565C34.2643 44.6421 34.0415 42.1836 34.0432 39.415C34.0475 34.3119 34.8179 28.1562 38.0495 24.912C38.6324 24.3246 39.3241 23.8516 40.0876 23.4761C37.831 22.3829 34.9422 22.14 32.2089 22.3381C31.8929 22.5397 31.5897 22.7568 31.3091 22.9962C24.5169 28.8384 27.0023 44.1356 27.2804 45.7137Z" fill="url(#paint1_linear_291_1349)"/>
<path d="M34.4417 46.1553C34.5513 47.0951 34.6411 47.6723 34.6541 47.7351L34.6817 47.7412C34.686 47.7412 34.6878 47.7438 34.6947 47.7438C34.9071 47.7687 35.1187 47.7903 35.3312 47.811C36.934 47.9574 41.176 48.2451 45.5683 47.7222C45.595 47.5362 45.7652 46.4508 45.9172 44.833C42.2356 45.8426 37.9643 46.132 34.4417 46.1553Z" fill="#EB5D0B"/>
<path d="M45.9161 44.8328C46.2348 41.4439 46.4783 35.7103 45.2442 30.9234C45.2442 30.9216 45.2442 30.9191 45.2425 30.9165C45.2045 30.7735 45.1656 30.6322 45.1251 30.4918C45.1233 30.4823 45.1233 30.472 45.1207 30.4616C45.081 30.3273 45.0422 30.1955 45.0016 30.0628C44.9955 30.0473 44.9912 30.0309 44.9843 30.0154C44.9463 29.8897 44.91 29.7648 44.866 29.6407C44.8591 29.6183 44.8522 29.5959 44.8444 29.5744C44.8064 29.4564 44.7667 29.3392 44.7209 29.2238C44.7123 29.1962 44.7036 29.1686 44.6941 29.1411C44.6535 29.0317 44.6112 28.9223 44.5689 28.8129C44.5551 28.781 44.543 28.7474 44.53 28.7147C44.4894 28.6122 44.4497 28.5105 44.4074 28.4089C44.3901 28.3727 44.3737 28.3356 44.3582 28.2995C44.3159 28.203 44.2753 28.1091 44.233 28.0143C44.2148 27.9738 44.195 27.9325 44.1742 27.8912C44.1336 27.8024 44.0913 27.7146 44.049 27.6276C44.0274 27.5819 44.0041 27.5388 43.9808 27.4949C43.9385 27.4122 43.8953 27.3312 43.8538 27.2494C43.8288 27.202 43.8029 27.1564 43.7752 27.1098C43.7329 27.034 43.6923 26.9574 43.6474 26.8833C43.6181 26.8316 43.5887 26.7842 43.5568 26.7343C43.5162 26.6645 43.4739 26.5938 43.4315 26.5258C43.3979 26.4732 43.3616 26.4224 43.327 26.369C43.2847 26.3061 43.2441 26.2432 43.2018 26.1804C43.1638 26.1252 43.1232 26.071 43.0826 26.0141C43.0429 25.9598 43.0023 25.9021 42.96 25.8461C42.9142 25.7893 42.8702 25.7333 42.8236 25.6747C42.7856 25.6265 42.7476 25.5756 42.707 25.5265C42.6517 25.4602 42.5964 25.3973 42.5412 25.3353C42.5075 25.2974 42.4773 25.2578 42.4419 25.2199C42.3512 25.1208 42.2596 25.0226 42.1638 24.9279C42.0152 24.778 41.8581 24.6358 41.6974 24.5006C41.6802 24.4868 41.6612 24.4739 41.6439 24.4601C41.4997 24.3404 41.3494 24.2241 41.1948 24.1181C41.1862 24.1112 41.1775 24.1086 41.1698 24.1026C41.0048 23.9872 40.8304 23.8778 40.6568 23.7735C40.6551 23.7735 40.6525 23.7727 40.6507 23.7718C40.4746 23.6693 40.2725 23.5634 40.0842 23.4712H40.086C42.4082 22.3298 45.4161 22.0981 48.2323 22.3281C49.2522 22.4116 50.1322 22.5176 50.925 22.6838C51.0148 22.7528 51.1418 22.8466 51.2324 22.9181C52.1168 23.615 54.6721 25.8341 55.0271 31.6366C55.2983 36.0945 54.141 41.1356 49.5087 43.4812C47.9162 44.2935 46.6476 44.6295 45.9161 44.8328Z" fill="url(#paint2_linear_291_1349)"/>
<path d="M45.9195 44.833C45.7666 46.4508 45.5973 47.5362 45.5706 47.7222C48.4273 47.382 51.348 46.6963 53.6418 45.3998C57.6445 43.1386 58.6023 38.0122 58.37 33.5561C58.3311 32.8377 58.2655 32.1744 58.1765 31.5619C57.5452 27.241 55.7835 25.4665 55.1228 24.8583C53.824 23.6618 52.5415 23.0321 50.9309 22.6875C51.0207 22.7564 51.1477 22.8503 51.2384 22.9218C52.1227 23.6187 54.6781 25.8377 55.033 31.6403C55.3042 36.0982 54.147 41.1392 49.5146 43.4849C48.4282 44.0336 47.2088 44.4781 45.9195 44.833Z" fill="#E6254A"/>
<path d="M34.442 46.1556C37.9646 46.1323 42.236 45.8429 45.9175 44.8333C46.2362 41.4444 46.4797 35.7108 45.2456 30.9239C45.2456 30.9221 45.2456 30.9196 45.2439 30.917C45.2059 30.774 45.167 30.6327 45.1264 30.4923C45.1247 30.4828 45.1247 30.4725 45.1221 30.4621C45.0824 30.3278 45.0435 30.196 45.0029 30.0633C44.9969 30.0478 44.9926 30.0314 44.9857 30.0159C44.9477 29.8902 44.9114 29.7653 44.8673 29.6412C44.8604 29.6188 44.8535 29.5964 44.8458 29.5749C44.8078 29.4569 44.768 29.3397 44.7223 29.2243C44.7136 29.1967 44.705 29.1691 44.6955 29.1416C44.6549 29.0322 44.6126 28.9228 44.5703 28.8134C44.5565 28.7815 44.5444 28.7479 44.5314 28.7152C44.4908 28.6127 44.4511 28.511 44.4088 28.4094C44.3915 28.3732 44.3751 28.3361 44.3596 28.3C44.3172 28.2035 44.2766 28.1096 44.2343 28.0148C44.2162 27.9743 44.1963 27.933 44.1756 27.8917C44.135 27.8029 44.0927 27.7151 44.0504 27.6281C44.0288 27.5824 44.0055 27.5393 43.9822 27.4954C43.9398 27.4127 43.8967 27.3317 43.8552 27.2499C43.8302 27.2025 43.8043 27.1569 43.7766 27.1103C43.7343 27.0345 43.6937 26.9579 43.6488 26.8838C43.6194 26.8321 43.5901 26.7847 43.5581 26.7348C43.5175 26.665 43.4752 26.5943 43.4329 26.5263C43.3992 26.4737 43.363 26.4229 43.3284 26.3695C43.2861 26.3066 43.2455 26.2437 43.2032 26.1809C43.1652 26.1257 43.1246 26.0715 43.084 26.0146C43.0443 25.9603 43.0037 25.9026 42.9614 25.8466C42.9156 25.7898 42.8716 25.7338 42.8249 25.6752C42.7869 25.627 42.7489 25.5761 42.7083 25.527C42.6531 25.4607 42.5978 25.3978 42.5425 25.3358C42.5089 25.2979 42.4786 25.2583 42.4432 25.2204C42.3525 25.1213 42.261 25.0231 42.1651 24.9283C42.0166 24.7785 41.8594 24.6363 41.6988 24.5011C41.6815 24.4873 41.6625 24.4744 41.6453 24.4606C41.501 24.3409 41.3508 24.2246 41.1962 24.1186C41.1876 24.1117 41.1789 24.1091 41.1711 24.1031C41.0062 23.9877 40.8317 23.8783 40.6582 23.774C40.6564 23.774 40.6538 23.7732 40.6521 23.7723C40.4759 23.6698 40.2739 23.5639 40.0856 23.4717C39.3222 23.8473 38.6304 24.3202 38.0475 24.9077C34.8151 28.1509 34.0456 34.3075 34.0413 39.4106C34.0395 42.1792 34.2615 44.6377 34.4385 46.1521H34.442V46.1556Z" fill="url(#paint3_linear_291_1349)"/>
<defs>
<linearGradient id="paint0_linear_291_1349" x1="31.8368" y1="21.906" x2="49.3659" y2="21.906" gradientUnits="userSpaceOnUse">
<stop stop-color="#908A7E"/>
<stop offset="0.3187" stop-color="#8E887C"/>
<stop offset="1" stop-color="#686057"/>
</linearGradient>
<linearGradient id="paint1_linear_291_1349" x1="30.4928" y1="31.1924" x2="40.0038" y2="41.4144" gradientUnits="userSpaceOnUse">
<stop stop-color="#FFEB00"/>
<stop offset="0.2041" stop-color="#FFE800"/>
<stop offset="0.4474" stop-color="#FFDF00"/>
<stop offset="0.7107" stop-color="#FED000"/>
<stop offset="0.9866" stop-color="#FAB900"/>
<stop offset="1" stop-color="#FAB800"/>
</linearGradient>
<linearGradient id="paint2_linear_291_1349" x1="43.6409" y1="28.5309" x2="54.3231" y2="40.0117" gradientUnits="userSpaceOnUse">
<stop stop-color="#A61929"/>
<stop offset="1" stop-color="#6B181B"/>
</linearGradient>
<linearGradient id="paint3_linear_291_1349" x1="34.2636" y1="32.014" x2="41.9738" y2="38.762" gradientUnits="userSpaceOnUse">
<stop stop-color="#EE7103"/>
<stop offset="1" stop-color="#E84810"/>
</linearGradient>
</defs>
</svg>
