<svg width="101" height="80" viewBox="0 0 101 80" fill="none" xmlns="http://www.w3.org/2000/svg">
<g clip-path="url(#clip0_291_1289)">
<path fill-rule="evenodd" clip-rule="evenodd" d="M15.6863 33.4668L14.1604 35.921C13.9921 36.1976 14.0153 36.4107 14.0965 36.6239L16.4174 42.5176H6.80905C5.94453 42.5176 5.27729 41.832 5.27729 41.0139L5.27148 33.1614C5.29469 32.1475 6.78004 32.1302 6.80905 33.1557V40.5069C6.80905 40.7432 7.01213 41.0024 7.28483 40.9967H14.317L12.4952 36.7391C12.4487 36.5778 12.4139 36.4165 12.4139 36.2494C12.4139 36.0708 12.4952 35.7828 12.6112 35.5466L14.2822 32.8158C14.4041 32.568 14.6594 32.4067 14.9495 32.3894C15.3672 32.3721 15.7212 32.6544 15.7386 33.0923C15.7502 33.1902 15.727 33.3803 15.6863 33.4668Z" fill="white"/>
<path fill-rule="evenodd" clip-rule="evenodd" d="M10.383 38.421V33.1553C10.383 32.1298 11.8916 32.1183 11.909 33.1553V38.4786C11.909 39.6942 10.9922 40.5008 9.87243 40.5008C8.75262 40.5008 7.83008 39.677 7.83008 38.4786V33.1553C7.83008 32.1298 9.35604 32.1298 9.35604 33.1553V38.421C9.36184 39.1239 10.383 39.17 10.383 38.421Z" fill="white"/>
<path fill-rule="evenodd" clip-rule="evenodd" d="M7.69997 33.2888C11.2506 31.9019 14.7877 30.4786 18.3289 29.0693C20.1688 31.4954 22.0386 33.8978 23.8867 36.3169C23.8731 36.4049 23.8487 36.5794 23.8351 36.6674C22.0332 34.5402 20.1511 32.4843 18.3438 30.3613C18.0528 30.4186 17.7659 30.4884 17.4844 30.5834C14.8176 31.4884 12.125 32.3083 9.45151 33.1882C8.86131 33.3824 8.27928 33.61 7.66869 33.7329C7.67957 33.5849 7.68909 33.4368 7.69997 33.2888ZM12.3875 33.036C10.8277 33.6184 9.24752 34.1408 7.69045 34.7288C7.69589 34.8782 7.70269 35.0277 7.70813 35.1771C8.67093 34.8769 9.65277 34.652 10.6237 34.3838C13.1939 33.7232 15.7478 32.9955 18.318 32.3334C20.1511 34.1226 22.0087 35.8839 23.8568 37.6563C23.8623 37.4133 23.8663 37.1689 23.8677 36.9258C22.8587 35.8462 21.8442 34.7707 20.861 33.6673C20.0315 32.7511 19.153 31.8809 18.3574 30.9325C16.3597 31.6113 14.3757 32.3307 12.3875 33.036ZM91.3468 32.9256C93.0344 32.9019 94.7234 32.9215 96.4124 32.9145C96.3798 33.4746 96.4532 34.2469 95.8657 34.5361C95.2932 34.6757 94.6949 34.624 94.1115 34.6366C93.3812 34.6199 92.6428 34.6897 91.9207 34.557C91.2883 34.321 91.3563 33.4843 91.3468 32.9256ZM16.886 33.4327C14.1812 34.2972 11.4424 35.05 8.75388 35.9649C9.13737 36.0934 9.54126 36.2805 9.95195 36.1479C12.7248 35.5291 15.503 34.9327 18.2786 34.3293C20.1525 35.7512 21.9938 37.2163 23.8555 38.6522C23.8609 38.4832 23.8718 38.1452 23.8759 37.9761C22.0332 36.321 20.1851 34.6715 18.3493 33.0067C17.857 33.1268 17.3701 33.2776 16.886 33.4327ZM15.76 35.6562C14.173 36.1283 12.5793 36.5766 10.9855 37.0236C11.1418 37.1577 11.2996 37.2904 11.456 37.4244C13.6712 37.0655 15.8865 36.6968 18.1004 36.3322C18.3289 36.2694 18.5233 36.4468 18.7164 36.5417C20.4299 37.5823 22.1488 38.6144 23.8609 39.6592C23.8636 39.4162 23.8663 39.1731 23.8704 38.9301C22.0033 37.599 20.1593 36.2358 18.2881 34.9118C17.4531 35.1841 16.6045 35.4104 15.76 35.6562ZM30.455 37.2024C30.901 36.5934 31.649 36.275 32.3806 36.2847C33.7595 36.2847 35.1371 36.2833 36.516 36.2889C36.5133 40.0558 36.5174 43.8242 36.5133 47.5911C36.9186 47.6316 37.3619 47.6693 37.6815 47.9584C38.1561 48.3467 38.2989 48.999 38.3138 49.5912C34.9494 49.5982 31.5824 49.6149 28.218 49.5828C28.2901 49.0702 28.3458 48.5087 28.7048 48.1093C29.0271 47.7294 29.5357 47.6302 30.0008 47.5869C29.9994 44.6859 30.0035 41.7836 29.9981 38.8812C29.9913 38.2946 30.0892 37.6731 30.455 37.2024ZM32.0801 38.4385C31.8299 38.965 31.8095 39.5614 31.8095 40.1369C31.8135 42.63 31.8081 45.1231 31.8135 47.6162C32.7763 47.6176 33.7391 47.6162 34.7019 47.6176C34.706 44.5058 34.7019 41.3953 34.7047 38.2848C33.8289 38.3239 32.9314 38.1689 32.0801 38.4385ZM48.4627 36.2861C49.0665 36.2847 49.6716 36.2875 50.2754 36.2861C50.2727 38.2401 50.2768 40.1927 50.2727 42.1453C51.2219 42.1467 52.1724 42.1467 53.123 42.1453C53.1135 40.1927 53.123 38.2415 53.1176 36.2889C53.7377 36.2847 54.3578 36.2847 54.9779 36.2917C54.9779 40.7235 54.9725 45.1566 54.9806 49.5898C54.3591 49.6038 53.7377 49.5996 53.1162 49.594C53.1244 47.8034 53.1135 46.0114 53.123 44.2194C52.1724 44.2139 51.2232 44.2152 50.2727 44.218C50.2781 46.0114 50.2672 47.8034 50.2795 49.5954C49.673 49.5996 49.0651 49.601 48.4586 49.5968C48.4695 45.1594 48.4613 40.7235 48.4627 36.2861ZM65.0438 36.2847C67.2115 36.2875 69.3805 36.2847 71.5482 36.2861C71.5536 36.9524 71.5536 37.6186 71.5522 38.2848C70.7662 38.2848 69.9789 38.2834 69.1928 38.2862C69.1996 42.0559 69.1888 45.8257 69.1983 49.5968C68.5918 49.5996 67.9852 49.601 67.3801 49.5954C67.3937 45.8243 67.3801 42.0545 67.3869 38.2848C66.6036 38.2834 65.8217 38.2834 65.0397 38.2848C65.0452 37.6186 65.0465 36.951 65.0438 36.2847ZM90.6193 36.2819C91.219 36.2875 91.82 36.2847 92.4211 36.2875C92.4211 39.5698 92.417 42.8521 92.4238 46.1343C92.451 46.6525 92.4102 47.4123 93.0181 47.5953C93.7728 47.6525 94.533 47.5981 95.2918 47.619C95.3 43.8437 95.2959 40.0684 95.2932 36.2945C95.9038 36.2805 96.5157 36.2861 97.1263 36.2861C97.1209 40.7249 97.1277 45.1636 97.1236 49.6024C95.6617 49.5926 94.1998 49.6024 92.7393 49.5996C91.6106 49.6121 90.6193 48.5632 90.622 47.4123C90.6125 43.7027 90.6193 39.9902 90.6193 36.2819ZM40.8378 36.3979C41.4484 36.24 42.0889 36.3476 42.7117 36.3183C43.5059 36.3308 44.3884 36.1953 45.0752 36.7079C45.7483 37.1325 46.0529 37.9608 46.0434 38.7457C46.0461 41.5406 46.0434 44.3354 46.0448 47.1302C46.0638 47.9459 45.7497 48.8258 45.033 49.249C44.315 49.7755 43.3984 49.5549 42.5784 49.5982C41.8618 49.5577 41.088 49.7392 40.4244 49.3733C39.7036 49.0213 39.21 48.2364 39.2168 47.4123C39.2168 44.4303 39.2141 41.447 39.2181 38.465C39.2209 37.4929 39.928 36.6283 40.8378 36.3979ZM41.3015 38.4133C41.1369 38.7304 41.0037 39.074 41.0268 39.4413C41.0309 41.8199 41.0214 44.1985 41.0309 46.5757C41.039 46.9793 41.1655 47.5059 41.6156 47.5953C42.301 47.633 42.9946 47.6456 43.6786 47.5813C44.1518 47.4361 44.179 46.8662 44.2157 46.4472C44.2456 45.4639 44.213 44.4792 44.2293 43.4959C44.1817 41.9889 44.2946 40.4749 44.1491 38.972C44.1029 38.7862 44.0267 38.6103 43.9614 38.4329C43.0965 38.2024 42.1732 38.229 41.3015 38.4133ZM57.5563 37.6493C57.884 36.8336 58.7326 36.3224 59.577 36.3183C60.2991 36.3197 61.0213 36.3085 61.7447 36.3224C62.5416 36.3518 63.2827 36.8769 63.6363 37.6032C63.9423 38.2918 63.8471 39.0628 63.8634 39.7961C63.2515 39.7975 62.6395 39.7961 62.0276 39.8003C61.9841 39.2974 62.0915 38.5153 61.4768 38.3477C60.8009 38.2206 60.0843 38.2471 59.4207 38.4399C59.3214 38.7164 59.2004 38.9971 59.2085 39.2988C59.2072 41.5825 59.214 43.8675 59.2058 46.1511C59.2235 46.5869 59.1419 47.1162 59.4805 47.4528C59.8286 47.6958 60.2679 47.5995 60.6636 47.6232C61.0294 47.5967 61.4646 47.6986 61.7597 47.4123C62.0752 47.0645 61.9854 46.5478 62.014 46.1134C62.6286 46.1176 63.2447 46.1162 63.8607 46.1148C63.8444 46.7796 63.9341 47.471 63.7166 48.1121C63.4269 49.0046 62.5239 49.6526 61.6074 49.601C60.839 49.5926 60.0707 49.6135 59.3037 49.5912C58.2321 49.5018 57.3618 48.4962 57.3604 47.397C57.3387 44.6999 57.3604 42.0029 57.3496 39.3044C57.3468 38.7485 57.3305 38.1689 57.5563 37.6493ZM73.3283 36.3197C74.7249 36.3169 76.1201 36.321 77.5167 36.3155C78.387 36.2889 79.2873 36.8099 79.6232 37.6521C79.8557 38.1689 79.7905 38.7527 79.8027 39.3044C79.7891 40.2793 79.8231 41.2542 79.785 42.2291C79.7129 43.3283 78.7148 44.2069 77.6609 44.2278C76.8177 44.2348 75.9746 44.2236 75.1315 44.2292C75.1423 46.017 75.1288 47.8062 75.1396 49.594C74.5345 49.601 73.9293 49.601 73.3242 49.594C73.3364 45.1692 73.3283 40.7444 73.3283 36.3197ZM75.1342 42.2012C75.976 42.1886 76.8191 42.2291 77.6609 42.1635C78.1776 41.4609 77.9288 40.5405 77.9886 39.7276C77.9913 39.2304 78.0144 38.4594 77.4052 38.3351C76.6545 38.222 75.8889 38.3142 75.1328 38.2834C75.1383 39.588 75.1355 40.8953 75.1342 42.2012ZM82.8774 36.578C83.5655 36.1828 84.3746 36.3518 85.1253 36.3183C85.8406 36.3504 86.6062 36.1967 87.2726 36.5403C88.0001 36.8672 88.5114 37.6479 88.4992 38.4692C88.506 41.4512 88.5019 44.4345 88.5005 47.4165C88.5441 48.5869 87.4929 49.6331 86.3655 49.5996C85.4612 49.5926 84.5555 49.6121 83.6525 49.5898C82.5769 49.5116 81.7215 48.499 81.6889 47.4109C81.6739 44.5686 81.6916 41.7263 81.6807 38.884C81.6657 38.4999 81.7487 38.1256 81.8221 37.7527C82.071 37.2792 82.3838 36.8071 82.8774 36.578ZM83.7926 38.4929C83.5138 38.7765 83.5397 39.2136 83.5288 39.5852C83.5288 41.588 83.5302 43.5909 83.5288 45.5938C83.5369 46.2167 83.4581 46.8718 83.7423 47.4486C84.2659 47.6931 84.8479 47.6051 85.4054 47.6218C85.7522 47.6051 86.1547 47.6847 86.4389 47.4249C86.7776 46.9891 86.7096 46.3969 86.7205 45.8759C86.715 43.7781 86.7205 41.6816 86.7191 39.5838C86.7082 39.1899 86.7109 38.7024 86.3669 38.444C86.0011 38.2094 85.5482 38.3058 85.1416 38.2806C84.6901 38.3044 84.1802 38.1968 83.7926 38.4929ZM3.89771 37.1144C4.47159 37.0208 5.05906 37.0166 5.62613 37.1702C5.04682 37.2987 4.47023 37.4398 3.89908 37.5976C3.89772 37.437 3.89771 37.275 3.89771 37.1144ZM15.6499 37.6479C16.5488 37.4244 17.4327 37.1004 18.3452 36.9607C20.2042 37.9175 22.0305 38.9469 23.8745 39.9357C23.8691 40.1774 23.8636 40.4176 23.8595 40.6592C22.0019 39.8422 20.1226 39.0795 18.2486 38.303C16.459 38.5781 14.6517 38.7262 12.858 38.9678C12.752 38.8016 12.6445 38.6382 12.5289 38.479C13.5788 38.2443 14.6068 37.9147 15.6499 37.6479ZM3.93171 38.046C4.78844 37.7694 5.66557 37.5599 6.5291 37.3043C7.74484 37.6675 8.98098 37.958 10.1858 38.3575C10.5843 38.4315 10.9746 38.5432 11.3581 38.6787C11.2166 38.6829 10.9365 38.6927 10.7964 38.6968C10.8304 38.7499 10.8984 38.8561 10.9324 38.9092C11.1187 38.9259 11.3037 38.9566 11.4873 38.9985C11.7239 39.229 11.8694 39.5377 12.0475 39.8142C11.0263 39.6368 10.0159 39.3673 8.98642 39.2541C7.27432 39.4162 5.57038 39.6843 3.85556 39.8268C3.87596 39.729 3.91675 39.5349 3.93579 39.4371C5.29432 39.0041 6.67053 38.6089 8.04674 38.2387C8.90891 38.3561 9.75476 38.6075 10.602 38.8142C10.6808 38.7374 10.7611 38.6605 10.84 38.5837C9.69357 38.5139 8.61789 38.0125 7.48374 37.8672C6.2748 38.0474 5.0781 38.31 3.86372 38.4524C3.88004 38.3505 3.91403 38.1479 3.93171 38.046ZM17.8502 39.039C18.0623 39.0027 18.2894 38.9092 18.5016 38.9971C20.2993 39.6201 22.0794 40.2947 23.8704 40.9386C23.8677 41.1718 23.865 41.4051 23.8623 41.6397C22.3065 41.25 20.7413 40.8981 19.1856 40.5056C18.8728 40.4302 18.56 40.3338 18.2364 40.3254C16.9091 40.3254 15.5941 40.5391 14.2655 40.5349C14.1227 40.5698 13.9813 40.6034 13.8385 40.6369C13.7352 40.4609 13.6332 40.2849 13.5325 40.1075C14.9659 39.729 16.4114 39.398 17.8502 39.039ZM3.88004 40.7696C3.88956 40.9023 3.89772 41.0363 3.90587 41.169C5.73765 41.0433 7.57078 40.933 9.40119 40.7947C10.4891 40.6872 11.5607 40.9609 12.6391 41.0545C12.4854 40.7402 12.412 40.324 12.0979 40.1355C11.2044 40.0028 10.3191 39.7975 9.42295 39.6983C7.5735 40.0405 5.72405 40.3925 3.88004 40.7696ZM17.4028 41.1397C16.3665 41.3953 15.3113 41.5727 14.2859 41.8772C14.3444 41.9959 14.46 42.2333 14.5185 42.352C16.0755 42.3157 17.6353 42.2543 19.1924 42.3283C20.0464 42.4498 20.9099 42.4289 21.7694 42.4847C22.4657 42.5797 23.1674 42.5867 23.8691 42.6188C23.8677 42.3842 23.865 42.1495 23.8636 41.9163C22.1202 41.6006 20.3741 41.3059 18.6321 40.9888C18.216 40.8869 17.8067 41.0629 17.4028 41.1397ZM3.92083 42.0867C5.83692 41.866 7.74484 41.5852 9.65821 41.3422C10.7108 41.1551 11.7715 41.3785 12.8227 41.4623C12.9369 41.7892 13.0525 42.116 13.1722 42.4414C10.6428 42.4023 8.11473 42.447 5.58534 42.4791C5.01554 42.5629 4.44031 42.549 3.87052 42.4652C3.88684 42.3381 3.90315 42.2124 3.92083 42.0867ZM18.4853 42.9163C20.2789 42.894 22.074 42.9051 23.8691 42.8912C23.8677 43.1286 23.8663 43.3674 23.8663 43.6049C22.0713 43.8144 20.2789 44.0518 18.4839 44.2558C17.3008 44.2571 16.1136 44.2488 14.9332 44.1482C14.9196 44.0211 14.8951 43.7669 14.8815 43.6398C16.0864 43.4177 17.279 43.1216 18.4853 42.9163ZM11.0059 42.9177C11.7647 42.887 12.5235 42.9191 13.2837 42.8926C13.4156 43.2431 13.4999 43.6091 13.5706 43.9778C12.3168 44.0923 11.0603 44.1496 9.80508 44.0462C7.9801 43.9806 6.15377 43.9345 4.33016 43.8717C4.27576 43.7683 4.16561 43.5602 4.11122 43.4568C6.40807 43.2641 8.71309 43.1482 11.0059 42.9177ZM1.35744 43.13C1.6675 43.1286 1.97891 43.1063 2.28761 43.1454C2.45487 43.3255 2.58814 43.5351 2.73229 43.7334C2.20601 43.813 1.6743 43.8353 1.14258 43.8214C1.21465 43.5909 1.28809 43.3619 1.35744 43.13ZM15.197 45.4416C15.197 45.6371 15.1998 45.8326 15.2038 46.0296C16.1721 46.0896 17.1349 46.2167 18.1031 46.281C18.2894 46.3005 18.4744 46.2586 18.6539 46.2097C20.3932 45.6888 22.1311 45.1594 23.8691 44.6315C23.8663 44.401 23.865 44.1706 23.8623 43.9401C20.9793 44.4694 18.1276 45.239 15.197 45.4416ZM1.75181 44.1496C2.13258 44.13 2.51471 44.1077 2.89684 44.0937C3.08586 44.415 3.26265 44.7446 3.42175 45.0826C2.73909 45.1441 2.05506 45.2181 1.37376 45.1133C1.49751 44.7921 1.62534 44.4708 1.75181 44.1496ZM7.76524 44.739C9.7262 44.6636 11.698 44.7502 13.644 44.4401C13.7025 44.8061 13.7569 45.172 13.814 45.5379C13.0253 45.6916 12.2298 45.9304 11.4179 45.8284C9.79012 45.6846 8.15825 45.5631 6.53046 45.4136C6.07626 45.3675 5.60982 45.3927 5.16513 45.267C4.97067 45.2293 4.97067 44.9751 4.87412 44.8368C5.83692 44.7851 6.80788 44.8661 7.76524 44.739ZM18.4812 46.8592C20.2749 46.2125 22.074 45.5756 23.8636 44.9136C23.8663 45.151 23.8677 45.3899 23.8677 45.6287C22.1406 46.4653 20.4095 47.2978 18.6865 48.1442C18.5043 48.2322 18.3125 48.3341 18.1058 48.2839C17.158 48.1582 16.2142 48.0157 15.2664 47.8914C15.2705 47.714 15.2759 47.5366 15.28 47.3592C16.3407 47.1497 17.4327 47.1288 18.4812 46.8592ZM2.94035 45.6217C3.19329 45.5868 3.44759 45.5617 3.70189 45.5393C3.86372 45.8508 4.03098 46.1581 4.19689 46.4667C3.25313 46.7573 2.28353 46.5813 1.33432 46.436C1.85516 46.1399 2.32024 45.6622 2.94035 45.6217ZM18.6607 48.8076C20.4013 47.8551 22.1338 46.8858 23.8677 45.9234C23.8147 46.186 24.0037 46.5883 23.7004 46.7321C21.9271 47.9445 20.113 49.0926 18.3479 50.3161C17.2423 50.1247 16.1422 49.911 15.0407 49.6959C15.0502 49.5646 15.0692 49.3035 15.0787 49.1722C16.0837 49.1428 17.0859 49.0632 18.0895 49.0074C18.2976 49.0115 18.4812 48.9012 18.6607 48.8076ZM5.69413 46.3746C7.78428 46.4039 9.87443 46.5226 11.9646 46.545C12.6228 46.4793 13.2565 46.2642 13.9092 46.1637C13.9024 46.4933 13.8834 46.8215 13.8521 47.1483C13.0362 47.2782 12.2624 47.8034 11.4179 47.5729C9.60925 47.3509 7.80876 47.0338 5.99331 46.8858C5.90627 46.7056 5.80428 46.538 5.69413 46.3746ZM1.31936 47.7224C2.35424 47.4402 3.34152 46.9682 4.42127 46.8802C4.6035 47.2279 4.79252 47.5729 4.99651 47.9095C4.48655 48.0646 3.95483 48.2867 3.41631 48.1526C2.71597 48.0157 2.00339 47.9347 1.31936 47.7224ZM18.2704 50.9208C17.1077 50.932 15.9463 50.8384 14.7823 50.865C14.7088 51.0242 14.6381 51.1862 14.5701 51.3496C15.0706 51.4823 15.5724 51.6038 16.0796 51.703L16.1762 51.7575C16.8969 51.8622 17.5877 52.1178 18.3057 52.224C18.5872 52.0634 18.8225 51.8301 19.0727 51.6248C20.676 50.2867 22.2861 48.9599 23.8786 47.6092C23.8704 47.3718 23.8636 47.133 23.8568 46.8955C22.0019 48.2475 20.1402 49.5898 18.2704 50.9208ZM11.4329 48.2322C9.8146 48.1554 8.19769 48.059 6.57942 47.9822C6.63789 48.1009 6.7562 48.3397 6.81468 48.4584C8.48054 48.7783 10.1559 49.0409 11.8191 49.3803C12.4895 49.1177 13.1558 48.8453 13.8263 48.58C13.8344 48.2587 13.844 47.9375 13.8385 47.6162C13.0634 47.9067 12.2787 48.3118 11.4329 48.2322ZM19.187 52.1486C18.8783 52.4153 18.6063 52.7422 18.2473 52.9391C16.8697 52.8511 15.4962 52.6905 14.1186 52.5927C14.0656 52.7044 13.9595 52.9265 13.9065 53.0383C14.8421 53.3134 15.7832 53.5648 16.7147 53.8525C17.2437 53.995 17.7713 54.1472 18.2881 54.3358C20.1715 52.453 22.0046 50.5186 23.8704 48.6177C23.8677 48.3816 23.865 48.147 23.8623 47.9123C22.2957 49.316 20.744 50.7337 19.187 52.1486ZM4.63478 48.5339C4.83604 48.5031 5.04818 48.3746 5.25081 48.4445C5.45887 48.749 5.61934 49.0856 5.81244 49.3998C5.29704 49.5772 4.76397 49.8621 4.20777 49.7029C3.25041 49.4836 2.30528 49.2057 1.3316 49.0716C2.40864 48.749 3.55774 48.8607 4.63478 48.5339ZM18.2935 55.002C16.6739 54.6668 15.0543 54.3372 13.4346 54.0062C13.2878 54.1877 13.1436 54.3707 13.0022 54.5551C14.7646 55.1333 16.542 55.6627 18.2867 56.294C20.1824 54.1095 21.9883 51.8427 23.8704 49.6457C23.8677 49.4054 23.8636 49.1638 23.8568 48.9236C22.0196 50.9683 20.1416 52.9726 18.2935 55.002ZM11.6776 49.9851C12.3916 49.7364 13.0593 49.3663 13.7678 49.0981C13.659 49.3942 13.7651 49.8761 13.4101 50.0172C12.8036 50.33 12.1808 50.6136 11.5634 50.9027C11.369 51.0312 11.1418 50.9278 10.9379 50.8957C9.87035 50.6331 8.79332 50.4097 7.72853 50.1387C7.66733 50.02 7.54494 49.7825 7.48374 49.6624C8.88579 49.6987 10.2783 49.9278 11.6776 49.9851ZM4.62798 50.3203C5.14745 50.3412 5.61118 50.0633 6.11026 49.9585C6.29248 50.3245 6.48695 50.6834 6.68413 51.0424C6.26936 51.1834 5.88315 51.4418 5.44663 51.4963C4.06226 51.1108 2.67109 50.7449 1.29217 50.337C2.4032 50.2909 3.51559 50.33 4.62798 50.3203ZM11.1459 51.5424C11.9551 51.1764 12.7248 50.7225 13.5325 50.3552C13.3952 50.6736 13.3748 51.1401 12.9859 51.2477C12.2257 51.5913 11.4968 52.0061 10.7352 52.3497C10.1002 52.3259 9.4787 52.1053 8.84771 52.0145C8.5703 51.8203 8.49278 51.4502 8.34048 51.1611C9.28288 51.2309 10.2049 51.4823 11.1459 51.5424ZM1.38464 51.4907C1.54647 51.6262 1.69877 51.791 1.91092 51.8427C3.41767 52.3329 4.90675 52.886 6.41895 53.3553C6.84324 53.231 7.21993 52.981 7.61429 52.7827C7.38583 52.3427 7.15193 51.9055 6.91531 51.4698C6.55902 51.6234 6.21497 51.8064 5.84916 51.9363C5.22089 52.0229 4.59534 51.8566 3.96979 51.8217C3.20145 51.7952 2.44399 51.6485 1.6743 51.6388C1.60222 51.601 1.45671 51.527 1.38464 51.4907ZM10.7747 52.8776C11.5879 52.4125 12.3889 51.9237 13.2102 51.4739C13.145 52.0061 12.6364 52.1919 12.2502 52.4335C11.4655 52.8916 10.7053 53.3944 9.90435 53.8246C9.62965 53.4712 9.35631 53.1179 9.08841 52.7589C9.64189 52.812 10.2579 53.2771 10.7747 52.8776Z" fill="#7B003E"/>
</g>
<defs>
<clipPath id="clip0_291_1289">
<rect width="100" height="80" fill="white" transform="translate(0.03125)"/>
</clipPath>
</defs>
</svg>
