<svg width="101" height="80" viewBox="0 0 101 80" fill="none" xmlns="http://www.w3.org/2000/svg">
<path d="M32.7578 40.6367H38.5559V42.5121H35.7979V55.6912H32.7578V40.6367Z" fill="#0079C2"/>
<path d="M41.9932 50.0395L42.5141 42.5121H42.6888L43.2097 50.0395H41.9932ZM38.627 55.6911H41.6033L41.8848 51.6934H43.3181L43.6009 55.6911H46.5759L44.9905 40.6367H40.212L38.627 55.6911Z" fill="#0079C2"/>
<path d="M50.93 50.4221V53.2602C50.93 53.6428 51.2291 53.7539 51.4038 53.7539C51.6904 53.7539 51.8899 53.5193 51.8899 53.2602V49.7555C51.8899 49.2867 51.8028 48.7685 50.6683 48.7685H49.4345V47.1152H50.7183C51.5782 47.1152 51.8896 46.9174 51.8896 45.9923V43.0061C51.8896 42.747 51.69 42.5121 51.4035 42.5121C51.2288 42.5121 50.9297 42.6107 50.9297 43.0061V45.4613H47.8887V43.3265C47.8887 42.2779 48.0134 40.6367 50.1445 40.6367H52.6621C54.793 40.6367 54.9306 42.2779 54.9306 43.3265V45.7325C54.9306 47.3737 53.7719 47.8182 52.8617 47.7812V47.9296C54.9058 47.8801 54.9306 49.4348 54.9306 49.9654V53.0011C54.9306 54.0621 54.793 55.6912 52.6621 55.6912H50.1445C48.0134 55.6912 47.8887 54.0621 47.8887 53.0011V50.4221H50.93Z" fill="#0079C2"/>
<path d="M56.9241 40.6367H63.9661V55.6912H60.9247V42.5121H59.9649V55.6912H56.9238V40.6367" fill="#0079C2"/>
<path d="M69.0023 48.9169V42.5121H69.4013C69.7252 42.5121 69.9618 42.7837 69.9618 43.2652V48.1638C69.9618 48.6453 69.7252 48.9169 69.4013 48.9169H69.0023ZM65.9609 55.6915H69.0023V50.5702H70.7473C72.8659 50.5702 73.0035 48.9414 73.0035 47.8801V43.3265C73.0035 42.2779 72.8659 40.6367 70.7473 40.6367H65.9612L65.9609 55.6915Z" fill="#0079C2"/>
<path d="M78.9967 53.2602C78.9967 53.5193 78.7975 53.7539 78.5109 53.7539C78.3362 53.7539 78.0371 53.6428 78.0371 53.2602V43.0061C78.0371 42.6107 78.3362 42.5121 78.5109 42.5121C78.7975 42.5121 78.9967 42.747 78.9967 43.0061V53.2602ZM74.9961 53.0011C74.9961 54.0621 75.1331 55.6912 77.2523 55.6912H79.7825C81.901 55.6912 82.0386 54.0621 82.0386 53.0011V43.3265C82.0386 42.2779 81.901 40.6367 79.7825 40.6367H77.2523C75.1334 40.6367 74.9961 42.2779 74.9961 43.3265V53.0011Z" fill="#0079C2"/>
<path d="M91.9351 40.6367H95.8983V55.6912H92.8573V46.2511H92.7448L91.1748 55.6915H88.7442L87.1862 46.2511H87.074V55.6915H84.033V40.637H87.9839L89.9658 51.2246L91.9351 40.6367Z" fill="#0079C2"/>
<path d="M28.8159 20.0541C27.8849 16.019 25.5515 12.7367 25.23 12.2061C24.7214 12.9585 22.8607 15.8585 21.9147 19.0671C20.8814 22.658 20.7296 25.8414 21.0859 28.9636C21.4397 32.0978 22.7772 35.3185 22.7772 35.3185C23.4879 36.997 24.552 38.8108 25.2451 39.6992C26.2606 38.3912 28.5953 34.4921 29.3233 29.4081C29.7283 26.5696 29.7456 24.0892 28.8159 20.0541ZM25.23 38.6873C24.7726 37.836 24.0622 36.2194 23.995 33.7019C23.9777 31.2834 24.9583 29.1981 25.2451 28.766C25.5006 29.1978 26.3454 31.0119 26.4466 33.492C26.5151 35.9108 25.7023 37.8232 25.23 38.6873ZM28.5454 26.9028C28.5105 28.445 28.3248 30.074 28.0879 31.0489C28.1727 29.3707 27.9695 27.0138 27.5805 25.163C27.1919 23.3243 26.0912 20.2395 25.2125 18.8202C24.4009 20.1776 23.4015 22.8428 22.878 25.1506C22.3521 27.458 22.337 30.2591 22.337 31.0984C22.1975 30.3951 21.8484 27.8655 21.9468 25.336C22.0291 23.2503 22.5227 21.0912 22.7932 20.1039C23.8253 16.8091 24.9928 14.6992 25.2125 14.3658C25.4321 14.6992 26.9025 17.3025 27.6653 20.0296C28.4244 22.7566 28.5777 25.3727 28.5454 26.9028Z" fill="#0079C2"/>
<path d="M26.8094 40.6366H19.7314V45.338C19.7376 45.338 19.7427 45.3259 19.749 45.3259C21.4167 43.6723 24.1212 43.6723 25.7902 45.3259C27.4579 46.9667 27.4579 49.6446 25.7902 51.2979C25.7826 51.3104 25.7751 51.3104 25.7679 51.3228C25.7591 51.3228 25.7503 51.3349 25.7427 51.3471C24.0788 52.9758 21.9052 53.7905 19.7314 53.7905C17.5477 53.7905 15.3641 52.9758 13.6989 51.3225C10.7622 48.4225 10.4147 43.9186 12.653 40.6363C12.9546 40.1921 13.3024 39.7728 13.6989 39.3774C15.3641 37.7241 17.5477 36.9095 19.7314 36.9095V25.6064C11.3406 25.6064 4.53906 32.3316 4.53906 40.636C4.53906 48.9404 11.3406 55.678 19.7314 55.678C24.1061 55.678 28.0473 53.8396 30.8191 50.9144V40.6357H26.8094" fill="#0079C2"/>
</svg>
