<svg width="81" height="80" viewBox="0 0 81 80" fill="none" xmlns="http://www.w3.org/2000/svg">
<g clip-path="url(#clip0_291_1263)">
<path d="M40.8652 36.3224C29.6294 36.3224 20.525 32.3817 20.525 27.525C20.525 22.6683 29.6294 18.7277 40.8652 18.7277C52.101 18.7277 61.2053 22.6683 61.2053 27.525C61.2111 32.3817 52.101 36.3224 40.8652 36.3224ZM40.7735 15.9854C28.4892 15.9854 18.5254 21.1243 18.5254 27.4674C18.5254 33.8105 28.4835 38.9495 40.7735 38.9495C53.0578 38.9495 63.0159 33.8105 63.0159 27.4674C63.0159 21.1243 53.0578 15.9854 40.7735 15.9854Z" fill="#B5121B"/>
<path d="M48.1294 22.9043C48.1409 22.8755 48.1581 22.8294 48.1581 22.8006C48.1581 22.6739 48.0549 22.5702 47.9289 22.5702H47.6195C47.5966 22.5702 47.5737 22.5529 47.5737 22.5241V21.9768C47.5737 21.9479 47.5966 21.9307 47.6195 21.9307H48.7826H49.0404H51.7849C51.911 21.9307 52.0313 21.9595 52.0714 22.0862L55.6868 32.6983C55.6925 32.7156 55.6925 32.7387 55.6925 32.756C55.6925 32.8712 55.6009 32.9576 55.492 32.9576H55.4977H52.8907C52.7647 32.9576 52.6329 32.8539 52.5928 32.7214L50.3583 25.8713C50.3411 25.8137 50.3067 25.7619 50.2437 25.7619C50.1806 25.7619 50.1463 25.808 50.1291 25.8713L47.8945 32.7214C47.8544 32.8481 47.7169 32.9576 47.5908 32.9576H44.9896C44.8807 32.9576 44.7891 32.8654 44.7891 32.756C44.7891 32.7387 44.7891 32.7156 44.7948 32.6983L48.1294 22.9043Z" fill="#B5121B"/>
<path d="M39.4429 22.8984V22.7947C39.4429 22.668 39.334 22.5643 39.208 22.5643H38.8642C38.8413 22.5643 38.8184 22.5413 38.8184 22.5182V21.9709C38.8184 21.9479 38.8413 21.9248 38.8642 21.9248H39.3971H39.6663H39.821H42.3134C42.4395 21.9248 42.5426 22.0285 42.5426 22.1553V32.7271C42.5426 32.8538 42.4395 32.9575 42.3134 32.9575H39.6663C39.5403 32.9575 39.4372 32.8538 39.4372 32.7271V23.1807V23.1231L39.4429 22.8984Z" fill="#B5121B"/>
<path d="M37.205 32.9576H34.1568C34.0308 32.9576 33.8532 32.8539 33.7615 32.7271L30.7191 28.5272C30.6675 28.4811 30.6618 28.4639 30.6274 28.4351C30.6045 28.4178 30.5701 28.412 30.5414 28.412C30.4612 28.412 30.4154 28.4696 30.4154 28.5503V28.6079V28.6021V32.7329C30.4154 32.8597 30.3123 32.9634 30.1862 32.9634H27.6193C27.4933 32.9634 27.3902 32.8597 27.3902 32.7329V22.8006C27.3902 22.6739 27.287 22.5702 27.1667 22.5702H27.1724H26.8115C26.7885 22.5702 26.7656 22.5471 26.7656 22.5241V21.9768C26.7656 21.9537 26.7885 21.9307 26.8115 21.9307H27.3443H27.6136H30.1805C30.3065 21.9307 30.4097 22.0344 30.4097 22.1611V24.8977V25.0993V25.6178V25.6121V25.6697C30.4097 25.7503 30.4555 25.808 30.5357 25.808C30.5644 25.808 30.5987 25.7964 30.6217 25.7849C30.656 25.7561 30.656 25.7388 30.7076 25.6927L31.1259 25.1108L33.2286 22.1669C33.3203 22.0401 33.4979 21.9364 33.624 21.9364H36.5404C36.6492 21.9364 36.7352 22.0286 36.7352 22.1381C36.7352 22.1784 36.7237 22.2187 36.7065 22.2533L33.4807 26.9717C33.4464 27.0178 33.4292 27.0581 33.4292 27.1157C33.4292 27.1734 33.4406 27.2022 33.4807 27.2483L37.3425 32.6292C37.3769 32.6695 37.3883 32.7099 37.3883 32.7675C37.3998 32.8654 37.3139 32.9576 37.205 32.9576Z" fill="#B5121B"/>
<path fill-rule="evenodd" clip-rule="evenodd" d="M18.8646 50.8639H17.8276L18.8646 47.9775L19.896 50.8639H18.8646ZM18.8646 45.3389H17.9307L14.957 53.7041H16.8249L17.4036 52.0795H18.8646H20.3257L20.9044 53.7041H23.1733L20.1939 45.3389H18.8646Z" fill="#B5121B"/>
<path fill-rule="evenodd" clip-rule="evenodd" d="M34.1158 45.3389L32.3969 50.184L30.6837 45.3389H28.2888L27.1543 53.7041H29.0222L29.704 48.4845L31.4687 53.7041H33.0558L34.8721 48.4614L35.5539 53.7041H37.6452L36.4821 45.3389H34.1158Z" fill="#B5121B"/>
<path fill-rule="evenodd" clip-rule="evenodd" d="M11.9531 53.7041H14.2221V45.3389H11.9531V53.7041Z" fill="#B5121B"/>
<path fill-rule="evenodd" clip-rule="evenodd" d="M10.1378 52.3897L7.79435 49.0194L10.642 45.3438H8.29856L5.72596 48.5873V45.3438H3.45703V53.709H5.72596V49.8317L7.94332 53.0004C7.94332 53.0004 8.4991 53.709 9.07779 53.709H11.4728C11.4728 53.7033 11.2207 53.7321 10.1378 52.3897Z" fill="#B5121B"/>
<mask id="mask0_291_1263" style="mask-type:luminance" maskUnits="userSpaceOnUse" x="3" y="15" width="75" height="71">
<path d="M3.45703 15.9854V85.523H77.2259V15.9854" fill="white"/>
</mask>
<g mask="url(#mask0_291_1263)">
<path fill-rule="evenodd" clip-rule="evenodd" d="M69.9899 52.5116L68.0991 49.6482C69.8925 49.0664 69.7893 47.3899 69.7893 47.3899C69.7893 45.4138 67.4975 45.3389 67.4975 45.3389C67.4975 45.3389 66.3114 45.3389 65.5838 45.3389H63.1602V53.7041H65.452V46.5545H66.2599C66.2599 46.5545 67.572 46.6294 67.572 47.724C67.572 47.724 67.7496 49.4754 65.6067 49.4754L68.0017 53.0992C68.0017 53.0992 68.4028 53.7099 69.2851 53.7099H71.0498H71.2275C71.2275 53.7099 71.153 53.7099 71.0498 53.635C70.8493 53.5025 70.517 53.1971 69.9899 52.5116Z" fill="#B5121B"/>
</g>
<mask id="mask1_291_1263" style="mask-type:luminance" maskUnits="userSpaceOnUse" x="3" y="15" width="75" height="71">
<path d="M3.45703 15.9854V85.523H77.2259V15.9854" fill="white"/>
</mask>
<g mask="url(#mask1_291_1263)">
<path fill-rule="evenodd" clip-rule="evenodd" d="M77.2263 51.1691C77.1232 49.5445 75.3871 48.9914 75.3871 48.9914C72.9921 48.156 73.1926 47.24 73.1926 47.24C73.1926 46.2779 74.7053 46.226 74.7053 46.226C75.7939 46.226 76.4184 46.7849 76.4184 46.7849V45.5174C76.4184 45.5174 75.5131 44.9874 74.0005 45.0853C74.0005 45.0853 71.68 45.2351 71.0498 46.8079C70.9237 47.0614 70.8722 47.3668 70.8722 47.6951C70.8722 47.6951 70.8206 48.1042 71.0498 48.6112C71.2503 49.0894 71.7316 49.677 72.74 50.1321C72.74 50.1321 75.0834 50.8638 75.0319 51.8317C74.9803 53.1222 73.3187 52.8457 73.3187 52.8457C72.3332 52.6959 71.3305 52.235 71.0498 52.1082C70.9753 52.0794 70.9466 52.0564 70.9466 52.0564L71.0498 52.3848L71.3019 53.3469C72.3389 53.9806 73.7484 54.0325 73.7484 54.0325C77.4784 54.2111 77.2263 51.1691 77.2263 51.1691Z" fill="#B5121B"/>
</g>
<path fill-rule="evenodd" clip-rule="evenodd" d="M57.8873 52.7644C56.5237 52.7644 55.4408 51.3184 55.4408 49.5209C55.4408 47.7234 56.5237 46.2773 57.8873 46.2773C59.2453 46.2773 60.3339 47.7234 60.3339 49.5209C60.3339 51.3241 59.251 52.7644 57.8873 52.7644ZM57.8873 44.958C55.8705 44.958 54.1574 46.1794 53.4755 47.902C53.275 48.409 53.1719 48.939 53.1719 49.5209C53.1719 50.1085 53.275 50.6385 53.4755 51.1455C54.1574 52.8739 55.8705 54.0895 57.8873 54.0895C60.4829 54.0895 62.6028 52.0616 62.6028 49.5266C62.6028 46.986 60.4829 44.958 57.8873 44.958Z" fill="#B5121B"/>
<path fill-rule="evenodd" clip-rule="evenodd" d="M53.7801 46.5545V45.3389H53.4764H46.9733H46.7441V46.5545H46.9733H49.1162V53.7041H51.3851V46.5545H53.4764H53.7801Z" fill="#B5121B"/>
<path fill-rule="evenodd" clip-rule="evenodd" d="M42.4571 52.7644C41.0935 52.7644 39.9877 51.3184 39.9877 49.5209C39.9877 47.7234 41.0992 46.2773 42.4571 46.2773C43.7921 46.2773 44.9037 47.7234 44.9037 49.5209C44.9037 51.3241 43.7921 52.7644 42.4571 52.7644ZM42.4571 44.958C39.8387 44.958 37.7188 46.9859 37.7188 49.5209C37.7188 52.0558 39.8387 54.0837 42.4571 54.0837C44.5771 54.0837 46.3647 52.7414 46.9664 50.8632C47.0924 50.4369 47.1669 50.0048 47.1669 49.5209C47.1669 49.0657 47.0924 48.6106 46.9664 48.1785C46.3647 46.3004 44.5771 44.958 42.4571 44.958Z" fill="#B5121B"/>
</g>
<defs>
<clipPath id="clip0_291_1263">
<rect width="80" height="80" fill="white" transform="translate(0.84375)"/>
</clipPath>
</defs>
</svg>
