<svg width="81" height="80" viewBox="0 0 81 80" fill="none" xmlns="http://www.w3.org/2000/svg">
<path fill-rule="evenodd" clip-rule="evenodd" d="M4.61523 44.2175H17.9544V31.0762H4.61523V44.2175Z" fill="#D0202E"/>
<path fill-rule="evenodd" clip-rule="evenodd" d="M16.5203 33.4668L14.9944 35.921C14.8261 36.1976 14.8493 36.4107 14.9305 36.6239L17.2514 42.5176H7.64304C6.77852 42.5176 6.11127 41.832 6.11127 41.0139L6.10547 33.1614C6.12868 32.1475 7.61403 32.1302 7.64304 33.1557V40.5069C7.64304 40.7432 7.84611 41.0024 8.11881 40.9967H15.151L13.3291 36.7391C13.2827 36.5778 13.2479 36.4165 13.2479 36.2494C13.2479 36.0708 13.3291 35.7828 13.4452 35.5466L15.1162 32.8158C15.238 32.568 15.4933 32.4067 15.7835 32.3894C16.2012 32.3721 16.5551 32.6544 16.5725 33.0923C16.5841 33.1902 16.5609 33.3803 16.5203 33.4668Z" fill="white"/>
<path fill-rule="evenodd" clip-rule="evenodd" d="M11.217 38.421V33.1553C11.217 32.1298 12.7256 32.1183 12.743 33.1553V38.4786C12.743 39.6942 11.8262 40.5008 10.7064 40.5008C9.5866 40.5008 8.66406 39.677 8.66406 38.4786V33.1553C8.66406 32.1298 10.19 32.1298 10.19 33.1553V38.421C10.1958 39.1239 11.217 39.17 11.217 38.421Z" fill="white"/>
<path fill-rule="evenodd" clip-rule="evenodd" d="M70.9341 32.3775V37.8449C70.9341 39.2333 70.789 39.9995 69.6576 39.9995C69.4429 39.9995 69.3037 39.9995 69.089 39.9247V42.3155C69.5183 42.4711 69.8027 42.546 70.1566 42.546C73.3536 42.546 73.4986 40.0687 73.4986 38.6975V34.8836H75.3495V42.3213H77.9083V32.3775H70.9341ZM61.4882 30.217C61.9175 31.3693 63.049 31.7553 64.0469 31.7553C65.1145 31.7553 66.1763 31.3693 66.6753 30.217L65.1841 29.6006C64.9695 30.3668 64.3312 30.4475 64.0469 30.4475C63.8322 30.4475 63.1244 30.3726 62.9793 29.6006L61.4882 30.217ZM59.7127 32.3775V42.3155H62.2018L65.7586 36.3066V42.3155H68.2477V32.3775H65.7586L62.2018 38.3058V32.3775H59.7127ZM53.4638 40.2358C52.3266 40.2358 51.1894 39.2333 51.1894 37.3033C51.1894 35.3791 52.3266 34.4573 53.4638 34.4573C54.6707 34.4573 55.8021 35.3848 55.8021 37.3033C55.8021 39.2275 54.6707 40.2358 53.4638 40.2358ZM53.4638 42.6958C56.8697 42.6958 58.4304 39.9995 58.4304 37.2975C58.4304 34.6762 56.8639 32.0606 53.4638 32.0606C50.1218 32.0606 48.561 34.682 48.561 37.2975C48.561 39.9995 50.1218 42.6958 53.4638 42.6958ZM40.8209 42.3098H43.3739V37.9946L46.008 42.3098H49.2747L45.6483 37.1478L49.1354 32.3717H46.1473L43.3739 36.5313V32.3775H40.8209V42.3098ZM33.1389 42.3098H35.9123L40.0376 32.3717H37.2642L35.7731 36.5313L33.9976 32.3717H30.9399L34.4212 39.5329L33.1389 42.3098ZM23.1244 32.3775V37.8449C23.1244 39.2333 22.9851 39.9995 21.8479 39.9995C21.6332 39.9995 21.494 39.9995 21.2793 39.9247V42.3155C21.7029 42.4711 21.993 42.546 22.3469 42.546C25.5439 42.546 25.6889 40.0687 25.6889 38.6975V34.9009H27.534V42.3213H30.087V32.3775H23.1244Z" fill="black"/>
</svg>
