<svg width="101" height="80" viewBox="0 0 101 80" fill="none" xmlns="http://www.w3.org/2000/svg">
<g clip-path="url(#clip0_291_1340)">
<path d="M44.3754 46.6391L43.7176 40.6776C43.6514 40.0954 43.627 39.4109 43.627 39.4109H43.6002C43.6002 39.4109 43.4713 40.0826 43.29 40.6776L41.5189 46.6391H40.3557L38.5707 40.6776C38.3894 40.0826 38.2605 39.4109 38.2605 39.4109H38.2349C38.2349 39.4109 38.2082 40.0954 38.1442 40.6776L37.4853 46.6391H35.791L36.9566 37.2773H39.0251L40.6544 42.7461C40.8101 43.2888 40.9263 43.9466 40.9263 43.9466H40.9518C40.9518 43.9466 41.0692 43.2888 41.2238 42.7461L42.8402 37.2773H44.9088L46.072 46.6391H44.3754Z" fill="#830828"/>
<path d="M65.4425 46.6391L64.7848 40.6776C64.7197 40.0954 64.6942 39.4109 64.6942 39.4109H64.6674C64.6674 39.4109 64.5384 40.0826 64.3572 40.6776L62.5861 46.6391H61.4229L59.6379 40.6776C59.4578 40.0826 59.3288 39.4109 59.3288 39.4109H59.3032C59.3032 39.4109 59.2777 40.0954 59.2138 40.6776L58.5537 46.6391H56.8594L58.0226 37.2773H60.0923L61.7204 42.7461C61.8761 43.2888 61.9911 43.9466 61.9911 43.9466H62.0156C62.0156 43.9466 62.1329 43.2888 62.2875 42.7461L63.9039 37.2773H65.9725L67.1357 46.6391H65.4425Z" fill="#830828"/>
<path d="M74.4927 42.3185C74.1557 42.3185 73.7815 42.3719 73.563 42.4231V45.2539C73.7943 45.3329 74.194 45.4096 74.5961 45.4096C75.7745 45.4096 76.4067 44.8414 76.4067 43.8582C76.4067 42.9018 75.7478 42.3185 74.4927 42.3185ZM74.6228 46.7925C73.5642 46.7925 72.4765 46.574 71.8164 46.2882V37.2773H77.2213V38.8032H73.5642V41.0785C73.8082 41.0146 74.2475 40.9623 74.6751 40.9623C76.99 40.9623 78.216 42.1256 78.216 43.8966C78.2149 45.6304 77.0516 46.7925 74.6228 46.7925Z" fill="#830828"/>
<path d="M83.2949 43.2783C82.0003 43.3422 80.8638 43.4596 80.8638 44.5078C80.8638 45.1655 81.3809 45.542 82.2978 45.542C82.6732 45.542 83.1124 45.4758 83.2949 45.3991V43.2783ZM82.3513 46.7936C80.2549 46.7936 79.209 45.9673 79.209 44.5426C79.209 42.6438 81.1869 42.2684 83.2949 42.1511V41.7908C83.2949 41.0657 82.7917 40.7949 81.9875 40.7949C81.3286 40.7949 80.528 41.0017 80.0376 41.2086L79.596 40.0198C80.1782 39.7746 81.1729 39.5166 82.1839 39.5166C83.9677 39.5166 84.966 40.215 84.966 41.9988V46.2892C84.4442 46.5635 83.396 46.7936 82.3513 46.7936Z" fill="#830828"/>
<path d="M90.5175 46.6401V43.7047H88.2817V46.6401H86.5234V39.6699H88.2817V42.5287H90.5175V39.6699H92.2758V46.6401H90.5175Z" fill="#830828"/>
<path d="M98.1284 46.6401L95.6206 43.1225H95.5951V46.6401H93.8496V39.6699H95.5951V42.7204H95.6206L97.9216 39.6699H99.9506L97.4428 42.9273L100.12 46.6401H98.1284Z" fill="#830828"/>
<path d="M53.0547 45.2166H49.8856L50.5167 40.0593C50.6456 39.0773 51.0838 38.509 52.1389 38.509C52.498 38.509 52.8443 38.5857 53.0535 38.6636L53.0547 45.2166ZM54.8013 45.2166V37.6282C54.19 37.3423 53.1813 37.125 52.2005 37.125C49.9507 37.125 49.0815 38.2871 48.8723 40.0209C48.8711 40.0349 48.2204 45.2178 48.2204 45.2178H46.9746L47.3837 48.5111H48.7119V46.6506H54.0866V48.5111H55.4125L55.8227 45.2178L54.8013 45.2166Z" fill="#830828"/>
<path d="M20.7355 28.9966L19.4526 28.5294L18.9866 29.8112L20.2683 30.2784L20.7355 28.9966ZM19.5432 33.1278L17.7106 32.4608L17.0447 34.2934L18.8773 34.9616L19.5432 33.1278ZM18.2556 30.2028L16.5276 29.8984L16.222 31.6264L17.95 31.9308L18.2556 30.2028ZM12.3278 53.7142L14.0558 54.0186L14.3591 52.2906L12.6311 51.9862L12.3278 53.7142ZM9.84674 54.9193L11.1285 55.3864L11.5957 54.1035L10.3127 53.6375L9.84674 54.9193ZM12.8717 51.4551L13.5387 49.6225L11.7061 48.9566L11.039 50.788L12.8717 51.4551ZM24.84 31.6403L23.7941 30.7629L22.9179 31.8088L23.9626 32.6862L24.84 31.6403ZM19.5595 35.3555L21.0528 36.6094L22.3066 35.115L20.8134 33.8611L19.5595 35.3555ZM19.6989 32.5677L21.2189 33.445L22.0975 31.925L20.5775 31.0477L19.6989 32.5677ZM10.8833 51.3493L9.36332 50.4708L8.48594 51.992L10.006 52.8693L10.8833 51.3493ZM5.74225 52.2755L6.78813 53.154L7.66551 52.1093L6.61963 51.232L5.74225 52.2755ZM11.0239 48.5615L9.5295 47.3076L8.2756 48.8009L9.77005 50.0548L11.0239 48.5615ZM27.7929 35.5287L27.1107 34.3457L25.9289 35.0278L26.611 36.2108L27.7929 35.5287ZM21.5594 37.2137L22.5333 38.9034L24.2218 37.9284L23.2479 36.2399L21.5594 37.2137ZM25.1177 34.8581L23.9893 33.5136L22.6448 34.642L23.7732 35.9865L25.1177 34.8581ZM5.46335 49.0589L6.59174 50.4034L7.93627 49.2738L6.80672 47.9293L5.46335 49.0589ZM2.78822 48.3883L3.47153 49.5702L4.65337 48.888L3.97123 47.7062L2.78822 48.3883ZM9.02282 46.7033L8.04783 45.0148L6.35932 45.9898L7.33431 47.6783L9.02282 46.7033ZM27.894 40.4292L29.2385 40.1921L29.0014 38.8476L27.6581 39.0847L27.894 40.4292ZM23.1433 41.5645L25.0631 41.2252L24.725 39.3043L22.804 39.6436L23.1433 41.5645ZM26.955 38.6477L26.3542 36.9975L24.704 37.5983L25.3048 39.2473L26.955 38.6477ZM5.87822 46.3198L5.27742 44.6685L3.62841 45.2704L4.22921 46.9194L5.87822 46.3198ZM2.68828 43.4878L1.34375 43.726L1.58198 45.0694L2.92535 44.8323L2.68828 43.4878ZM7.44006 42.3524L5.51913 42.6918L5.85846 44.6115L7.77939 44.2734L7.44006 42.3524ZM27.894 43.4866L27.6569 44.8312L29.0014 45.0682L29.2385 43.7237L27.894 43.4866ZM25.0643 42.6918L23.1445 42.3536L22.8052 44.2734L24.7261 44.6115L25.0643 42.6918ZM27.3826 41.0811H25.6279V42.8359H27.3826V41.0811ZM3.1996 42.8359H4.95552V41.0811H3.20077L3.1996 42.8359ZM2.92535 39.0858L1.58082 38.8476L1.34375 40.1921L2.68828 40.4292L2.92535 39.0858ZM5.51797 41.2252L7.4389 41.5645L7.77823 39.6436L5.8573 39.3043L5.51797 41.2252ZM25.9289 48.888L27.1107 49.5702L27.794 48.3883L26.611 47.705L25.9289 48.888ZM23.2491 47.6783L24.2241 45.9898L22.5344 45.0148L21.5594 46.7033L23.2491 47.6783ZM26.9538 45.2704L25.3048 44.6685L24.704 46.3198L26.353 46.9194L26.9538 45.2704ZM3.62841 38.6477L5.27742 39.2485L5.87822 37.5995L4.22805 36.9987L3.62841 38.6477ZM4.65337 35.029L3.47153 34.3468L2.78939 35.5298L3.97123 36.212L4.65337 35.029ZM9.02282 37.2137L7.33431 36.2399L6.35932 37.9284L8.04783 38.9034L9.02282 37.2137ZM22.9167 52.1082L23.7941 53.1529L24.84 52.2755L23.9626 51.2308L22.9167 52.1082ZM19.5583 48.5626L20.8122 50.0548L22.3055 48.8009L21.0516 47.3087L19.5583 48.5626ZM22.646 49.275L23.9905 50.4046L25.1189 49.06L23.7744 47.9305L22.646 49.275ZM7.93743 34.642L6.5929 33.5136L5.46451 34.8581L6.80905 35.9865L7.93743 34.642ZM7.66551 31.8088L6.78813 30.7629L5.74341 31.6403L6.62079 32.6862L7.66551 31.8088ZM11.0239 35.3555L9.77005 33.8622L8.2756 35.1161L9.5295 36.6106L11.0239 35.3555ZM18.9866 54.1046L19.4537 55.3864L20.7367 54.9204L20.2695 53.6363L18.9866 54.1046ZM17.7094 51.4562L19.542 50.788L18.875 48.9566L17.0424 49.6236L17.7094 51.4562ZM19.6989 51.3493L20.5763 52.8705L22.0963 51.992L21.2189 50.4708L19.6989 51.3493ZM10.8833 32.5677L10.006 31.0477L8.48594 31.925L9.36332 33.445L10.8833 32.5677ZM11.5968 29.8124L11.1297 28.5294L9.84791 28.9966L10.3139 30.2795L11.5968 29.8124ZM13.5399 34.2945L12.8728 32.4631L11.0402 33.129L11.7072 34.9627L13.5399 34.2945ZM14.609 56H15.9744V54.6357H14.609V56ZM14.3161 51.7107H16.2661V49.7596H14.3161V51.7107ZM16.222 52.2906L16.5264 54.0186L18.2544 53.7142L17.95 51.9862L16.222 52.2906ZM14.3603 31.6264L14.0558 29.8984L12.3278 30.2028L12.6323 31.932L14.3603 31.6264ZM15.9733 27.917H14.6078V29.2824H15.9733V27.917ZM16.2661 32.2074H14.3161V34.1574H16.2661V32.2074Z" fill="#EF7D00"/>
</g>
<defs>
<clipPath id="clip0_291_1340">
<rect width="100" height="80" fill="white" transform="translate(0.84375)"/>
</clipPath>
</defs>
</svg>
