<svg width="80" height="80" viewBox="0 0 80 80" fill="none" xmlns="http://www.w3.org/2000/svg">
<path d="M14.0311 34.0507H28.4747V22.6875H54.6871V34.0507H59.5016C59.5016 34.0507 69.9331 35.6741 66.1885 47.0373C69.9331 58.4006 59.5016 60.2944 59.5016 60.2944H43.7207V49.7429H47.4653V45.414H43.7207V30.263H47.1979V34.0507H50.9425V26.4752H32.4868V34.0507H36.2314V30.263H39.7086V45.414H36.2314V49.7429H39.7086V60.2944H14.0311V49.2017H17.7758V45.414H14.0311V34.0507ZM17.7758 37.5679V41.3557H21.2529V52.7189H17.7758V56.7772H25.265V49.2017H28.4747V56.7772H36.2314V52.7189H32.4868V41.3557H36.2314V37.5679H28.4747V45.414H25.265V37.5679H17.7758ZM47.1979 37.5679V41.3557H50.9425V52.7189H47.1979V56.7772H58.9667C58.9667 56.7772 66.1885 54.0717 62.1764 47.0373C66.1885 40.0029 58.9667 37.5679 58.9667 37.5679H47.1979ZM54.6871 41.3557V45.414H58.1643C60.5715 45.414 60.5715 41.3557 58.1643 41.3557H54.6871ZM54.6871 48.9312V52.9895H58.1643C60.5715 52.9895 60.5715 48.9312 58.1643 48.9312H54.6871Z" fill="black"/>
<path d="M46.8303 51.714C46.8303 55.407 43.8706 58.4006 40.2198 58.4006C36.5689 58.4006 33.6093 55.4069 33.6093 51.714C33.6093 48.0209 36.5689 45.0273 40.2198 45.0273C43.8706 45.0273 46.8303 48.0211 46.8303 51.714Z" fill="url(#paint0_linear_291_1468)"/>
<path d="M37.5441 51.6364C37.0091 50.0131 37.8115 48.3898 37.8115 48.3898L36.7416 47.5781C36.7416 47.5781 35.6718 48.3898 35.6718 50.5542L37.5441 51.6364Z" fill="white"/>
<path d="M37.0116 47.3099L38.028 48.119C38.1885 47.6861 38.7471 47.0909 38.7471 47.0909L37.814 46.6582C37.814 46.6582 37.2791 46.9288 37.0116 47.3099Z" fill="white"/>
<defs>
<linearGradient id="paint0_linear_291_1468" x1="34.5059" y1="47.861" x2="40.9703" y2="52.1215" gradientUnits="userSpaceOnUse">
<stop stop-color="#010000"/>
<stop offset="1" stop-color="#018F61"/>
</linearGradient>
</defs>
</svg>
