<svg width="80" height="80" viewBox="0 0 80 80" fill="none" xmlns="http://www.w3.org/2000/svg">
<path d="M59.1306 57.1132L58.922 58.1722C58.4309 60.4735 58.2505 61.2167 57.8254 63.5057L57.7313 63.5875L56.3776 63.6278L56.3122 63.5326L56.8568 61.1753L57.0164 60.4018C56.4351 60.3901 55.8538 60.3772 55.2725 60.3772C54.8186 60.3772 54.4725 60.3845 54.119 60.3934C53.9199 61.3203 53.753 62.1352 53.4988 63.5052L53.4046 63.5869L52.0515 63.6272L51.9844 63.532L52.5301 61.1747L52.7421 60.1465C53.1013 58.5284 53.1678 58.1728 53.3804 56.6791L53.4734 56.5828C54.0958 56.501 54.2424 56.4736 54.8801 56.3369L54.9472 56.4332L54.804 57.1126L54.5971 58.1717L54.3811 59.1736C54.8694 59.1848 55.3582 59.1932 55.8481 59.1932C56.3657 59.1932 56.7057 59.1826 57.283 59.1708C57.468 58.2955 57.5441 57.816 57.707 56.6797L57.7984 56.5833C58.4236 56.5016 58.5691 56.4741 59.2067 56.3375L59.2727 56.4338L59.1306 57.1132Z" fill="#80BA27"/>
<path d="M42.8196 60.1922C42.9132 59.7928 42.9786 59.3935 42.9786 59.0087C42.9786 57.6175 42.1115 57.3834 41.6187 57.3834C39.5231 57.3834 39.257 60.7438 39.257 61.2518C39.257 62.3545 39.8969 62.8368 40.6185 62.8368C42.0461 62.8368 42.5795 61.3224 42.8196 60.1922ZM44.2077 60.62C43.914 61.8046 43.0999 63.8555 40.592 63.8555C38.8161 63.8555 37.8418 62.9051 37.8418 61.0322C37.8418 60.7903 37.8604 60.5209 37.9004 60.2375C37.9083 60.1692 37.9173 60.0992 37.9269 60.0281C38.4107 56.9247 39.7131 53.9816 42.5738 53.9525C42.9572 53.948 43.7279 53.9066 44.2545 53.7783L44.0628 55.0183C43.534 55.1583 42.695 55.2306 42.2057 55.2356C41.5973 55.2412 41.1767 55.4803 40.8869 55.7682C40.7415 55.9116 40.6298 56.0662 40.5424 56.209C40.4579 56.3501 40.3942 56.4801 40.3474 56.5769C40.7296 56.4549 41.148 56.3776 41.6193 56.3776C43.3671 56.3776 44.4085 57.3829 44.4085 59.1588C44.4079 59.641 44.3278 60.1373 44.2077 60.62Z" fill="#80BA27"/>
<path d="M61.4215 59.3477C61.7378 59.0632 61.9227 58.8845 62.3602 58.4476C62.8231 57.9817 63.9524 56.7764 64.1655 56.5434L64.311 56.4617H65.8395L65.8789 56.5843C65.7459 56.7086 65.6793 56.7624 65.1477 57.2284C64.9351 57.4065 64.8037 57.5443 64.5517 57.7767L62.8231 59.4222L64.8832 63.4658L64.8032 63.5745L63.3283 63.6165L63.2223 63.5341C62.8767 62.684 62.7831 62.493 62.3061 61.4921L61.3769 59.5454C61.0843 60.8934 60.9033 61.7419 60.5752 63.5061L60.4827 63.5879L59.1285 63.6282L59.0625 63.533L59.6066 61.1757L59.8191 60.1474C60.1771 58.5294 60.2442 58.1738 60.4568 56.6801L60.5493 56.5838C61.174 56.502 61.3189 56.4745 61.9577 56.3379L62.0236 56.4342L61.8804 57.1136L61.6741 58.1727L61.4215 59.3477Z" fill="#80BA27"/>
<path d="M49.6698 61.8461C49.5232 61.9699 49.3766 62.1077 49.2289 62.2035C48.8827 62.4236 48.4294 62.5188 48.0685 62.5188C46.8547 62.5188 46.5068 61.4619 46.5068 60.8033C46.5068 60.7344 46.5339 58.9624 47.9349 57.9733C48.722 57.4245 49.5897 57.397 50.0295 57.397C50.2307 57.397 50.4292 57.4105 50.6294 57.4105L49.6698 61.8461ZM52.2182 56.4864L52.1528 56.3771L50.3108 56.3643C49.0828 56.3643 47.3627 56.446 46.1206 57.9459C45.5607 58.6331 45.0527 59.8142 45.0527 60.898C45.0527 62.6151 46.1606 63.6064 47.5211 63.6064C48.6555 63.6064 49.2429 63.0979 49.4702 62.9052L49.3766 63.4552L49.4431 63.5521L50.6964 63.5241L50.7906 63.4278C51.0584 61.7901 51.1514 61.2687 51.6177 59.1539L52.2182 56.4864Z" fill="#80BA27"/>
<path d="M17.0557 64.0645C15.6078 64.0645 13.5262 63.5907 14.2812 60.143C14.5648 58.8498 15.4302 56.1055 18.9935 56.1055C22.4592 56.1055 21.9433 59.0363 21.7308 60.0707C21.092 62.987 19.3661 64.0645 17.0557 64.0645ZM17.5281 62.5417C18.5447 62.5417 19.0194 61.4501 19.3278 60.0421C19.5449 59.0508 19.78 57.5997 18.5543 57.5997C17.5107 57.5997 17.0472 58.6341 16.7388 60.0421C16.4524 61.3499 16.3864 62.5417 17.5281 62.5417Z" fill="#00684B"/>
<path d="M25.5276 63.8928C24.8595 63.8928 23.7595 63.8928 23.2966 63.9063L23.2182 63.8206C23.3462 63.3613 23.6597 62.1253 23.9901 60.6165C24.2579 59.395 24.4936 58.3185 24.586 57.8296C24.0262 57.8442 23.1641 57.8442 22.743 57.8593L22.668 57.7574C22.7773 57.3844 22.933 56.738 23.0316 56.3505L23.159 56.2771C23.5317 56.2922 24.9486 56.3074 26.0897 56.3074C27.4677 56.3074 28.8106 56.2771 29.092 56.2637L29.1878 56.3354C29.0847 56.6798 28.9025 57.3844 28.8101 57.7434L28.6793 57.8296C28.1262 57.8156 27.7078 57.8156 26.9146 57.8156C26.8452 58.1309 26.6304 59.0517 26.2713 60.6893C26.0012 61.9242 25.7796 63.0595 25.6511 63.778L25.5276 63.8928Z" fill="#00684B"/>
<path d="M33.2649 58.0011C32.8201 58.0011 32.3155 58.0157 32.0928 58.0157C32.0234 58.331 31.7517 59.5099 31.4997 60.6586C31.2037 62.0095 30.9409 63.2736 30.8389 63.8056L30.7086 63.8919C30.0264 63.8919 29.1491 63.8919 28.45 63.9053L28.3711 63.8196C28.5143 63.2299 28.8808 61.6208 29.2303 60.0274C29.5827 58.4184 29.8866 56.8379 29.9853 56.3926L30.1037 56.2918C30.8552 56.2918 31.6147 56.3204 33.4803 56.3204C34.9423 56.3204 36.3574 56.2767 37.1112 56.2627L37.1772 56.3495C37.078 56.7365 36.6579 58.5898 36.2559 60.4284C35.9317 61.9098 35.6352 63.3884 35.5574 63.8051L35.4548 63.8913C34.8566 63.8913 33.7566 63.8913 33.1826 63.9047L33.1212 63.8045C33.2452 63.3016 33.5136 62.1377 33.8287 60.7012C34.0678 59.6085 34.3085 58.4458 34.4027 58.0146C34.1811 58.0162 33.6827 58.0011 33.2649 58.0011Z" fill="#00684B"/>
<path fill-rule="evenodd" clip-rule="evenodd" d="M23.8456 32.8988C23.8456 24.1422 30.9868 17.0423 39.8002 17.0322V22.7661C34.174 22.7751 29.6178 27.3077 29.6178 32.8988C29.6178 38.4949 34.1841 43.0314 39.8177 43.0314C45.4185 43.0314 50.0181 38.5392 50.0181 32.8596L55.7903 32.8652C55.7903 41.6621 48.6396 48.7659 39.8177 48.7659C30.9963 48.7653 23.8456 41.6621 23.8456 32.8988Z" fill="#00684B"/>
<path d="M32.7715 32.8987C32.7715 29.0124 35.9435 25.8604 39.8568 25.8604C43.7691 25.8604 46.9417 29.0124 46.9417 32.8987C46.9417 36.7849 43.7691 39.9364 39.8568 39.9364C35.9435 39.9364 32.7715 36.7849 32.7715 32.8987Z" fill="#80BA27"/>
<path d="M44.7715 23.9831C44.7715 21.7563 46.5898 19.9512 48.8315 19.9512C51.0748 19.9512 52.8926 21.7568 52.8926 23.9831C52.8926 26.2115 51.0743 28.0194 48.8315 28.0194C46.5892 28.0194 44.7715 26.2121 44.7715 23.9831Z" fill="#00684B"/>
</svg>
