<svg width="101" height="80" viewBox="0 0 101 80" fill="none" xmlns="http://www.w3.org/2000/svg">
<g clip-path="url(#clip0_291_1401)">
<path d="M27.1067 33.9119V34.4511H31.8836C32.2021 34.4511 32.6796 34.4511 32.9981 34.7595C33.3166 35.0678 33.3166 35.5304 33.3166 35.8384V40.4626C33.3166 40.7709 33.3166 41.2335 32.9981 41.5418C32.6796 41.8499 32.2021 41.8499 31.8836 41.8499H29.5748C29.1768 41.8499 28.6591 41.8499 28.4603 41.4263C28.2614 41.0024 28.5401 40.6168 28.7788 40.3087L31.8836 36.301H27.1067L25.1959 38.7672C24.8758 39.1802 24.5988 39.5381 24.5988 40.0004C24.5988 40.4626 24.8568 40.7959 25.1959 41.2335L25.6737 41.8502C26.1511 42.4666 26.6289 43.0833 27.266 43.3917C27.9027 43.6997 28.6591 43.6997 29.6941 43.6997H31.7642C32.9582 43.6997 34.7496 43.6997 35.9436 42.5439C37.1379 41.3877 37.1379 39.692 37.1379 39.0756V37.226C37.1379 36.6096 37.1379 34.914 35.9436 33.7578C34.7496 32.6016 32.9582 32.6031 31.7642 32.6025L28.4603 32.6016C28.1418 32.6016 27.7438 32.6016 27.4252 32.9102C27.1067 33.2186 27.1067 33.6036 27.1067 33.9119Z" fill="#C4151C"/>
<path d="M21.3738 36.3008H26.1504L20.4186 43.6996H15.6417L21.3738 36.3008Z" fill="#C4151C"/>
<path d="M2.74556 37.6112C2.74556 37.3028 2.74556 36.9175 3.06408 36.6091C3.3826 36.3008 3.7806 36.3008 4.09912 36.3008H12.1001C13.1352 36.3008 13.8913 36.3008 14.5283 36.6091C15.165 36.9175 15.6428 37.5339 16.1206 38.1506L16.5984 38.767C16.9375 39.2047 17.1952 39.5379 17.1952 40.0002C17.1952 40.4624 16.9182 40.8203 16.5984 41.2333L14.6879 43.6996H9.91038L13.0152 39.6918C13.2539 39.3838 13.5325 38.9982 13.3334 38.5742C13.1345 38.1506 12.6172 38.1506 12.2189 38.1506H8.47735V47.399H4.65573V38.1506H2.74524V37.6112" fill="#C4151C"/>
<path d="M41.6752 42.3675C41.3885 42.745 41.0964 43.1166 40.8097 43.4885V43.6997H41.6179C42.0136 43.1889 42.2199 42.9226 42.2199 42.6173H43.0107V43.6997H43.7674V42.6173H44.5583C44.5583 42.9223 44.7648 43.1889 45.1603 43.6994H45.9685V43.4885L45.0972 42.3675C45.8311 41.8346 45.8311 41.8346 45.8311 41.1353V40.9023H45.0055V41.1353C45.0055 41.9847 45.0055 41.9847 44.1458 41.9847H43.7674V40.9023H43.0107V41.9847H42.6323C41.7727 41.9847 41.7727 41.9847 41.7727 41.1353V40.9023H40.9471V41.1353C40.9471 41.8346 40.9471 41.8346 41.6752 42.3675Z" fill="#231F20"/>
<path d="M47.4013 42.0513C47.4013 41.4349 47.4013 41.4349 48.1062 41.4349C48.8112 41.4349 48.8112 41.4349 48.8112 42.0513H47.4013ZM47.4013 42.5506H48.1062C48.8456 42.545 49.0637 42.5559 49.3102 42.5008L49.6023 42.4341V42.1622C49.6023 41.7015 49.6023 40.8359 48.2439 40.8359H47.9689C46.6105 40.8359 46.6105 41.7015 46.6105 42.1675V42.4338C46.6105 42.9334 46.6217 43.7657 48.1178 43.7657C48.3414 43.7657 48.8459 43.7657 49.3961 43.6324V43.0331H49.2413L48.6912 43.1661H48.1066C47.4013 43.1664 47.4013 43.1664 47.4013 42.5506Z" fill="#231F20"/>
<path d="M50.8816 40.9027C50.8816 41.3244 50.8472 42.5952 50.1593 43.4829V43.6991H51.0019C51.501 43.0556 51.5009 42.2174 51.5009 41.5184H52.6872V43.6991H53.4439V40.9023L50.8816 40.9027Z" fill="#231F20"/>
<path d="M55.1855 42.0513C55.1855 41.4349 55.1855 41.4349 55.8904 41.4349C56.5953 41.4349 56.5953 41.4349 56.5953 42.0513H55.1855ZM55.1855 42.5506H55.8904C56.6298 42.545 56.8476 42.5559 57.094 42.5008L57.3862 42.4341V42.1622C57.3862 41.7015 57.3862 40.8359 56.0278 40.8359H55.7524C54.3937 40.8359 54.3937 41.7015 54.3937 42.1675V42.4338C54.3937 42.9334 54.4052 43.7657 55.901 43.7657C56.1246 43.7657 56.6291 43.7657 57.1796 43.6324V43.0331H57.0245L56.4744 43.1661H55.8898C55.1855 43.1664 55.1855 43.1664 55.1855 42.5506Z" fill="#231F20"/>
<path d="M60.1668 42.3457V42.2622C60.7514 42.118 60.7514 41.7685 60.7514 41.6352C60.7514 41.3689 60.7514 40.8359 59.3583 40.8359C59.1517 40.8359 58.6704 40.8359 58.1202 40.9696V41.5688H58.2747L58.8252 41.4355H59.4616C59.9027 41.4355 59.9255 41.4355 59.9255 41.7461C59.9255 42.0513 59.9255 42.0513 59.4616 42.0513H58.8252V42.5509H59.4616C59.9027 42.5509 59.9255 42.5509 59.9255 42.8559C59.9255 43.1667 59.9255 43.1667 59.4616 43.1667H58.8252L58.2747 43.0334H58.1202V43.633C58.6704 43.766 59.1517 43.766 59.3583 43.766C60.7453 43.766 60.7514 43.2334 60.7514 42.9671C60.7514 42.8337 60.7514 42.4843 60.1668 42.3457Z" fill="#231F20"/>
<path d="M63.8979 40.9033V41.9854H62.3848V40.9033H61.6281V43.6997H62.3848V42.618H63.8979V43.6997H64.6543V40.9033H63.8979Z" fill="#231F20"/>
<path d="M67.0457 42.3009C67.6476 42.3009 67.6477 42.3009 67.6477 42.7338C67.6477 43.1668 67.6476 43.1668 67.0457 43.1668H66.444V42.3012L67.0457 42.3009ZM69.7457 40.9027H68.989V43.6994H69.7457V40.9027ZM67.149 43.6991C68.0601 43.6991 68.4385 43.505 68.4385 42.7503C68.4385 42.3339 68.4385 41.7346 67.2519 41.7346C67.0801 41.7346 66.7876 41.7514 66.4434 41.8346V40.9023H65.6866V43.6991H67.149Z" fill="#231F20"/>
<path d="M71.4527 42.0513C71.4527 41.4349 71.4527 41.4349 72.1577 41.4349C72.8626 41.4349 72.8626 41.4349 72.8626 42.0513H71.4527ZM71.4527 42.5506H72.1577C72.897 42.545 73.1152 42.5559 73.3613 42.5008L73.6534 42.4341V42.1622C73.6534 41.7015 73.6534 40.8359 72.295 40.8359H72.02C70.6613 40.8359 70.6613 41.7015 70.6613 42.1675V42.4338C70.6613 42.9334 70.6728 43.7657 72.1689 43.7657C72.3925 43.7657 72.897 43.7657 73.4475 43.6324V43.0331H73.2928L72.7426 43.1661H72.158C71.4527 43.1664 71.4527 43.1664 71.4527 42.5506Z" fill="#231F20"/>
<path d="M76.8063 42.2017C76.8063 41.4526 76.8063 41.4691 77.832 41.4691C77.9697 41.4691 78.1588 41.4856 78.3882 41.5355V42.7343L77.6547 42.9115C76.8062 42.9115 76.8063 42.9116 76.8063 42.2017ZM76.359 44.1325V44.7651C76.9092 44.8985 77.3564 44.8985 77.5282 44.8985C79.0874 44.8985 79.1392 44.2434 79.1447 43.4999V40.9032H78.8979L78.5311 41.1695C78.2788 40.853 77.6656 40.8418 77.4706 40.8418C76.0148 40.8418 76.0148 41.7298 76.0148 42.1347V42.268C76.0148 42.734 76.0148 43.4999 77.2528 43.4999C77.6254 43.4999 78.0668 43.4003 78.3876 43.167V43.3999C78.3876 44.2602 78.3705 44.2655 77.4591 44.2655H77.0636L76.5131 44.1322L76.359 44.1325Z" fill="#231F20"/>
<path d="M81.4435 40.8359C79.9815 40.8359 79.9816 41.6682 79.9816 42.1675V42.4338C79.9816 42.9334 79.9815 43.7654 81.4435 43.7654H81.7183C83.1803 43.7654 83.1803 42.9331 83.1803 42.4338V42.1675C83.1803 41.6679 83.1803 40.8359 81.7183 40.8359H81.4435ZM81.5809 41.452C82.3894 41.452 82.3894 41.452 82.3894 42.3011C82.3894 43.1505 82.3894 43.1505 81.5809 43.1505C80.7727 43.1505 80.7727 43.1505 80.7727 42.3011C80.7727 41.452 80.7727 41.452 81.5809 41.452Z" fill="#231F20"/>
<path d="M86.3571 42.3008C86.3571 43.1331 86.3571 43.1331 85.5144 43.1331C85.3079 43.1331 85.0444 43.1331 84.7751 43.0664V41.6682L85.5086 41.491C86.3571 41.491 86.3571 41.5019 86.3571 42.3008ZM84.0187 40.9026V44.8312H84.7754V43.6162C85.119 43.6996 85.3944 43.7657 85.8069 43.7657C87.1482 43.7657 87.1482 42.8169 87.1482 42.4341V42.1675C87.1482 41.7015 87.1482 40.8359 85.8931 40.8359C85.2513 40.8359 84.8787 41.1079 84.6721 41.2577L84.3974 40.9026H84.0187Z" fill="#231F20"/>
<path d="M89.4221 40.8359C87.9601 40.8359 87.9601 41.6682 87.9601 42.1675V42.4338C87.9601 42.9334 87.9601 43.7654 89.4221 43.7654H89.6968C91.1588 43.7654 91.1588 42.9331 91.1588 42.4338V42.1675C91.1588 41.6679 91.1588 40.8359 89.6968 40.8359H89.4221ZM89.5595 41.452C90.368 41.452 90.368 41.452 90.368 42.3011C90.368 43.1505 90.368 43.1505 89.5595 43.1505C88.7512 43.1505 88.7513 43.1505 88.7513 42.3011C88.7513 41.452 88.7512 41.452 89.5595 41.452Z" fill="#231F20"/>
<path d="M93.3426 40.8359C93.0675 40.8359 92.7062 40.8359 92.1561 40.9692V41.5685H92.3108L92.861 41.4352H93.5659C93.9443 41.4352 93.9443 41.4352 93.9443 41.6461C93.9443 41.7906 93.9443 41.8348 93.6521 41.885L92.9639 42.0516C92.5685 42.1457 92.0187 42.2902 92.0187 42.8671C92.0187 43.2499 92.0187 43.766 93.4115 43.766C93.6862 43.766 94.0476 43.766 94.598 43.633V43.0334H94.4433C94.2142 43.0944 93.9961 43.1443 93.9105 43.1667H93.1882C92.8098 43.1667 92.8098 43.1667 92.8098 42.9558C92.8098 42.8281 92.8098 42.8004 92.9704 42.7559L93.3545 42.6562L93.7902 42.5506C94.1856 42.4562 94.7358 42.3176 94.7358 41.7349C94.7354 41.3517 94.7354 40.8359 93.3426 40.8359Z" fill="#231F20"/>
<path d="M98.2718 43.7769L98.8335 43.3717C98.6273 43.1054 98.6273 43.1054 98.6273 42.6338V40.9023H97.8706V42.9335L97.137 43.1107C96.3574 43.1107 96.3574 43.1107 96.3574 42.3395V40.9023H95.6007V42.4504C95.6007 42.9998 95.6007 43.7657 96.7529 43.7657C97.3545 43.7657 97.7271 43.4938 97.9336 43.344L98.2718 43.7769Z" fill="#231F20"/>
<path d="M40.9581 34.222V38.1506H41.7834V37.0686H42.4368C43.5546 37.0686 44.4316 37.0686 44.4316 35.6479C44.4316 34.2217 43.5546 34.2217 42.4368 34.2217H40.9581M41.7834 36.3693V34.9209H42.7808C43.5201 34.9209 43.5546 34.9209 43.5546 35.6476C43.5546 36.3525 43.5546 36.369 42.7808 36.369L41.7834 36.3693Z" fill="#231F20"/>
<path d="M46.5253 35.2871C45.0636 35.2871 45.0636 36.1197 45.0636 36.619V36.8856C45.0636 37.3849 45.0636 38.2175 46.5253 38.2175H46.8003C48.262 38.2175 48.262 37.3852 48.262 36.8856V36.619C48.262 36.1197 48.262 35.2871 46.8003 35.2871H46.5253ZM46.6626 35.9029C47.4709 35.9029 47.4708 35.9029 47.4708 36.752C47.4708 37.6011 47.4709 37.6011 46.6626 37.6011C45.8544 37.6011 45.8544 37.6011 45.8544 36.752C45.8544 35.9029 45.8544 35.9029 46.6626 35.9029Z" fill="#231F20"/>
<path d="M50.5128 38.2172C50.7194 38.2172 51.2522 38.2172 51.8027 38.0838V37.4849H51.6476L51.0916 37.6179H50.7647C49.8076 37.6179 49.8076 37.6179 49.8076 36.752C49.8076 35.8864 49.8076 35.8864 50.5125 35.8864C51.1083 35.8864 51.1083 35.8864 51.2518 36.4358L51.94 36.2692C51.94 36.0029 51.94 35.2871 50.6502 35.2871H50.3751C49.0167 35.2871 49.0167 36.1194 49.0167 36.6187V36.8853C49.0167 37.3846 49.0167 38.2172 50.5128 38.2172Z" fill="#231F20"/>
<path d="M54.1476 38.2172C54.3541 38.2172 54.8869 38.2172 55.4374 38.0838V37.4849H55.2827L54.7267 37.6179H54.3998C53.4423 37.6179 53.4423 37.6179 53.4423 36.752C53.4423 35.8864 53.4423 35.8864 54.1473 35.8864C54.7434 35.8864 54.7434 35.8864 54.8866 36.4358L55.5745 36.2692C55.5745 36.0029 55.5745 35.2871 54.285 35.2871H54.0099C52.6515 35.2871 52.6515 36.1194 52.6515 36.6187V36.8853C52.6518 37.3846 52.6518 38.2172 54.1476 38.2172Z" fill="#231F20"/>
<path d="M59.0202 38.2284L59.5819 37.8229C59.3757 37.5569 59.3757 37.5569 59.3757 37.085V35.3535H58.6186V37.3846L57.8851 37.5619C57.1055 37.5619 57.1055 37.5619 57.1055 36.7907V35.3535H56.3488V36.9019C56.3488 37.4513 56.3488 38.2169 57.5009 38.2169C58.1026 38.2169 58.4751 37.945 58.6817 37.7952L59.0202 38.2284Z" fill="#231F20"/>
<path d="M61.6801 34.3552C61.3076 34.3552 61.3076 34.3552 61.1242 34.1553L60.7918 34.4051C61.1528 34.8545 61.3362 34.8879 61.8635 34.8879H61.9897C62.5112 34.8879 62.7004 34.8545 63.0559 34.4051L62.7232 34.1553C62.5456 34.3552 62.5456 34.3552 62.1676 34.3552H61.6801ZM63.0787 38.2287L63.6405 37.8232C63.434 37.5572 63.4339 37.5572 63.4339 37.0853V35.3538H62.6772V37.385L61.9436 37.5622C61.1814 37.5622 61.1641 37.5622 61.1641 36.791V35.3538H60.4073V36.9022C60.4073 37.4516 60.4073 38.2172 61.5595 38.2172C62.1611 38.2172 62.5337 37.9453 62.7403 37.7955L63.0787 38.2287Z" fill="#231F20"/>
<path d="M65.8979 38.2172C66.1045 38.2172 66.6373 38.2172 67.1874 38.0838V37.4849H67.033L66.4767 37.6179H66.1498C65.1927 37.6179 65.1927 37.6179 65.1927 36.752C65.1927 35.8864 65.1927 35.8864 65.8976 35.8864C66.4934 35.8864 66.4934 35.8864 66.6369 36.4358L67.3248 36.2692C67.3248 36.0029 67.3248 35.2871 66.0353 35.2871H65.7602C64.4015 35.2871 64.4015 36.1194 64.4015 36.6187V36.8853C64.4015 37.3846 64.4015 38.2172 65.8979 38.2172Z" fill="#231F20"/>
<path d="M68.173 35.3535V38.1506H68.93V37.0685H69.8586C69.8586 37.3734 70.0651 37.6401 70.4602 38.1506H71.2688V37.9397L70.3975 36.8187C71.131 36.2861 71.131 36.2861 71.131 35.5868V35.3535H70.3058V35.5868C70.3058 36.4359 70.3058 36.4359 69.4461 36.4359H68.9303V35.3538L68.173 35.3535Z" fill="#231F20"/>
<path d="M74.7018 38.2284L75.2636 37.8229C75.057 37.5569 75.057 37.5569 75.057 37.085V35.3535H74.3003V37.3846L73.5667 37.5619C72.7868 37.5619 72.7868 37.5619 72.7868 36.7907V35.3535H72.0304V36.9019C72.0304 37.4513 72.0304 38.2169 73.1825 38.2169C73.7842 38.2169 74.1568 37.945 74.3633 37.7952L74.7018 38.2284Z" fill="#231F20"/>
<path d="M76.7594 36.5025C76.7594 35.8864 76.7594 35.8864 77.4643 35.8864C78.1692 35.8864 78.1692 35.8864 78.1692 36.5025H76.7594ZM76.7594 37.0018H77.4643C78.204 36.9962 78.4218 37.0074 78.6683 36.9516L78.9604 36.8853V36.6134C78.9604 36.1527 78.9604 35.2871 77.6017 35.2871H77.3263C75.9679 35.2871 75.9679 36.1527 75.9679 36.6187V36.8853C75.9679 37.3846 75.9792 38.2168 77.4756 38.2168C77.6989 38.2168 78.2037 38.2168 78.7538 38.0835V37.4846H78.5991L78.0486 37.6179H77.4643C76.7594 37.6179 76.7594 37.6179 76.7594 37.0018Z" fill="#231F20"/>
</g>
<defs>
<clipPath id="clip0_291_1401">
<rect width="100" height="80" fill="white" transform="translate(0.790161)"/>
</clipPath>
</defs>
</svg>
