<svg width="101" height="80" viewBox="0 0 101 80" fill="none" xmlns="http://www.w3.org/2000/svg">
<path d="M70.957 34H8.5752V53H70.957V34Z" fill="url(#paint0_linear_291_1386)"/>
<path d="M91.5328 34H72.2842V52.9324H91.5328V34Z" fill="url(#paint1_linear_291_1386)"/>
<path d="M19.7778 39.5846C19.0168 39.107 18.1293 39.083 17.3442 39.083H14.0732V47.9168H16.134V44.5434H17.6146C18.3997 44.5434 19.5074 44.5543 20.371 43.4727C20.7962 42.9319 20.951 42.354 20.951 41.7587C20.951 40.5506 20.2946 39.9051 19.7778 39.5846ZM18.5305 42.6724C18.1947 42.982 17.7455 42.9951 17.4358 42.9951H16.134V40.6247H17.4751C17.8087 40.6247 18.247 40.664 18.5545 40.9475C18.7747 41.1524 18.8903 41.4621 18.8903 41.7979C18.8903 42.1207 18.7616 42.4565 18.5305 42.6724Z" fill="white"/>
<path d="M26.0588 38.9521C25.3239 38.9521 24.347 39.0939 23.4965 39.8549C22.7093 40.5636 22.0791 41.8001 22.0791 43.4988C22.0791 44.9925 22.5697 46.2682 23.4049 47.0511C23.9065 47.5265 24.77 48.0433 26.0588 48.0433C27.3454 48.0433 28.2089 47.5265 28.7126 47.0533C29.5478 46.2682 30.0385 44.9925 30.0385 43.4988C30.0385 41.8001 29.4083 40.5615 28.6211 39.8549C27.7728 39.0939 26.7937 38.9521 26.0588 38.9521ZM27.3606 45.7143C27.1164 46.1134 26.6912 46.4994 26.0588 46.4994C25.4286 46.4994 25.0034 46.1134 24.7591 45.7143C24.5781 45.4178 24.2946 44.7876 24.2946 43.4726C24.2946 42.1599 24.589 41.5406 24.7591 41.268C25.132 40.677 25.5834 40.4982 26.0588 40.4982C26.5363 40.4982 26.9856 40.6792 27.3606 41.268C27.5285 41.5384 27.8229 42.1577 27.8229 43.4726C27.8229 44.7876 27.5416 45.4178 27.3606 45.7143Z" fill="white"/>
<path d="M35.3559 40.4982C35.9599 40.4982 36.3459 40.7294 36.6425 41.268C36.8235 41.5907 36.9151 41.9767 36.939 42.3234L38.8711 42.1708C38.7686 40.8166 38.0206 40.0468 37.8658 39.892C37.0677 39.107 36.0384 38.9521 35.3559 38.9521C34.6864 38.9521 33.5917 39.0416 32.6497 39.9814C31.9039 40.7294 31.374 41.9767 31.374 43.4857C31.374 44.3732 31.579 45.4309 32.0173 46.1897C32.4556 46.9508 33.4609 48.0433 35.3406 48.0433C36.5509 48.0433 37.3359 47.5548 37.8266 47.0794C38.3019 46.615 38.7664 45.8561 38.8689 44.8639L36.9761 44.6829C36.9369 45.0318 36.8082 45.5203 36.564 45.867C36.2172 46.3576 35.7659 46.4972 35.3406 46.4972C34.9023 46.4972 34.2852 46.3184 33.897 45.4679C33.6659 44.9773 33.5874 44.3471 33.5874 43.4574C33.5874 42.62 33.6659 42.0269 33.897 41.5144C34.222 40.8188 34.6733 40.4982 35.3559 40.4982Z" fill="white"/>
<path d="M44.0978 40.4982C44.7019 40.4982 45.0879 40.7294 45.3866 41.268C45.5676 41.5907 45.657 41.9789 45.6832 42.3234L47.6131 42.1708C47.5106 40.8166 46.7648 40.0468 46.61 39.892C45.8118 39.107 44.7804 38.9521 44.0978 38.9521C43.4262 38.9521 42.3337 39.0416 41.3938 39.9814C40.6481 40.7294 40.1182 41.9767 40.1182 43.4857C40.1182 44.3732 40.3253 45.4309 40.7615 46.1897C41.1998 46.9508 42.2029 48.0455 44.0848 48.0455C45.295 48.0455 46.0801 47.5548 46.5707 47.0794C47.0461 46.615 47.5106 45.8561 47.6131 44.8639L45.7203 44.6829C45.681 45.0318 45.5523 45.5203 45.3081 45.867C44.9614 46.3576 44.51 46.4972 44.0848 46.4972C43.6465 46.4972 43.0271 46.3184 42.6412 45.4679C42.41 44.9773 42.3315 44.3471 42.3315 43.4574C42.3315 42.62 42.4078 42.0269 42.6412 41.5144C42.9661 40.8188 43.4153 40.4982 44.0978 40.4982Z" fill="white"/>
<path d="M54.2953 39.7132L51.6284 43.9633C51.5521 44.0941 51.3711 44.4278 51.2795 44.7636C51.2926 44.648 51.3449 44.273 51.3449 43.6689V39.083H49.2842V47.9168H51.3449V47.2081L54.0096 42.9711C54.1121 42.8032 54.2822 42.4303 54.3585 42.173C54.3324 42.3256 54.2931 42.7007 54.2931 43.32V47.9168H56.3538V39.083H54.2931V39.7132H54.2953Z" fill="white"/>
<path d="M61.5947 39.083C60.8751 39.083 60.0508 39.1615 59.3792 39.65C58.8907 40.0076 58.3739 40.6553 58.3739 41.7608C58.3739 42.6636 58.6966 43.2175 59.0194 43.525C59.3552 43.8477 59.8676 44.0658 60.2689 44.1683L58.1318 47.9168H60.3735L62.19 44.3885H63.4003V47.9168H65.461V39.083H61.5947ZM63.3981 42.8424H61.8128C61.5293 42.8424 61.1062 42.8163 60.7813 42.559C60.4739 42.3016 60.4346 41.9527 60.4346 41.7347C60.4346 41.2571 60.6265 40.9998 60.8337 40.8602C61.0779 40.6923 61.5162 40.6291 61.8389 40.6291H63.3981V42.8424Z" fill="white"/>
<path fill-rule="evenodd" clip-rule="evenodd" d="M89.4369 37.2687C89.4369 37.2643 89.4347 37.2578 89.4326 37.2513C89.3999 37.0964 89.3192 36.9591 89.208 36.8631C88.8067 36.4902 88.0631 36.6058 88.0631 36.6058L88.0697 36.6102C88.0457 36.6123 88.0217 36.6145 87.9955 36.6189C87.6074 36.669 87.1603 36.9373 86.9008 37.2098C85.2152 38.974 85.2087 43.8717 81.5234 43.4443C81.9878 41.1481 82.4327 38.5269 83.8479 37.2796C83.8567 37.2731 83.8632 37.2665 83.8741 37.26C83.8741 37.2578 83.8741 37.2578 83.8741 37.2578C83.8828 37.2513 83.8915 37.2447 83.9003 37.2382C83.9024 37.2382 83.9024 37.2382 83.9046 37.236C83.9133 37.2295 83.9242 37.2229 83.9352 37.2186C83.9352 37.2164 83.9373 37.2164 83.9395 37.2142C83.9482 37.2077 83.9591 37.2011 83.97 37.1946C83.9809 37.1858 83.994 37.1793 84.0049 37.1728C84.0071 37.1728 84.0093 37.1728 84.0093 37.1706C84.0202 37.164 84.0311 37.1553 84.042 37.1488C84.0442 37.1488 84.0442 37.1466 84.0464 37.1466C84.0573 37.1401 84.066 37.1313 84.0769 37.1226C84.0769 37.1226 84.0769 37.1226 84.0791 37.1226C84.1947 37.0376 84.2819 36.9351 84.1772 36.7955C84.1379 36.7388 84.0769 36.7148 84.0093 36.7083C83.9918 36.7061 83.9722 36.7061 83.9548 36.7061C83.8676 36.7083 83.7738 36.7279 83.6909 36.7432C83.6887 36.7432 83.6887 36.7432 83.6887 36.7432C83.68 36.7454 83.6735 36.7475 83.6669 36.7475C83.6582 36.7497 83.6473 36.7497 83.6386 36.7519C83.6342 36.7519 83.6299 36.7519 83.6233 36.7541C83.6081 36.7563 83.595 36.7563 83.5841 36.7584C81.7414 36.8566 79.6044 36.4924 77.9057 37.0376C76.3792 37.5238 75.1406 38.6774 74.9858 40.4503C74.8571 41.9004 75.3914 43.1477 76.2462 43.7583C76.5515 43.9786 77.9754 44.5325 77.6745 43.5141C77.2754 43.3331 76.7085 43.5163 76.3465 43.3047C75.8776 43.03 75.6792 42.354 75.6487 41.6671C75.483 37.8335 79.648 36.7475 83.318 37.2098C81.6891 38.2456 80.8692 40.0185 80.2978 42.4347C79.7985 44.5477 79.5651 47.4436 78.272 48.7019C77.5001 49.4542 75.7643 49.7398 75.2365 48.3878C75.6116 48.4315 75.7991 48.1109 75.8166 47.7794C75.821 47.7489 75.8253 47.7162 75.8253 47.6813C75.8253 47.291 75.5069 46.9748 75.1101 46.9748C74.7175 46.9748 74.3992 47.291 74.3992 47.6813C74.3992 47.7009 74.3992 47.7206 74.4014 47.7402C74.3904 48.1502 74.6303 48.5797 74.8244 48.8043C75.3979 49.4716 76.3334 49.8423 77.4281 49.7442C80.2346 49.4934 80.8299 46.6281 81.4928 43.6842C82.557 43.7125 83.1065 44.1181 83.451 44.8334C84.0791 46.1418 83.7345 48.5012 84.7136 49.3255C85.3046 49.8249 86.3273 49.718 86.8703 49.2208C87.06 49.0486 87.4656 48.5383 87.2672 48.3857C87.0687 48.233 87.0491 48.5056 86.8027 48.7346C86.6544 48.8698 86.3404 49.0355 86.1049 49.0137C85.4834 48.9526 85.4442 48.076 85.3417 47.3062C85.0887 45.4309 84.6068 44.1683 83.1501 43.6842C85.5118 43.5119 86.2793 41.7303 86.8332 39.7503C86.9793 39.2269 87.1015 38.588 87.2977 38.0428C87.4656 37.5805 87.7055 36.9242 88.327 36.9285C88.2528 37.0267 88.2092 37.1335 88.1896 37.2404C88.1787 37.2905 88.1722 37.3429 88.1722 37.3974C88.1722 37.779 88.4578 38.0886 88.8067 38.0886C89.1578 38.0886 89.4435 37.779 89.4435 37.3974C89.4478 37.3581 89.4435 37.3123 89.4369 37.2687Z" fill="white"/>
<defs>
<linearGradient id="paint0_linear_291_1386" x1="39.7662" y1="23.7811" x2="39.7662" y2="63.8044" gradientUnits="userSpaceOnUse">
<stop stop-color="#0086FF"/>
<stop offset="0.1636" stop-color="#0077F0"/>
<stop offset="0.4807" stop-color="#004EC9"/>
<stop offset="0.9161" stop-color="#000D8B"/>
<stop offset="1" stop-color="#00007E"/>
</linearGradient>
<linearGradient id="paint1_linear_291_1386" x1="81.9083" y1="17.3853" x2="81.9083" y2="68.2843" gradientUnits="userSpaceOnUse">
<stop stop-color="#E60000"/>
<stop offset="0.8419" stop-color="#E00000"/>
<stop offset="1" stop-color="#BD0000"/>
</linearGradient>
</defs>
</svg>
