<svg width="101" height="80" viewBox="0 0 101 80" fill="none" xmlns="http://www.w3.org/2000/svg">
<g clip-path="url(#clip0_291_1320)">
<path d="M96.1647 34.1404H98.5083C98.0875 34.3752 97.5254 34.8207 96.8189 35.4758L94.4763 37.8698L95.7618 39.709C97.1061 41.6244 98.2818 43.0859 99.2895 44.094H95.9383C95.518 43.1195 94.9722 42.1282 94.3003 41.1201L92.7884 38.8522L94.0986 37.189C95.2733 35.6607 95.963 34.6447 96.1647 34.1404ZM92.6118 35.2489V42.9603L92.7127 43.5393C92.7795 43.6401 92.9307 43.7247 93.1651 43.7914V44.094H89.9153V43.7914L90.3682 43.5393C90.4354 43.4389 90.469 43.2461 90.469 42.9603V35.2489L90.3682 34.6946C90.3014 34.5774 90.1496 34.5018 89.9153 34.4682V34.1404H93.1651V34.4682C92.9303 34.5013 92.779 34.5774 92.7127 34.6946L92.6118 35.2489ZM87.773 35.2489V42.9603L87.8738 43.5393L88.3277 43.7914V44.094H85.0517V43.7914C85.2865 43.7247 85.4551 43.6401 85.556 43.5393L85.6312 42.9603V38.9535H81.8004V42.9603L81.9013 43.5393C81.969 43.6401 82.1193 43.7247 82.3541 43.7914V44.094H79.0529V43.7914C79.3224 43.7247 79.4895 43.6401 79.5572 43.5393L79.6581 42.9603V35.2489L79.5572 34.6946C79.4895 34.5774 79.3224 34.5018 79.0529 34.4682V34.1404H82.3541V34.4682C82.1188 34.5013 81.9685 34.5774 81.9013 34.6946L81.8004 35.2489V38.2979H85.6312V35.2489L85.556 34.6946C85.4551 34.5774 85.2865 34.5018 85.0517 34.4682V34.1404H88.3277V34.4682C88.0919 34.5013 87.9416 34.5774 87.8738 34.6946L87.773 35.2489ZM99.2895 47.5717H26.3618V46.5893H99.2895V47.5717ZM71.9229 34.4682V34.1404H74.7955C74.8281 34.5938 74.9473 35.0813 75.148 35.6019L77.2646 41.5487C77.6176 42.5905 77.9612 43.4389 78.2974 44.094H75.7774L74.6951 40.5159H71.4938L70.8134 42.8842L70.6117 44.094H68.7977L72.0228 36.6347C72.3422 35.8456 72.5014 35.3077 72.5014 35.0224C72.5019 34.703 72.3086 34.5186 71.9229 34.4682ZM73.107 35.8036L71.7464 39.8104H74.4682L73.107 35.8036ZM68.017 36.3079H67.4618L67.3357 35.8792C67.2017 35.3922 66.9995 35.0728 66.731 34.9216L65.3452 34.745H64.0097C63.7072 34.745 63.5054 34.7955 63.4046 34.8963C63.321 34.9804 63.2785 35.1312 63.2785 35.3497V37.7185H63.8327C65.446 37.7185 66.5634 37.8782 67.1844 38.1971C68.0753 38.6341 68.5203 39.491 68.5203 40.7676C68.5203 42.011 68.1673 42.901 67.4608 43.4384C66.8398 43.876 65.8742 44.0935 64.563 44.0935H60.5819V43.7909L61.0605 43.5388L61.1357 42.9598V35.2489L61.0605 34.6946C60.9933 34.5774 60.8341 34.5018 60.5819 34.4682V34.1404H68.016V36.3079H68.017ZM63.279 38.3484V42.6073C63.279 42.9435 63.3383 43.1615 63.455 43.2624C63.5905 43.3969 63.8253 43.4641 64.161 43.4641H64.4631C65.1024 43.4641 65.5721 43.2456 65.8747 42.809C66.1432 42.4061 66.2781 41.7594 66.2781 40.8689C66.2781 39.9953 66.1348 39.3743 65.849 39.0045C65.5469 38.5674 64.9837 38.3489 64.1605 38.3489H63.279V38.3484ZM59.7009 36.9877C59.7009 38.1471 59.3479 38.9783 58.6413 39.4826C58.0367 39.9196 57.0958 40.1377 55.8192 40.1377H54.8111V42.9598L54.9115 43.5388C54.9624 43.6396 55.1216 43.7242 55.39 43.7909V44.0935H52.114V43.7909L52.5679 43.5388L52.6688 42.9598V35.2489L52.5679 34.6946C52.5007 34.5774 52.3494 34.5018 52.114 34.4682V34.1404H56.2469C57.3722 34.1404 58.1949 34.308 58.7165 34.6447C59.3731 35.0813 59.7009 35.8629 59.7009 36.9877ZM54.9629 34.8459C54.862 34.9127 54.8116 35.0639 54.8116 35.2993V39.5078H55.8197C56.4412 39.5078 56.8783 39.2724 57.1299 38.8022C57.3484 38.3825 57.4572 37.7437 57.4572 36.8869C57.4572 35.459 56.8605 34.745 55.6684 34.745H55.4163L54.9629 34.8459ZM50.6036 36.3079H50.0746L49.9485 35.8792C49.7809 35.3922 49.5702 35.0728 49.3186 34.9216L47.958 34.745H46.849L46.446 34.8459L46.3452 35.2236V38.2979H47.6554C48.5626 38.2979 49.1589 38.1971 49.4447 37.9959V39.2556C49.1594 39.0539 48.5626 38.953 47.6554 38.953H46.3452V42.6824C46.3452 42.985 46.446 43.1952 46.6477 43.3123L47.9075 43.4636H48.1849L49.5455 43.2619C49.7809 43.1106 49.9658 42.7413 50.0998 42.1534L50.2006 41.7752H50.8305V44.0935H43.6481V43.7909C43.9003 43.7242 44.06 43.6396 44.1272 43.5388L44.2281 42.9598V35.2489L44.1272 34.6946C44.06 34.5774 43.9003 34.5018 43.6481 34.4682V34.1404H50.6031L50.6036 36.3079ZM42.0101 36.3079H41.4811L41.355 35.8792C41.2037 35.3922 40.9936 35.0728 40.7251 34.9216L39.3897 34.745H38.0038C37.7181 34.745 37.5163 34.7955 37.3987 34.8963C37.3482 34.9804 37.323 35.1312 37.323 35.3497V37.7185H37.8773C39.4737 37.7185 40.5901 37.8782 41.2289 38.1971C42.1021 38.6341 42.5391 39.491 42.5391 40.7676C42.5391 42.011 42.1861 42.901 41.4806 43.4384C40.8754 43.876 39.9093 44.0935 38.5828 44.0935H34.576V43.7909C34.845 43.7242 35.0131 43.6396 35.0803 43.5388L35.1812 42.9598V35.2489L35.0803 34.6946C35.0136 34.5774 34.8455 34.5018 34.576 34.4682V34.1404H42.0101V36.3079ZM31.9808 34.9468C31.6782 34.7287 31.2085 34.619 30.5698 34.619C29.5616 34.619 28.8477 34.9883 28.4279 35.728C28.0754 36.3667 27.8989 37.408 27.8989 38.8527C27.8989 40.2979 28.0922 41.3643 28.4784 42.053C28.9486 42.9099 29.755 43.3385 30.8976 43.3385C31.7376 43.3385 32.5692 43.1368 33.3924 42.7334L33.6945 43.3638C32.7368 43.9511 31.6115 44.2453 30.3176 44.2453C27.1588 44.2453 25.5801 42.5737 25.5801 39.2304C25.5801 35.7195 27.2181 33.9639 30.4941 33.9639C31.7539 33.9639 32.7205 34.1152 33.3919 34.4177V36.4844H32.762L32.5855 35.8792C32.4515 35.4595 32.2498 35.1485 31.9808 34.9468ZM37.3235 38.3484V42.6073C37.3235 42.9435 37.3739 43.1615 37.4748 43.2624C37.6093 43.3969 37.853 43.4641 38.206 43.4641H38.4834C39.6933 43.4641 40.2974 42.5989 40.2974 40.8689C40.2974 39.9953 40.155 39.3743 39.8693 39.0045C39.5504 38.5674 38.9788 38.3489 38.1556 38.3489H37.3235V38.3484Z" fill="#006236"/>
<path d="M16.9112 32.5535L17.7932 33.3599L6.65497 39.7607L1.26235 36.636L1.76616 35.6278L6.65497 38.4253L16.9112 32.5535ZM14.6685 31.2686L15.8531 31.8737L6.65497 37.165L2.37133 34.7211L3.10208 33.839L6.65497 35.88L14.6685 31.2686ZM18.5744 34.1916L19.2295 35.0736L6.65497 42.306L0.582031 38.8282L0.8594 37.7192L6.65547 41.0457L18.5744 34.1916Z" fill="url(#paint0_radial_291_1320)"/>
<path d="M20.3897 37.4423C20.759 38.4841 20.9439 39.5757 20.9439 40.7183C20.9439 41.8609 20.759 42.9694 20.3897 44.0443L20.1375 44.7256C19.6169 45.9513 18.8861 47.0434 17.9448 48.0016C16.9876 48.9415 15.8959 49.6643 14.6687 50.1687C13.3758 50.7234 12.0399 51.0003 10.662 51.0003C9.26722 51.0003 7.93179 50.7224 6.65521 50.1687C5.46217 49.6643 4.3789 48.942 3.4044 48.0016C2.44671 47.0434 1.71596 45.9518 1.21215 44.7256C0.675214 43.4312 0.40625 42.0958 0.40625 40.7183V40.0375L6.6557 43.5909L19.8349 36.0312L20.3897 37.4423Z" fill="url(#paint1_radial_291_1320)"/>
</g>
<defs>
<radialGradient id="paint0_radial_291_1320" cx="0" cy="0" r="1" gradientUnits="userSpaceOnUse" gradientTransform="translate(11.3423 40.9455) scale(11.7996)">
<stop stop-color="#52A347"/>
<stop offset="0.502" stop-color="#83B03E"/>
<stop offset="0.7059" stop-color="#2EA64C"/>
<stop offset="0.9294" stop-color="#264122"/>
<stop offset="0.9333" stop-color="#264122"/>
</radialGradient>
<radialGradient id="paint1_radial_291_1320" cx="0" cy="0" r="1" gradientUnits="userSpaceOnUse" gradientTransform="translate(11.343 40.9449) scale(11.7997)">
<stop stop-color="#52A347"/>
<stop offset="0.502" stop-color="#83B03E"/>
<stop offset="0.7059" stop-color="#2B9940"/>
<stop offset="0.9294" stop-color="#264122"/>
<stop offset="0.9333" stop-color="#264122"/>
</radialGradient>
<clipPath id="clip0_291_1320">
<rect width="100" height="80" fill="white" transform="translate(0.40625)"/>
</clipPath>
</defs>
</svg>
