<svg width="101" height="80" viewBox="0 0 101 80" fill="none" xmlns="http://www.w3.org/2000/svg">
<g clip-path="url(#clip0_291_1430)">
<path fill-rule="evenodd" clip-rule="evenodd" d="M16.6594 51.6154C17.1276 51.9225 17.6495 52.1866 18.2185 52.2568C18.6999 52.3222 19.2069 52.1124 19.486 51.7263C19.9311 51.1223 19.9963 50.3549 20.0294 49.6376C18.9848 50.4123 17.8576 51.0848 16.6594 51.6154ZM5.63795 30.6854C6.11193 30.1916 6.80392 29.9459 7.49096 29.918C8.27956 29.9507 9.0434 30.194 9.73704 30.5506C11.6495 31.559 13.1714 33.1219 14.5108 34.7565C16.178 34.321 17.9385 34.151 19.6512 34.4215L19.6528 34.4374C21.1367 34.6704 22.5934 35.2863 23.6429 36.3465C24.6958 37.3725 25.282 38.7973 25.3431 40.2325C25.4406 42.1034 24.7866 43.9399 23.8163 45.537C23.0863 46.7305 22.1557 47.8027 21.1095 48.7473C21.363 50.1434 21.5223 51.5707 21.3803 52.9868C21.2845 53.9968 21.0318 55.0395 20.3844 55.8612C19.9063 56.4803 19.1185 56.8728 18.3142 56.8449C16.9773 56.8417 15.7783 56.1468 14.7354 55.4033C13.7899 54.71 12.9385 53.901 12.1615 53.0354C12.0822 52.9588 12.0161 52.824 11.8791 52.8639C10.05 53.0019 8.13258 52.7642 6.52895 51.8579C5.25727 51.1511 4.26305 49.9887 3.81383 48.6372C3.22094 46.8996 3.49344 44.9953 4.17304 43.32C4.46454 42.5828 4.85182 41.8808 5.29938 41.221C5.36297 41.1173 5.46454 41.0096 5.40591 40.8811C4.71061 38.5261 4.19121 36.0641 4.44719 33.6061C4.57766 32.5634 4.86586 31.4657 5.63795 30.6854ZM20.1706 36.6968C18.8518 35.6748 17.0244 35.6525 15.4406 35.9708C16.818 37.8902 18.0005 39.9414 18.955 42.0874C19.1119 42.4552 19.2713 42.8214 19.4282 43.1891C20.3068 42.0411 21.0649 40.724 21.1755 39.2728C21.2614 38.3266 20.9187 37.3318 20.1706 36.6968ZM18.3498 42.8222C17.363 40.4831 16.1309 38.2373 14.6297 36.167C12.889 36.617 11.2804 37.4698 9.83778 38.5006C9.44554 38.7997 9.04009 39.0893 8.68832 39.434C8.70483 39.6573 8.81301 39.8624 8.88402 40.0738C9.64042 42.1616 10.6437 44.16 11.8031 46.0652C12.1607 46.6643 12.5578 47.2403 12.9649 47.8083C15.0541 47.0345 16.9435 45.7835 18.5 44.235C18.5934 44.1289 18.7156 44.0372 18.7692 43.9048C18.6586 43.5346 18.4976 43.1796 18.3498 42.8222ZM7.23167 45.5099C6.7808 44.5917 6.38857 43.6479 6.02605 42.6945C5.7552 43.2211 5.53638 43.7731 5.3993 44.3475C5.17139 45.2857 5.2614 46.3476 5.86173 47.1454C6.53885 48.0668 7.73456 48.4561 8.85842 48.5319C8.27213 47.5467 7.73456 46.5359 7.23167 45.5099ZM8.69079 32.0297C8.00706 32.4047 7.80145 33.2144 7.73043 33.9165C7.61152 35.2958 7.88072 36.6768 8.2325 38.0083C9.85099 36.7095 11.6908 35.6477 13.6924 35.0039C12.8502 33.9747 11.8923 32.999 10.7189 32.3209C10.1202 31.9914 9.35388 31.6954 8.69079 32.0297Z" fill="url(#paint0_radial_291_1430)"/>
<path fill-rule="evenodd" clip-rule="evenodd" d="M56.5042 37.8225C57.6198 37.8225 58.7354 37.8225 59.851 37.8225C59.851 42.1928 59.851 46.5639 59.851 50.9341C58.7354 50.9349 57.6206 50.9341 56.5058 50.9341C56.5017 46.5639 56.505 42.1928 56.5042 37.8225ZM61.0071 37.8217C62.1194 37.8209 63.2308 37.8257 64.3431 37.8193C64.3555 42.1912 64.3473 46.5631 64.3473 50.9349C63.235 50.9349 62.1218 50.9333 61.0095 50.9357C61.0029 46.5639 61.0087 42.1928 61.0071 37.8217ZM35.121 40.8429C36.6883 40.7735 38.3142 40.8094 39.7907 41.3775C40.5298 41.671 41.2465 42.1409 41.6115 42.8494C41.8163 43.2251 41.9022 43.6527 41.9014 44.0756C40.7998 44.0684 39.6974 44.074 38.595 44.0724C38.4893 43.632 38.1681 43.2515 37.7304 43.0855C36.9963 42.7959 36.1813 42.7856 35.4018 42.8366C34.9212 42.8861 34.3985 42.9587 34.0227 43.2802C33.8014 43.4613 33.7535 43.8043 33.9501 44.0197C34.1953 44.2862 34.5785 44.3588 34.9203 44.4434C35.7866 44.6141 36.6734 44.6276 37.5521 44.7034C38.4678 44.7712 39.4117 44.7744 40.282 45.0951C40.993 45.3401 41.6578 45.8012 41.9782 46.4785C42.3572 47.297 42.3184 48.2751 41.9369 49.0865C41.5421 49.9138 40.7131 50.4587 39.851 50.765C38.3803 51.2724 36.7882 51.3147 35.2432 51.2509C33.8609 51.1599 32.3993 50.9453 31.2589 50.1268C30.462 49.5707 29.9988 48.6437 29.9641 47.7023C31.1342 47.6991 32.3035 47.7031 33.4736 47.7007C33.5289 47.9919 33.6239 48.2943 33.8559 48.5025C34.2473 48.8679 34.808 48.9772 35.3283 49.0498C36.1458 49.1423 36.9881 49.1583 37.7924 48.9644C38.1119 48.8711 38.4538 48.7458 38.6611 48.4786C38.8691 48.2137 38.7775 47.7741 38.4596 47.6305C38.1004 47.4662 37.6966 47.4359 37.3076 47.3912C36.1491 47.3082 34.9922 47.2125 33.8345 47.1215C32.8312 47.029 31.7924 46.7178 31.0772 45.999C29.9988 44.9412 30.0723 43.0033 31.2597 42.0476C32.3225 41.1692 33.7717 40.9467 35.121 40.8429ZM69.5 40.9746C70.8667 40.7408 72.2862 40.7544 73.6412 41.052C74.9137 41.3392 76.1425 42.0029 76.8782 43.0712C77.6569 44.1673 77.8601 45.5395 77.8089 46.8415C74.7527 46.8431 71.6957 46.8415 68.6396 46.8423C68.6677 47.4343 68.8683 48.0414 69.3283 48.4522C70.0401 49.1224 71.1177 49.2596 72.0624 49.1032C72.8675 48.9772 73.6297 48.4905 73.9534 47.7502C75.1838 47.7358 76.415 47.7454 77.6462 47.7454C77.2209 48.812 76.4249 49.7359 75.4059 50.3198C74.1128 51.0722 72.5686 51.3027 71.0797 51.2716C69.6165 51.2261 68.0995 50.9262 66.9005 50.0725C65.9344 49.4112 65.254 48.386 65.0236 47.2651C64.7065 45.7828 64.9327 44.1195 65.922 42.906C66.7866 41.8298 68.1326 41.2075 69.5 40.9746ZM69.9707 43.1382C69.2994 43.4334 68.7833 44.0828 68.7643 44.8087C70.5463 44.8079 72.3291 44.8055 74.1111 44.8103C74.069 44.4529 73.9575 44.0979 73.7362 43.8059C73.3902 43.328 72.8204 43.044 72.2399 42.9292C71.486 42.7864 70.6759 42.8262 69.9707 43.1382ZM84.0533 40.9706C84.709 40.7632 85.4142 40.7903 86.088 40.8868C86.083 41.7452 86.0871 42.6029 86.0855 43.4613C85.2944 43.4278 84.4678 43.3608 83.7156 43.6496C83.0194 43.9033 82.4431 44.4513 82.1813 45.1255C81.9303 45.7206 81.9038 46.3732 81.9179 47.0074C81.9179 48.3166 81.9187 49.6258 81.9179 50.9341C80.8023 50.9341 79.6867 50.9349 78.5719 50.9341C78.571 47.6752 78.5719 44.4162 78.571 41.1565C79.6867 41.1541 80.8023 41.1565 81.9179 41.1557C81.9187 41.5713 81.9146 41.9862 81.922 42.4018C82.5108 41.7819 83.2077 41.2203 84.0533 40.9706ZM89.0648 41.1174C88.2771 41.3144 87.4909 41.6343 86.9195 42.2119C85.8824 43.2196 85.8989 45.0401 86.9517 46.0325C87.6462 46.7194 88.6437 47.0162 89.609 47.1151C90.808 47.2149 92.0079 47.3058 93.2077 47.3976C93.5966 47.4486 94.0136 47.4694 94.3588 47.6696C94.6916 47.8794 94.685 48.3828 94.3712 48.6086C93.794 49.0609 93.0029 49.0881 92.2928 49.1176C91.5306 49.0968 90.7296 49.0785 90.0335 48.7418C89.6189 48.5496 89.3572 48.1363 89.3151 47.7007C88.14 47.7023 86.9658 47.6991 85.7915 47.7023C85.8444 48.3693 86.0533 49.0434 86.4967 49.5675C86.9773 50.1587 87.6792 50.5408 88.4034 50.7897C89.3885 51.1184 90.434 51.2285 91.4703 51.2692C92.6784 51.2939 93.9022 51.2477 95.0764 50.9509C95.8592 50.7451 96.6421 50.4212 97.2151 49.8484C98.0583 49.0482 98.2614 47.7621 97.9071 46.7011C97.6412 45.9536 96.9649 45.4031 96.2143 45.1318C95.3126 44.7752 94.3241 44.7728 93.3671 44.7026C92.334 44.6045 91.2713 44.6276 90.2738 44.3141C89.9534 44.2168 89.5859 43.9623 89.6701 43.5905C89.7849 43.1581 90.2936 43.0041 90.6933 42.9124C91.5975 42.76 92.5545 42.756 93.434 43.0337C93.9286 43.1813 94.3192 43.5786 94.4241 44.0724C95.5248 44.074 96.6247 44.07 97.7255 44.074C97.7593 43.3975 97.481 42.7153 96.9881 42.2351C96.5843 41.8266 96.0648 41.5426 95.5248 41.3368C94.6288 41.0057 93.6677 40.878 92.7147 40.8294C91.4926 40.7879 90.2556 40.8286 89.0648 41.1174ZM47.6578 40.9068C46.1268 41.0855 44.5669 41.6471 43.5314 42.7935C42.6718 43.7158 42.3118 44.989 42.3605 46.212C42.3778 47.51 42.9203 48.8192 43.9435 49.6808C45.145 50.7299 46.7849 51.1464 48.3671 51.2469C49.8981 51.3362 51.4827 51.1942 52.8981 50.5895C54.0995 50.0797 55.1326 49.1407 55.59 47.9377C56.0566 46.6939 56.0492 45.2826 55.5595 44.0469C55.0442 42.7688 53.8733 41.8234 52.5628 41.3527C51.0037 40.7975 49.2961 40.7201 47.6578 40.9068ZM48.6957 43.1852C49.6982 43.068 50.8047 43.3153 51.5256 44.0325C52.3291 44.8375 52.4984 46.1012 52.1127 47.1311C51.8386 47.8659 51.2044 48.4546 50.4472 48.7155C49.6049 49.0027 48.6594 49.0003 47.8188 48.7099C47.0186 48.4371 46.3588 47.7909 46.1218 46.9995C45.8609 46.1602 45.9426 45.1989 46.4315 44.4497C46.9096 43.6942 47.8006 43.2642 48.6957 43.1852Z" fill="black"/>
</g>
<defs>
<radialGradient id="paint0_radial_291_1430" cx="0" cy="0" r="1" gradientUnits="userSpaceOnUse" gradientTransform="translate(8.77665 38.0041) scale(25.5948 24.7277)">
<stop stop-color="#FCEA00"/>
<stop offset="0.53" stop-color="#D2510B"/>
<stop offset="1" stop-color="#861A06"/>
</radialGradient>
<clipPath id="clip0_291_1430">
<rect width="100" height="80" fill="white" transform="translate(0.526733)"/>
</clipPath>
</defs>
</svg>
