<svg width="81" height="80" viewBox="0 0 81 80" fill="none" xmlns="http://www.w3.org/2000/svg">
<path d="M51.8809 40.0256C51.866 33.0385 57.5406 27.3462 64.525 27.334C67.9059 27.3259 71.0927 28.641 73.4855 31.0312C75.8865 33.4185 77.2057 36.5959 77.2125 39.9835C77.2233 46.9693 71.5514 52.6561 64.5684 52.667C57.58 52.6792 51.8904 47.01 51.8809 40.0256Z" fill="url(#paint0_radial_291_1312)"/>
<path d="M73.6211 48.8231L69.6607 44.8735C69.8032 44.4229 69.8819 43.9316 69.8819 43.4063L69.8683 33.0967L67.1593 33.1008L67.1701 43.4117C67.1769 45.1965 65.3433 45.3933 64.5561 45.3933C63.7716 45.3933 61.9407 45.2074 61.938 43.4199L61.9149 33.1143L59.2031 33.1157L59.2289 43.4307C59.233 46.2321 61.3761 48.1132 64.5656 48.1064C65.9378 48.1051 67.1321 47.7332 68.0388 47.0817L71.5296 50.5644C72.2829 50.0581 72.9859 49.4732 73.6211 48.8231Z" fill="white"/>
<path fill-rule="evenodd" clip-rule="evenodd" d="M7.94773 38.4556C7.94773 38.651 7.83101 38.7596 7.47541 38.7596C7.42655 38.7596 7.24875 38.7582 7.19174 38.7582L7.18767 38.1095L7.57584 38.1054C7.85679 38.1054 7.94366 38.2493 7.94366 38.4162M7.93144 37.4241C7.9328 37.5707 7.85272 37.6982 7.5772 37.6982H7.18767V37.097C7.23789 37.0929 7.39669 37.0929 7.45098 37.0929C7.80929 37.0929 7.93008 37.1825 7.93008 37.3711M8.5232 38.4692V38.4176C8.5232 38.1773 8.39698 37.9955 8.21239 37.9032C8.39562 37.8122 8.50284 37.6182 8.50284 37.3915V37.3291C8.50148 36.7767 8.06309 36.607 7.40619 36.6111C7.18224 36.6111 6.90401 36.6328 6.78729 36.6491C6.6502 36.6681 6.60406 36.7197 6.60406 36.8744L6.60949 38.9795C6.60949 39.1356 6.65835 39.1817 6.79814 39.2034C6.93115 39.2292 7.20124 39.2455 7.43062 39.2455C8.03188 39.2469 8.5232 39.0745 8.5232 38.4692ZM6.27968 37.0685V36.717C6.27968 36.6803 6.24575 36.6545 6.20639 36.6545L4.48269 36.6559C4.44333 36.6559 4.41211 36.6803 4.41211 36.7197V37.0712C4.41211 37.1065 4.44333 37.1363 4.48269 37.1363L5.05137 37.1336L5.0568 39.1505C5.0568 39.1871 5.09209 39.2143 5.12738 39.2143H5.57391C5.61056 39.2143 5.64449 39.1858 5.64449 39.1505L5.63634 37.1336L6.20639 37.1309C6.2471 37.1309 6.27968 37.1065 6.27968 37.0685ZM23.3972 44.0501V43.0906C23.3972 42.9738 23.2995 42.8802 23.1855 42.8802L21.075 42.8829C20.5877 42.8856 20.3991 42.7173 20.395 42.1785V41.0723L23.1041 41.0683C23.2126 41.0683 23.3117 40.9746 23.3117 40.866L23.3063 39.9024C23.3063 39.7965 23.2113 39.7029 23.1014 39.7029L20.3923 39.7083L20.3882 38.761C20.3882 38.2221 20.5782 38.0525 21.0668 38.0525H23.1774C23.2941 38.0511 23.3837 37.9561 23.3837 37.8408L23.3823 36.873C23.3823 36.7373 23.3199 36.6803 23.176 36.664C22.8109 36.6111 22.2897 36.5337 21.1686 36.5337C19.8155 36.5337 18.6347 36.8703 18.6401 38.7637L18.6442 42.1826C18.6469 44.0691 19.8209 44.4057 21.1741 44.403C22.2938 44.403 22.8258 44.3189 23.1869 44.2632C23.3321 44.2497 23.3986 44.1859 23.3972 44.0501ZM31.0195 44.0949L31.0059 36.8079C31.0073 36.6939 30.915 36.6097 30.7983 36.6097H29.4628C29.346 36.6097 29.2565 36.6952 29.2565 36.8147L29.2619 39.5359L26.7021 39.54L26.6967 36.816C26.6967 36.7007 26.6044 36.6138 26.489 36.6138L25.1521 36.6165C25.0368 36.6165 24.9445 36.7034 24.9458 36.8187L24.9581 44.1058C24.9581 44.2144 25.0517 44.3067 25.1684 44.3067L26.5053 44.3039C26.618 44.3039 26.7116 44.2117 26.7089 44.099L26.7062 41.0615L29.2646 41.0561L29.27 44.0963C29.27 44.2089 29.3596 44.2985 29.479 44.2958H30.8119C30.9272 44.2985 31.0195 44.2049 31.0195 44.0949ZM42.6904 39.0731C42.6904 39.7857 42.2724 40.1318 41.3115 40.1318C41.1934 40.1318 40.5596 40.1264 40.4401 40.1141L40.4347 37.9819C40.565 37.9629 41.1568 37.9453 41.3061 37.9453C42.2113 37.9398 42.6891 38.2344 42.6904 38.9795M44.4426 39.0718V38.9795C44.4426 37.0305 42.9022 36.4944 41.2871 36.4971C40.5121 36.4984 39.6801 36.5541 39.1521 36.6328C38.8264 36.6844 38.6839 36.7753 38.6839 37.1255L38.6961 44.0909C38.6961 44.2008 38.7897 44.2849 38.9024 44.2849L40.2433 44.2809C40.3587 44.2809 40.4483 44.1899 40.4483 44.0786L40.4469 41.546C40.7102 41.5569 41.0618 41.5786 41.3128 41.5786C42.9103 41.5718 44.4426 41.0086 44.4426 39.0718ZM37.6456 37.8503L37.6429 36.7916C37.6429 36.679 37.5397 36.5962 37.4216 36.5962L32.2424 36.6057C32.1297 36.6057 32.0347 36.6844 32.0347 36.797V37.8584C32.0415 37.9697 32.1311 38.0498 32.2465 38.0498L33.9674 38.0443L33.9756 44.0909C33.9756 44.2008 34.0665 44.2917 34.1805 44.2917H35.5174C35.6369 44.2877 35.7251 44.1981 35.7251 44.0868L35.7169 38.0403H37.4243C37.5411 38.0416 37.6456 37.9561 37.6456 37.8503ZM17.7538 44.4193C17.7538 44.4152 17.7538 44.4125 17.7538 44.4125C17.7538 44.4085 17.7538 44.4085 17.7538 44.4044L17.7511 43.1069C17.7511 42.9956 17.6547 42.9087 17.5434 42.9087H16.934L16.9259 36.8391C16.9232 36.7197 16.8417 36.6342 16.7318 36.6342L15.3529 36.6355C15.2443 36.6355 15.1723 36.721 15.1723 36.8418L15.1832 42.9155L13.3129 42.8965C12.8243 42.8992 12.6207 42.7377 12.6207 42.1975L12.6085 36.85C12.6085 36.736 12.5176 36.6396 12.4063 36.6396L11.0667 36.6437C10.9527 36.6437 10.8604 36.7387 10.8604 36.8554L10.8672 42.2016C10.8726 44.0786 12.048 44.4207 13.4093 44.4207C13.8545 44.4193 15.5537 44.3976 16.3667 44.3569L16.3694 45.5811C16.3694 45.7277 16.4319 45.8336 16.5377 45.8336H17.3887C17.4946 45.8336 17.5801 45.7494 17.6194 45.592C17.6914 45.3097 17.7497 44.874 17.7511 44.4437H17.7538V44.4193Z" fill="black"/>
<defs>
<radialGradient id="paint0_radial_291_1312" cx="0" cy="0" r="1" gradientUnits="userSpaceOnUse" gradientTransform="translate(57.1479 32.3421) scale(20.3483)">
<stop stop-color="#ED1C24"/>
<stop offset="1" stop-color="#C1272D"/>
</radialGradient>
</defs>
</svg>
