<svg width="81" height="80" viewBox="0 0 81 80" fill="none" xmlns="http://www.w3.org/2000/svg">
<path d="M55.0701 24.5425C55.2555 25.91 57.3322 27.7549 57.8931 27.7085C58.2686 27.7085 58.4123 25.9239 58.4123 24.5425C58.4123 23.7498 58.454 23.1333 58.0368 22.985C57.3739 24.3246 55.6356 24.5981 55.0701 24.5425ZM55.186 23.9352C56.6832 23.9352 58.0507 22.7393 58.0507 21.687C58.0507 21.1957 57.8189 20.797 57.2302 20.7228C57.3322 20.8526 57.3739 20.9546 57.3739 21.1818C57.3739 21.9744 56.1641 22.8505 54.8522 22.8505C54.3748 22.8505 54.2311 23.1797 54.2311 23.3512C54.2357 23.7637 54.6251 23.9352 55.186 23.9352ZM54.8708 22.3082C54.6668 22.3082 54.3794 22.3082 54.2218 21.993C54.092 21.7334 54.1337 21.3162 53.8927 21.1308C54.1384 21.2049 54.3979 21.2049 54.5973 21.2049C55.2462 21.2049 55.8628 20.7599 56.3402 20.7599C56.6554 20.7599 56.7574 20.9639 56.7574 21.1632C56.7574 21.789 55.4734 22.3082 54.8708 22.3082ZM22.6633 33.5956C23.15 33.5956 23.0527 30.6011 23.8407 30.6011C24.0308 30.6011 24.0864 30.7865 24.0864 31.0183C24.0864 31.6951 23.7573 32.6871 23.7573 33.2341C23.7573 33.5076 23.8314 33.5956 23.9566 33.5956C24.3043 33.5956 24.9069 30.2998 25.4956 30.2998C25.681 30.2998 25.7691 30.4852 25.7691 30.6753C25.7691 31.366 24.893 33.3546 24.893 33.9155C24.893 34.0036 24.9208 34.0731 24.9949 34.0731C25.3565 34.0731 26.075 32.5202 26.3068 31.7414C26.4366 31.3381 26.6081 31.1203 26.7657 31.1203C26.9094 31.1203 27.0392 31.2779 27.0392 31.6116C27.0392 32.3904 26.3207 34.2168 25.6856 35.4406C25.1943 36.3908 24.434 37.7583 24.434 38.5232C24.434 38.9125 24.5082 39.3158 25.0691 39.8026C24.1466 39.7469 23.7758 39.6589 23.4281 38.9404C21.8892 42.0044 26.2651 41.7031 24.7678 44.4242C24.4943 43.9374 22.3342 43.4322 22.3342 40.5813C22.3342 38.1199 24.4943 36.6782 24.4943 35.6584C24.4943 35.4591 24.4201 35.283 24.2347 35.1253C23.7573 34.7221 23.7434 34.3929 23.3725 34.3929C23.099 34.3929 22.7699 35.028 23.1129 35.5889C23.2288 35.7743 23.3308 35.8902 23.3308 36.0664C23.3308 36.4696 22.6957 37.5497 22.2507 37.5497C21.8057 37.5497 21.4581 36.4418 21.4581 34.6572C21.4581 33.0718 21.8196 31.4772 22.2646 31.4772C22.3944 31.4772 22.4361 31.5653 22.4361 31.6812C22.4361 31.8666 22.3805 32.2421 22.3805 32.8771C22.3759 33.54 22.5335 33.5956 22.6633 33.5956ZM44.719 19.4434C44.9508 19.4434 44.9925 20.0043 45.0342 20.3381C45.062 20.5096 45.0898 20.5235 45.164 20.5235C45.3355 20.5235 45.609 19.8606 45.7991 19.8606C46.0726 19.8606 46.805 20.6255 48.0288 20.6255C49.7717 20.6255 51.4127 19.4017 51.4127 17.2416C51.4127 15.1556 49.9432 13.9318 47.9129 13.9318C46.9487 13.9318 46.2441 14.4046 45.8686 14.4046C45.6368 14.4186 45.2938 13.8438 45.1177 13.8438C45.0435 13.8438 44.974 13.9875 44.974 14.2331C44.974 14.3907 44.974 14.896 44.8024 14.896C44.4594 14.896 43.1198 13.904 43.1198 14.2609C43.1198 14.5947 44.0098 15.6006 44.0098 15.8602C44.0098 16.1198 43.1337 16.3655 43.1337 16.537C43.1337 16.8522 44.07 16.9125 44.07 17.3157C44.07 17.719 43.0919 18.0342 43.0919 18.3356C43.0919 18.5812 44.07 18.4097 44.07 18.711C44.07 19.0123 43.3515 20.0182 43.3515 20.3103C43.3515 20.3844 43.3654 20.3844 43.4257 20.3844C43.6992 20.3798 44.5197 19.4434 44.719 19.4434ZM26.2512 40.725C26.2373 40.4376 26.4366 40.1641 26.7425 40.1363C27.0438 40.0946 27.3173 40.3217 27.3451 40.6277C27.373 40.929 27.1597 41.1886 26.8538 41.2349C26.5525 41.2396 26.279 41.0263 26.2512 40.725ZM24.6519 41.17C24.7075 41.6614 25.1711 42.0322 25.6903 41.9766C25.8757 41.9627 26.0518 41.9024 26.1631 41.8329C26.279 42.2965 26.6359 42.5839 27.169 42.5236C27.7021 42.4819 28.0775 42.0322 28.0173 41.5038C28.0173 41.3601 27.9756 41.272 27.9292 41.1747L28.0312 41.1608C28.5365 41.1051 28.9212 40.6416 28.8795 40.1363C28.8239 39.6171 28.3464 39.2417 27.8597 39.288C27.6743 39.3297 27.512 39.39 27.4008 39.4874C27.271 39.0563 26.8955 38.7086 26.3624 38.7689C25.8571 38.7967 25.4678 39.288 25.528 39.8211C25.528 39.8953 25.5558 40.0112 25.6022 40.1085L25.5002 40.1224C24.9949 40.1873 24.6102 40.6091 24.6519 41.17ZM56.7296 14.7662C56.7296 14.9702 56.8872 15.1278 57.0912 15.1278C57.2905 15.1278 57.4527 14.9702 57.4527 14.7662C57.4527 14.5669 57.2951 14.4046 57.0912 14.4046C56.8872 14.4046 56.7296 14.5623 56.7296 14.7662ZM48.6963 28.4131C48.6963 28.7423 48.9698 29.0158 49.2989 29.0158C49.628 29.0158 49.9015 28.7423 49.9015 28.4131C49.9015 28.084 49.628 27.8105 49.2989 27.8105C48.9698 27.8105 48.6963 28.084 48.6963 28.4131ZM48.738 30.2256C48.738 30.6011 49.0393 30.9024 49.4148 30.9024C49.7902 30.9024 50.0916 30.6011 50.0916 30.2256C50.0916 29.8548 49.7902 29.5488 49.4148 29.5488C49.0393 29.5535 48.738 29.8548 48.738 30.2256ZM46.6659 31.4494C46.6659 31.9964 47.1109 32.4414 47.6579 32.4414C48.2049 32.4414 48.6499 31.9964 48.6499 31.4494C48.6499 30.9024 48.2049 30.4574 47.6579 30.4574C47.1109 30.4574 46.6659 30.9024 46.6659 31.4494ZM47.1944 29.4237C47.1944 29.7389 47.454 29.9985 47.7692 29.9985C48.0844 29.9985 48.344 29.7389 48.344 29.4237C48.344 29.1085 48.0844 28.8489 47.7692 28.8489C47.454 28.8442 47.1944 29.1038 47.1944 29.4237ZM45.3077 30.5733C45.3077 30.8885 45.5673 31.1481 45.8825 31.1481C46.1977 31.1481 46.4573 30.8885 46.4573 30.5733C46.4573 30.2581 46.1977 29.9985 45.8825 29.9985C45.5673 29.9985 45.3077 30.2581 45.3077 30.5733ZM46.7957 27.2033C46.7957 27.7085 47.2129 28.1257 47.7182 28.1257C48.2234 28.1257 48.6406 27.7085 48.6406 27.2033C48.6406 26.698 48.2234 26.2808 47.7182 26.2808C47.2129 26.2808 46.7957 26.698 46.7957 27.2033ZM47.8711 25.4325C47.8711 25.7338 48.1168 25.9795 48.4181 25.9795C48.7194 25.9795 48.9651 25.7338 48.9651 25.4325C48.9651 25.1312 48.7194 24.8855 48.4181 24.8855C48.1168 24.8855 47.8711 25.1312 47.8711 25.4325ZM45.266 26.8139C45.266 27.1152 45.5117 27.3609 45.813 27.3609C46.1143 27.3609 46.36 27.1152 46.36 26.8139C46.36 26.5126 46.1143 26.2669 45.813 26.2669C45.5117 26.2669 45.266 26.5126 45.266 26.8139ZM45.1965 28.6866C45.1965 29.178 45.5858 29.5674 46.0772 29.5674C46.5639 29.5674 46.9533 29.178 46.9533 28.6866C46.9533 28.1999 46.5639 27.8105 46.0772 27.8105C45.5858 27.8105 45.1965 28.1999 45.1965 28.6866ZM43.384 29.6091C43.384 30.0541 43.7595 30.4296 44.2045 30.4296C44.6495 30.4296 45.0249 30.0541 45.0249 29.6091C45.0249 29.1641 44.6495 28.7886 44.2045 28.7886C43.7548 28.7886 43.384 29.1641 43.384 29.6091ZM43.8707 27.5787C43.8707 27.894 44.1303 28.1535 44.4455 28.1535C44.7607 28.1535 45.0203 27.894 45.0203 27.5787C45.0203 27.2635 44.7607 27.0039 44.4455 27.0039C44.1303 27.0039 43.8707 27.2635 43.8707 27.5787ZM41.9562 48.8001C41.9562 49.1153 42.2158 49.3749 42.531 49.3749C42.8463 49.3749 43.1059 49.1153 43.1059 48.8001C43.1059 48.4802 42.8463 48.2253 42.531 48.2253C42.2158 48.2253 41.9562 48.4802 41.9562 48.8001ZM26.4644 24.9458C26.4644 25.261 26.724 25.5206 27.0392 25.5206C27.3544 25.5206 27.614 25.261 27.614 24.9458C27.614 24.6306 27.3544 24.371 27.0392 24.371C26.724 24.3663 26.4644 24.6259 26.4644 24.9458ZM25.7181 23.6478C25.7181 23.9631 25.9777 24.2226 26.2929 24.2226C26.6081 24.2226 26.8677 23.9631 26.8677 23.6478C26.8677 23.3326 26.6081 23.073 26.2929 23.073C25.9777 23.073 25.7181 23.3326 25.7181 23.6478ZM26.3346 37.8139C26.9372 37.8139 27.4425 37.3689 27.4425 36.3723V34.9028C27.4425 34.3419 27.4842 33.7069 27.8597 33.2619C27.818 33.4473 27.818 33.6513 27.818 33.8367C27.818 35.0744 28.5087 35.9227 28.5087 37.1186C28.5087 37.5636 28.3789 37.8093 28.0358 37.8093C27.7021 37.8093 27.7345 37.508 27.6604 37.508C27.6047 37.508 27.5167 37.6934 27.5167 37.8974C27.5167 38.1987 27.7345 38.6761 28.3371 38.6761C28.8563 38.6761 29.2735 38.2033 29.2735 37.6702C29.2735 36.3769 28.2676 34.9353 28.2676 33.5539C28.2676 32.9467 28.4252 32.548 28.555 32.2282C28.555 35.0929 30.9886 37.1835 30.9886 38.3748C30.9886 38.6483 30.7893 38.8662 30.4834 38.8662C30.1543 38.8662 29.9966 38.6066 29.9966 38.4026C29.9966 38.3007 29.9827 38.2729 29.941 38.2729C29.8529 38.2729 29.5934 38.5603 29.5934 38.9357C29.5934 39.4085 29.9827 39.988 30.7012 39.988C31.5217 39.988 31.9667 39.2973 31.9667 38.6761C31.9667 37.165 29.0139 34.875 29.0139 32.4275C29.0139 32.0103 29.0835 31.3335 29.3894 30.8143C27.4888 32.0381 26.9001 33.6652 26.9001 35.0883C26.9001 36.3259 26.8584 36.9471 26.2233 36.9471C25.8942 36.9471 25.8062 36.6458 25.6903 36.6458C25.6022 36.6458 25.5605 36.9054 25.5605 36.9749C25.5605 37.5126 25.9452 37.8139 26.3346 37.8139ZM51.2875 23.43C51.9226 23.43 52.3954 23.1426 52.3954 22.9711C52.3954 22.9154 52.3073 22.8691 52.1219 22.8691C51.9365 22.8691 51.561 22.8552 50.8564 22.7393C50.2492 22.6373 49.7902 22.4102 49.6187 22.4102C49.5631 22.4102 49.5353 22.438 49.5353 22.4797C49.5307 22.8552 50.2213 23.43 51.2875 23.43ZM48.1493 21.6036C48.3347 21.4877 49.1413 21.6731 50.1935 21.1586C50.3233 21.089 50.4531 21.0612 50.569 21.0612C51.0743 21.0612 50.9445 21.636 51.4034 21.636C51.765 21.636 52.2239 21.3347 52.4974 21.3347C52.9285 21.3347 53.5496 22.6883 53.5496 23.3234C53.5496 24.0558 52.4418 24.5054 51.1299 24.5054C49.2154 24.5054 48.0612 22.8366 48.0612 21.7566C48.0612 21.6592 48.1029 21.6314 48.1493 21.6036ZM26.6359 43.2421C26.1631 43.358 25.3982 44.1043 25.3982 45.2864C25.3982 46.6956 26.9094 48.8696 29.3987 48.8696C31.5032 48.8696 32.0177 47.4141 32.0177 46.436C32.0177 44.2619 30.6781 42.7368 28.9351 42.7368C27.9848 42.7368 27.1365 43.4275 27.1365 44.452C27.1365 45.4023 27.855 46.8254 29.5702 46.8254C30.3768 46.8254 30.8496 46.2506 30.8496 45.5877C30.8496 44.9433 30.2609 44.0487 29.394 44.0487C29.1344 44.0487 28.949 44.2202 28.949 44.4937C28.949 44.8367 29.4265 45.1844 30.0152 45.1844C30.1589 45.1844 30.2748 45.1566 30.3304 45.1288C30.3582 45.1705 30.3721 45.2446 30.3721 45.3003C30.3721 45.6294 30.0569 45.8334 29.5655 45.8334C28.8331 45.8334 28.1239 45.2864 28.1239 44.4242C28.1239 43.905 28.5689 43.5295 29.2179 43.5295C30.4973 43.5295 31.2621 44.6698 31.2621 45.8055C31.2621 46.83 30.7012 47.4187 29.547 47.4187C27.2571 47.4187 26.1353 45.342 26.6359 43.2421ZM25.1989 27.5927C24.8698 27.6807 24.1791 28.084 24.1791 28.8025C24.1791 29.3217 24.5824 29.6508 25.0877 29.6508C25.3472 29.6508 25.5327 29.5952 25.6485 29.5071C25.2453 29.1177 25.1016 28.6866 25.1016 28.2555C25.0969 27.9542 25.1386 27.7642 25.1989 27.5927ZM21.6713 27.7966C21.6574 27.8708 21.6574 27.9403 21.6574 28.0145C21.6574 28.6913 22.0189 29.0667 22.4918 29.0667C22.8487 29.0667 23.2705 28.8489 23.6414 28.3761C23.4838 28.4039 23.2937 28.4178 23.1222 28.4178C22.5937 28.4131 22.0189 28.2694 21.6713 27.7966ZM21.166 29.076C21.166 30.17 21.4951 30.6892 22.0885 30.6892C22.5474 30.6892 23.1686 30.36 23.901 29.725C23.3401 29.8548 22.909 29.9429 22.5196 29.9429C22.0004 29.9382 21.5971 29.7389 21.166 29.076ZM43.078 51.6787C43.7687 51.6787 43.727 51.6231 43.9449 51.6231C44.1627 51.6231 44.1767 51.7529 44.1767 51.841C44.1767 52.1562 43.4721 52.5456 42.2205 52.5456C41.4881 52.5456 41.0384 52.1562 40.9086 51.7251C40.1901 52.184 39.0961 52.6058 38.0161 52.6058C35.0633 52.6058 34.3169 51.3264 33.3945 50.9046C32.6899 50.5894 31.6098 51.2059 30.0986 49.5232C30.298 49.5649 30.5715 49.5788 30.7893 49.5788C32.1151 49.5788 32.8197 48.9299 32.8197 47.8962C32.8197 47.7664 32.8058 47.6227 32.7919 47.4929C33.1951 47.6505 34.1176 48.3412 34.3308 49.5649C34.3587 49.7086 34.952 49.8384 35.3228 49.8384C35.842 49.8384 36.5049 49.6206 36.6022 48.7723C38.3313 48.6286 39.4948 47.6041 39.7405 46.3108C40.3616 46.5148 41.0662 47.0757 41.2377 47.3631C41.4834 47.275 41.7708 47.2333 42.0999 47.2333C42.5635 47.2333 43.078 47.3214 43.6992 47.5068C43.727 47.3214 43.7548 47.0896 44.0469 47.0896C44.478 47.0896 44.3621 47.567 44.5058 47.8405C44.5799 47.9842 44.9369 48.0723 44.9369 48.3597C44.9369 48.6332 44.7051 48.7352 44.5614 48.7352C44.5058 48.7352 44.4316 48.7213 44.3899 48.7074C44.1025 48.8093 44.0886 50.8814 42.8787 50.8814C41.9887 50.8814 41.1636 50.149 40.8066 49.2265C40.7047 48.953 40.4914 48.7815 40.2875 48.7815C40.0557 48.7815 39.9259 48.8233 39.6524 49.1246C38.8736 49.9729 37.5803 50.7099 35.9811 50.7099C35.4897 50.7099 35.105 50.6682 35.003 50.6682C34.9474 50.6682 34.9474 50.6821 34.9474 50.696C34.9474 50.798 35.4387 51.1874 36.5003 51.1874C39.0312 51.1874 39.6524 49.7596 40.0557 49.7596C40.1159 49.7596 40.2875 49.7596 40.3848 49.9914C40.9735 51.3728 42.2576 51.6926 43.0641 51.6926H43.078V51.6787ZM34.901 22.7393C35.8513 22.7393 36.2824 23.5598 36.2824 24.4822C36.2824 24.8855 36.1665 25.4742 35.9811 25.4742C35.7957 25.4742 35.8235 25.1451 35.7957 24.8392C35.7678 24.4498 35.6937 24.3663 35.5639 24.3663C35.3182 24.3663 35.1606 24.9411 35.1606 25.4742C35.1606 25.8033 35.2162 26.1788 35.4758 26.1788C35.6195 26.1788 35.7493 26.1047 35.8374 26.0212C35.7818 26.6841 35.2904 27.2589 34.5997 27.2589C33.3342 27.2589 32.8568 25.7755 32.7131 24.9133C31.9528 25.7199 31.2436 26.3086 29.9781 26.3086C28.7961 26.3086 28.2676 25.4464 28.2676 24.6259C28.2676 24.3802 28.3557 23.7498 28.657 23.7498C29.0186 23.7498 28.6987 24.9319 29.4079 24.9319C29.5795 24.9319 29.8993 24.7882 30.0708 24.3107C30.1728 24.0233 30.2284 23.722 30.2284 23.4624C30.2284 23.073 30.1403 22.8274 29.8529 22.8274C29.6073 22.8274 29.306 23.0128 29.204 23.1148C29.5516 22.0764 30.386 21.548 31.3039 21.548C32.4396 21.548 33.0468 22.5539 33.0468 23.6803C33.0468 23.8379 33.0329 24.014 33.0051 24.1717C33.4918 23.3604 34.1686 22.7393 34.901 22.7393ZM31.29 14.159C31.29 14.0709 30.8589 13.9875 30.2655 13.9875C29.3291 13.9875 29.4589 14.7662 28.7404 14.7662C27.9941 14.7662 28.1795 13.9596 27.2293 13.9596C26.6545 13.9596 26.1214 14.0616 26.1214 14.1914C26.1214 14.3629 26.7982 14.2934 26.7982 14.7662C26.7982 15.2715 25.3426 15.4152 25.3426 15.7165C25.3426 15.8185 25.4585 15.8602 25.6022 15.8602C25.9174 15.8602 26.4227 15.7165 26.7796 15.7165C26.9836 15.7165 27.169 15.7582 27.169 15.9483C27.169 16.3098 26.3902 16.9542 26.3902 17.2462C26.3902 17.3343 26.4644 17.3621 26.5339 17.3621C26.8213 17.3621 27.3127 16.6297 27.7716 16.6297C28.5365 16.6297 28.0312 18.2567 28.4484 18.2567C28.8795 18.2567 28.6941 16.6575 29.3106 16.6575C29.8159 16.6575 30.1913 17.7654 30.5344 17.7654C30.6224 17.7654 30.692 17.6912 30.692 17.5939C30.692 17.2926 30.2609 16.6714 30.2609 16.2681C30.2609 16.0224 30.4324 15.9065 30.6642 15.9065C30.9933 15.9065 31.4429 16.1059 31.6886 16.1059C31.7767 16.1059 31.8601 16.0781 31.8601 15.9761C31.8601 15.6284 30.5807 15.2576 30.5807 14.8079C30.5854 14.3629 31.29 14.3629 31.29 14.159ZM51.8021 42.5051C51.5007 42.5051 49.8273 44.7394 48.7519 44.7394C48.4923 44.7394 48.2744 44.248 48.2744 43.8772C48.2744 43.6732 48.4042 43.5295 48.8678 43.4322C51.3431 42.8713 50.7961 41.0124 52.9099 41.0124C54.0781 41.0124 55.3714 41.8051 55.3714 43.5898C55.3714 45.4903 52.6643 47.8498 52.261 47.8498C51.9319 47.8498 51.5703 47.3723 51.5703 47.0571C51.5703 46.9551 51.612 46.8254 51.904 46.7095C53.2854 46.1625 54.0781 44.897 54.0781 44.248C54.0781 44.1043 54.0086 43.9606 53.8185 43.9606C53.5728 43.9606 52.5252 46.3479 51.357 46.3479C50.5505 46.3479 49.73 45.6155 49.73 45.2678C49.73 44.693 52.0616 43.6269 52.0616 42.8203C52.0616 42.5236 51.9179 42.5051 51.8021 42.5051ZM53.3596 41.615C53.1556 41.615 52.9424 41.7727 52.9424 42.162C52.9424 42.5931 53.2761 42.8666 53.4616 42.9547C53.5635 43.0103 53.7211 43.0706 53.8788 43.0706C54.296 43.0706 54.6297 42.9547 54.6297 42.6117C54.6251 42.162 53.9761 41.615 53.3596 41.615ZM34.6739 15.6284C34.6739 15.888 35.5824 16.4489 35.9996 16.4489C36.2453 16.4489 36.3148 16.1198 36.3148 15.7721C36.3148 15.341 36.1294 15.3271 35.7539 15.3271C35.2765 15.3271 34.6739 15.4569 34.6739 15.6284ZM36.1711 18.4793C36.1711 17.617 33.8117 16.0178 33.8117 15.3688C33.8117 15.341 33.8117 15.3271 33.8256 15.2947C33.9971 14.8172 35.9579 14.4881 35.9579 14.0987C35.9579 13.9133 35.6149 13.9133 35.4387 13.9133C34.0991 13.9133 32.1429 14.4046 32.1429 14.8775C32.1429 15.3688 33.8997 16.5602 33.8997 17.1535C33.8997 17.3111 33.7978 17.3667 33.6402 17.3667C33.1488 17.3667 32.0826 16.778 31.582 16.778C31.3502 16.778 31.2668 16.9356 31.2668 17.1674C31.2668 17.8581 32.0873 19.1699 32.0873 19.5593C32.0873 19.601 32.0734 19.6613 32.0177 19.6613C31.7581 19.6613 30.5344 18.2197 30.1033 18.2197C29.9457 18.2197 29.9318 18.4329 29.9318 18.7527V19.2441C29.9318 19.5732 29.9178 19.7772 29.7602 19.7772C29.3848 19.7772 29.2132 18.7249 28.8517 18.7249C28.4762 18.7249 28.4067 20.5977 28.0451 20.5977C27.6279 20.5977 27.9895 18.5395 27.5816 18.5395C27.1365 18.5395 26.6313 19.907 26.3161 19.907C26.2002 19.907 26.1724 19.7911 26.1724 19.6891C26.1724 19.2719 26.418 18.5951 26.418 18.1919C26.418 17.9879 26.3624 17.8766 26.1863 17.8766C25.7413 17.8766 24.7632 18.5951 24.3877 18.5951C24.3321 18.5951 24.2579 18.5673 24.2579 18.5071C24.2579 18.1594 25.8293 17.0654 25.8293 16.5787C25.8293 16.1012 23.6692 16.4211 23.6692 15.8741C23.6692 15.4152 25.2082 14.9377 25.2082 14.4649C25.2082 14.0477 23.3818 13.8623 22.6772 13.8623C21.8289 13.8623 21.3653 13.9643 21.3653 14.2053C21.3653 14.5808 23.2937 14.6967 23.2937 15.0258C23.2937 15.341 21.2912 16.1893 21.2912 16.6807C21.2912 17.1118 24.1142 16.7085 24.1142 17.1581C24.1142 17.6449 21.6527 19.7633 21.6527 20.4679C21.6527 20.6255 21.7686 20.6997 21.9262 20.6997C22.6772 20.6997 24.6195 19.2766 25.1525 19.2766C25.338 19.2766 25.3565 19.5083 25.3565 19.7077C25.3565 20.0831 25.2267 20.6579 25.2267 21.0751C25.2267 21.4043 25.3148 21.636 25.6022 21.636C26.1353 21.636 26.622 20.7275 26.9836 20.7275C27.4425 20.7275 27.169 23.3883 27.8643 23.3883C28.453 23.3883 28.6987 20.5096 29.0742 20.5096C29.4497 20.5096 29.751 21.344 30.0986 21.344C30.5297 21.344 30.3304 19.8884 30.7893 19.8884C31.2946 19.8884 32.7316 21.6175 33.3806 21.6175C33.5845 21.6175 33.6541 21.4599 33.6541 21.2559C33.6541 20.4957 32.5879 18.7667 32.5879 18.2197C32.5879 18.076 32.6296 18.0342 32.7872 18.0342C33.3481 18.0342 34.9891 18.813 35.7678 18.813C36.0089 18.813 36.1711 18.6693 36.1711 18.4793ZM55.821 35.0512C56.0528 34.3327 56.3402 33.8274 56.813 33.0486C56.3402 32.803 55.0886 32.2838 55.0886 31.4355C55.0886 30.4435 56.3263 29.6647 56.5859 29.6647C56.7018 29.6647 56.7296 29.7667 56.7296 29.9521C56.7296 30.4713 56.4839 31.3057 56.4839 31.7507C56.4839 32.154 56.7435 32.5434 56.9753 32.5434C57.221 32.5434 57.8977 31.6812 57.8977 30.8329C57.8977 29.3078 56.5581 28.8442 56.1409 28.8442C55.7515 28.8442 55.0469 29.4793 53.3874 29.4793C50.2909 29.4793 49.5863 26.4106 49.5863 25.0756C49.5863 25.0199 49.6002 25.0014 49.6141 25.0014C49.6883 25.0014 49.9896 25.3769 50.9677 25.3769C51.4729 25.3769 51.9319 25.2471 52.6689 25.2471C54.3933 25.2471 55.1582 26.443 56.2243 27.9681C56.8687 28.3714 58.4123 29.0204 58.4123 30.8468C58.4123 32.4599 56.6971 33.3499 56.2799 35.079C56.9428 35.0095 57.3322 33.8274 58.009 33.8274C58.3567 33.8274 58.5143 34.1009 58.5143 34.532C58.5143 35.1671 58.1527 36.1173 57.462 36.7061C57.4759 36.6504 57.4759 36.5763 57.4759 36.4928C57.4759 36.0895 57.3183 35.5147 56.8548 35.5147C56.1363 35.5147 55.9045 36.2935 55.5012 36.9378C55.084 35.4684 54.5231 34.1426 53.5126 33.3407C52.4927 32.5202 50.7359 32.9652 50.7359 31.4679C50.7359 31.0646 50.9955 30.4898 50.9955 30.0309C50.9955 29.8733 50.9677 29.7296 50.8796 29.6137C52.261 30.1329 51.7742 31.0507 52.6225 32.001C53.1556 32.6036 54.6251 33.1831 55.4734 35.6723C55.4873 35.6028 55.5012 35.4127 55.5012 35.283C55.5012 33.1506 52.6828 31.0646 52.4371 30.2024C54.0781 30.3879 54.3655 30.7911 55.1443 32.9513C55.3019 33.3963 55.821 34.5042 55.821 35.0512ZM24.8976 23.3187C24.9671 23.0869 25.0274 22.7995 25.0274 22.4843C25.0274 21.7936 24.7122 20.7414 23.7294 20.7414C23.1686 20.7414 22.7653 21.1864 22.7653 21.7195C22.7653 22.8552 23.901 23.3187 24.8976 23.3187ZM23.6738 26.9437C23.201 26.9437 22.6818 26.355 22.6818 25.8219C22.6818 25.5345 22.8997 25.1729 23.0527 25.1729C23.1083 25.1729 23.1407 25.2146 23.1546 25.3166C23.2427 26.0212 23.7016 26.4245 24.1327 26.6285C24.1745 26.6563 24.2069 26.6702 24.2069 26.7026C24.2069 26.8 23.9334 26.9437 23.6738 26.9437ZM25.3704 25.5901C25.3704 25.7894 25.2545 26.049 25.0228 26.049C24.5175 26.049 24.1142 25.2842 24.1142 24.8531C24.1142 24.5796 24.2718 24.5518 24.4897 24.5518C24.5917 24.5518 24.6334 24.5657 24.7075 24.6074C24.8373 24.6816 24.8373 24.969 24.9949 25.1822C25.083 25.3305 25.3704 25.4928 25.3704 25.5901ZM24.8651 24.0789C24.7817 24.065 24.6658 24.065 24.5499 24.065C24.0771 24.065 23.442 24.1531 22.8812 24.5239C21.6157 25.3444 21.815 26.6377 21.6157 26.9715C21.5878 27.0132 21.5739 27.0735 21.5739 27.1291C21.5739 27.2589 21.7176 27.4026 21.8474 27.4026C21.9633 27.4026 22.0329 27.3748 22.0931 27.3748C22.4408 27.3748 22.8255 27.6205 23.3864 27.6205C23.7155 27.6205 24.1049 27.5185 24.5963 27.2728C25.6346 26.7536 26.0379 25.4742 26.0379 25.2564C26.0379 24.9829 25.8201 25.0246 25.6346 24.765C25.4353 24.4637 25.5327 24.3478 25.4029 24.1763C25.3148 24.1114 25.1247 24.1114 24.8651 24.0789ZM26.3949 26.3967C26.0796 26.7722 25.7459 27.4026 25.7459 28.0516C25.7459 28.8257 26.2187 29.4747 26.9558 29.4747C27.6604 29.4747 27.9941 28.8721 27.9941 28.2509C27.9941 27.2913 27.1134 26.6146 26.3949 26.3967ZM23.3123 23.6339C23.3123 23.6339 22.8951 23.9491 22.3759 23.9491C21.7594 23.9491 21.268 23.4856 21.268 22.8413C21.268 22.3963 21.4998 21.9327 22.0329 21.7056C22.0189 21.7936 22.0189 21.8632 22.0189 21.9512C22.0189 22.7717 22.4779 23.3883 23.3123 23.6339ZM48.9234 32.0103C48.9234 31.7229 49.183 31.4772 49.4704 31.4772C49.7856 31.4772 50.0313 31.7229 50.0313 32.0103C50.0313 32.3394 49.7856 32.5712 49.4704 32.5712C49.183 32.5758 48.9234 32.344 48.9234 32.0103ZM49.2989 48.5683C49.3731 48.5683 49.4565 48.61 49.4565 48.8696C49.4565 49.1848 49.3128 49.602 48.7936 49.9358C48.432 50.1815 47.9453 50.3808 47.2222 50.3947C47.3381 50.047 47.4261 49.6901 47.4261 49.3424C47.4261 49.2265 47.4122 49.1385 47.3983 49.0133H47.5837C48.7241 49.0179 49.2108 48.5683 49.2989 48.5683ZM49.4148 47.1452C49.5307 47.0432 49.5585 46.8856 49.5585 46.728V46.3989C49.5585 45.9817 48.928 45.736 48.0612 45.736C47.0089 45.736 46.448 46.2135 46.448 46.4128V47.0757C46.448 47.3492 47.0831 47.6227 47.8619 47.6227C48.4784 47.618 49.0393 47.4604 49.4148 47.1452ZM50.1611 47.3028C49.7856 47.5902 48.9095 48.2392 47.454 48.2392C46.6752 48.2392 46.3322 47.9935 46.2163 47.9935C46.0726 47.9935 45.915 48.1372 45.7574 48.3226C45.4097 48.7259 44.9647 49.4722 44.9647 50.2927C44.9647 50.8675 45.4097 51.447 46.2441 51.447C48.9373 51.447 50.9538 49.7596 50.9538 48.3968C50.9538 47.618 50.4948 47.3028 50.1611 47.3028ZM50.6664 35.1949C50.6664 35.5564 50.7822 35.9736 51.1438 35.9736C51.4451 35.9736 51.7047 35.5147 51.7047 35.0095C51.7047 34.4347 51.6027 33.985 51.6027 33.7579C51.6027 33.6559 51.6444 33.6142 51.7047 33.6142C51.9179 33.6281 52.1219 34.2168 52.3537 34.2168C52.6133 34.2168 53.0027 33.7393 53.1603 33.7393C53.202 33.7393 53.2159 33.795 53.2159 33.8135C53.2159 34.0314 52.8868 34.5042 52.8868 34.6896C52.8868 34.8472 53.7211 34.875 53.7211 35.0234C53.7211 35.2366 52.8404 35.2366 52.4278 35.4267C52.0246 35.5982 51.7789 35.816 51.7789 36.1034C51.7789 36.3908 52.0663 36.4511 52.4696 36.4511C53.4338 36.4511 54.1105 35.9319 54.3238 35.9319C54.3655 35.9319 54.3979 35.9597 54.3979 36.0061C54.3979 36.1498 53.9066 36.6272 53.9066 36.8405C53.9066 37.0862 54.8012 37.3736 54.7873 37.5173C54.7734 37.559 54.7178 37.5729 54.6158 37.5729C54.4582 37.5729 54.2125 37.5312 54.0271 37.5312C53.9112 37.5312 53.8092 37.5451 53.7675 37.6007C53.6655 37.7166 53.7953 38.4814 53.596 38.4814C53.4106 38.4814 52.9192 36.7802 51.8113 36.7802C51.6537 36.7802 51.5378 36.91 51.5378 37.1279C51.5378 37.7027 52.0987 38.3656 52.6318 38.6808C52.8775 38.8384 53.2808 38.996 53.2808 39.0841C53.2808 39.2556 52.3583 39.098 52.3583 39.3854C52.3583 39.645 52.4742 40.0343 52.4742 40.2661C52.4742 40.3403 52.4603 40.4237 52.3722 40.4237C52.2007 40.4237 51.7835 39.6311 51.5796 39.6311C51.408 39.6311 51.0326 40.1039 50.875 40.1039C50.8332 40.1039 50.8008 40.0622 50.8008 40.0158C50.8008 39.682 51.3339 38.9357 51.3339 38.2033C51.3339 37.8557 51.2921 37.1093 50.875 37.1093C50.5273 37.1093 50.1425 37.6563 49.9664 38.2033C49.8644 38.5185 49.9386 39.7423 49.7068 39.7423C49.4889 39.7423 49.5492 38.9218 49.2618 38.9218C49.0486 38.9218 48.585 39.3112 48.4274 39.3112C48.3996 39.3112 48.3718 39.2973 48.3718 39.2695C48.3718 39.098 48.789 38.5371 48.789 38.4212C48.789 38.2033 47.8387 38.1755 47.8387 38.004C47.8387 37.902 48.2142 37.8325 48.5572 37.7722C49.2896 37.6424 50.3697 37.1093 50.3697 36.363C50.3697 35.5286 49.5631 35.1671 49.03 34.824C48.7565 34.6525 48.4552 34.5088 48.4552 34.3929C48.4552 34.277 48.8029 34.277 48.9466 34.277C49.1598 34.277 49.3777 34.2631 49.3777 34.0916C49.3777 33.9618 49.3499 33.7022 49.3499 33.5029C49.3499 33.3592 49.3638 33.2433 49.424 33.2433C49.6419 33.2433 49.9432 33.9479 50.0869 33.9479C50.3187 33.9479 50.6339 33.3731 50.8518 33.3731C50.9213 33.3731 50.9538 33.4148 50.9538 33.5446C50.9398 34.0684 50.6664 34.6757 50.6664 35.1949ZM43.7965 30.9766C43.9541 32.2003 45.5951 31.5792 45.5951 33.0625C45.5951 33.2804 45.5395 33.5956 45.5395 33.8691C45.5395 34.1843 45.5673 34.4578 45.813 34.4578C46.0587 34.4578 46.1143 34.2863 46.1143 34.0545C46.1143 33.8228 46.0587 33.5354 46.0587 33.3778C46.0587 32.8725 46.4202 32.7566 46.6335 32.7566C47.1805 32.7566 47.5977 33.3175 48.4181 33.3175C48.2327 34.24 46.3322 33.9943 46.3322 35.0002C46.3322 35.5055 46.8374 35.6167 47.1666 35.6167C47.4679 35.6167 47.5698 35.575 47.5698 35.3154C47.5698 35.1717 47.542 35.0141 47.542 34.9121C47.542 34.8565 47.5837 34.7962 47.6579 34.7962C47.9731 34.7962 49.5307 35.9783 49.5307 36.3352C49.5307 36.6643 47.8897 36.9981 47.4122 36.9981C47.2685 36.9981 47.2407 36.8961 47.2407 36.8405C47.2407 36.7385 47.4864 36.4372 47.4864 36.2657C47.4864 36.1359 47.2732 36.0478 46.6937 36.0478C46.4202 36.0478 46.2163 36.0756 46.2163 36.2935C46.2163 36.6829 46.8513 37.1557 46.8513 37.5173C46.8513 37.8047 46.6798 37.9762 46.2163 37.9762C45.8269 37.9762 45.2382 37.6749 45.2382 37.1696C45.2382 36.7663 45.6554 36.363 45.6554 36.1173C45.6554 36.0432 45.5998 35.9319 45.4236 35.9319C44.8905 35.9319 44.7468 37.3411 42.8602 37.5034C43.1615 37.2299 43.4211 36.9286 43.4211 36.3074C43.4211 36.0061 43.3469 35.7604 43.3469 35.4313C43.3469 35.0002 43.5462 34.7823 43.8383 34.7823C44.3713 34.7823 44.6309 35.5286 44.974 35.5286C45.1594 35.5286 45.3633 35.3571 45.3633 35.0975C45.3633 34.0036 43.2635 34.1612 43.2635 32.6222C43.2681 32.2142 43.4118 31.6951 43.7965 30.9766ZM46.5361 40.3356C46.5361 40.535 46.6798 40.6972 46.8792 40.6972C47.1109 40.6972 47.2546 40.4979 47.2546 40.2661C47.2546 39.9648 46.9811 39.5476 46.7215 39.5476C46.6057 39.5476 46.652 39.7191 46.6196 39.9092C46.6057 40.0436 46.5361 40.2198 46.5361 40.3356ZM45.7852 38.4212C47.2963 38.7086 48.1168 39.8443 48.1168 40.9105C48.1168 41.6429 47.6533 42.3196 46.8467 42.3196C46.1143 42.3196 45.5812 41.8144 45.5812 41.0124C45.5812 40.4098 46.0587 39.7748 46.0587 39.1536C46.0587 38.9079 45.9891 38.6622 45.7852 38.4212ZM43.8707 40.8687C44.0144 41.0124 44.0561 41.1561 44.0561 41.2998C44.0561 41.5177 43.9541 41.7448 43.9541 41.9905C43.9541 42.3336 44.2137 42.6395 44.5892 42.6395C44.9925 42.6395 45.266 42.3243 45.266 41.9488C45.266 41.4018 44.7051 40.8687 43.8707 40.8687ZM48.636 39.9463C48.738 40.1039 48.7797 40.2615 48.7797 40.4098C48.7797 40.8131 48.5062 41.1886 48.5062 41.6058C48.5062 42.0786 48.8678 42.468 49.4101 42.468C49.9988 42.468 50.4021 41.9905 50.4021 41.4296C50.4068 40.6648 49.7161 40.0158 48.636 39.9463ZM44.2184 39.1814C44.8812 39.2695 45.0389 39.4966 45.0389 39.6867C45.0389 40.0065 44.7515 40.1039 44.478 40.1039C44.2786 40.1039 44.0469 40.0622 43.8012 40.0622C43.486 40.0622 43.1661 40.1363 42.9065 40.4376C43.0919 40.4654 43.3654 40.5952 43.3654 40.8826C43.3654 41.717 41.0477 41.0263 41.0477 43.1726C41.0477 44.3129 42.2297 45.546 44.0144 45.546C44.9369 45.546 45.5256 45.2446 45.5256 44.9016C45.5256 44.6281 45.0342 44.8135 45.0342 44.5864C45.0342 44.4844 45.2057 44.299 45.2057 44.1414C45.2057 44.0719 45.1501 43.9421 45.0342 43.9421C44.7746 43.9421 44.2879 44.3593 43.2913 44.3593C42.5125 44.3593 41.7523 43.9143 41.7523 43.307C41.7523 43.1772 41.8079 43.103 41.896 43.103C41.9841 43.103 42.0953 43.1633 42.1973 43.1633C42.2854 43.1633 42.2993 43.103 42.2993 42.9454C42.2993 42.7878 42.2993 42.3382 42.5728 42.3382C42.8463 42.3382 43.3654 43.3487 45.3494 43.3487C46.0123 43.3487 47.2917 43.2189 47.7692 42.7878C47.7553 44.3732 46.5176 46.4591 43.9263 46.4591C41.2331 46.4591 39.7961 44.299 39.7961 42.3104C39.7961 40.1085 41.5947 38.106 44.0561 38.106C44.6866 38.106 45.2196 38.3238 45.2196 38.5973C45.2243 38.9682 44.2879 38.7364 44.2184 39.1814ZM33.7931 24.4405C33.7931 24.1948 33.7375 24.1392 33.6772 24.1392C33.5335 24.1392 33.3759 24.3107 33.1442 24.7001C33.172 25.2193 33.26 25.451 33.4037 25.451C33.5613 25.4464 33.7931 24.9458 33.7931 24.4405ZM31.823 25.0292C31.9806 25.0292 32.1846 24.8577 32.5554 24.4405C32.5833 24.2551 32.5833 24.0789 32.5833 23.8657C32.5833 23.5783 32.4674 23.2585 32.2959 23.2585C31.8648 23.2585 31.6469 24.4127 31.6469 24.714C31.6469 24.8855 31.735 25.0292 31.823 25.0292ZM34.1686 26.3133C34.5302 26.3133 34.9335 24.9319 34.9335 24.0697C34.9335 23.8842 34.9056 23.6803 34.8176 23.6803C34.5163 23.6803 34.011 25.1034 34.011 25.8822C34.011 26.1835 34.0805 26.3133 34.1686 26.3133ZM30.641 25.5206C31.1323 25.5206 31.6932 22.8737 31.6932 22.4241C31.6932 22.3082 31.6515 22.2247 31.5495 22.2247C31.1045 22.2247 30.4834 24.7418 30.4834 25.3027C30.4834 25.4047 30.5112 25.5206 30.641 25.5206ZM32.2078 26.6146C31.5866 26.6146 31.5588 27.3655 31.5588 28.8767C31.0999 27.8847 30.335 26.8185 29.4404 26.8185C28.8331 26.8185 28.606 27.2218 28.606 27.9264C28.606 28.0701 28.6199 28.288 28.6477 28.4178C28.7219 28.1721 28.949 28.0747 29.2411 28.0747C29.8622 28.0747 30.6085 28.5476 31.0999 29.1965C30.539 29.0946 29.992 28.9926 29.5285 28.9926C29.2411 28.9926 28.9815 29.0204 28.7636 29.1224C28.3464 29.3078 27.7855 29.9289 27.7855 30.8653C27.7855 31.009 27.7994 31.1666 27.8319 31.3381C28.3371 30.2163 29.6722 29.7111 30.539 29.7111C30.7105 29.7111 30.8403 29.725 30.9423 29.7389C30.4973 30.1422 30.3953 30.8468 30.3675 31.3196C30.3536 31.5514 30.2655 31.5653 30.1079 31.5653C30.1079 32.0381 30.4834 32.7473 30.4834 33.1043C30.4834 33.2341 30.4138 33.3499 30.3397 33.3778C30.3397 34.0128 30.9747 34.4717 30.9747 34.875C30.9747 34.977 30.9469 35.0604 30.9052 35.1068C30.9469 35.3664 31.6423 35.8114 31.7257 35.9968C31.8694 36.2981 31.9714 36.3259 32.0409 36.3259C32.2866 36.3259 32.676 36.0385 32.676 35.7789C32.676 35.6909 32.6018 35.5935 32.5462 35.5472C32.2727 35.3478 32.129 34.9121 32.0131 34.6247C31.9111 34.6247 31.7813 34.5691 31.7396 34.4207C31.6793 34.2353 31.6515 33.5585 31.5356 33.2248C31.3502 33.1831 31.2621 33.1089 31.2621 32.7195C31.2621 32.5341 31.378 31.7971 31.378 31.5375C31.29 31.5375 31.1741 31.4818 31.1741 31.3057C31.1741 30.8468 31.633 30.4852 31.7628 29.8965C32.5833 30.4991 32.7826 31.1203 32.7826 31.6673C32.7826 31.9547 32.7409 32.2282 32.6806 32.4877C33.2879 32.1864 34.1918 31.7414 34.1918 30.8329C34.1918 30.2998 33.9461 29.7111 32.319 29.4793C32.8243 29.2939 33.4594 29.1919 33.9878 29.1919C34.9103 29.1919 35.4434 29.4793 35.5593 30.1283C35.7447 29.8409 35.8884 29.5118 35.8884 29.2058C35.8884 28.5012 35.2997 28.0423 34.5487 28.0423C33.6726 28.0423 32.8938 28.5012 32.0594 29.0621C32.4349 28.2833 32.6945 27.8244 33.1534 27.8244C33.223 27.8244 33.2971 27.8383 33.3667 27.8522C33.2044 27.2311 32.5554 26.6146 32.2078 26.6146ZM23.0249 17.6449C23.0249 17.9323 21.9309 18.8964 21.5415 18.8964C21.3978 18.8964 21.3561 18.7249 21.3561 18.5673C21.3561 18.2799 21.4859 17.8766 21.6435 17.7468C21.8289 17.5753 22.2646 17.4873 22.5937 17.4873C22.7931 17.4873 23.0249 17.529 23.0249 17.6449ZM56.47 36.9935C57.1885 36.9935 57.7633 37.9298 57.7633 39.0238C57.7633 40.1873 57.2163 41.4574 56.2382 42.3196C56.2243 40.3774 53.8463 40.9939 53.8463 39.5847C53.8463 38.9821 54.2774 38.5788 54.7966 38.5788C55.2555 38.5788 55.6171 38.7086 55.8767 38.9682C55.6171 38.7225 55.4873 38.3795 55.4873 38.0457C55.4873 37.4987 55.8349 36.9935 56.47 36.9935ZM45.7852 22.2665C45.6693 22.0764 45.2382 21.9791 45.0342 21.9791C44.3992 21.9791 43.9681 22.4241 43.8846 22.8274C43.829 22.6837 43.7826 22.5121 43.7826 22.336C43.7826 21.7009 44.2137 20.9268 45.266 20.9268C46.1885 20.9268 46.5454 21.4135 46.6752 21.4135C46.8189 21.4135 46.9626 21.2698 47.0785 21.2698C47.2361 21.2698 47.2361 21.5155 47.2361 21.687C47.2361 22.2618 46.9765 23.2538 46.3275 23.6154C46.2116 23.3697 45.9799 23.0962 45.609 22.9247C45.507 22.883 45.4653 22.7949 45.4653 22.7115C45.47 22.5539 45.6137 22.3545 45.7852 22.2665ZM43.6111 23.3187C43.9866 23.6803 44.3157 23.8379 44.719 23.8379C44.8766 23.8379 45.0667 23.7962 45.164 23.7962C45.2938 23.7962 45.3819 23.8518 45.3819 23.9538C45.3819 24.1114 45.2382 24.371 45.0667 24.5147C45.2382 24.5888 45.4282 24.6167 45.6276 24.6167C46.448 24.6167 47.3844 24.0975 47.3844 22.8042C47.5559 23.036 47.6579 23.5088 47.6579 23.7266C47.6579 25.2934 46.5037 25.9007 45.4421 25.9007C44.7515 25.9007 44.4038 25.6689 44.3204 25.6689C44.0469 25.6689 44.0608 26.2159 43.8753 26.202C43.5416 26.1464 43.2403 25.4093 43.2403 24.6306C43.2356 24.167 43.3515 23.6757 43.6111 23.3187ZM33.6077 19.1282C33.6077 19.6335 35.4063 22.0949 35.7539 22.0949C36.0413 22.0949 36.2592 21.5897 36.2592 21.1586C36.2592 21.0427 36.2314 20.9314 36.1711 20.8434C35.9116 20.4818 34.0852 19.0448 33.6819 19.0448C33.6355 19.0401 33.6077 19.0865 33.6077 19.1282ZM54.3794 17.9462C54.3794 16.9264 51.9318 16.6668 51.9318 16.435C51.9318 16.2496 53.2993 15.9297 54.0039 15.9158C52.9238 14.5344 51.3849 14.6781 51.3849 14.4325C51.3849 14.2888 52.5345 14.0014 53.6006 14.0014C54.4906 14.0014 55.3297 14.2053 55.3297 14.8821C55.3297 15.2576 55.0284 15.647 55.0284 16.2218C55.0284 16.537 55.186 16.8105 55.6032 16.8105C56.0482 16.8105 56.1502 16.333 56.1502 15.8324C56.1502 15.4152 56.076 15.1 56.076 14.896C56.076 14.2888 56.4932 13.8901 57.0819 13.8901C57.5733 13.8901 57.6845 14.1033 58.4076 14.1033C58.0183 14.3351 57.8746 14.7523 57.8746 14.9516C57.8746 15.5589 58.2639 15.9761 58.2639 17.2138C58.2639 19.4898 56.1316 20.2964 53.5265 20.2964C52.808 20.2964 52.0431 20.2407 51.2968 20.1249C51.1809 20.1109 51.1531 20.0831 51.1531 20.009C51.1531 19.8235 52.1775 19.7216 52.1775 18.7991C52.1775 18.4375 52.0616 18.0945 52.0616 17.9647C52.0616 17.8905 52.1173 17.8488 52.1775 17.8488C52.3954 17.8488 52.8265 18.6832 53.6284 18.6832C53.8463 18.6832 54.3794 18.609 54.3794 17.9462ZM56.813 16.4906C56.813 17.7747 55.8813 18.7527 54.194 19.0262C54.3794 19.0401 54.5555 19.0401 54.7271 19.0401C56.6971 19.0401 57.4203 18.1455 57.4203 17.3992C57.4203 16.982 57.1885 16.6065 56.813 16.4906ZM55.4456 28.0701C55.4456 27.7688 54.6807 27.741 54.6112 26.8881C54.5973 26.7583 54.5555 26.5265 54.3933 26.5265C54.1337 26.5265 54.3377 27.3192 54.0456 27.3192C53.3828 27.3192 53.1649 26.0259 52.9238 26.0259C52.8682 26.0259 52.7941 26.0676 52.7941 26.2437C52.7941 26.4013 52.8219 26.5033 52.8219 26.6887C52.8219 26.8741 52.7801 27.0039 52.6086 27.0039C52.2193 27.0039 51.8762 26.0954 51.5425 26.0954C51.4683 26.0954 51.3988 26.1371 51.3988 26.2113C51.3988 26.3828 51.6862 26.7026 51.6862 26.8602C51.6862 27.2079 50.7498 27.0178 50.7498 27.3053C50.7498 27.435 50.8796 27.4768 51.0511 27.4768C51.3524 27.4768 51.8299 27.347 52.0709 27.347C52.2146 27.347 52.4325 27.3748 52.4325 27.5648C52.4325 27.7688 51.9133 28.0238 51.9133 28.2138C51.9133 28.3019 52.0014 28.3436 52.0709 28.3436C52.4603 28.3436 53.151 27.6668 53.6377 27.6668C53.7258 27.6668 53.939 27.7085 53.939 27.8383C53.939 28.0238 53.4477 28.3575 53.4477 28.631C53.4477 28.7052 53.4894 28.7886 53.5775 28.7886C53.837 28.7886 54.1801 28.1118 54.6714 28.1118C54.8568 28.1118 55.135 28.186 55.274 28.186C55.4038 28.186 55.4456 28.1118 55.4456 28.0701ZM45.1362 17.084C45.1362 16.9264 44.5753 16.6204 44.5753 16.4489C44.5753 16.4211 44.6031 16.4072 44.6448 16.4072C44.8024 16.4072 45.0759 16.4628 45.2938 16.4628C45.4792 16.4628 45.5117 15.6562 45.6554 15.6562C45.7574 15.6562 45.9289 16.4165 46.0865 16.4165C46.2719 16.4165 46.6196 16.1986 46.7633 16.1986C46.7911 16.1986 46.8189 16.2125 46.8189 16.2403C46.8189 16.3423 46.4573 16.7317 46.4573 16.8429C46.4573 16.9727 47.2639 17.1303 47.2639 17.2462C47.2639 17.3899 46.4434 17.376 46.4434 17.5058C46.4434 17.6078 46.7447 18.0111 46.7447 18.1409C46.7447 18.1687 46.7308 18.1826 46.703 18.1826C46.5871 18.1826 46.1421 17.9786 46.0123 17.9786C45.8547 17.9786 45.5951 18.572 45.4653 18.572C45.4236 18.572 45.3912 18.5117 45.3912 18.4422L45.3633 17.8674C45.3633 17.8117 45.3355 17.7515 45.2614 17.7515C45.0898 17.7515 44.7561 17.7376 44.6587 17.7376C44.5892 17.7376 44.5568 17.7237 44.5568 17.6959C44.5614 17.5846 45.1362 17.1859 45.1362 17.084ZM47.9453 19.8189C46.9394 19.8189 46.2765 19.3136 46.2765 19.0541C46.2765 18.9243 46.3646 18.8408 46.4759 18.8408C46.7911 18.8408 47.4818 19.3276 47.7135 19.3276C47.7692 19.3276 47.8155 19.2997 47.8155 19.2117C47.8155 18.9521 47.5698 18.521 47.5698 18.3031C47.5698 18.2475 47.6116 18.2011 47.6996 18.2011C48.089 18.2011 48.6638 18.3587 48.9651 18.3587C49.0671 18.3587 49.0949 18.3031 49.0949 18.2428C49.0949 17.923 48.1586 17.3065 48.1586 17.1211C48.1586 16.9495 49.3221 16.6899 49.3221 16.4165C49.3221 16.1291 47.7367 16.3284 47.7367 16.0549C47.7367 15.8556 48.038 15.5079 48.038 15.3503C48.038 15.2761 47.9824 15.2483 47.8804 15.2483C47.7506 15.2483 47.0599 15.5218 46.7725 15.5218C46.6288 15.5218 46.4573 15.494 46.4573 15.29C46.4573 14.9609 47.0182 14.5993 47.899 14.5993C49.3221 14.5993 50.175 15.5774 50.175 17.2184C50.175 19.2997 48.7241 19.8189 47.9453 19.8189ZM38.1969 44.7255C38.1969 44.8553 38.1551 44.999 38.0392 45.1427C37.8816 44.8553 37.4366 44.7116 37.2327 44.7116C35.7493 44.7116 36.3102 46.8578 34.7249 46.8578C34.062 46.8578 34.0064 46.7697 33.7607 46.7697C33.6587 46.7697 33.6031 46.8114 33.6031 46.8995C33.6031 47.275 34.1362 48.1975 35.6195 48.1975C37.1029 48.1975 38.526 47.2889 38.526 46.1671C38.526 45.9817 38.4843 45.7777 38.3962 45.5784C38.4518 45.4903 38.6001 45.4347 38.7253 45.4347C38.9571 45.4347 39.0869 45.6943 39.3001 45.6943C39.5319 45.6943 39.7034 45.5228 39.7034 45.291C39.7034 45.1056 39.6014 44.9758 39.4299 44.8877C39.5458 44.8043 39.6339 44.6559 39.6339 44.4983C39.6339 44.2526 39.4623 44.0209 39.1749 44.0209C39.0452 44.0209 38.9571 44.0626 38.8597 44.1646C38.8319 43.905 38.6882 43.6593 38.4147 43.6593C38.2015 43.6593 38.0392 43.8169 38.0392 44.0626C38.0392 44.2944 38.1969 44.4798 38.1969 44.7255ZM34.3262 45.2725C33.8951 45.2725 33.2461 44.8089 33.2461 44.554C33.2461 44.3361 33.4501 44.2202 33.6077 44.2202C33.9693 44.2202 34.6136 44.6652 34.6136 45.0407C34.6136 45.1427 34.5441 45.2725 34.3262 45.2725ZM30.3072 42.0462C31.4615 42.3336 32.0363 42.9547 32.1522 43.6871C32.268 44.3917 32.4117 44.9712 32.6852 45.2586C33.0468 45.6618 33.7514 46.0188 34.3679 46.0188C34.8871 46.0188 35.3043 45.8473 35.3043 45.3744C35.3043 44.8553 34.5997 43.6871 33.5613 43.6871C33.4594 43.6871 33.3296 43.701 33.1859 43.701C33.0561 43.701 32.8707 43.6732 32.7548 43.5712C32.523 43.3719 32.4535 42.2918 32.0224 41.6429C31.5495 40.9244 31.0304 40.7204 30.3258 40.7204C29.8205 40.7204 29.2596 40.9939 29.2596 41.3972C29.2596 41.6429 29.3894 41.8144 30.3072 42.0462ZM37.5386 40.2893C37.5386 39.6403 36.199 39.6264 36.199 38.6483C36.199 38.4026 36.3566 37.9855 36.6764 37.5404C36.8062 38.2914 37.1075 38.6808 37.7565 38.9218C39.0359 39.3946 39.212 40.1178 39.212 40.878C39.212 42.1713 38.3035 43.7845 35.9718 43.7845C34.0991 43.7845 32.7594 42.1157 32.7594 40.7019C32.7594 40.3125 32.8614 39.8814 33.1071 39.8814C33.3249 39.8814 33.3945 40.0529 33.566 40.229C34.215 40.878 34.9196 41.0495 35.9394 41.0495C36.8618 41.0542 37.5386 40.6787 37.5386 40.2893ZM37.5942 41.3276C37.089 41.527 36.9035 41.5131 36.9035 42.0183C36.9035 42.2038 36.8618 42.4494 36.8618 42.5792C36.8618 42.7507 36.8896 42.8527 37.0936 42.8527C37.6128 42.8527 38.4333 41.9766 38.4333 41.2257C38.4333 41.0217 38.3174 40.9383 38.1876 40.9383C38.0717 40.9383 37.9419 41.17 37.5942 41.3276ZM33.0005 34.0545C33.0005 33.1321 35.1884 32.6454 35.1884 31.505C35.1884 31.3196 35.1142 30.9858 34.9844 30.7402C35.7493 31.1574 36.3102 31.8619 36.3102 32.4368C36.3102 33.4288 35.2719 33.8923 35.2719 34.5088C35.2719 35.2273 36.3797 35.3432 36.3797 36.2379C36.3797 36.9703 35.3275 37.8232 35.3275 38.7735C35.3275 39.5059 35.8467 40.1131 36.6393 40.2151C36.3797 40.2708 36.148 40.3171 35.9069 40.3171C34.4514 40.3171 32.9541 39.1211 32.9541 37.698C32.9541 36.9935 33.2554 36.3723 33.719 35.9273C34.1222 36.2749 34.5255 36.5021 34.7851 36.5021C35.0169 36.5021 35.1189 36.3862 35.1189 36.2147C35.1189 35.6816 33.0005 35.1949 33.0005 34.0545Z" fill="#232F84"/>
<path d="M35.97 64.8577C36.3779 64.8577 37.0779 64.7233 37.6249 63.8425C37.3096 63.1472 37.0871 61.7334 37.0547 61.2188C36.8925 58.5905 37.9076 56.1151 39.0155 56.0502C39.8267 55.9992 40.4803 56.7687 40.5545 58.0157C40.7538 61.293 39.6645 62.6605 39.1175 63.8425C39.2102 64.3014 39.9843 65.0802 40.7167 65.0802C40.9856 65.0802 41.3147 64.9458 41.3935 64.8345C41.3379 64.6445 41.2823 64.4034 41.2823 64.0465C41.2823 62.1506 42.506 60.5467 43.5629 60.5467C44.4066 60.5467 44.8933 61.6592 44.8933 62.3962C44.8933 63.2631 44.1609 63.9677 43.0762 64.6491C43.2663 64.8392 43.6186 64.9736 43.9199 64.9736C45.4681 64.9736 46.2793 63.1008 46.8773 61.3903C46.9839 61.0659 47.1786 60.6023 47.5541 60.6023C48.2077 60.6023 48.4766 64.8901 49.5613 64.8901C50.0248 64.8901 50.4003 63.9399 50.4003 63.2121C50.4003 62.6697 50.2103 62.6141 50.2103 61.8261C50.2103 60.9592 50.6738 60.2268 51.295 60.2268C51.6751 60.2268 51.8095 60.6069 51.8095 61.0659C51.8095 62.8042 50.5625 66.0305 48.7176 66.0305C47.3316 66.0305 47.4382 63.6386 46.9561 63.6386C46.4138 63.6386 45.6536 66.0583 42.965 66.0583C42.5292 66.0583 42.0703 65.8404 41.6902 65.4047C41.0366 65.8404 40.4942 66.0305 39.8684 66.0305C38.8672 66.0305 38.4314 64.9968 38.0235 64.9968C37.5321 64.9968 36.9944 66.0583 35.3627 66.0583C34.0602 66.0583 33.8423 64.32 33.3834 64.32C32.9754 64.32 32.3497 66.0583 31.6729 66.0583C30.5325 66.0583 30.2869 63.0452 29.2856 63.0452C28.4976 63.0452 26.0129 66.1046 25.3361 66.0351C25.0626 66.0073 24.9514 65.8033 24.9792 65.5298C25.0163 65.1544 25.3408 64.1485 25.4706 63.6756C25.6884 62.8505 25.8924 61.9466 26.0037 61.6592C26.1149 61.3672 26.4162 61.1632 26.6573 61.1817C26.7778 61.1956 26.8149 61.4182 26.8519 61.6082C26.9864 62.2804 27.1811 62.9664 27.3943 62.9664C27.7744 62.9664 29.0353 60.5513 29.7677 60.5513C30.6623 60.5513 30.7736 64.3524 31.9927 64.3524C32.4006 64.3524 32.702 63.8657 32.9708 63.2677C32.9986 62.2618 33.2675 60.8248 34.0833 60.8248C34.6535 60.8248 34.927 62.0996 34.5191 63.2121C34.533 64.5286 35.3998 64.8577 35.97 64.8577ZM56.2086 62.3082C56.2086 61.6314 55.5874 60.6811 54.665 60.6811C53.4458 60.6811 52.2499 62.0115 52.2499 63.8564C52.2499 65.5113 53.279 66.0537 54.308 66.0537C56.0973 66.0537 57.1867 64.5842 57.7522 63.3651C58.0257 64.1809 58.1833 66.0537 58.8647 66.0537C59.1336 66.0537 59.3283 65.9192 59.6528 65.1822C60.464 63.3651 61.252 61.2744 62.3367 61.2744C62.7446 61.2744 62.499 62.0069 63.4771 62.0069C63.9406 62.0069 64.2651 61.6267 64.2651 61.191C64.2651 60.5652 63.6949 60.0785 62.8281 60.0785C60.2786 60.0785 59.7362 63.9074 59.3283 63.9074C58.6515 63.9074 58.8647 60.8433 58.378 60.8433C57.9423 60.8433 57.7244 61.3579 57.6734 61.6036C57.3211 63.0128 56.3198 65.0524 54.7994 65.0524C54.4471 65.0524 53.8213 64.918 53.8213 64.561C53.8213 64.1763 56.2086 64.1253 56.2086 62.3082ZM39.6737 58.7435C39.6274 57.9879 39.442 57.6449 39.0387 57.6727C38.4963 57.7051 38.2507 59.4063 38.3573 61.191C38.4268 62.3592 38.6029 62.5353 38.7652 62.526C39.0619 62.5075 39.7804 60.4262 39.6737 58.7435ZM35.2608 57.1535C35.2329 56.7177 34.8806 56.4211 34.4217 56.4211C33.9072 56.4211 33.4158 56.9634 33.4714 57.6402C33.4714 58.0481 33.7681 58.4561 34.2873 58.4561C34.8853 58.4561 35.3164 57.7793 35.2608 57.1535ZM43.702 62.6883C43.702 62.2294 43.4563 61.8446 43.1596 61.8446C42.914 61.8446 42.3438 62.1135 42.3438 62.985C42.3438 63.6617 42.5848 63.9862 42.6961 64.1253C43.4841 63.8796 43.702 63.2306 43.702 62.6883ZM54.308 61.7658C54.8782 61.7658 55.0404 62.4426 54.906 62.8505C54.7716 63.2584 54.2802 63.7174 53.52 63.8518C53.3624 63.4439 53.279 61.7658 54.308 61.7658ZM16.9922 62.1969C16.9644 61.0844 17.02 59.9719 17.4836 58.3958C17.7293 57.5568 17.9471 57.2555 18.7027 57.0932C19.3007 56.982 19.2451 57.6078 19.1107 58.3402C18.814 59.9672 18.6749 60.7553 18.7862 62.6002C18.8928 64.5518 19.7921 65.312 20.7655 65.312C22.2304 65.3398 22.884 64.1206 23.1528 62.3545C23.3707 60.9453 23.2038 60.2639 23.0694 59.8328C22.9906 59.5871 22.7727 59.0448 22.6893 58.6415C22.5827 57.6078 23.0694 57.121 23.4773 56.9866C23.964 56.8522 24.1587 57.0979 24.3441 57.6634C24.5898 58.5302 24.6176 59.6706 24.5342 61.2976C24.4276 63.5227 23.3151 66.2113 20.5477 66.1556C18.1604 66.1046 17.1035 64.5564 16.9922 62.1969Z" fill="#232F84"/>
</svg>
